<svg width="28" height="28" viewBox="0 0 28 28" fill="none" xmlns="http://www.w3.org/2000/svg">
<path fill-rule="evenodd" clip-rule="evenodd" d="M20.9062 3.87996C20.9062 2.10663 22.3462 0.666626 24.1195 0.666626C25.8928 0.666626 27.3328 2.10663 27.3328 3.87996C27.3328 5.65329 25.8928 7.09329 24.1195 7.09329C22.3462 7.09329 20.9062 5.65329 20.9062 3.87996ZM15.7727 17.679L19.626 12.707L19.5727 12.7337C19.786 12.4403 19.826 12.067 19.6793 11.7337C19.534 11.4003 19.2127 11.1737 18.8673 11.147C18.506 11.107 18.1474 11.267 17.9327 11.5603L14.7074 15.7337L11.0127 12.827C10.786 12.6537 10.5194 12.5857 10.2527 12.6137C9.98735 12.6537 9.74735 12.799 9.58602 13.0123L5.64069 18.147L5.55935 18.267C5.33269 18.6923 5.43935 19.239 5.83935 19.5337C6.02602 19.6537 6.22602 19.7337 6.45269 19.7337C6.76069 19.747 7.05269 19.5857 7.23935 19.3337L10.586 15.0257L14.386 17.8803L14.506 17.959C14.9327 18.1857 15.466 18.0803 15.7727 17.679ZM18.5993 3.04035C18.546 3.37368 18.5194 3.70702 18.5194 4.04035C18.5194 7.04035 20.946 9.46568 23.9327 9.46568C24.266 9.46568 24.586 9.42702 24.9193 9.37368V20.1324C24.9193 24.6537 22.2527 27.3337 17.7193 27.3337H7.86735C3.33268 27.3337 0.666016 24.6537 0.666016 20.1324V10.267C0.666016 5.73368 3.33268 3.04035 7.86735 3.04035H18.5993Z" fill="#E4322B"/>
</svg>
