<svg width="28" height="28" viewBox="0 0 28 28" fill="none" xmlns="http://www.w3.org/2000/svg">
<path fill-rule="evenodd" clip-rule="evenodd" d="M20.9062 24.1204C20.9062 25.8937 22.3462 27.3337 24.1195 27.3337C25.8928 27.3337 27.3328 25.8937 27.3328 24.1204C27.3328 22.3471 25.8928 20.9071 24.1195 20.9071C22.3462 20.9071 20.9062 22.3471 20.9062 24.1204ZM15.7727 10.3214L19.626 15.2934L19.5727 15.2667C19.786 15.56 19.826 15.9334 19.6793 16.2667C19.534 16.6 19.2127 16.8267 18.8673 16.8534C18.506 16.8934 18.1474 16.7334 17.9327 16.44L14.7074 12.2667L11.0127 15.1734C10.786 15.3467 10.5194 15.4147 10.2527 15.3867C9.98735 15.3467 9.74735 15.2014 9.58602 14.988L5.64069 9.85335L5.55935 9.73335C5.33269 9.30802 5.43935 8.76135 5.83935 8.46669C6.02602 8.34669 6.22602 8.26669 6.45269 8.26669C6.76069 8.25335 7.05269 8.41469 7.23935 8.66669L10.586 12.9747L14.386 10.12L14.506 10.0414C14.9327 9.81469 15.466 9.92002 15.7727 10.3214ZM18.5993 24.96C18.546 24.6267 18.5194 24.2933 18.5194 23.96C18.5194 20.96 20.946 18.5347 23.9327 18.5347C24.266 18.5347 24.586 18.5733 24.9193 18.6267V7.86802C24.9193 3.34668 22.2527 0.666683 17.7193 0.666683H7.86735C3.33268 0.666683 0.666016 3.34668 0.666016 7.86802V17.7333C0.666016 22.2667 3.33268 24.96 7.86735 24.96H18.5993Z" fill="#E4322B"/>
</svg>
