<svg width="170" height="170" viewBox="0 0 170 170" fill="none" xmlns="http://www.w3.org/2000/svg">
<path d="M130.542 110.666C125.526 119.716 117.941 127.076 108.745 131.817C99.549 136.557 89.1546 138.466 78.8748 137.301C68.595 136.136 58.8909 131.95 50.9882 125.272C43.0855 118.594 37.3388 109.723 34.474 99.7803C31.6092 89.8373 31.7547 79.2681 34.8922 69.4078C38.0297 59.5475 44.0184 50.8383 52.1019 44.3804C60.1854 37.9225 70.0011 34.0056 80.3091 33.1243C90.6171 32.2431 100.955 34.437 110.017 39.4291C116.048 42.7516 121.365 47.2317 125.662 52.6127C129.959 57.9937 133.152 64.1699 135.059 70.7875C136.966 77.405 137.548 84.3337 136.773 91.1768C135.998 98.0199 133.881 104.643 130.542 110.666Z" fill="#333333"/>
<path d="M159.076 126.679C150.835 141.325 138.436 153.198 123.449 160.798C108.461 168.398 91.5571 171.382 74.8739 169.374C58.1907 167.366 42.4773 160.456 29.72 149.517C16.9627 138.579 7.73425 124.102 3.2014 107.918C-1.33146 91.7346 -0.965268 74.5699 4.25369 58.5942C9.47264 42.6185 19.31 28.5491 32.5223 18.1646C45.7345 7.78007 61.7284 1.54669 78.482 0.25243C95.2356 -1.04183 111.997 2.66115 126.647 10.8933C136.38 16.3628 144.941 23.6973 151.839 32.4776C158.737 41.2578 163.838 51.3116 166.85 62.0645C169.862 72.8173 170.725 84.0584 169.391 95.1452C168.058 106.232 164.553 116.947 159.076 126.679Z" fill="#282828"/>
<g opacity="0.25">
<path opacity="0.25" d="M126.647 10.8933C111.997 2.66116 95.2356 -1.04183 78.482 0.25243C61.7284 1.54669 45.7345 7.78007 32.5223 18.1646C19.31 28.5491 9.47264 42.6185 4.25369 58.5942C-0.965268 74.5699 -1.33146 91.7346 3.20139 107.918C7.73425 124.102 16.9627 138.579 29.72 149.517C42.4773 160.456 56.4854 167.161 74.8739 169.374C91.5571 171.382 108.684 168.554 123.671 160.955C138.659 153.355 150.835 141.325 159.076 126.679C170.081 107.013 172.846 83.7879 166.768 62.0873C160.69 40.3868 146.264 21.9788 126.647 10.8933ZM44.5457 155.83C30.3281 147.907 18.7856 135.936 11.3844 121.438C3.9832 106.94 1.05731 90.5683 2.97834 74.4033C4.89937 58.2383 11.5806 43.0091 22.1735 30.65C32.7664 18.291 46.7928 9.35987 62.4713 4.99101C78.1498 0.62215 94.7727 1.01273 110.229 6.11313C125.685 11.2135 139.277 20.7936 149.277 33.6365C159.278 46.4794 165.237 62.0056 166.397 78.243C167.557 94.4804 163.866 110.696 155.792 124.831C145.07 143.445 127.483 157.115 106.801 162.91C86.1198 168.705 64.2295 166.584 45.3998 156.251L44.5457 155.83Z" fill="url(#paint0_linear)"/>
</g>
<path d="M134.376 113.951C128.74 123.835 120.297 131.824 110.117 136.905C99.9374 141.985 88.4788 143.929 77.1933 142.49C65.9079 141.051 55.3036 136.293 46.7242 128.82C38.1447 121.347 31.9763 111.495 29.0005 100.512C26.0247 89.5287 26.3755 77.9094 30.0084 67.1261C33.6412 56.3427 40.3927 46.8807 49.4073 39.939C58.4219 32.9972 69.2939 28.8882 80.6456 28.1325C91.9972 27.3769 103.318 30.0086 113.173 35.6943C119.709 39.4334 125.444 44.4255 130.049 50.3847C134.653 56.344 138.037 63.1532 140.007 70.4225C141.976 77.6919 142.493 85.2784 141.527 92.7477C140.561 100.217 138.131 107.422 134.376 113.951V113.951Z" stroke="white" stroke-linecap="round" stroke-linejoin="round" stroke-dasharray="10 20"/>
<mask id="mask0" mask-type="alpha" maskUnits="userSpaceOnUse" x="35" y="35" width="100" height="100">
<path d="M128.37 109.742C123.47 118.337 116.128 125.284 107.276 129.702C98.4238 134.12 88.4598 135.81 78.6464 134.559C68.833 133.307 59.6118 129.17 52.1515 122.672C44.6911 116.173 39.3272 107.606 36.7396 98.0558C34.1519 88.5054 34.4569 78.4017 37.616 69.0249C40.775 59.6481 46.6459 51.4202 54.4846 45.3839C62.3234 39.3476 71.7773 35.7745 81.6483 35.1174C91.5193 34.4603 101.363 36.7488 109.933 41.6929C115.617 44.9443 120.603 49.2852 124.607 54.4672C128.611 59.6491 131.554 65.5702 133.267 71.8914C134.98 78.2125 135.429 84.8095 134.588 91.3045C133.748 97.7995 131.635 104.065 128.37 109.742Z" fill="#C6140D"/>
</mask>
<g mask="url(#mask0)">
<path d="M65.4531 135.769V110.438L46.5505 124.389C51.8726 129.345 58.2958 133.2 65.4531 135.769Z" fill="#2A5F9E"/>
<path d="M102.158 135.769C109.316 133.2 115.739 129.345 121.061 124.389L102.158 110.255V135.769Z" fill="#2A5F9E"/>
<path d="M31.8691 102.179C32.4197 104.014 33.1538 105.666 34.0714 107.502L41.2287 102.179H31.8691Z" fill="#2A5F9E"/>
<path d="M126.382 102.179L133.539 107.502C134.273 105.85 135.007 104.014 135.741 102.179H126.382Z" fill="#2A5F9E"/>
<path d="M68.2064 94.8362H29.8506C30.4011 97.406 31.1352 99.7922 31.8693 102.178H41.2289L34.0716 107.502C35.5397 110.622 37.1914 113.375 39.2101 116.129L58.1127 102.178H65.4536V105.85L43.9817 121.636L46.551 124.205L65.4536 110.439V135.769C67.8393 136.687 70.2251 137.238 72.7944 137.789V94.8362H68.2064Z" fill="white"/>
<path d="M137.761 94.8362H94.8169V137.789C97.3862 137.238 99.7719 136.504 102.158 135.769V110.439L121.06 124.205C123.63 121.819 125.832 119.249 128.034 116.496L108.397 102.178H120.877L132.072 110.439C132.622 109.521 133.173 108.419 133.54 107.502L126.382 102.178H135.742C136.476 99.7922 137.21 97.406 137.761 94.8362Z" fill="white"/>
<path d="M39.2097 116.129C40.6779 118.148 42.146 119.983 43.7977 121.819L65.4531 106.033V102.362H58.1123L39.2097 116.129Z" fill="#E4322B"/>
<path d="M108.581 102.178L128.218 116.496C128.952 115.578 129.502 114.66 130.236 113.743C130.42 113.559 130.42 113.375 130.603 113.375C131.154 112.458 131.888 111.356 132.438 110.439L120.877 102.178H108.581Z" fill="#E4322B"/>
<path d="M102.158 31.8755V57.2064L121.06 43.256C115.738 38.3 109.315 34.4453 102.158 31.8755Z" fill="#2A5F9E"/>
<path d="M65.4527 31.8755C58.2954 34.4453 51.8721 38.3 46.55 43.256L65.4527 57.3899V31.8755Z" fill="#2A5F9E"/>
<path d="M135.741 65.467C135.191 63.6314 134.456 61.9794 133.539 60.1438L126.382 65.467H135.741Z" fill="#2A5F9E"/>
<path d="M41.2277 65.467L34.0704 60.1438C33.3363 61.9794 32.6022 63.6314 31.8682 65.467H41.2277Z" fill="#2A5F9E"/>
<path d="M99.4049 72.8091H137.577C137.027 70.2393 136.293 67.853 135.558 65.4668H126.199L133.356 60.1436C131.888 57.0232 130.236 54.2698 128.218 51.5164L109.499 65.4668H102.158V61.7956L123.63 46.0097L121.06 43.4399L102.158 57.2067V31.8758C99.7719 30.958 97.3862 30.4074 94.8169 29.8567V72.8091H99.4049Z" fill="white"/>
<path d="M29.8506 72.8091H72.7944V29.8567C70.2251 30.4074 67.8393 31.1416 65.4536 31.8758V57.2067L46.551 43.4399C43.9817 45.8262 41.7794 48.396 39.5772 51.1493L59.2139 65.4668H46.7345L35.5397 57.2067C34.9892 58.1245 34.4386 59.2258 34.0716 60.1436L41.2289 65.4668H31.8693C31.1352 67.853 30.4011 70.2393 29.8506 72.8091Z" fill="white"/>
<path d="M128.402 51.5167C126.933 49.4976 125.465 47.662 123.814 45.8264L102.158 61.6123V65.2835H109.499L128.402 51.5167Z" fill="#E4322B"/>
<path d="M59.0303 65.4674L39.5772 51.1499C38.8431 52.0677 38.2925 52.9855 37.5584 53.9033C37.3749 54.0868 37.3749 54.2704 37.1914 54.2704C36.6408 55.1882 35.9068 56.2895 35.3562 57.2073L46.551 65.4674H59.0303Z" fill="#E4322B"/>
<path d="M137.761 72.8093H94.8171V29.857C91.3302 29.1227 87.6598 28.7556 83.8059 28.7556C79.952 28.7556 76.2816 29.1227 72.7947 29.857V72.8093H29.8509C29.1168 76.2969 28.7498 79.9681 28.7498 83.8228C28.7498 87.6775 29.1168 91.3486 29.8509 94.8362H72.7947V137.789C76.2816 138.523 79.952 138.89 83.8059 138.89C87.6598 138.89 91.3302 138.523 94.8171 137.789V94.8362H137.761C138.495 91.3486 138.862 87.6775 138.862 83.8228C138.862 79.9681 138.495 76.2969 137.761 72.8093Z" fill="#E4322B"/>
</g>
<path fill-rule="evenodd" clip-rule="evenodd" d="M98.6948 22.1651C111.49 24.7397 122.97 30.9504 132.011 39.6732L142.858 22.1846C137.942 17.764 132.495 13.9712 126.644 10.8935C121.036 7.66712 115.034 5.18283 108.787 3.50293L98.6948 22.1651Z" fill="white"/>
<path fill-rule="evenodd" clip-rule="evenodd" d="M69.2028 150.759C56.3987 147.735 45.0098 141.047 36.2033 131.863C36.1094 131.846 36.0154 131.829 35.9213 131.812L26.9197 147.179C31.6826 151.513 36.7684 155.433 42.3724 158.603C47.9797 161.83 54.0992 164.827 60.3463 166.507L69.2028 150.759Z" fill="white"/>
<path fill-rule="evenodd" clip-rule="evenodd" d="M101.315 150.652L110.222 166.094C116.407 164.147 122.495 161.974 128.034 158.603C133.665 155.408 138.902 151.414 143.487 146.843L134.334 131.373C125.566 140.701 114.164 147.524 101.315 150.652Z" fill="white"/>
<path fill-rule="evenodd" clip-rule="evenodd" d="M149.239 104.095C150.962 98.1474 151.886 91.8595 151.886 85.3558C151.886 78.6414 150.901 72.157 149.069 66.0392C149.119 65.9278 149.169 65.8166 149.22 65.7056H167.693C169.176 71.9619 169.933 78.3682 169.951 84.7978C170.069 91.2796 169.45 97.7539 168.104 104.095H149.239Z" fill="white"/>
<path fill-rule="evenodd" clip-rule="evenodd" d="M20.5503 67.6198C20.5428 67.5982 20.5353 67.5766 20.5277 67.5549H2.055C0.641726 73.8888 -0.0468723 80.3629 0.00247548 86.8525C0.189195 93.2825 1.01426 99.678 2.4655 105.945H21.3977C19.3119 99.4563 18.1855 92.5376 18.1855 85.3558C18.1855 79.2167 19.0086 73.2699 20.5503 67.6198Z" fill="white"/>
<path fill-rule="evenodd" clip-rule="evenodd" d="M36.6854 39.0472C45.2748 30.016 56.3499 23.3721 68.8138 20.2125C67.4011 17.8112 65.9266 15.263 64.452 12.7148C62.7075 9.70003 60.963 6.68528 59.321 3.91382C53.1664 5.94008 47.2483 8.62442 41.6693 11.9203C36.1076 15.2193 30.9425 19.1456 26.2754 23.622L36.6854 39.0472Z" fill="white"/>
<defs>
<linearGradient id="paint0_linear" x1="146.761" y1="35.1179" x2="23.5906" y2="134.661" gradientUnits="userSpaceOnUse">
<stop stop-color="white"/>
<stop offset="1"/>
</linearGradient>
</defs>
</svg>
