<svg width="33" height="32" viewBox="0 0 33 32" fill="none" xmlns="http://www.w3.org/2000/svg">
<path fill-rule="evenodd" clip-rule="evenodd" d="M16.5 32C25.3366 32 32.5 24.8366 32.5 16C32.5 7.16344 25.3366 0 16.5 0C7.66344 0 0.5 7.16344 0.5 16C0.5 24.8366 7.66344 32 16.5 32ZM13.5641 8.08727L15.8333 9.29785V14.6667H8.7C8.58954 14.6667 8.5 14.5771 8.5 14.4667V12.2C8.5 12.0895 8.58954 12 8.7 12H13.0274L11.5994 11.2381C11.4967 11.1833 11.4623 11.0527 11.5247 10.9544L13.3011 8.15653C13.3572 8.06823 13.4718 8.03804 13.5641 8.08727ZM21.6224 11.4215C21.7251 11.3667 21.7595 11.2361 21.6971 11.1379L19.8043 8.15654C19.7482 8.06824 19.6336 8.03805 19.5413 8.08728L17.1667 9.35417L17.1667 14.6667L24.3 14.6667C24.4105 14.6667 24.5 14.5771 24.5 14.4667V12.2C24.5 12.0895 24.4105 12 24.3 12L20.5382 12L21.6224 11.4215ZM9.95455 16L9.95455 23.8C9.95455 23.9105 10.0441 24 10.1545 24L15.8333 24L15.8333 16H9.95455ZM22.8455 24H17.1667V16L23.0455 16V23.8C23.0455 23.9105 22.9559 24 22.8455 24Z" fill="white"/>
</svg>
