<svg width="145" height="52" viewBox="0 0 145 52" fill="none" xmlns="http://www.w3.org/2000/svg">
<g clip-path="url(#clip0)">
<path d="M54.7023 22.7107C54.4918 22.8784 54.0973 23.1048 53.5187 23.3899C52.9576 23.6751 52.2649 23.9266 51.4408 24.1447C50.6167 24.3627 49.7049 24.4633 48.7054 24.4465C47.1799 24.413 45.8122 24.153 44.6023 23.6667C43.41 23.1635 42.3929 22.4843 41.5513 21.6289C40.7272 20.7736 40.0959 19.7925 39.6575 18.6855C39.2192 17.5786 39 16.3962 39 15.1384C39 13.26 39.3945 11.5996 40.1836 10.1572C40.9726 8.71488 42.0686 7.58281 43.4713 6.76101C44.8916 5.9392 46.5399 5.5283 48.4161 5.5283C49.7137 5.5283 50.8622 5.69602 51.8616 6.03145C52.8611 6.36688 53.6765 6.72746 54.3077 7.11321L52.8085 10.5597C52.3701 10.2411 51.7827 9.91405 51.0463 9.57862C50.3274 9.22642 49.4945 9.05031 48.5476 9.05031C47.5657 9.05031 46.6451 9.31027 45.7859 9.83019C44.9442 10.3501 44.2604 11.0545 43.7343 11.9434C43.2258 12.8155 42.9716 13.8134 42.9716 14.9371C42.9716 16.1279 43.2083 17.1761 43.6817 18.0818C44.1552 18.9706 44.8303 19.6667 45.707 20.1698C46.5837 20.673 47.6095 20.9245 48.7843 20.9245C49.8189 20.9245 50.7044 20.7652 51.4408 20.4465C52.1773 20.1279 52.7384 19.7925 53.1241 19.4403L54.7023 22.7107Z" fill="white"/>
<path d="M56.34 24.2453L65.0722 5H65.2826L74.0149 24.2453H69.5961L68.0969 20.6226H61.6792L60.1011 24.2453H56.34ZM63.0206 17.5535H66.8344L64.967 13.0503L63.0206 17.5535Z" fill="white"/>
<path d="M87.1734 10.2075C86.437 9.8218 85.683 9.50314 84.9115 9.25157C84.1575 9 83.4473 8.87421 82.781 8.87421C81.9569 8.87421 81.3081 9.03354 80.8347 9.3522C80.3612 9.67086 80.1245 10.1488 80.1245 10.7862C80.1245 11.2222 80.2999 11.6164 80.6505 11.9686C81.0188 12.304 81.4834 12.6059 82.0445 12.8742C82.6232 13.1426 83.2194 13.3857 83.8331 13.6038C84.5871 13.8721 85.3148 14.2159 86.0161 14.6352C86.7175 15.0377 87.2962 15.5996 87.7521 16.3208C88.208 17.0252 88.4359 17.9644 88.4359 19.1384C88.4359 20.0776 88.1817 20.9497 87.6732 21.7547C87.1647 22.5597 86.4194 23.2138 85.4375 23.717C84.4556 24.2034 83.2457 24.4465 81.8078 24.4465C80.7031 24.4465 79.5722 24.2872 78.4149 23.9686C77.2751 23.6499 76.1968 23.1467 75.1797 22.4591L76.8631 19.6164C77.5294 20.086 78.2921 20.4717 79.1513 20.7736C80.0105 21.0755 80.7821 21.2264 81.4659 21.2264C81.9218 21.2264 82.3777 21.1677 82.8336 21.0503C83.307 20.9161 83.6928 20.6981 83.9909 20.3962C84.3065 20.0943 84.4643 19.6751 84.4643 19.1384C84.4643 18.5849 84.1838 18.1069 83.6227 17.7044C83.0791 17.2851 82.4215 16.9329 81.65 16.6478C81.0538 16.4298 80.4401 16.1782 79.8089 15.8931C79.1776 15.608 78.5815 15.2642 78.0204 14.8616C77.4768 14.4423 77.0296 13.9308 76.679 13.327C76.3458 12.7065 76.1792 11.9518 76.1792 11.0629C76.1792 9.98952 76.4247 9.0587 76.9157 8.27044C77.4242 7.48218 78.1343 6.86163 79.0461 6.4088C79.9579 5.9392 81.01 5.67925 82.2024 5.62893C83.7629 5.62893 85.0254 5.80503 85.9898 6.15723C86.9718 6.50943 87.8485 6.92872 88.62 7.41509L87.1734 10.2075Z" fill="white"/>
<path d="M92.171 5.72956H95.9848V24.2453H92.171V5.72956Z" fill="white"/>
<path d="M118.314 25L104.769 13.3019L104.847 24.2453H100.981V5H101.139L114.658 16.8742L114.579 5.72956H118.419V25H118.314Z" fill="white"/>
<path d="M122.221 15.0126C122.221 13.7379 122.475 12.5304 122.984 11.3899C123.492 10.2495 124.194 9.24319 125.088 8.37107C126 7.48218 127.052 6.78616 128.244 6.28302C129.436 5.77987 130.716 5.5283 132.084 5.5283C133.434 5.5283 134.706 5.77987 135.898 6.28302C137.09 6.78616 138.142 7.48218 139.054 8.37107C139.984 9.24319 140.702 10.2495 141.211 11.3899C141.737 12.5304 142 13.7379 142 15.0126C142 16.3208 141.737 17.5451 141.211 18.6855C140.702 19.826 139.984 20.8323 139.054 21.7044C138.142 22.5597 137.09 23.2306 135.898 23.717C134.706 24.2034 133.434 24.4465 132.084 24.4465C130.716 24.4465 129.436 24.2034 128.244 23.717C127.052 23.2306 126 22.5597 125.088 21.7044C124.194 20.8323 123.492 19.826 122.984 18.6855C122.475 17.5451 122.221 16.3208 122.221 15.0126ZM126.166 15.0126C126.166 16.1027 126.429 17.1006 126.955 18.0063C127.499 18.8952 128.227 19.608 129.138 20.1447C130.05 20.6646 131.076 20.9245 132.216 20.9245C133.32 20.9245 134.311 20.6646 135.188 20.1447C136.082 19.608 136.783 18.8952 137.292 18.0063C137.8 17.1006 138.055 16.1027 138.055 15.0126C138.055 13.8889 137.792 12.8826 137.266 11.9937C136.74 11.0881 136.029 10.3753 135.135 9.85535C134.241 9.31866 133.233 9.05031 132.11 9.05031C130.988 9.05031 129.98 9.31866 129.086 9.85535C128.191 10.3753 127.481 11.0881 126.955 11.9937C126.429 12.8826 126.166 13.8889 126.166 15.0126Z" fill="white"/>
<path d="M46.1219 30.2057C48.1812 30.2057 49.8005 30.7113 50.9797 31.7226C52.159 32.7339 52.7486 34.1479 52.7486 35.9648C52.7486 36.7018 52.6342 37.4303 52.4054 38.1502C52.1766 38.853 51.807 39.4957 51.2966 40.0785C50.8037 40.6441 50.1525 41.1069 49.3429 41.4668C48.5332 41.8097 47.5476 41.9811 46.3859 41.9811H43.5609V48.7943H41V30.2057H46.1219ZM46.3859 39.5386C47.1251 39.5386 47.7412 39.4272 48.234 39.2043C48.7268 38.9644 49.114 38.6558 49.3957 38.2788C49.6949 37.9017 49.9061 37.516 50.0293 37.1218C50.1525 36.7104 50.2141 36.3419 50.2141 36.0162C50.2141 35.5192 50.0909 35.005 49.8445 34.4736C49.6157 33.9423 49.2285 33.4966 48.6828 33.1367C48.1548 32.7767 47.4332 32.5968 46.5179 32.5968H43.5609V39.5386H46.3859Z" fill="white"/>
<path d="M65.6253 30.2057C66.8926 30.2057 68.0367 30.4285 69.0575 30.8742C70.0784 31.3027 70.888 31.954 71.4865 32.8281C72.0849 33.6852 72.3841 34.7307 72.3841 35.9648C72.3841 37.0275 72.1377 38.0559 71.6449 39.0501C71.1696 40.0442 70.36 40.7984 69.2159 41.3126L74.021 48.7943H71.0376L66.523 41.9296C66.3294 41.9468 66.127 41.9553 65.9158 41.9553H63.0908V48.7943H60.5299V30.2057H65.6253ZM65.863 39.5386C66.8838 39.5386 67.667 39.3586 68.2127 38.9986C68.7759 38.6216 69.1719 38.1673 69.4007 37.636C69.6296 37.0875 69.744 36.5647 69.744 36.0677C69.744 35.5706 69.6208 35.0564 69.3743 34.525C69.1279 33.9937 68.7319 33.5395 68.1863 33.1624C67.6582 32.7853 66.9454 32.5968 66.0478 32.5968H63.0908V39.5386H65.863Z" fill="white"/>
<path d="M80.1866 39.5129C80.1866 38.2273 80.433 37.0104 80.9258 35.862C81.4362 34.7136 82.1403 33.7023 83.0379 32.8281C83.9356 31.954 84.9652 31.2684 86.1269 30.7713C87.3062 30.2571 88.5646 30 89.9023 30C91.24 30 92.4984 30.2571 93.6777 30.7713C94.8746 31.2684 95.9218 31.954 96.8195 32.8281C97.7171 33.7023 98.4212 34.7136 98.9316 35.862C99.442 37.0104 99.6972 38.2273 99.6972 39.5129C99.6972 40.8327 99.442 42.0668 98.9316 43.2152C98.4212 44.3464 97.7171 45.3491 96.8195 46.2233C95.9218 47.0974 94.8746 47.783 93.6777 48.2801C92.4984 48.76 91.24 49 89.9023 49C88.5646 49 87.3062 48.76 86.1269 48.2801C84.9652 47.8002 83.9356 47.1317 83.0379 46.2747C82.1403 45.4177 81.4362 44.415 80.9258 43.2666C80.433 42.101 80.1866 40.8498 80.1866 39.5129ZM82.8267 39.5386C82.8267 40.5156 83.0115 41.4326 83.3811 42.2896C83.7508 43.1295 84.2612 43.8751 84.9124 44.5264C85.5637 45.1777 86.3205 45.6834 87.1829 46.0433C88.0454 46.4032 88.9782 46.5832 89.9815 46.5832C91.3016 46.5832 92.4896 46.2747 93.5457 45.6576C94.6194 45.0235 95.473 44.175 96.1066 43.1123C96.7403 42.0325 97.0571 40.8327 97.0571 39.5129C97.0571 38.5359 96.8723 37.6189 96.5027 36.7618C96.133 35.8877 95.6226 35.1249 94.9714 34.4736C94.3201 33.8223 93.5633 33.3166 92.7009 32.9567C91.8384 32.5796 90.9144 32.3911 89.9287 32.3911C88.591 32.3911 87.3854 32.7167 86.3117 33.3681C85.238 34.0194 84.3844 34.885 83.7508 35.9648C83.1347 37.0447 82.8267 38.2359 82.8267 39.5386Z" fill="white"/>
<path d="M107.84 30.2057H119.166V32.5968H110.401V38.5101H118.084V40.9012H110.401V48.7943H107.84V30.2057Z" fill="white"/>
<path d="M132.284 42.5981L125.209 30.2057H128.377L133.631 39.77L138.858 30.2057H142L134.845 42.5981V48.7943H132.284V42.5981Z" fill="white"/>
<path d="M3.72748 28.3811C2.97585 28.6317 -1.09548 29.5087 0.282494 34.7918C1.66047 40.0748 5.23066 38.8428 5.23066 38.8428L3.72748 28.3811Z" fill="#EAB69B"/>
<path d="M3.91505 36.8799C3.91505 36.8799 3.81075 36.8799 3.62284 36.8799C3.36437 36.8361 3.11638 36.744 2.892 36.6084C2.55162 36.4201 2.25327 36.1643 2.01511 35.8567C1.88001 35.6651 1.76131 35.4626 1.6602 35.2511C1.56595 35.0152 1.49592 34.7703 1.45133 34.5202C1.39162 34.042 1.44162 33.5564 1.5975 33.1003C1.7224 32.73 1.92137 32.389 2.18218 32.098C2.34856 31.8977 2.5547 31.7341 2.78763 31.6177C2.93378 31.6177 3.03818 31.5133 3.05906 31.6177C3.07994 31.7221 2.74588 31.8683 2.41182 32.3694C2.21675 32.6574 2.06869 32.9746 1.97331 33.3091C1.87738 33.7142 1.87738 34.1361 1.97331 34.5411C2.01087 34.7567 2.074 34.967 2.16128 35.1676C2.23051 35.3584 2.3216 35.5406 2.43272 35.7105C2.63262 35.9942 2.87976 36.2414 3.16343 36.4414C3.53926 36.7337 3.93593 36.8172 3.91505 36.8799Z" fill="#D68772"/>
<path d="M4.29141 34.4577C4.29141 34.4577 4.12436 34.3324 3.89468 34.1654C3.61641 33.9453 3.26768 33.834 2.91339 33.8522C2.67487 33.8712 2.44502 33.9502 2.24522 34.0819C2.10351 34.1968 1.97088 34.3224 1.84849 34.4577L1.66064 34.3324C1.78592 34.2072 1.86943 34.1236 1.91119 34.1654C1.95295 34.2072 1.91119 34.2907 1.91119 34.4577H1.70232C1.78724 34.2458 1.9152 34.0538 2.07814 33.8939C2.31784 33.6832 2.61696 33.5519 2.93429 33.5181C3.19338 33.4991 3.45282 33.5496 3.68593 33.6642C3.86939 33.7564 4.03261 33.8841 4.16613 34.0401C4.31229 34.228 4.33316 34.4369 4.29141 34.4577Z" fill="#D68772"/>
<path d="M30.7235 27.5876C31.4751 27.8382 35.5672 28.7153 34.1892 34.0192C32.8113 39.3231 29.2411 38.0702 29.2411 38.0702L30.7235 27.5876Z" fill="#EAB69B"/>
<path d="M30.5352 36.0863C30.5352 36.0863 30.9111 35.9401 31.4121 35.606C31.6844 35.3917 31.9235 35.1384 32.1219 34.8543C32.2317 34.6875 32.3294 34.513 32.4143 34.3323C32.499 34.1323 32.5553 33.9214 32.5813 33.7058C32.6663 33.2925 32.6663 32.8662 32.5813 32.4529C32.486 32.1184 32.3379 31.8012 32.1428 31.5132C31.7879 31.0329 31.4539 30.8241 31.4956 30.7615C31.5374 30.6988 31.6 30.7615 31.767 30.7615C31.9916 30.8906 32.1956 31.0525 32.3725 31.2418C32.6333 31.5328 32.8322 31.8738 32.9571 32.2441C33.1172 32.7067 33.1602 33.2017 33.0824 33.6849C33.0477 33.9305 32.9773 34.1697 32.8735 34.3949C32.7885 34.6145 32.6687 34.819 32.5186 35.0005C32.2805 35.3136 31.9824 35.5763 31.6418 35.7731C31.4139 35.8969 31.1668 35.9816 30.911 36.0237C30.6395 36.1281 30.556 36.1072 30.5352 36.0863Z" fill="#D68772"/>
<path d="M30.1818 33.6015C30.1818 33.6015 30.1818 33.3509 30.3697 33.0794C30.4987 32.9188 30.6629 32.7902 30.8498 32.7036C31.0822 32.5869 31.3422 32.5363 31.6013 32.5574C31.914 32.5854 32.2081 32.7178 32.4364 32.9333C32.616 33.0698 32.7476 33.26 32.8122 33.4762L32.6243 33.6015C32.6243 33.4135 32.5199 33.3091 32.6243 33.2882C32.7286 33.2674 32.7704 33.2882 32.8957 33.4762L32.6869 33.5806C32.5754 33.4351 32.4416 33.3082 32.2903 33.2047C32.0955 33.0785 31.8739 32.9999 31.6431 32.975C31.2884 32.9529 30.9382 33.0647 30.6619 33.2882C30.3487 33.6015 30.2444 33.7059 30.1818 33.6015Z" fill="#D68772"/>
<path d="M27.1322 49.9936C22.9566 54.2952 8.02881 51.2465 5.96188 49.3254C3.89495 47.4043 2.74657 22.743 2.74657 22.743C1.89057 10.0052 9.19791 9.23256 16.1921 7.43673C23.1862 5.64091 30.7024 9.69196 31.3914 20.1746C31.3914 20.1746 30.4518 46.5064 27.1322 49.9936Z" fill="#FCCAB1"/>
<path d="M3.85242 38.1955C14.1662 38.4669 23.3526 37.6734 30.5973 35.105C30.5973 35.105 29.282 45.9217 28.9062 47.0911C28.092 49.6804 27.7162 53.0215 16.6716 52.0609C5.62709 51.1004 5.87757 50.3068 5.00069 47.7175C4.4005 44.5735 4.01686 41.392 3.85242 38.1955Z" fill="#4C3737"/>
<path d="M11.5573 41.3487C12.4353 42.0269 13.4499 42.5069 14.5311 42.7556C15.6123 43.0043 16.7346 43.0159 17.8207 42.7895C18.9105 42.5414 19.9362 42.0676 20.8316 41.3986C21.7271 40.7296 22.4723 39.8803 23.0194 38.9055" fill="#ECE9DE"/>
<path d="M18.5513 34.6247C18.5513 34.6247 18.3842 34.8335 18.0084 35.105C17.4737 35.5165 16.9084 35.8864 16.3173 36.2117C15.9106 36.4433 15.4845 36.639 15.0438 36.7964H14.6471H14.4593H14.2295C14.1471 36.8152 14.0615 36.8152 13.979 36.7964C13.865 36.7644 13.7678 36.6896 13.7076 36.5876C13.6707 36.4226 13.6707 36.2514 13.7076 36.0864C13.6768 35.7949 13.6768 35.5009 13.7076 35.2094C13.7596 34.9063 13.8294 34.6064 13.9165 34.3115C14.0835 33.7268 14.2713 33.1212 14.4801 32.5157C14.9185 31.2836 15.3778 30.156 15.8163 29.1119L16.1295 28.3602V28.1931V27.8382C16.1295 27.3579 16.0042 26.8985 15.9415 26.5017C15.7528 25.6052 15.6134 24.6989 15.524 23.7871C15.626 24.0148 15.7031 24.2528 15.7537 24.4971C15.9508 25.1347 16.1111 25.7831 16.2339 26.4391C16.3375 26.8936 16.4141 27.3538 16.4635 27.8173C16.4736 27.8795 16.4736 27.943 16.4635 28.0052V28.3602C16.4635 28.3602 16.4635 28.3602 16.4635 28.4646V28.6525L16.1712 29.4043C15.7536 30.4484 15.3152 31.5969 14.8767 32.808C14.668 33.4136 14.4802 33.9983 14.3131 34.5829C14.224 34.8561 14.1541 35.1352 14.1043 35.4182C14.0413 35.6853 14.0063 35.9582 13.9999 36.2326C13.9751 36.3355 13.9751 36.4429 13.9999 36.5458H14.501H14.8559C15.2811 36.4087 15.6934 36.234 16.0877 36.0238C16.8393 35.6688 17.4239 35.2929 17.8206 35.0632C18.0416 34.8824 18.2877 34.7347 18.5513 34.6247Z" fill="#E2A893"/>
<path d="M20.2216 20.8846L28.5938 21.6781L28.9487 19.7361L20.2843 17.6062L20.2216 20.8846Z" fill="#4C3737"/>
<path d="M19.6156 27.7339C19.6156 27.7339 20.7639 23.3278 23.9373 23.7454C27.1108 24.1631 27.4239 27.9218 27.4239 27.9218L19.6156 27.7339Z" fill="#EFA98E"/>
<path d="M19.616 27.7339C19.8094 26.8784 20.2942 26.1168 20.9875 25.5796C21.6807 25.0424 22.5392 24.7631 23.4158 24.7896C24.3598 24.7635 25.282 25.0752 26.0168 25.6685C26.7516 26.2618 27.2507 27.0978 27.4243 28.0262C27.4243 28.0262 21.4323 27.8383 19.616 27.7339Z" fill="#ECE9DE"/>
<path d="M21.705 27.8174C21.705 27.8174 21.705 25.4995 23.7928 25.416C25.8806 25.3324 25.8806 28.0262 25.8806 28.0262C24.4861 28.164 23.0788 28.0936 21.705 27.8174Z" fill="#70924F"/>
<path d="M27.4449 28.0263C27.4449 28.0263 27.2362 27.4416 26.7142 26.6481C26.413 26.1789 26.0142 25.7801 25.5451 25.4787C24.9759 25.1215 24.317 24.9333 23.6451 24.9358C22.9634 24.9373 22.294 25.1173 21.7035 25.4579C21.2198 25.7356 20.7945 26.1043 20.4509 26.5437C20.1563 26.9747 19.8845 27.4207 19.6366 27.8801C19.6366 27.8801 19.6366 27.7131 19.6366 27.4416C19.7572 27.0563 19.933 26.6906 20.1585 26.3558C20.5 25.8598 20.9408 25.4402 21.453 25.1238C22.0832 24.7411 22.8036 24.5321 23.5408 24.5182C24.2838 24.5123 25.0114 24.7306 25.6286 25.1446C26.1247 25.4966 26.538 25.9527 26.8395 26.4811C27.1823 26.9291 27.392 27.4646 27.4449 28.0263Z" fill="#443949"/>
<path d="M26.5255 26.8568C26.5255 26.982 26.1498 27.1073 25.6696 27.1073C25.1894 27.1073 24.8136 26.982 24.8344 26.8568C24.8553 26.7315 25.2103 26.6897 25.6696 26.6897C26.1289 26.6897 26.5046 26.7523 26.5255 26.8568Z" fill="white"/>
<path d="M5.67017 27.6921C5.67017 27.6921 6.8185 23.2861 10.0129 23.7037C13.2072 24.1213 13.4786 28.0053 13.4786 28.0053L5.67017 27.6921Z" fill="#EFA98E"/>
<path d="M5.67017 27.6919C5.86357 26.8364 6.34844 26.0748 7.0417 25.5376C7.73496 25.0004 8.59345 24.7211 9.47002 24.7476C10.4149 24.7308 11.3352 25.0485 12.0687 25.6446C12.8022 26.2406 13.3016 27.0766 13.4786 28.0051C13.4786 28.0051 7.46569 27.8172 5.67017 27.6919Z" fill="#ECE9DE"/>
<path d="M8.06958 27.7965C8.06958 27.7965 8.06958 25.4577 10.1575 25.3742C12.2453 25.2907 12.2453 28.0053 12.2453 28.0053C10.8507 28.1409 9.44372 28.0706 8.06958 27.7965Z" fill="#70924F"/>
<path d="M13.4774 28.0053C13.4774 28.0053 13.2686 27.4206 12.7467 26.6062C12.4388 26.1424 12.0413 25.7448 11.5775 25.4369C11.0039 25.0896 10.3479 24.9022 9.67746 24.894C9.00272 24.8981 8.34073 25.078 7.75668 25.416C7.27327 25.6941 6.84787 26.0628 6.50389 26.5018C5.91929 27.2536 5.75234 27.8591 5.66883 27.8383C5.64067 27.6934 5.64067 27.5446 5.66883 27.3998C5.79426 27.023 5.96983 26.6648 6.19079 26.3348C6.56749 25.77 7.07618 25.3055 7.67283 24.9817C8.26947 24.6579 8.9361 24.4844 9.61489 24.4763C10.2926 24.4797 10.9572 24.6632 11.5405 25.0081C12.1239 25.3531 12.6049 25.847 12.9345 26.4392C13.2683 26.895 13.4574 27.4407 13.4774 28.0053Z" fill="#443949"/>
<path d="M12.5585 26.8359C12.5585 26.8359 12.1826 27.0656 11.7232 27.0656C11.2639 27.0656 10.8672 26.9403 10.8672 26.8359C10.8672 26.7315 11.2639 26.6479 11.7232 26.6479C12.1826 26.6479 12.5585 26.7106 12.5585 26.8359Z" fill="white"/>
<path d="M6.02551 21.6781C6.02551 21.6781 14.8153 21.5319 14.857 21.3858C14.8988 21.2396 14.857 18.0029 14.857 18.0029L6.02551 19.8405V21.6781Z" fill="#4C3737"/>
<path d="M3.87421 30.7617C3.87421 30.7617 1.95335 15.8104 5.50265 11.9682C5.50265 11.9682 22.5392 17.1886 25.4413 15.0378C28.3434 12.887 28.594 11.7385 28.594 11.7385C28.594 11.7385 29.8466 18.3789 30.5356 20.9264C30.9042 23.4257 30.9042 25.9655 30.5356 28.4647L31.684 27.9844C31.684 27.9844 32.7905 10.8406 31.4543 10.0679C30.1181 9.29532 23.7711 2.82199 17.7582 4.68046C11.7452 6.53893 1.41054 11.5505 1.3479 15.2257C1.28527 18.9009 3.24777 31.0123 3.24777 31.0123L3.87421 30.7617Z" fill="#4C3737"/>
<path d="M14.4391 5.80798C14.4391 5.80798 24.565 0.524912 26.8198 2.40426C27.4986 3.0916 28.0012 3.93288 28.2847 4.8564C28.5683 5.77992 28.6243 6.75832 28.4482 7.70822C28.8096 7.43713 29.2493 7.29058 29.701 7.29058C30.1527 7.29058 30.5922 7.43713 30.9536 7.70822C32.1437 8.64789 31.9975 12.4901 31.9975 12.4901L24.6902 10.0052L14.4391 5.80798Z" fill="#4C3737"/>
<path d="M5.50224 11.9055C5.50224 11.9055 1.03431 15.0586 1.32661 17.3348L1.7442 20.4879L3.49802 18.3997C3.87311 16.1552 4.54713 13.971 5.50224 11.9055Z" fill="#331E1E"/>
<path d="M12.3086 13.7638C28.5102 9.58746 24.0631 2.11182 24.0631 2.11182L20.7852 3.03061C24.4598 9.29512 7.50659 12.49 7.50659 12.49L12.3086 13.7638Z" fill="#331E1E"/>
<path d="M20.4722 15.33C20.4722 15.33 28.2808 11.2789 28.4478 7.70817C28.4478 7.70817 29.3873 6.95642 30.1807 7.33229C30.1807 7.33229 30.6609 11.7174 23.082 15.497L20.4722 15.33Z" fill="#331E1E"/>
<path d="M28.9475 13.4507C28.9475 13.4507 31.9122 13.6177 32.0166 14.3695V17.627L29.2816 15.5389L28.9475 13.4507Z" fill="#331E1E"/>
<path d="M21.7888 21.0307L21.1416 17.8149L23.0832 18.2952L23.7303 21.2187L21.7888 21.0307Z" fill="#331E1E"/>
<path d="M25.129 21.3441L24.8575 18.7339L25.3377 18.8592L25.9849 21.4276L25.129 21.3441Z" fill="#331E1E"/>
<path d="M14.0818 18.1699L13.3721 21.4275L11.7854 21.5528L12.7249 18.4623L14.0818 18.1699Z" fill="#331E1E"/>
<path d="M10.1791 21.5946L10.7846 18.8591L9.99126 19.1932L9.59459 20.8847L9.36497 19.2141L8.38367 19.3603L8.59239 21.5946H10.1791Z" fill="#331E1E"/>
</g>
<defs>
<clipPath id="clip0">
<rect width="145" height="52" fill="white"/>
</clipPath>
</defs>
</svg>
