<svg width="33" height="32" viewBox="0 0 33 32" fill="none" xmlns="http://www.w3.org/2000/svg">
<path fill-rule="evenodd" clip-rule="evenodd" d="M16.5 32C25.3366 32 32.5 24.8366 32.5 16C32.5 7.16344 25.3366 0 16.5 0C7.66344 0 0.5 7.16344 0.5 16C0.5 24.8366 7.66344 32 16.5 32ZM19.9862 9.33333C21.3807 9.33333 22.659 9.91437 23.3563 11.0765C26.029 15.1437 26.6101 21.3027 24.7508 22.581C23.6463 23.2957 21.8881 21.8674 20.1666 20.4689C18.8087 19.3659 17.4736 18.2813 16.5 18.2813C15.5187 18.2813 14.1473 19.383 12.7631 20.495C11.0326 21.8851 9.28225 23.2912 8.24924 22.581C6.38992 21.3027 6.97096 15.1437 9.64374 11.0765C10.341 9.91437 11.6193 9.33333 13.0138 9.33333H19.9862ZM13.0138 15.1437H14.1758V13.9816H13.0138V12.8196H11.8517V13.9816H10.6896V15.1437H11.8517V16.3058H13.0138V15.1437ZM19.4052 16.7706C19.9862 16.7706 20.4511 16.3058 20.4511 15.7248C20.4511 15.1437 19.9862 14.6789 19.4052 14.6789C18.8242 14.6789 18.3593 15.1437 18.3593 15.7248C18.3593 16.3058 18.8242 16.7706 19.4052 16.7706ZM21.6131 14.4465C22.1942 14.4465 22.659 13.9816 22.659 13.4006C22.659 12.8196 22.1942 12.3547 21.6131 12.3547C21.0321 12.3547 20.5673 12.8196 20.5673 13.4006C20.5673 13.9816 21.0321 14.4465 21.6131 14.4465Z" fill="white"/>
</svg>
