<svg width="32" height="32" viewBox="0 0 32 32" fill="none" xmlns="http://www.w3.org/2000/svg">
<path fill-rule="evenodd" clip-rule="evenodd" d="M16 32C7.16344 32 0 24.8366 0 16C0 7.16344 7.16344 0 16 0C24.8366 0 32 7.16344 32 16C32 24.8366 24.8366 32 16 32ZM10.2828 20.3434C10.0943 20.1549 10 19.9259 10 19.6566C10 19.3872 10.0943 19.1582 10.2828 18.9697L13.2525 16L10.2828 13.0303C10.0943 12.8418 10 12.6128 10 12.3434C10 12.0741 10.0943 11.8451 10.2828 11.6566L11.6566 10.2828C11.8451 10.0943 12.0741 10 12.3434 10C12.6128 10 12.8418 10.0943 13.0303 10.2828L16 13.2525L18.9697 10.2828C19.1582 10.0943 19.3872 10 19.6566 10C19.9259 10 20.1549 10.0943 20.3434 10.2828L21.7172 11.6566C21.9057 11.8451 22 12.0741 22 12.3434C22 12.6128 21.9057 12.8418 21.7172 13.0303L18.7475 16L21.7172 18.9697C21.9057 19.1582 22 19.3872 22 19.6566C22 19.9259 21.9057 20.1549 21.7172 20.3434L20.3434 21.7172C20.1549 21.9057 19.9259 22 19.6566 22C19.3872 22 19.1582 21.9057 18.9697 21.7172L16 18.7475L13.0303 21.7172C12.8418 21.9057 12.6128 22 12.3434 22C12.0741 22 11.8451 21.9057 11.6566 21.7172L10.2828 20.3434Z" fill="white"/>
</svg>
