<svg width="40" height="40" viewBox="0 0 40 40" fill="none" xmlns="http://www.w3.org/2000/svg">
<circle cx="20" cy="20" r="20" fill="#F9F9F9"/>
<path fill-rule="evenodd" clip-rule="evenodd" d="M15 10H29V14H15V10ZM13 12C13 10.8954 12.1046 10 11 10C9.89543 10 9 10.8954 9 12C9 13.1046 9.89543 14 11 14C12.1046 14 13 13.1046 13 12ZM17 20C17 18.8954 16.1046 18 15 18C13.8954 18 13 18.8954 13 20C13 21.1046 13.8954 22 15 22C16.1046 22 17 21.1046 17 20ZM17 28C17 26.8954 16.1046 26 15 26C13.8954 26 13 26.8954 13 28C13 29.1046 13.8954 30 15 30C16.1046 30 17 29.1046 17 28ZM19 30H29V26H19V30ZM19 22V18H29V22H19Z" fill="#E4322B"/>
</svg>
