<svg width="54" height="68" viewBox="0 0 54 68" fill="none" xmlns="http://www.w3.org/2000/svg">
<path fill-rule="evenodd" clip-rule="evenodd" d="M49.9673 19.5014C49.893 19.7002 49.893 19.9191 49.9673 20.1178C50.0801 20.3493 50.2471 20.5502 50.454 20.7035C50.6609 20.8568 50.9018 20.9579 51.1561 20.9984C51.4607 21.0665 51.7766 21.0663 52.0811 20.9978C52.3856 20.9293 52.6712 20.7942 52.9172 20.6021C53.1543 20.3271 53.3264 20.0022 53.4209 19.6517C53.5154 19.3011 53.5299 18.9337 53.4632 18.5768C53.4376 18.2776 53.3785 17.9823 53.2871 17.6962C53.2447 17.6013 53.1946 17.51 53.1374 17.4233C52.2568 15.759 49.1396 15.2306 47.5281 15.9087C46.9309 16.1599 46.3897 16.5275 45.9361 16.9902C45.4826 17.4528 45.1257 18.0012 44.8864 18.6032C44.7507 18.9748 44.6967 19.3713 44.7279 19.7656C44.805 20.2697 44.9956 20.7496 45.2855 21.1691C45.5753 21.5886 45.9568 21.9368 46.401 22.1872C47.12 22.5905 47.7733 23.1013 48.3382 23.7018C48.4944 23.8578 48.5991 24.0578 48.6385 24.2749C48.6778 24.4921 48.6499 24.7161 48.5584 24.917C48.4548 25.1042 48.303 25.2602 48.1187 25.3688C47.9344 25.4775 47.7244 25.5348 47.5105 25.5348C47.2966 25.5348 47.0865 25.4775 46.9023 25.3688C46.718 25.2602 46.5662 25.1042 46.4626 24.917C46.3614 24.6332 46.2992 24.337 46.2777 24.0364C46.2711 23.8606 46.2323 23.6875 46.1632 23.5257C46.0245 23.4684 45.8797 23.4271 45.7317 23.4024C45.4401 23.3578 45.146 23.3313 44.8511 23.3231C44.5581 23.2998 44.2636 23.2998 43.9706 23.3231C43.8318 23.3421 43.6958 23.3776 43.5655 23.4288C43.3434 24.0505 43.266 24.7148 43.3392 25.3709C43.4125 26.027 43.6344 26.6578 43.9882 27.2153C44.1486 27.4287 44.3384 27.6184 44.5517 27.7789C45.4034 28.3715 46.4489 28.6171 47.4753 28.4657C48.6375 28.3472 49.7352 27.8738 50.6189 27.1096C51.009 26.8195 51.3177 26.4337 51.5152 25.9894C51.7126 25.5452 51.7921 25.0575 51.7461 24.5736C51.6828 24.1698 51.5396 23.7827 51.3249 23.4349C51.1102 23.0872 50.8283 22.7857 50.4956 22.5482C49.6516 22.0187 48.8868 21.3724 48.2237 20.6286C48.0833 20.458 47.9905 20.2532 47.955 20.0351C47.9194 19.817 47.9422 19.5933 48.0212 19.3869C48.1334 19.1346 48.3132 18.9182 48.5408 18.7617C49.0163 18.4271 49.8352 18.2598 50.2139 18.8322C50.2675 18.9026 50.2926 18.9906 50.2843 19.0787C50.2843 19.2637 50.1346 19.3605 50.0025 19.4662L49.9673 19.5014ZM39.8318 13.989C39.8318 14.1035 39.7438 14.306 39.7174 14.3941C39.6381 14.7199 39.5765 15.0545 39.5236 15.3891C39.3563 16.3225 39.2154 17.2648 39.0745 18.1982C38.9336 19.1316 38.8104 20.0914 38.6695 21.0336C38.6166 21.3771 38.5726 21.7205 38.511 22.0639C38.4877 22.2639 38.4464 22.4613 38.3877 22.6539C38.2874 23.0519 38.0839 23.4164 37.7977 23.7106C37.6943 23.8135 37.5669 23.8891 37.427 23.9306C37.2872 23.9721 37.1392 23.9782 36.9964 23.9484L36.8467 23.9043C36.0277 23.6137 36.063 22.5923 36.1774 21.8966C36.3624 20.699 36.5737 19.519 36.7498 18.3303C36.8907 17.4233 36.9876 16.5427 37.1196 15.6621C37.1196 15.2923 37.1901 14.9224 37.2077 14.5526C37.2253 14.2916 37.2253 14.0298 37.2077 13.7689C37.0962 13.6839 36.9712 13.6184 36.8379 13.5751C36.5512 13.4807 36.2564 13.4129 35.9573 13.3726C35.6659 13.3277 35.3716 13.3041 35.0767 13.3021C34.9243 13.2895 34.7712 13.2895 34.6188 13.3021C34.55 13.4537 34.4912 13.6096 34.4427 13.7689C34.337 14.1299 34.2578 14.5085 34.1873 14.8784C33.976 15.9263 33.8175 16.9918 33.6766 18.0485C33.5357 19.1052 33.4124 20.0562 33.3067 21.0601C33.2363 21.6765 33.1658 22.3017 33.1218 22.9269C33.0537 23.4004 33.0919 23.8831 33.2335 24.3401C33.3752 24.797 33.6167 25.2167 33.9408 25.5686C34.7496 26.301 35.7839 26.7358 36.8731 26.8014C37.6863 26.8755 38.5045 26.7295 39.2418 26.3787C39.774 26.1115 40.2317 25.7168 40.5744 25.2297C40.917 24.7427 41.1338 24.1785 41.2055 23.5873C41.6899 20.7342 42.1301 17.89 42.4207 15.0105C42.4343 14.9466 42.4343 14.8806 42.4207 14.8167C42.2886 14.4381 41.6106 14.2003 41.2584 14.1035C40.9501 14.0223 40.6344 13.9721 40.3161 13.9538C40.1638 13.9409 40.0106 13.9409 39.8582 13.9538L39.8318 13.989ZM22.2731 26.097C22.4201 26.1367 22.5704 26.1632 22.7222 26.1762C23.0563 26.2026 23.3919 26.2026 23.726 26.1762C24.0687 26.1672 24.4102 26.1318 24.7475 26.0705C24.9119 26.0332 25.0714 25.977 25.223 25.9032C25.2272 25.8358 25.2272 25.7681 25.223 25.7007C25.223 25.5334 25.223 25.3661 25.223 25.1988V23.8339V22.6979C25.223 22.4161 25.223 22.1256 25.223 21.8173L25.3023 20.5493L25.8218 21.7029C25.9941 22.0963 26.1354 22.5026 26.2445 22.9181C26.3678 23.3584 26.4734 23.7987 26.6055 24.2301C26.7498 24.7998 26.9627 25.3497 27.2395 25.868C27.3588 25.9424 27.4898 25.996 27.627 26.0265C28.1694 26.1546 28.7312 26.1785 29.2825 26.097C29.4257 26.0838 29.5641 26.0387 29.6876 25.9649C29.978 25.3615 30.1599 24.7117 30.2247 24.0452C30.4184 22.8388 30.5241 21.5884 30.6034 20.3644C30.6826 19.1404 30.7178 18.1718 30.7443 17.071C30.7443 16.6307 30.7443 16.1904 30.7443 15.7502C30.7443 15.4508 30.7443 15.1426 30.7443 14.8696C30.7453 14.3745 30.6307 13.886 30.4096 13.443C30.1278 12.9587 29.3265 12.9411 28.851 13.0644C28.5428 13.1122 28.2615 13.2675 28.0568 13.5028C27.8521 13.7381 27.7373 14.0382 27.7327 14.35C27.7327 15.0457 27.7327 15.7414 27.7327 16.437C27.7327 17.1327 27.6798 17.934 27.6622 18.6825V20.6638L27.081 18.7705C26.9666 18.3919 26.8609 18.0044 26.764 17.617C26.6672 17.2295 26.5263 16.7364 26.403 16.2521C26.2797 15.7678 26.0596 15.257 25.8835 14.7815C25.7645 14.4015 25.5989 14.0377 25.3903 13.6984C24.8092 12.8178 22.9599 13.0732 22.2907 13.6984C22.1986 13.8942 22.1334 14.1015 22.097 14.3148C22.0205 14.796 21.9705 15.2811 21.9473 15.7678C21.868 17.1327 21.8768 18.524 21.9473 19.8889C22.0177 21.2538 22.0353 22.6891 22.1234 24.0892C22.1234 24.5736 22.1938 25.0667 22.2379 25.5598L22.2907 26.0177C22.2907 26.0177 22.2907 26.0882 22.2907 26.1234L22.2731 26.097ZM11.8294 24.3358C12.2129 25.0963 12.7824 25.7475 13.4849 26.2291C14.0591 26.6133 14.7407 26.8045 15.431 26.775C16.2493 26.7295 17.0241 26.392 17.6148 25.824C18.3532 25.0709 18.871 24.1298 19.1118 23.103C19.4024 21.6646 19.4024 20.1826 19.1118 18.7441C18.8935 17.191 18.2506 15.7283 17.2538 14.5173C16.1178 13.3462 12.7452 13.6368 11.803 14.9664C10.8608 16.2961 10.6406 18.7001 10.7727 20.3644C10.8599 21.7323 11.2066 23.0711 11.7942 24.3094L11.8294 24.3358ZM16.426 22.8476C16.3556 23.3496 16.1707 24.6088 15.5455 24.6088C14.9202 24.6088 14.4623 23.4993 14.295 23.0149C13.8316 21.6198 13.6315 20.1507 13.705 18.6825C13.7309 18.1879 13.8536 17.7033 14.0661 17.2559C14.1425 17.077 14.2636 16.9206 14.4178 16.8019C14.572 16.6832 14.7541 16.606 14.9467 16.5779C15.6952 16.5779 16.0826 17.5113 16.2499 18.0837C16.6282 19.6336 16.7088 21.2412 16.4877 22.8212L16.426 22.8476ZM0.00323541 18.0749C-0.00107847 18.1306 -0.00107847 18.1865 0.00323541 18.2422C0.00323541 18.3831 0.00323556 18.5152 0.0648761 18.6561C0.126517 19.0964 0.205769 19.5366 0.285021 19.9769C0.505166 21.2362 0.769339 22.5042 1.06874 23.7546C1.23605 24.4239 1.41216 25.0931 1.6147 25.7535C1.78553 26.3366 1.98837 26.9099 2.2223 27.4707C2.3796 27.8753 2.58984 28.2572 2.84751 28.6066C2.94437 28.7211 3.12929 28.9324 3.2966 28.9236C5.05776 28.818 7.80517 28.5009 9.06439 27.0832C9.47422 26.5921 9.70595 25.9768 9.72193 25.3374C9.73792 24.6979 9.53722 24.0719 9.15245 23.5609C8.94418 23.3125 8.68782 23.1087 8.39878 22.962C8.10974 22.8152 7.794 22.7284 7.47055 22.7067H6.69564L7.28563 22.2048C7.96103 21.6724 8.41832 20.9113 8.57127 20.065C8.64467 19.1519 8.40707 18.2408 7.89708 17.4798C7.38709 16.7188 6.6347 16.1527 5.76222 15.8734C4.89114 15.6905 3.99157 15.6905 3.12049 15.8734C2.26429 16.0447 1.45219 16.3893 0.734116 16.8861C0.537727 17.024 0.371592 17.2006 0.245908 17.405C0.120225 17.6094 0.0376443 17.8374 0.00323541 18.0749ZM4.50299 23.9484C5.38357 23.7194 6.44908 23.693 6.87175 24.6792C6.95617 24.8473 7.00014 25.0327 7.00014 25.2208C7.00014 25.4088 6.95617 25.5943 6.87175 25.7623C6.66752 26.033 6.40042 26.2498 6.09356 26.3941C5.78669 26.5383 5.44931 26.6056 5.11059 26.5901H4.86403L4.8112 26.3611C4.64389 25.6831 4.48538 25.0139 4.31807 24.3358L4.23882 24.0364L4.54702 23.9572L4.50299 23.9484ZM3.78092 21.6412C3.57839 20.7607 3.36705 19.8801 3.15571 18.9995L3.09407 18.7353L3.34944 18.6297C3.85137 18.4359 4.57344 18.1629 5.04895 18.5416C5.38774 18.8022 5.61194 19.1842 5.67416 19.6071C5.69094 20.0841 5.55822 20.5544 5.29455 20.9523C5.03087 21.3502 4.64945 21.6557 4.2036 21.8262L3.85137 21.9759L3.76331 21.606L3.78092 21.6412Z" fill="#F9F9F9"/>
<path style="mix-blend-mode:screen" fill-rule="evenodd" clip-rule="evenodd" d="M50.1435 19.6247C50.1173 19.7734 50.1357 19.9266 50.1964 20.065C50.3013 20.258 50.4499 20.4238 50.6303 20.5492C50.8107 20.6746 51.0179 20.756 51.2354 20.787C51.5073 20.8482 51.7893 20.8491 52.0616 20.7898C52.3339 20.7305 52.5899 20.6123 52.8117 20.4436C53.0194 20.1878 53.1693 19.8901 53.2514 19.5709C53.3335 19.2518 53.3457 18.9187 53.2872 18.5944C53.2547 18.3251 53.1957 18.0596 53.1111 17.8019C53.0821 17.7045 53.0438 17.6101 52.9966 17.5201C52.1777 15.9615 49.1661 15.4683 47.6515 16.1024C47.0772 16.3382 46.5551 16.6852 46.1153 17.1234C45.6756 17.5617 45.3268 18.0825 45.089 18.656C44.9516 18.9967 44.8914 19.3636 44.9129 19.7303C44.9869 20.2023 45.1673 20.6513 45.4404 21.0434C45.7135 21.4355 46.0721 21.7603 46.4891 21.9934L46.6036 22.0639C48.2062 22.5335 49.7179 23.0472 51.1386 23.6049C50.9316 23.2618 50.6594 22.9626 50.3373 22.7243C49.4754 22.1873 48.6954 21.5289 48.0213 20.7694C47.8573 20.5695 47.7497 20.3295 47.7094 20.0741C47.6692 19.8186 47.6978 19.5571 47.7924 19.3165C47.9206 19.0271 48.1244 18.7777 48.3824 18.5944C48.6616 18.352 49.0249 18.2291 49.3939 18.2522C49.7629 18.2752 50.108 18.4424 50.3549 18.7177C50.4336 18.8308 50.471 18.9677 50.4605 19.1051C50.446 19.2131 50.4066 19.3162 50.3455 19.4063C50.2844 19.4964 50.2032 19.5712 50.1083 19.6247H50.1435ZM34.7598 13.4606C34.7598 13.5663 34.6717 13.7072 34.6453 13.7952C34.5416 14.1546 34.4564 14.5191 34.39 14.8872C34.1786 15.935 34.0289 16.9829 33.8792 18.0396L33.6679 19.7215C34.5485 19.792 35.429 19.8888 36.3096 19.9857C36.3977 19.4133 36.4945 18.8498 36.5826 18.2774C36.7147 17.3968 36.8468 16.5162 36.9436 15.574C36.9436 15.213 37.0141 14.8431 37.0317 14.4821C37.0317 14.2619 37.0317 14.033 37.0317 13.8129L36.7939 13.7072C36.5236 13.6228 36.2467 13.561 35.9662 13.5223C35.675 13.4756 35.3805 13.452 35.0856 13.4518L34.7598 13.4606ZM41.4434 20.8047C41.7487 18.8791 42.004 16.9418 42.2095 14.9928C42.2177 14.9611 42.2177 14.9277 42.2095 14.896C42.1126 14.6142 41.4698 14.394 41.1968 14.3236C40.9091 14.2443 40.6141 14.1942 40.3163 14.1739H40.0257C40.001 14.255 39.9804 14.3373 39.964 14.4205C39.8848 14.7463 39.8231 15.0809 39.7615 15.4067C39.5942 16.3401 39.4621 17.2735 39.3212 18.2069C39.2155 18.929 39.1187 19.6511 39.013 20.3644C39.8936 20.4964 40.6773 20.6461 41.4786 20.8047H41.4434ZM30.4186 19.5278C30.4626 18.7265 30.4978 17.9163 30.5154 17.115C30.5154 16.6835 30.5154 16.2344 30.5154 15.803C30.5154 15.5036 30.5154 15.21 30.5154 14.9224C30.5158 14.4614 30.4104 14.0065 30.2072 13.5927C29.9871 13.2053 29.2562 13.2141 28.8863 13.3197C28.6247 13.3516 28.3834 13.477 28.207 13.6728C28.0306 13.8687 27.931 14.1217 27.9265 14.3852C27.9265 15.0897 27.9265 15.7853 27.9265 16.4898C27.9265 17.1943 27.8825 17.978 27.8649 18.7265V19.4662C28.7454 19.4662 29.626 19.4662 30.4362 19.5454L30.4186 19.5278ZM27.0019 19.4486L26.8258 18.8586C26.7025 18.4711 26.6056 18.0837 26.5088 17.6962C26.4119 17.3088 26.271 16.8156 26.1477 16.3401C26.0245 15.8646 25.866 15.3186 25.6898 14.8255C25.5729 14.4644 25.4133 14.1185 25.2143 13.7952C25.0216 13.6049 24.7852 13.4645 24.5259 13.3863C24.2666 13.308 23.992 13.2942 23.7261 13.3461C23.263 13.3757 22.8189 13.5411 22.4493 13.8217C22.385 13.9836 22.3378 14.1518 22.3084 14.3236C22.2281 14.7954 22.1781 15.2719 22.1587 15.7501C22.0883 17.0182 22.0883 18.295 22.1147 19.5718C23.6293 19.4838 25.1615 19.4398 26.7289 19.4398L27.0019 19.4486ZM19.0767 19.8008C19.0767 19.4486 18.9974 19.1051 18.9358 18.7793C18.7299 17.2669 18.1046 15.8423 17.1306 14.667C16.0915 13.5927 12.8774 13.8833 12.0144 15.0897C11.037 16.4458 10.8873 18.7353 11.0194 20.3732C11.0194 20.5845 11.0194 20.8135 11.0898 21.0336C11.8736 20.8663 12.6837 20.7078 13.4938 20.5669C13.4264 19.944 13.4117 19.3166 13.4498 18.6913C13.4764 18.1684 13.6081 17.6562 13.8372 17.1855C13.9282 16.9772 14.0704 16.7953 14.2505 16.6567C14.4306 16.5182 14.6429 16.4274 14.8675 16.3929C15.028 16.3827 15.1885 16.413 15.3342 16.481C15.6078 16.6587 15.8424 16.89 16.024 17.1609C16.2057 17.4318 16.3305 17.7367 16.3909 18.0572C16.5756 18.7126 16.6908 19.3855 16.7344 20.065C17.5093 19.9593 18.293 19.88 19.0855 19.8008H19.0767ZM0.197072 18.0837C0.192773 18.1276 0.192773 18.1718 0.197072 18.2157L0.249907 18.6208C0.320353 19.0611 0.3908 19.5014 0.470052 19.9329C0.699002 21.2009 0.95437 22.4601 1.26257 23.7018C1.28087 23.7969 1.30439 23.891 1.33302 23.9835C3.2352 23.188 5.18505 22.5115 7.17126 21.9582C7.78188 21.4902 8.20382 20.8183 8.36004 20.065C8.4284 19.2038 8.20501 18.3447 7.72582 17.6259C7.24663 16.9071 6.53952 16.3705 5.7183 16.1024C4.88167 15.9306 4.01887 15.9306 3.18224 16.1024C2.35993 16.2663 1.57858 16.5926 0.883924 17.0622C0.709581 17.178 0.560961 17.3284 0.447333 17.5041C0.333705 17.6799 0.257506 17.8772 0.223489 18.0837H0.197072ZM3.52566 21.694C3.32313 20.8135 3.11179 19.9329 2.90045 19.0523L2.79478 18.6032L3.22626 18.4359C3.43582 18.3494 3.6505 18.2759 3.86909 18.2157C4.07651 18.1404 4.29888 18.1155 4.51783 18.1431C4.73678 18.1706 4.94603 18.2499 5.12832 18.3743C5.50854 18.6704 5.75815 19.1032 5.82397 19.5806C5.85865 20.1082 5.72463 20.6332 5.44127 21.0796C5.15792 21.526 4.73992 21.8707 4.24774 22.0639L3.66655 22.3104L3.52566 21.694Z" fill="url(#paint0_radial_11_899)"/>
<g clip-path="url(#clip0_11_899)">
<path d="M6.90869 46.2286V59.9109L24.7599 68V50.9615L6.90869 46.2286Z" fill="#298C4B"/>
<path d="M24.7598 50.9615L49.7243 46.5724V60.6881L24.7598 68V50.9615Z" fill="#1A6534"/>
<path d="M6.90852 46.2286L6 45.7121V41.9258C6 41.9258 24.7597 46.0566 24.7597 46.5724V50.9615L6.90852 46.2286Z" fill="#298C4B"/>
<path d="M49.7243 46.5724L50.4926 46.4437V41.3022L24.7598 46.5724V51.1461L49.7243 46.5724Z" fill="#1A6534"/>
<path d="M6 41.9258L32.7905 37.7613L50.4926 41.3021L24.7597 46.5724L6 41.9258Z" fill="#43AB67"/>
<path d="M49.7243 46.5724L24.7598 51.5775V53.1319C24.7598 53.1319 40.6918 49.2466 44.9229 49.376C49.154 49.5055 49.7243 49.678 49.7243 49.678V46.5724Z" fill="#114D26"/>
<path d="M6.90869 46.2286L24.7599 51.5775V53.1319L6.90869 46.5724V46.2286Z" fill="#41A864"/>
<path d="M15.8339 60.152L15.3854 59.9242L14.9432 60.1647L15.0212 59.6679L14.6558 59.3215L15.1525 59.2422L15.3689 58.7873L15.5979 59.2352L16.0972 59.3006L15.7419 59.6571L15.8339 60.152Z" fill="white"/>
<path d="M38.6053 55.0371L38.1219 54.7453L37.6073 54.9775L37.7361 54.4274L37.3555 54.01L37.9182 53.9624L38.198 53.472L38.4175 53.9922L38.9701 54.1064L38.5431 54.4757L38.6053 55.0371Z" fill="#AEE4FF"/>
<path d="M16.6847 44.5727L42.0134 39.6063L38.97 38.9972L13.2251 43.7156L16.6847 44.5727Z" fill="#FF9635"/>
<path d="M36.3966 44.1895L18.7935 39.9375L21.597 39.5016L39.7243 43.5075L36.3966 44.1895Z" fill="#FF9635"/>
<path d="M6.90869 53.2131V51.7837L11.6162 47.5692L12.703 47.965L6.90869 53.2131Z" fill="white"/>
<path d="M8.15397 60.4755L7.04053 59.9705L18.4078 49.6742L19.6633 50.0504L8.15397 60.4755Z" fill="white"/>
<path d="M14.3283 63.2734L13.2148 62.7684L24.7597 52.3116V53.8247L14.3283 63.2734Z" fill="white"/>
<path d="M20.5026 66.0707L19.3892 65.5663L24.7597 60.702V62.2152L20.5026 66.0707Z" fill="white"/>
<path d="M49.7241 51.2438V49.678L46.8609 47.0971L45.502 47.4194L49.7241 51.2438Z" fill="#F9F9F9"/>
<path d="M49.7059 59.6476L49.7243 58.0907L39.2954 48.6636L37.9092 48.9414L49.7059 59.6476Z" fill="#F9F9F9"/>
<path d="M43.6041 62.4804L44.8666 62.1111L31.7013 50.1862L30.3335 50.4603L43.6041 62.4804Z" fill="#F9F9F9"/>
<path d="M36.5692 64.5087L37.859 64.1629L24.7598 52.3116V53.8247L36.5692 64.5087Z" fill="#F9F9F9"/>
<path d="M29.6043 66.5808L30.8669 66.2109L24.7598 60.702V62.2152L29.6043 66.5808Z" fill="#F9F9F9"/>
<path d="M13.2248 43.7156L13.0269 62.6834L16.744 64.3678L16.6844 44.5727L13.2248 43.7156Z" fill="#FF9635"/>
<path d="M36.3965 44.1895L36.6782 64.5087L40.2526 63.4618L39.7241 43.5075L36.3965 44.1895Z" fill="#FF9635"/>
<path d="M20.247 44.5949C20.5528 44.796 20.9258 44.869 21.2906 44.8975C22.5119 44.9946 23.7332 44.6507 24.8435 44.1292C25.9537 43.6077 26.9676 42.9117 28.0011 42.2544C28.088 42.1992 28.1832 42.1421 28.2859 42.1491C28.3727 42.1635 28.4543 42.2003 28.5226 42.2557C29.3975 42.8489 30.3504 43.3476 31.3776 43.5937C32.4047 43.8399 33.5169 43.819 34.4901 43.4034C34.8035 43.2708 35.1347 43.0507 35.1779 42.7125C35.2178 42.401 34.9926 42.118 34.7521 41.9157C33.6895 41.0236 32.1928 40.9393 30.8142 40.7806C29.7445 40.6576 28.6736 40.4634 27.5976 40.5212C26.5089 40.5783 25.4519 40.8885 24.4063 41.1962C23.074 41.5889 21.7201 41.9905 20.5464 42.7347C19.8422 43.1839 19.374 44.0195 20.247 44.5949Z" fill="#FF810D"/>
<path d="M31.7713 33.3107C31.1096 32.9732 30.1967 33.5645 29.3643 34.7541C28.9379 35.3632 27.4229 38.0329 27.1977 38.7841C27.0879 39.1495 26.9972 39.5251 27.0016 39.9057C27.0061 40.2864 27.112 40.6772 27.3588 40.9678C27.4193 41.0495 27.5056 41.1085 27.6037 41.1353C27.6843 41.145 27.766 41.1347 27.8416 41.1055C28.2474 40.9707 28.6247 40.7618 28.9544 40.4894C29.3985 40.136 29.7697 39.7065 30.1408 39.2789C30.9275 38.3736 31.7238 37.4562 32.2529 36.3776C32.4775 35.9215 32.6545 35.426 32.6513 34.9184C32.6462 33.9668 32.3379 33.5994 31.7713 33.3107Z" fill="#FFAF66"/>
<path d="M29.9185 37.3255C30.7249 36.1835 32.377 33.8792 31.4627 33.2207C32.1251 33.1813 33.0615 33.8868 33.5913 34.3278C34.1058 34.756 34.5911 35.2991 34.6584 35.9652C34.7066 36.4379 34.5315 36.9125 34.2587 37.3014C33.9859 37.6903 33.6243 38.0043 33.2499 38.3C31.8827 39.3856 30.3698 40.2738 28.7556 40.9386C28.4904 41.0477 28.2169 41.1518 27.9308 41.1638C27.5298 41.1803 27.1695 41.0661 27.3439 40.6969C27.5235 40.3112 27.967 39.9324 28.2322 39.5942C28.8137 38.8528 29.3758 38.0965 29.9185 37.3255Z" fill="#FF9635"/>
<path d="M35.8611 38.3901C35.5648 37.71 34.4806 37.5894 33.0835 37.9821C32.3685 38.1826 29.5047 39.2884 28.8544 39.7275C28.5372 39.9406 28.2301 40.1716 27.9922 40.4717C27.7543 40.7718 27.5893 41.1359 27.5963 41.5166C27.5912 41.6181 27.6202 41.7184 27.6788 41.8015C27.7352 41.8596 27.8048 41.9031 27.8818 41.9283C28.2814 42.0809 28.7058 42.1581 29.1335 42.1561C29.6994 42.1625 30.2609 42.0666 30.8186 41.9715C32.0006 41.7691 33.1984 41.5623 34.2902 41.0649C34.7528 40.8542 35.2019 40.584 35.5223 40.1887C36.1238 39.4502 36.1162 38.9719 35.8611 38.3901Z" fill="#FFAF66"/>
<path d="M31.8854 40.3239C33.2329 39.9502 35.9705 39.2142 35.6799 38.1255C36.2179 38.5151 36.4958 39.6539 36.6259 40.3308C36.7528 40.9868 36.782 41.7152 36.4134 42.2729C36.1507 42.6687 35.7155 42.9251 35.2574 43.0532C34.7993 43.1814 34.3191 43.1934 33.8439 43.1864C32.0985 43.1604 30.3654 42.8894 28.6954 42.3813C28.4213 42.2976 28.1428 42.205 27.9138 42.0324C27.5965 41.7919 27.3884 41.4766 27.7552 41.3003C28.139 41.115 28.7214 41.1029 29.1414 41.009C30.0622 40.8043 30.9768 40.5759 31.8854 40.3239Z" fill="#FF9635"/>
<path d="M22.0614 34.638C22.6159 34.1438 23.6475 34.4857 24.7559 35.4247C25.3224 35.9056 27.4637 38.1046 27.8722 38.7752C28.0702 39.1 28.2529 39.4407 28.3455 39.8106C28.4382 40.1805 28.4344 40.5846 28.2688 40.9278C28.2311 41.0224 28.1627 41.1015 28.0746 41.1524C27.9991 41.1821 27.9174 41.1928 27.8367 41.1835C27.41 41.1558 26.992 41.0493 26.604 40.8695C26.0876 40.6392 25.6168 40.3181 25.1499 39.999C24.1595 39.3221 23.1571 38.635 22.3723 37.7277C22.0392 37.3432 21.7436 36.9106 21.6173 36.4176C21.38 35.4894 21.5868 35.0605 22.0614 34.638Z" fill="#FFAF66"/>
<path d="M24.8691 38.0532C23.8001 37.1517 21.6189 35.3416 22.3364 34.4743C21.6855 34.6012 20.9578 35.523 20.56 36.0845C20.1717 36.6282 19.8405 37.2779 19.944 37.9384C20.0169 38.4072 20.3062 38.8221 20.6685 39.1292C21.0307 39.4363 21.4628 39.6482 21.8974 39.8398C23.4948 40.544 25.1833 41.0203 26.9133 41.2546C27.1975 41.2933 27.4887 41.3244 27.7691 41.2635C28.1612 41.1784 28.4784 40.9773 28.2183 40.6633C27.9468 40.3353 27.4227 40.0815 27.0763 39.8214C26.3264 39.2504 25.5907 38.661 24.8691 38.0532Z" fill="#FF9635"/>
<path d="M25.6114 32.6122C24.9065 32.8482 24.6895 33.9154 24.9541 35.3403C25.0899 36.0712 25.933 39.0201 26.3112 39.7103C26.4952 40.0441 26.6994 40.3721 26.9742 40.636C27.2489 40.8999 27.6016 41.0979 27.9816 41.1251C28.0826 41.1395 28.1854 41.1194 28.2735 41.068C28.3367 41.0174 28.3866 40.952 28.4188 40.8777C28.607 40.4935 28.7223 40.0776 28.7588 39.6513C28.8159 39.0886 28.7715 38.5208 28.7271 37.9568C28.6319 36.7608 28.5368 35.5497 28.1377 34.4179C27.969 33.9376 27.7412 33.4662 27.3764 33.1115C26.6906 32.4441 26.2141 32.4111 25.6114 32.6122Z" fill="#FFAF66"/>
<path d="M27.1784 36.7469C26.9278 35.3708 26.4424 32.5786 25.3315 32.7696C25.768 32.269 26.9272 32.0952 27.6155 32.0266C28.2804 31.9632 29.0113 31.9956 29.5303 32.4137C29.9008 32.7106 30.1171 33.168 30.2034 33.635C30.2897 34.1019 30.2586 34.5822 30.2091 35.0542C30.0249 36.7904 29.5978 38.492 28.9402 40.1094C28.8324 40.3752 28.715 40.6436 28.5228 40.8568C28.2538 41.1543 27.9213 41.3294 27.7786 40.9481C27.6288 40.5491 27.6695 39.9679 27.6143 39.5409C27.492 38.6062 27.3467 37.6748 27.1784 36.7469Z" fill="#FF9635"/>
<path d="M19.4169 40.2135C19.533 39.4794 20.5494 39.0892 22.0003 39.1152C22.7433 39.1286 25.7936 39.4737 26.534 39.7332C26.8938 39.8601 27.251 40.0073 27.5568 40.2344C27.8626 40.4615 28.1151 40.7775 28.2045 41.148C28.2354 41.245 28.2327 41.3496 28.1969 41.4449C28.1572 41.5156 28.1008 41.5755 28.0326 41.6194C27.6849 41.8684 27.294 42.0508 26.8798 42.1574C26.3342 42.3065 25.7664 42.356 25.203 42.4054C24.0077 42.5089 22.7972 42.6123 21.6146 42.4054C21.114 42.3185 20.6109 42.1713 20.2011 41.87C19.4309 41.3053 19.3173 40.8409 19.4169 40.2135Z" fill="#FFAF66"/>
<path d="M23.753 41.0776C22.3572 41.0573 19.5206 41.0389 19.5257 39.9121C19.1038 40.4247 19.1235 41.5965 19.1691 42.2843C19.2129 42.9511 19.3684 43.6635 19.867 44.1095C20.221 44.4268 20.7077 44.5638 21.1828 44.5721C21.658 44.5803 22.1263 44.4699 22.5837 44.343C24.2657 43.876 25.8739 43.1751 27.361 42.2608C27.6053 42.1104 27.8508 41.9499 28.0291 41.7253C28.2778 41.4081 28.3958 41.0547 27.9961 40.976C27.5786 40.8942 27.0121 41.0306 26.5819 41.0458C25.6396 41.0805 24.6966 41.0911 23.753 41.0776Z" fill="#FF9635"/>
<path d="M26.9999 40.7426C26.9282 41.0496 26.9573 41.3715 27.083 41.6606C27.1446 41.8291 27.2443 41.981 27.3742 42.1047C27.6914 42.3851 28.159 42.3801 28.5796 42.3585C28.6881 42.3605 28.7959 42.3411 28.8968 42.3014C29.0808 42.2151 29.1735 42.0108 29.2445 41.8205C29.3333 41.605 29.3905 41.3779 29.4145 41.1461C29.4378 40.9124 29.3788 40.6779 29.2477 40.4831C28.978 40.1158 28.4071 40.039 27.982 40.0136C27.7594 40.0035 27.5401 40.0706 27.3612 40.2034C27.1823 40.3362 27.0547 40.5266 26.9999 40.7426Z" fill="#FFC289"/>
<path d="M29.3424 40.5561C29.2777 40.4693 29.1969 40.3959 29.1045 40.3397C29.1242 40.4423 29.1304 40.547 29.1229 40.6512C29.099 40.8832 29.0417 41.1106 28.9528 41.3263C28.8818 41.5166 28.7891 41.7209 28.6052 41.8072C28.5042 41.8471 28.3964 41.8667 28.2879 41.8649C27.8959 41.8839 27.4632 41.8896 27.1504 41.6651C27.1593 41.6885 27.1675 41.7114 27.177 41.7342C27.2382 41.9027 27.3377 42.0548 27.4676 42.1783C27.7848 42.4594 28.253 42.4543 28.673 42.4321C28.7815 42.4337 28.8893 42.4141 28.9903 42.3744C29.1736 42.2881 29.2662 42.0838 29.3373 41.8934C29.426 41.6779 29.4835 41.4508 29.508 41.219C29.532 40.9855 29.4734 40.7509 29.3424 40.5561Z" fill="#FF6B00"/>
<path opacity="0.39" d="M27.4652 40.3936C27.3978 40.4647 27.3438 40.5475 27.306 40.6379C27.2428 40.7553 27.207 40.8854 27.2013 41.0186C27.1995 41.085 27.2155 41.1506 27.2475 41.2088C27.2795 41.267 27.3264 41.3157 27.3834 41.3497C27.4532 41.3816 27.5326 41.3848 27.6047 41.3587C27.6769 41.3326 27.7359 41.2793 27.7691 41.2102C27.7879 41.1545 27.8032 41.0977 27.8148 41.0401C27.8415 40.9562 27.8914 40.8815 27.9588 40.8248C28.0261 40.7681 28.1082 40.7317 28.1955 40.7197C28.3147 40.7045 28.4588 40.728 28.5349 40.6354C28.611 40.5427 28.5596 40.4057 28.4676 40.3391C28.2005 40.1462 27.7057 40.1627 27.4652 40.3936Z" fill="white"/>
<path opacity="0.39" d="M19.4501 41.1017C19.5187 41.8053 19.6409 42.5027 19.8155 43.1877C19.8663 43.3844 19.9227 43.5849 20.0414 43.7498C20.2228 44.0036 20.5261 44.1368 20.8281 44.2054C20.96 44.2352 21.125 44.2428 21.203 44.1324C21.2969 43.9992 21.1878 43.8228 21.0926 43.6883C20.8822 43.3968 20.7258 43.07 20.6308 42.7233C20.5718 42.5076 20.5375 42.2792 20.6003 42.0616C20.6631 41.844 20.8433 41.6549 21.066 41.6365C21.2176 41.6245 21.3654 41.6911 21.5171 41.6898C21.6687 41.6885 21.8432 41.5629 21.7975 41.417C21.7582 41.2901 21.5977 41.2654 21.4676 41.2527C20.9965 41.2113 20.5373 41.0821 20.1137 40.872C19.9925 40.8086 19.8003 40.6297 19.6556 40.6506C19.4444 40.6823 19.4323 40.9405 19.4501 41.1017Z" fill="white"/>
<path opacity="0.39" d="M26.3965 32.9396C26.7309 33.1027 26.9542 33.4319 27.1039 33.7726C27.2537 34.1133 27.345 34.4781 27.5055 34.8137C27.5373 34.8772 27.5912 34.9552 27.6635 34.9406C27.7358 34.926 27.7562 34.855 27.7663 34.7915C27.8355 34.3512 27.5671 33.935 27.4764 33.4986C27.4301 33.2765 27.4504 33.0043 27.64 32.88C27.7357 32.8277 27.8426 32.7994 27.9516 32.7975C28.446 32.7542 28.9435 32.757 29.4374 32.8057C29.4399 32.7434 29.4255 32.6815 29.3957 32.6266C29.3659 32.5718 29.3217 32.526 29.268 32.4942C29.1595 32.4329 29.0398 32.3943 28.9159 32.3807C28.3208 32.2783 27.7133 32.2693 27.1154 32.354C26.8464 32.3889 25.6606 32.5818 26.3965 32.9396Z" fill="white"/>
<path opacity="0.39" d="M27.6264 35.544C27.6086 35.7572 27.5921 35.9786 27.667 36.1784C27.6726 36.1996 27.6823 36.2195 27.6956 36.2369C27.7088 36.2543 27.7254 36.269 27.7444 36.2799C27.7702 36.2877 27.7979 36.2871 27.8233 36.278C27.8488 36.269 27.8707 36.2521 27.8859 36.2298C27.9148 36.1842 27.9329 36.1325 27.9385 36.0788C27.9652 35.9253 27.9855 35.7705 27.9988 35.6157C28.028 35.2858 27.6556 35.1906 27.6264 35.544Z" fill="white"/>
<path opacity="0.39" d="M21.5839 35.5059C20.965 36.0871 20.5333 36.8397 20.3443 37.6675C20.3214 37.7702 20.3094 37.8952 20.3887 37.9631C20.4224 37.9873 20.4627 38.0006 20.5043 38.0012C20.5458 38.0017 20.5865 37.9896 20.6209 37.9663C20.6884 37.9178 20.7437 37.8544 20.7827 37.781C21.0212 37.3927 21.2065 36.9258 21.6138 36.7209C21.7813 36.6365 21.9779 36.6022 22.1156 36.4747C22.185 36.4034 22.2352 36.3157 22.2614 36.2197C22.2876 36.1237 22.289 36.0226 22.2653 35.9259C22.1962 35.6004 21.9126 35.1988 21.5839 35.5059Z" fill="white"/>
<path opacity="0.39" d="M34.5497 40.1265C34.7724 40.0206 34.9995 39.9127 35.2431 39.8728C35.3511 39.8463 35.4651 39.8636 35.5603 39.921C35.7063 40.0276 35.6936 40.2426 35.6993 40.4228C35.706 40.6266 35.7541 40.827 35.8408 41.0116C35.8586 41.0609 35.8926 41.1027 35.9372 41.1302C35.9707 41.1426 36.0073 41.1439 36.0416 41.1338C36.0759 41.1238 36.106 41.1029 36.1275 41.0744C36.169 41.0158 36.1941 40.9473 36.2005 40.8758C36.2823 40.3435 36.0818 39.8119 35.8833 39.3107C35.8553 39.2402 35.8198 39.1628 35.7494 39.1374C35.7061 39.1248 35.6601 39.1248 35.6168 39.1374C35.4926 39.1669 35.3743 39.2169 35.2666 39.2853C35.1676 39.3487 35.0763 39.4261 34.9849 39.4972C34.7572 39.6653 34.5104 39.8058 34.2496 39.9159C34.0434 40.0066 33.7357 40.0548 33.5898 40.2401C33.4438 40.4254 33.5181 40.5415 33.7471 40.499C34.0129 40.4539 34.3105 40.242 34.5497 40.1265Z" fill="white"/>
</g>
<path d="M14.127 0.433594H16.6758C17.7812 0.433594 18.6152 0.59375 19.1777 0.914062C19.7402 1.23438 20.0215 1.78711 20.0215 2.57227C20.0215 2.90039 19.9629 3.19727 19.8457 3.46289C19.7324 3.72461 19.5664 3.94141 19.3477 4.11328C19.1289 4.28125 18.8594 4.39453 18.5391 4.45312V4.51172C18.8711 4.57031 19.166 4.67383 19.4238 4.82227C19.6855 4.9707 19.8906 5.18359 20.0391 5.46094C20.1914 5.73828 20.2676 6.09766 20.2676 6.53906C20.2676 7.0625 20.1426 7.50781 19.8926 7.875C19.6465 8.24219 19.293 8.52148 18.832 8.71289C18.375 8.9043 17.832 9 17.2031 9H14.127V0.433594ZM15.5332 3.9668H16.8809C17.5176 3.9668 17.959 3.86328 18.2051 3.65625C18.4512 3.44922 18.5742 3.14648 18.5742 2.74805C18.5742 2.3418 18.4277 2.04883 18.1348 1.86914C17.8457 1.68945 17.3848 1.59961 16.752 1.59961H15.5332V3.9668ZM15.5332 5.10352V7.82227H17.0156C17.6719 7.82227 18.1328 7.69531 18.3984 7.44141C18.6641 7.1875 18.7969 6.84375 18.7969 6.41016C18.7969 6.14453 18.7363 5.91406 18.6152 5.71875C18.498 5.52344 18.3047 5.37305 18.0352 5.26758C17.7656 5.1582 17.4023 5.10352 16.9453 5.10352H15.5332ZM26.8887 9H22.0371V0.433594H26.8887V1.61719H23.4434V3.94336H26.6719V5.12109H23.4434V7.81055H26.8887V9ZM33.6855 6.66797C33.6855 7.17578 33.5605 7.61328 33.3105 7.98047C33.0645 8.34766 32.709 8.62891 32.2441 8.82422C31.7832 9.01953 31.2324 9.11719 30.5918 9.11719C30.2793 9.11719 29.9805 9.09961 29.6953 9.06445C29.4102 9.0293 29.1406 8.97852 28.8867 8.91211C28.6367 8.8418 28.4082 8.75781 28.2012 8.66016V7.33594C28.5488 7.48828 28.9375 7.62695 29.3672 7.75195C29.7969 7.87305 30.2344 7.93359 30.6797 7.93359C31.043 7.93359 31.3438 7.88672 31.582 7.79297C31.8242 7.69531 32.0039 7.55859 32.1211 7.38281C32.2383 7.20312 32.2969 6.99414 32.2969 6.75586C32.2969 6.50195 32.2285 6.28711 32.0918 6.11133C31.9551 5.93555 31.748 5.77539 31.4707 5.63086C31.1973 5.48242 30.8535 5.32422 30.4395 5.15625C30.1582 5.04297 29.8887 4.91406 29.6309 4.76953C29.377 4.625 29.1504 4.45508 28.9512 4.25977C28.752 4.06445 28.5938 3.83398 28.4766 3.56836C28.3633 3.29883 28.3066 2.98242 28.3066 2.61914C28.3066 2.13477 28.4219 1.7207 28.6523 1.37695C28.8867 1.0332 29.2148 0.769531 29.6367 0.585938C30.0625 0.402344 30.5586 0.310547 31.125 0.310547C31.5742 0.310547 31.9961 0.357422 32.3906 0.451172C32.7891 0.544922 33.1797 0.677734 33.5625 0.849609L33.1172 1.98047C32.7656 1.83594 32.4238 1.7207 32.0918 1.63477C31.7637 1.54883 31.4277 1.50586 31.084 1.50586C30.7871 1.50586 30.5352 1.55078 30.3281 1.64062C30.1211 1.73047 29.9629 1.85742 29.8535 2.02148C29.748 2.18164 29.6953 2.37305 29.6953 2.5957C29.6953 2.8457 29.7559 3.05664 29.877 3.22852C30.002 3.39648 30.1934 3.55078 30.4512 3.69141C30.7129 3.83203 31.0488 3.98828 31.459 4.16016C31.9316 4.35547 32.332 4.56055 32.6602 4.77539C32.9922 4.99023 33.2461 5.24805 33.4219 5.54883C33.5977 5.8457 33.6855 6.21875 33.6855 6.66797ZM38.3086 9H36.8965V1.62891H34.3887V0.433594H40.8105V1.62891H38.3086V9Z" fill="white"/>
<defs>
<radialGradient id="paint0_radial_11_899" cx="0" cy="0" r="1" gradientUnits="userSpaceOnUse" gradientTransform="translate(25.1439 140.792) scale(127.587 127.587)">
<stop offset="0.91"/>
<stop offset="0.92" stop-color="#060104"/>
<stop offset="0.93" stop-color="#19030F"/>
<stop offset="0.94" stop-color="#370821"/>
<stop offset="0.96" stop-color="#600E3B"/>
<stop offset="0.97" stop-color="#96155C"/>
<stop offset="0.99" stop-color="#D61E83"/>
<stop offset="1" stop-color="#FF249C"/>
</radialGradient>
<clipPath id="clip0_11_899">
<rect width="44.4926" height="36" fill="white" transform="translate(6 32)"/>
</clipPath>
</defs>
</svg>
