<svg width="28" height="28" viewBox="0 0 28 28" fill="none" xmlns="http://www.w3.org/2000/svg">
<path fill-rule="evenodd" clip-rule="evenodd" d="M0.666504 14.0201C0.666504 6.99618 6.27984 0.666687 14.0265 0.666687C21.5998 0.666687 27.3332 6.876 27.3332 13.98C27.3332 22.219 20.6132 27.3334 13.9998 27.3334C11.8132 27.3334 9.3865 26.7458 7.43984 25.5974C6.75984 25.1835 6.1865 24.8763 5.45317 25.1167L2.75984 25.9179C2.07984 26.1316 1.4665 25.5974 1.6665 24.8763L2.55984 21.8852C2.7065 21.4712 2.67984 21.0306 2.4665 20.6834C1.31984 18.5735 0.666504 16.2634 0.666504 14.0201ZM12.2665 14.0201C12.2665 14.9682 13.0265 15.7293 13.9732 15.7427C14.9198 15.7427 15.6798 14.9682 15.6798 14.0334C15.6798 13.0853 14.9198 12.3242 13.9732 12.3242C13.0398 12.3108 12.2665 13.0853 12.2665 14.0201ZM18.4132 14.0334C18.4132 14.9682 19.1732 15.7427 20.1198 15.7427C21.0665 15.7427 21.8265 14.9682 21.8265 14.0334C21.8265 13.0853 21.0665 12.3242 20.1198 12.3242C19.1732 12.3242 18.4132 13.0853 18.4132 14.0334ZM7.8265 15.7427C6.89317 15.7427 6.11984 14.9682 6.11984 14.0334C6.11984 13.0853 6.87984 12.3242 7.8265 12.3242C8.77317 12.3242 9.53317 13.0853 9.53317 14.0334C9.53317 14.9682 8.77317 15.7293 7.8265 15.7427Z" fill="#E4322B"/>
</svg>
