<svg width="71" height="57" viewBox="0 0 71 57" fill="none" xmlns="http://www.w3.org/2000/svg">
<g clip-path="url(#clip0_44_1597)">
<path d="M1.43066 22.4017V43.9435L29.536 56.6791V29.8533L1.43066 22.4017Z" fill="#E4322B"/>
<path d="M29.5361 29.8533L68.8408 22.9431V45.1671L29.5361 56.6791V29.8533Z" fill="#CA1D17"/>
<path d="M1.43039 22.4017L0 21.5887V15.6274C0 15.6274 29.5357 22.131 29.5357 22.9431V29.8533L1.43039 22.4017Z" fill="#E4322B"/>
<path d="M68.8408 22.9431L70.0504 22.7404V14.6455L29.5361 22.9431V30.144L68.8408 22.9431Z" fill="#CA1D17"/>
<path d="M0 15.6274L42.1794 9.07077L70.05 14.6455L29.5357 22.9431L0 15.6274Z" fill="#F8514A"/>
<path d="M68.8408 22.9431L29.5361 30.8232V33.2705C29.5361 33.2705 54.6198 27.1534 61.2813 27.3572C67.9428 27.5609 68.8408 27.8326 68.8408 27.8326V22.9431Z" fill="#A21812"/>
<path d="M1.43066 22.4017L29.536 30.8232V33.2705L1.43066 22.9431V22.4017Z" fill="#EA5D58"/>
<path d="M15.4828 44.323L14.7766 43.9644L14.0804 44.343L14.2033 43.5609L13.6279 43.0155L14.41 42.8906L14.7507 42.1744L15.1113 42.8796L15.8974 42.9825L15.338 43.5439L15.4828 44.323Z" fill="white"/>
<path d="M51.334 36.2701L50.5728 35.8106L49.7628 36.1762L49.9655 35.3102L49.3662 34.6529L50.2522 34.578L50.6927 33.8059L51.0383 34.6249L51.9083 34.8047L51.2361 35.3861L51.334 36.2701Z" fill="#AEE4FF"/>
<path d="M16.8219 19.7947L56.6999 11.9755L51.9083 11.0166L11.375 18.4452L16.8219 19.7947Z" fill="#FF9635"/>
<path d="M47.8573 19.1914L20.1426 12.4969L24.5566 11.8107L53.0964 18.1176L47.8573 19.1914Z" fill="#FF9635"/>
<path d="M1.43066 33.3983V31.1479L8.8423 24.5124L10.5534 25.1357L1.43066 33.3983Z" fill="white"/>
<path d="M3.39072 44.8324L1.6377 44.0373L19.5345 27.8266L21.5113 28.4189L3.39072 44.8324Z" fill="white"/>
<path d="M13.1124 49.2375L11.3594 48.4423L29.5359 31.9789V34.3612L13.1124 49.2375Z" fill="white"/>
<path d="M22.8331 53.6415L21.0801 52.8474L29.5355 45.1891V47.5714L22.8331 53.6415Z" fill="white"/>
<path d="M68.8409 30.2978V27.8326L64.3329 23.7692L62.1934 24.2766L68.8409 30.2978Z" fill="#F9F9F9"/>
<path d="M68.8113 43.5289L68.8403 41.0777L52.4208 26.2354L50.2383 26.6729L68.8113 43.5289Z" fill="#F9F9F9"/>
<path d="M59.204 47.9889L61.1917 47.4075L40.4641 28.6327L38.3105 29.0642L59.204 47.9889Z" fill="#F9F9F9"/>
<path d="M48.1292 51.1823L50.1599 50.6379L29.5361 31.9789V34.3612L48.1292 51.1823Z" fill="#F9F9F9"/>
<path d="M37.1635 54.4446L39.1513 53.8623L29.5361 45.1891V47.5714L37.1635 54.4446Z" fill="#F9F9F9"/>
<path d="M11.3751 18.4452L11.0635 48.3085L16.9159 50.9605L16.822 19.7947L11.3751 18.4452Z" fill="#FF9635"/>
<path d="M47.8574 19.1914L48.3009 51.1823L53.9286 49.5341L53.0965 18.1176L47.8574 19.1914Z" fill="#FF9635"/>
<path d="M22.4304 19.8296C22.9119 20.1463 23.4992 20.2612 24.0736 20.3061C25.9964 20.4589 27.9193 19.9175 29.6673 19.0965C31.4153 18.2754 33.0115 17.1796 34.6387 16.1448C34.7755 16.0579 34.9254 15.968 35.0872 15.979C35.2238 16.0017 35.3522 16.0595 35.4598 16.1468C36.8372 17.0807 38.3375 17.8659 39.9547 18.2534C41.5719 18.641 43.3229 18.608 44.8552 17.9538C45.3486 17.745 45.87 17.3984 45.9379 16.866C46.0009 16.3755 45.6463 15.93 45.2677 15.6114C43.5946 14.207 41.2382 14.0741 39.0677 13.8244C37.3836 13.6306 35.6975 13.325 34.0034 13.4159C32.2893 13.5058 30.6252 13.9942 28.9791 14.4787C26.8814 15.097 24.7498 15.7293 22.9019 16.9009C21.7932 17.6081 21.056 18.9237 22.4304 19.8296Z" fill="#FF810D"/>
<path d="M40.5752 2.06367C39.5334 1.53227 38.096 2.46322 36.7855 4.33611C36.1142 5.29502 33.7289 9.49828 33.3743 10.6809C33.2015 11.2563 33.0587 11.8476 33.0657 12.447C33.0727 13.0463 33.2395 13.6616 33.628 14.1191C33.7233 14.2478 33.8591 14.3406 34.0136 14.3828C34.1404 14.398 34.2691 14.3819 34.3882 14.3358C35.0271 14.1236 35.6211 13.7947 36.1402 13.3659C36.8394 12.8095 37.4238 12.1333 38.0081 11.4601C39.2467 10.0347 40.5003 8.59031 41.3334 6.89222C41.687 6.17403 41.9656 5.39391 41.9606 4.59481C41.9527 3.0965 41.4672 2.51816 40.5752 2.06367Z" fill="#FFAF66"/>
<path d="M37.6577 8.38455C38.9272 6.58658 41.5283 2.95867 40.0889 1.92184C41.1317 1.85991 42.6061 2.97066 43.4401 3.66487C44.2502 4.33911 45.0144 5.19415 45.1203 6.24297C45.1962 6.98713 44.9205 7.73429 44.491 8.34659C44.0614 8.9589 43.4921 9.45335 42.9028 9.91882C40.7502 11.6281 38.3683 13.0265 35.8267 14.0731C35.4092 14.2449 34.9787 14.4088 34.5282 14.4277C33.8969 14.4537 33.3295 14.2739 33.6042 13.6926C33.8869 13.0853 34.5851 12.4889 35.0027 11.9565C35.9183 10.7892 36.8033 9.59852 37.6577 8.38455Z" fill="#FF9635"/>
<path d="M47.0142 10.0606C46.5477 8.98986 44.8407 8.80007 42.6411 9.41837C41.5154 9.73402 37.0065 11.4751 35.9826 12.1663C35.4832 12.5019 34.9998 12.8655 34.6252 13.338C34.2506 13.8104 33.9909 14.3838 34.0019 14.9831C33.9938 15.1429 34.0396 15.3008 34.1317 15.4316C34.2205 15.5231 34.3302 15.5916 34.4514 15.6314C35.0805 15.8716 35.7487 15.9932 36.4222 15.99C37.3131 16 38.1971 15.8491 39.0752 15.6993C40.9361 15.3806 42.8219 15.055 44.541 14.2719C45.2692 13.9403 45.9764 13.5148 46.4808 12.8925C47.4277 11.7298 47.4158 10.9766 47.0142 10.0606Z" fill="#FFAF66"/>
<path d="M40.7544 13.1052C42.876 12.5169 47.1861 11.3582 46.7286 9.64413C47.5757 10.2574 48.0132 12.0504 48.218 13.1162C48.4177 14.1491 48.4637 15.2958 47.8833 16.1738C47.4698 16.7971 46.7846 17.2006 46.0634 17.4024C45.3422 17.6042 44.586 17.6231 43.8379 17.6121C41.0899 17.5712 38.3613 17.1445 35.732 16.3446C35.3005 16.2127 34.862 16.0669 34.5014 15.7952C34.002 15.4166 33.6744 14.9202 34.2517 14.6425C34.856 14.3508 35.773 14.3318 36.4342 14.184C37.8839 13.8617 39.324 13.5021 40.7544 13.1052Z" fill="#FF9635"/>
<path d="M25.2873 4.15331C26.1603 3.37519 27.7845 3.91358 29.5295 5.39191C30.4215 6.14906 33.7927 9.61116 34.436 10.667C34.7476 11.1784 35.0353 11.7148 35.1811 12.2971C35.327 12.8795 35.321 13.5158 35.0603 14.0561C35.001 14.205 34.8933 14.3296 34.7546 14.4097C34.6357 14.4565 34.507 14.4733 34.38 14.4587C33.7081 14.415 33.0501 14.2474 32.4392 13.9642C31.6262 13.6017 30.885 13.0962 30.1498 12.5938C28.5906 11.528 27.0123 10.4462 25.7767 9.01783C25.2523 8.41251 24.7869 7.73128 24.5881 6.95515C24.2145 5.4938 24.5401 4.81856 25.2873 4.15331Z" fill="#FFAF66"/>
<path d="M29.7073 9.53025C28.0241 8.11085 24.59 5.26106 25.7197 3.8956C24.6949 4.09537 23.5492 5.54674 22.9229 6.43074C22.3116 7.28678 21.7902 8.30962 21.953 9.34945C22.0679 10.0876 22.5234 10.7409 23.0937 11.2243C23.6641 11.7078 24.3443 12.0414 25.0285 12.3431C27.5435 13.4519 30.2019 14.2017 32.9256 14.5706C33.3731 14.6315 33.8316 14.6804 34.2731 14.5845C34.8904 14.4507 35.3898 14.1341 34.9803 13.6396C34.5528 13.1232 33.7277 12.7236 33.1823 12.3141C32.0017 11.4151 30.8433 10.4872 29.7073 9.53025Z" fill="#FF9635"/>
<path d="M30.8762 0.963911C29.7664 1.33549 29.4248 3.0156 29.8413 5.25907C30.0551 6.40977 31.3826 11.0525 31.9779 12.1393C32.2676 12.6647 32.5892 13.1811 33.0218 13.5967C33.4543 14.0122 34.0096 14.3238 34.608 14.3668C34.7669 14.3894 34.9288 14.3577 35.0675 14.2769C35.167 14.1971 35.2455 14.0943 35.2962 13.9772C35.5925 13.3723 35.774 12.7176 35.8316 12.0464C35.9215 11.1604 35.8516 10.2664 35.7816 9.37842C35.6318 7.49555 35.482 5.5887 34.8537 3.80671C34.588 3.05056 34.2294 2.30839 33.655 1.75002C32.5753 0.699209 31.8251 0.647268 30.8762 0.963911Z" fill="#FFAF66"/>
<path d="M33.3433 7.47358C32.9487 5.30702 32.1846 0.910981 30.4355 1.21164C31.1228 0.42353 32.9477 0.149838 34.0315 0.0419601C35.0783 -0.0579273 36.229 -0.00698483 37.0461 0.651273C37.6294 1.11875 37.9701 1.83893 38.1059 2.57411C38.2417 3.30928 38.1928 4.06542 38.1149 4.80859C37.8249 7.54204 37.1524 10.2212 36.1171 12.7676C35.9473 13.1861 35.7625 13.6087 35.4599 13.9443C35.0364 14.4128 34.5129 14.6884 34.2882 14.0881C34.0525 13.4598 34.1164 12.5449 34.0295 11.8726C33.837 10.4009 33.6083 8.9346 33.3433 7.47358Z" fill="#FF9635"/>
<path d="M21.1245 12.9314C21.3072 11.7757 22.9074 11.1614 25.1919 11.2024C26.3615 11.2234 31.1641 11.7667 32.3298 12.1753C32.8962 12.3751 33.4585 12.6068 33.94 12.9644C34.4215 13.322 34.819 13.8194 34.9599 14.4028C35.0085 14.5555 35.0043 14.7202 34.9479 14.8702C34.8853 14.9815 34.7965 15.0759 34.6892 15.1449C34.1417 15.537 33.5263 15.8242 32.8742 15.992C32.0152 16.2267 31.1212 16.3046 30.2342 16.3825C28.3523 16.5454 26.4465 16.7082 24.5845 16.3825C23.7964 16.2457 23.0043 16.014 22.3591 15.5395C21.1464 14.6505 20.9676 13.9193 21.1245 12.9314Z" fill="#FFAF66"/>
<path d="M27.9506 14.2919C25.753 14.2599 21.2871 14.2309 21.2951 12.4569C20.6308 13.264 20.6618 15.1089 20.7337 16.1917C20.8026 17.2415 21.0473 18.3633 21.8325 19.0655C22.3898 19.5649 23.156 19.7807 23.9041 19.7937C24.6523 19.8067 25.3895 19.6328 26.1096 19.4331C28.7579 18.6977 31.2898 17.5942 33.6312 16.1548C34.0157 15.918 34.4023 15.6653 34.683 15.3117C35.0745 14.8123 35.2603 14.2559 34.631 14.1321C33.9738 14.0032 33.0818 14.218 32.4045 14.2419C30.9209 14.2965 29.4362 14.3132 27.9506 14.2919Z" fill="#FF9635"/>
<path d="M33.0625 13.7645C32.9496 14.2478 32.9955 14.7547 33.1933 15.2098C33.2904 15.475 33.4473 15.7143 33.6518 15.9091C34.1512 16.3506 34.8874 16.3426 35.5497 16.3086C35.7204 16.3118 35.8902 16.2812 36.0491 16.2187C36.3388 16.0829 36.4846 15.7612 36.5965 15.4616C36.7362 15.1223 36.8264 14.7647 36.8642 14.3998C36.9008 14.0319 36.8079 13.6627 36.6015 13.3559C36.177 12.7776 35.278 12.6567 34.6087 12.6168C34.2583 12.6009 33.9131 12.7065 33.6314 12.9155C33.3497 13.1246 33.1488 13.4245 33.0625 13.7645Z" fill="#FFC289"/>
<path d="M36.7509 13.4708C36.6491 13.3343 36.5219 13.2186 36.3763 13.1302C36.4074 13.2917 36.4171 13.4566 36.4053 13.6206C36.3677 13.9859 36.2776 14.3439 36.1376 14.6834C36.0257 14.9831 35.8799 15.3047 35.5902 15.4406C35.4313 15.5034 35.2616 15.5343 35.0908 15.5315C34.4735 15.5614 33.7922 15.5704 33.2998 15.2168C33.3138 15.2538 33.3268 15.2898 33.3418 15.3257C33.4381 15.591 33.5947 15.8304 33.7992 16.0249C34.2987 16.4674 35.0358 16.4594 35.6971 16.4245C35.8679 16.4271 36.0376 16.3962 36.1965 16.3336C36.4852 16.1977 36.631 15.8761 36.7429 15.5764C36.8826 15.2371 36.9731 14.8796 37.0116 14.5146C37.0495 14.1469 36.9572 13.7775 36.7509 13.4708Z" fill="#FF6B00"/>
<path opacity="0.39" d="M33.7946 13.2151C33.6884 13.327 33.6035 13.4573 33.5439 13.5997C33.4445 13.7844 33.3881 13.9893 33.3791 14.199C33.3763 14.3035 33.4014 14.4069 33.4518 14.4985C33.5022 14.5902 33.576 14.6667 33.6658 14.7204C33.7756 14.7705 33.9008 14.7755 34.0143 14.7345C34.1278 14.6934 34.2207 14.6094 34.2731 14.5006C34.3027 14.413 34.3267 14.3236 34.345 14.2329C34.387 14.1008 34.4656 13.9833 34.5717 13.894C34.6777 13.8047 34.807 13.7473 34.9443 13.7285C35.1321 13.7045 35.3589 13.7415 35.4787 13.5957C35.5986 13.4498 35.5177 13.2341 35.3729 13.1292C34.9523 12.8255 34.1732 12.8515 33.7946 13.2151Z" fill="white"/>
<path opacity="0.39" d="M21.176 14.3298C21.2841 15.4376 21.4765 16.5356 21.7514 17.6141C21.8313 17.9238 21.9202 18.2394 22.107 18.4991C22.3927 18.8987 22.8701 19.1085 23.3456 19.2163C23.5533 19.2633 23.813 19.2753 23.9359 19.1015C24.0837 18.8917 23.9119 18.614 23.7621 18.4022C23.4308 17.9434 23.1845 17.4288 23.0349 16.883C22.942 16.5433 22.8881 16.1837 22.987 15.8411C23.0859 15.4985 23.3695 15.2009 23.7202 15.1719C23.9589 15.1529 24.1916 15.2578 24.4304 15.2558C24.6691 15.2538 24.9438 15.056 24.8719 14.8263C24.8099 14.6265 24.5572 14.5875 24.3524 14.5676C23.6108 14.5024 22.8878 14.2991 22.2208 13.9682C22.0301 13.8684 21.7274 13.5867 21.4997 13.6196C21.167 13.6696 21.1481 14.0761 21.176 14.3298Z" fill="white"/>
<path opacity="0.39" d="M32.113 1.47933C32.6394 1.73604 32.991 2.25446 33.2267 2.79085C33.4625 3.32725 33.6063 3.9016 33.859 4.43C33.9089 4.52989 33.9939 4.65275 34.1077 4.62978C34.2216 4.6068 34.2536 4.49493 34.2695 4.39504C34.3784 3.70182 33.9559 3.04656 33.8131 2.35934C33.7401 2.00973 33.7721 1.58122 34.0708 1.38544C34.2213 1.30308 34.3896 1.25852 34.5612 1.25558C35.3397 1.18748 36.1229 1.19183 36.9006 1.26857C36.9045 1.17036 36.8818 1.0729 36.8349 0.986555C36.7879 0.900205 36.7185 0.828179 36.6339 0.778121C36.4631 0.68162 36.2745 0.620792 36.0795 0.599323C35.1425 0.438087 34.1861 0.423933 33.2447 0.55737C32.8212 0.612308 30.9543 0.915966 32.113 1.47933Z" fill="white"/>
<path opacity="0.39" d="M34.0491 5.57971C34.0211 5.91534 33.9951 6.26394 34.113 6.57859C34.1218 6.61194 34.1371 6.64324 34.158 6.67066C34.1789 6.69809 34.205 6.72111 34.2349 6.73841C34.2756 6.75066 34.3191 6.74961 34.3592 6.73542C34.3992 6.72123 34.4337 6.69463 34.4576 6.6595C34.5033 6.58772 34.5316 6.50635 34.5405 6.42177C34.5825 6.18004 34.6144 5.93631 34.6354 5.69259C34.6814 5.17317 34.095 5.02334 34.0491 5.57971Z" fill="white"/>
<path opacity="0.39" d="M24.5354 5.51978C23.5608 6.43483 22.8813 7.6197 22.5836 8.92294C22.5476 9.08476 22.5286 9.28154 22.6535 9.38842C22.7066 9.42654 22.7701 9.44745 22.8355 9.44835C22.9009 9.44924 22.9649 9.43007 23.0191 9.39341C23.1253 9.31713 23.2125 9.21731 23.2738 9.10174C23.6494 8.49043 23.941 7.75526 24.5823 7.43262C24.846 7.29977 25.1557 7.24583 25.3724 7.04506C25.4817 6.93284 25.5607 6.79466 25.602 6.64352C25.6432 6.49237 25.6453 6.33323 25.6082 6.18103C25.4993 5.66861 25.0528 5.03632 24.5354 5.51978Z" fill="white"/>
<path opacity="0.39" d="M44.9489 12.7946C45.2995 12.6278 45.6571 12.458 46.0407 12.395C46.2106 12.3533 46.3902 12.3806 46.5401 12.4709C46.7698 12.6387 46.7499 12.9774 46.7588 13.261C46.7694 13.5819 46.8452 13.8973 46.9816 14.188C47.0097 14.2656 47.0632 14.3314 47.1334 14.3748C47.1862 14.3943 47.2438 14.3963 47.2978 14.3804C47.3518 14.3646 47.3992 14.3318 47.4331 14.2869C47.4983 14.1947 47.538 14.0868 47.548 13.9742C47.6768 13.1362 47.3612 12.2991 47.0485 11.51C47.0046 11.3991 46.9486 11.2773 46.8378 11.2373C46.7696 11.2174 46.6972 11.2174 46.629 11.2373C46.4335 11.2837 46.2472 11.3623 46.0776 11.4701C45.9218 11.57 45.778 11.6918 45.6341 11.8037C45.2756 12.0684 44.887 12.2897 44.4764 12.4629C44.1518 12.6058 43.6673 12.6817 43.4376 12.9734C43.2079 13.265 43.3247 13.4478 43.6853 13.3809C44.1038 13.31 44.5723 12.9764 44.9489 12.7946Z" fill="white"/>
</g>
<defs>
<clipPath id="clip0_44_1597">
<rect width="70.05" height="56.6791" fill="white"/>
</clipPath>
</defs>
</svg>
