<svg width="15" height="16" viewBox="0 0 15 16" fill="none" xmlns="http://www.w3.org/2000/svg">
<path d="M13 2H11.5V0.375C11.5 0.1875 11.3125 0 11.125 0H9.875C9.65625 0 9.5 0.1875 9.5 0.375V2H5.5V0.375C5.5 0.1875 5.3125 0 5.125 0H3.875C3.65625 0 3.5 0.1875 3.5 0.375V2H2C1.15625 2 0.5 2.6875 0.5 3.5V14.5C0.5 15.3438 1.15625 16 2 16H13C13.8125 16 14.5 15.3438 14.5 14.5V3.5C14.5 2.6875 13.8125 2 13 2ZM12.8125 14.5H2.1875C2.0625 14.5 2 14.4375 2 14.3125V5H13V14.3125C13 14.4375 12.9062 14.5 12.8125 14.5ZM11.1562 8.25C11.2812 8.09375 11.2812 7.875 11.1562 7.71875L10.4375 7C10.3125 6.84375 10.0625 6.84375 9.90625 7L6.4375 10.4375L5.0625 9.0625C4.90625 8.90625 4.6875 8.90625 4.53125 9.0625L3.8125 9.75C3.6875 9.90625 3.6875 10.1562 3.8125 10.2812L6.15625 12.6562C6.3125 12.8125 6.5625 12.8125 6.6875 12.6562L11.1562 8.25Z" fill="#E4322B"/>
</svg>
