<svg width="32" height="32" viewBox="0 0 32 32" fill="none" xmlns="http://www.w3.org/2000/svg">
<path fill-rule="evenodd" clip-rule="evenodd" d="M27.3137 4.68629C33.5621 10.9347 33.5621 21.0653 27.3137 27.3137C21.0653 33.5621 10.9347 33.5621 4.68629 27.3137C-1.5621 21.0653 -1.5621 10.9347 4.68629 4.68629C10.9347 -1.5621 21.0653 -1.5621 27.3137 4.68629ZM23.1139 15.0286C23.1139 14.762 23.0187 14.5334 22.8282 14.3429C22.6378 14.1525 22.4092 14.0572 22.1425 14.0572L17.9428 14.0572H14.0572H9.85746C9.5908 14.0572 9.36224 14.1525 9.17178 14.3429C8.98131 14.5334 8.88608 14.762 8.88608 15.0286V16.9714C8.88608 17.238 8.98131 17.4666 9.17178 17.6571C9.36224 17.8475 9.5908 17.9428 9.85746 17.9428H14.0572H17.9428H22.1425C22.4092 17.9428 22.6378 17.8475 22.8282 17.6571C23.0187 17.4666 23.1139 17.238 23.1139 16.9714V15.0286Z" fill="#E4322B"/>
</svg>
