<svg width="54" height="44" viewBox="0 0 54 44" fill="none" xmlns="http://www.w3.org/2000/svg">
<path d="M49.1572 37.2214C54.1892 31.7601 53.6826 24.7467 53.6666 24.6667V3.33341C53.6666 2.62617 53.3856 1.94789 52.8855 1.4478C52.3854 0.9477 51.7071 0.666748 50.9999 0.666748H34.9999C32.0586 0.666748 29.6666 3.05875 29.6666 6.00008V24.6667C29.6666 25.374 29.9475 26.0523 30.4476 26.5524C30.9477 27.0525 31.626 27.3334 32.3332 27.3334H40.5412C40.4849 28.6518 40.091 29.9336 39.3972 31.0561C38.0426 33.1921 35.4906 34.6507 31.8079 35.3867L29.6666 35.8134V43.3334H32.3332C39.7546 43.3334 45.4159 41.2774 49.1572 37.2214ZM19.8052 37.2214C24.8399 31.7601 24.3306 24.7467 24.3146 24.6667V3.33341C24.3146 2.62617 24.0336 1.94789 23.5335 1.4478C23.0334 0.9477 22.3552 0.666748 21.6479 0.666748H5.64791C2.70657 0.666748 0.314575 3.05875 0.314575 6.00008V24.6667C0.314575 25.374 0.595527 26.0523 1.09562 26.5524C1.59572 27.0525 2.274 27.3334 2.98124 27.3334H11.1892C11.1329 28.6518 10.739 29.9336 10.0452 31.0561C8.69057 33.1921 6.13858 34.6507 2.45591 35.3867L0.314575 35.8134V43.3334H2.98124C10.4026 43.3334 16.0639 41.2774 19.8052 37.2214Z" fill="#E4322B"/>
</svg>
