<svg width="21" height="20" viewBox="0 0 21 20" fill="none" xmlns="http://www.w3.org/2000/svg">
<path d="M16.4189 11.82C16.1599 12.071 16.0409 12.434 16.0999 12.79L16.9889 17.71C17.0639 18.127 16.8879 18.549 16.5389 18.79C16.1969 19.04 15.7419 19.07 15.3689 18.87L10.9399 16.56C10.7859 16.478 10.6149 16.434 10.4399 16.429H10.1689C10.0749 16.443 9.98288 16.473 9.89888 16.519L5.46888 18.84C5.24988 18.95 5.00188 18.989 4.75888 18.95C4.16688 18.838 3.77188 18.274 3.86888 17.679L4.75888 12.759C4.81788 12.4 4.69888 12.035 4.43988 11.78L0.828876 8.28C0.526876 7.987 0.421876 7.547 0.559876 7.15C0.693876 6.754 1.03588 6.465 1.44888 6.4L6.41888 5.679C6.79688 5.64 7.12888 5.41 7.29888 5.07L9.48888 0.58C9.54088 0.48 9.60788 0.388 9.68888 0.31L9.77888 0.24C9.82588 0.188 9.87988 0.145 9.93988 0.11L10.0489 0.07L10.2189 0H10.6399C11.0159 0.039 11.3469 0.264 11.5199 0.6L13.7389 5.07C13.8989 5.397 14.2099 5.624 14.5689 5.679L19.5389 6.4C19.9589 6.46 20.3099 6.75 20.4489 7.15C20.5799 7.551 20.4669 7.991 20.1589 8.28L16.4189 11.82Z" fill="#E4322B"/>
</svg>
