<svg width="240" height="558" viewBox="0 0 240 558" fill="none" xmlns="http://www.w3.org/2000/svg">
<path d="M166.13 542.685C166.13 542.685 192.642 546.265 189.903 547.989C187.163 549.713 164.716 545.337 164.716 545.337L166.13 542.685Z" fill="#272E33"/>
<path d="M102.145 547.459C102.145 547.459 91.9379 558.817 89.375 556.961C86.8121 555.104 96.8869 547.149 96.8869 547.149L102.145 547.459Z" fill="#272E33"/>
<path d="M149.692 286.174C149.692 286.174 150.443 380.488 155.481 415.181C161.181 454.957 172.405 543.348 172.405 543.348H165.732C165.732 543.348 120.616 470.956 125.698 427.644C130.116 390.918 115.976 331.166 115.976 331.166C115.976 331.166 100.29 497.208 102.72 547.724H94.4567C84.541 522.003 77.9479 495.121 74.8372 467.73C72.9813 453.19 80.4048 430.782 78.9024 415.27C74.4836 369.969 70.0648 323.741 74.8813 295.942L76.7815 282.683L149.692 286.174Z" fill="#1C1414"/>
<path d="M169.753 543.26C169.753 543.26 169.753 543.039 169.753 542.641C169.753 542.243 169.488 541.581 169.223 540.785C168.781 539.194 168.074 536.807 167.191 533.802L165.732 528.72C165.246 526.863 164.672 524.83 164.097 522.665C163.523 520.499 162.904 518.245 162.241 515.726C161.888 514.489 161.623 513.207 161.314 511.881C161.004 510.555 160.651 509.229 160.341 507.859C159.679 505.119 158.927 502.246 158.265 499.02C157.602 495.794 156.895 492.877 156.188 489.606C155.834 488.015 155.481 486.336 155.083 484.657C154.685 482.977 154.42 481.254 154.067 479.53C153.404 476.038 152.697 472.459 151.99 468.79C149.294 454.073 146.643 437.854 144.389 420.661C142.136 403.469 140.501 387.161 139.219 372.046C138.91 368.29 138.645 364.666 138.38 361.13C138.38 359.362 138.07 357.638 137.982 355.915C137.894 354.191 137.761 352.512 137.673 350.832C137.452 347.518 137.231 344.291 137.054 341.198C136.877 338.104 136.745 335.143 136.612 332.359C136.612 330.989 136.612 329.574 136.612 328.248C136.612 326.923 136.612 325.597 136.612 324.315C136.612 321.752 136.612 319.365 136.347 317.111C136.082 314.857 136.347 312.692 136.126 310.835C135.905 308.979 136.126 307.167 136.126 305.576C136.126 302.394 136.126 299.963 136.126 298.284C136.126 297.444 136.126 296.825 136.126 296.383C136.126 295.941 136.126 295.72 136.126 295.72C136.126 295.72 136.126 295.941 136.126 296.383V305.576C136.126 307.167 136.126 308.935 136.126 310.835C136.126 312.736 136.126 314.857 136.126 317.111C136.126 319.365 136.126 321.796 136.126 324.315C136.126 325.597 136.126 326.923 136.126 328.248C136.126 329.574 136.126 330.989 136.126 332.403C136.126 335.231 136.347 338.193 136.48 341.242C136.612 344.291 136.877 347.562 137.054 350.877C137.054 352.556 137.054 354.235 137.364 355.959C137.673 357.683 137.363 359.406 137.717 361.174C137.982 364.71 138.247 368.378 138.512 372.09C139.75 387.029 141.385 403.469 143.638 420.706C145.892 437.942 148.543 454.118 151.283 468.835C152.034 472.547 152.741 476.127 153.448 479.574C153.801 481.342 154.155 483.066 154.509 484.745C154.862 486.425 155.216 488.06 155.613 489.695C156.32 492.965 157.027 496.103 157.69 499.109C158.353 502.114 159.148 504.987 159.855 507.727C160.209 509.097 160.518 510.467 160.872 511.749C161.225 513.03 161.49 514.356 161.844 515.594C162.507 518.024 163.169 520.367 163.788 522.532C164.407 524.698 164.937 526.731 165.467 528.587C165.997 530.443 166.528 532.123 167.014 533.625C167.942 536.631 168.693 538.973 169.223 540.564L169.798 542.376L169.753 543.26Z" fill="#060202"/>
<path d="M94.6333 547.635C94.6333 547.635 94.6333 547.414 94.6333 546.972C94.6333 546.53 94.6333 545.956 94.6333 545.116C94.6333 543.525 94.2357 541.139 93.9264 538.045C93.9264 536.498 93.5728 534.774 93.3961 532.918C93.2193 531.062 93.0426 529.029 92.8658 526.819C92.4682 522.4 91.9822 517.45 91.6728 511.925C91.6728 509.185 91.2751 506.268 91.0984 503.086C91.0984 501.584 91.0984 500.037 90.8333 498.667C90.5682 497.297 90.8333 495.484 90.6124 493.893L90.3472 488.899C90.3472 488.06 90.3472 487.22 90.3472 486.38C90.3472 485.541 90.3472 484.657 90.3472 483.817C90.3472 480.325 90.1263 476.79 89.9937 473.122C89.6402 458.493 89.5519 442.406 89.9937 425.523C90.4356 408.64 90.8332 392.553 91.4518 377.924C91.7611 370.632 92.0705 363.693 92.4239 357.196C92.7774 350.7 93.0426 344.645 93.3077 339.12C93.8822 328.072 94.324 319.1 94.6775 312.913C94.6775 309.819 94.8985 307.432 94.9869 305.797C94.9869 305.001 94.9869 304.383 94.9869 303.941V303.322C94.9869 303.322 94.9869 303.543 94.9869 303.941C94.9869 304.339 94.9869 305.001 94.9869 305.797C94.9869 307.432 94.7217 309.819 94.5007 312.913C94.0589 319.1 93.5286 328.027 92.8658 339.076C92.5565 344.601 92.2031 350.655 91.8496 357.152C91.4961 363.649 91.1426 370.411 90.7891 377.924C90.1704 392.553 89.5518 408.861 89.2867 425.523C89.0216 442.185 89.2868 458.493 89.5077 473.122C89.5077 476.79 89.7728 480.37 89.9054 483.817C89.9054 484.701 89.9054 485.54 89.9054 486.424V488.944C89.9054 490.623 89.9054 492.302 90.1705 493.893L90.4356 498.711C90.4356 500.258 90.4356 501.804 90.7007 503.13C90.7007 506.136 91.1426 509.052 91.3635 511.969C91.717 517.494 92.2473 522.488 92.645 526.863C92.645 529.073 93.0426 531.283 93.2635 532.962C93.4844 534.642 93.7054 536.542 93.8822 538.089C94.2799 541.138 94.5891 543.525 94.7658 545.16C94.7658 545.956 94.9869 546.575 95.0311 546.972C95.0753 547.37 94.5891 547.635 94.6333 547.635Z" fill="#060202"/>
<path d="M226.757 127.954C224.47 128.152 222.182 127.576 220.261 126.319C217.654 124.286 217.433 119.911 215.842 117.789C214.252 115.668 211.998 116.198 209.7 115.58C207.402 114.961 207.137 112.221 210.717 111.381C212.522 111.135 214.358 111.48 215.951 112.364C217.544 113.248 218.808 114.624 219.554 116.287C219.554 116.287 222.206 119.955 221.366 113.546C220.526 107.138 216.947 88.355 221.675 87.9131C223.575 87.9131 224.194 105.591 224.194 105.591C224.194 105.591 227.552 103.647 228.878 106.475C228.878 106.475 232.545 104.619 233.562 107.536C233.562 107.536 236.169 105.282 237.981 110.806C239.792 116.331 239.085 118.275 237.715 125.214C236.346 132.153 226.757 127.954 226.757 127.954Z" fill="#FCCAB1"/>
<path d="M235.064 124.949L232.191 142.495L221.896 141.036L224.282 122.828L235.064 124.949Z" fill="#FCCAB1"/>
<path d="M153.493 119.424L133.387 116.286L91.0991 116.773L79.7869 118.761L105.46 219.969L137.143 216.168L153.493 119.424Z" fill="#E0E0E0"/>
<path d="M61.7128 120.971C61.7128 120.971 -1.38828 173.122 0.997894 202.777C2.94218 226.599 71.169 259.082 71.169 259.082L76.781 246.31C76.781 246.31 25.876 214.047 30.339 196.988C34.5369 181.077 67.8108 163.929 67.8108 163.929C69.4457 147.621 69.1364 132.108 61.7128 120.971Z" fill="#808080"/>
<path d="M129.543 96.8848V116.021C126.834 119.848 122.787 122.517 118.204 123.499C113.621 124.481 108.836 123.705 104.798 121.325L96.4902 115.491V95.3379L129.543 96.8848Z" fill="#FCCAB1"/>
<path d="M134.491 115.933L133.916 108.994L115.799 117.612L116.683 127.689L134.491 115.933Z" fill="#EAEAEA"/>
<path d="M115.8 117.612L113.061 124.109L116.463 125.037L115.8 117.612Z" fill="#CECECE"/>
<path d="M113.06 124.109L110.763 117.612L108.288 125.523L113.06 124.109Z" fill="#CECECE"/>
<path d="M94.1034 109.48C94.1034 109.746 110.762 117.657 110.762 117.657L108.288 127.159L91.0986 116.728L94.1034 109.48Z" fill="#EAEAEA"/>
<path d="M159.59 179.663C159.59 179.663 184.821 223.107 208.771 223.107C243.459 223.107 238.642 137.103 238.642 137.103L219.42 136.219C219.42 136.219 212.792 185.762 207.18 188.104C201.568 190.447 173.111 143.688 165.82 124.772L164.45 121.192L138.247 116.773L116.462 206.843L115.402 282.771L123.576 307.079L158.927 304.913L151.459 256.784L159.59 179.663Z" fill="#808080"/>
<path d="M67.7236 164.504C68.4089 149.747 66.3718 134.99 61.7141 120.971L91.0992 116.552L116.463 206.622L116.242 285.556L111.116 303.234L68.1655 300.361C68.1655 300.361 78.594 216.787 78.7266 215.064C78.8591 213.34 67.7236 164.504 67.7236 164.504Z" fill="#808080"/>
<path d="M164.009 125.037C163.827 125.7 163.724 126.383 163.7 127.07C163.7 128.44 163.346 130.341 163.125 132.727C162.595 137.5 161.844 144.041 161.004 151.289C160.165 158.537 159.502 165.167 159.148 169.94C159.148 172.326 158.883 174.359 158.839 175.597C158.763 176.302 158.763 177.013 158.839 177.718C159.011 177.038 159.114 176.342 159.148 175.641C159.148 174.315 159.502 172.371 159.723 169.984C160.209 165.255 161.004 158.67 161.844 151.422C162.684 144.174 163.346 137.544 163.7 132.771C163.7 130.385 163.965 128.352 164.009 127.114C164.058 126.423 164.058 125.729 164.009 125.037Z" fill="#666666"/>
<path d="M143.328 117.657C142.754 117.657 138.247 168.658 138.247 168.658L129.409 179.398L130.779 186.337L116.329 212.854V206.843L138.114 116.773L143.328 117.657Z" fill="#666666"/>
<path d="M61.4912 121.458C61.4912 121.458 62.0657 123.888 63.0378 127.733L63.7891 130.915C64.0542 132.065 64.3193 133.258 64.5844 134.539C65.1147 137.147 65.6892 139.975 66.131 142.981C66.5729 145.986 66.9706 148.859 67.2358 151.466C67.2358 152.748 67.5008 154.03 67.5892 155.179C67.6776 156.328 67.5893 157.433 67.8102 158.405C67.8411 160.562 67.9885 162.716 68.252 164.858C68.3519 164.287 68.3519 163.704 68.252 163.134C68.252 162.559 68.252 161.897 68.252 161.101C68.252 160.305 68.252 159.377 68.252 158.405C68.252 157.433 68.252 156.284 68.252 155.135C68.252 153.985 68.252 152.704 67.9869 151.378C67.9869 148.726 67.4567 145.853 66.9706 142.848C66.4846 139.843 65.9542 136.97 65.3798 134.363C65.0705 133.081 64.7612 131.844 64.4519 130.739C64.1426 129.634 63.8774 128.529 63.6123 127.557C63.3472 126.584 63.0379 125.744 62.8169 124.993L62.1541 123.048C62.0085 122.49 61.7853 121.954 61.4912 121.458Z" fill="#666666"/>
<path d="M116.375 211.97L101.837 182.447L103.87 176.879L94.3689 167.332L87.2546 117.391L91.099 116.773L116.463 206.799L116.375 211.97Z" fill="#666666"/>
<path d="M115.799 282.727C115.941 281.82 116.029 280.905 116.064 279.987C116.064 278.175 116.374 275.567 116.506 272.43C116.815 266.021 117.081 257.226 117.169 247.459C117.257 237.692 117.169 228.897 116.86 222.488C116.86 219.306 116.639 216.743 116.55 214.931C116.515 214.013 116.427 213.098 116.285 212.191C116.219 213.103 116.219 214.019 116.285 214.931C116.285 216.743 116.285 219.351 116.285 222.533C116.285 228.897 116.285 237.736 116.285 247.459C116.285 257.182 116.02 266.021 115.888 272.385C115.888 275.567 115.888 278.175 115.888 279.943C115.763 280.865 115.733 281.798 115.799 282.727Z" fill="#666666"/>
<path d="M110.011 232.742C110.011 233.039 110.126 233.325 110.332 233.539C110.538 233.753 110.819 233.879 111.116 233.891C111.42 233.891 111.712 233.77 111.928 233.554C112.143 233.339 112.264 233.046 112.264 232.742C112.253 232.445 112.127 232.164 111.913 231.958C111.698 231.752 111.413 231.636 111.116 231.637C110.823 231.637 110.542 231.753 110.334 231.96C110.127 232.168 110.011 232.449 110.011 232.742Z" fill="#666666"/>
<path d="M110.011 247.459C110.011 247.752 110.127 248.033 110.334 248.24C110.542 248.447 110.823 248.564 111.116 248.564C111.413 248.564 111.698 248.449 111.913 248.243C112.127 248.037 112.253 247.756 112.264 247.459C112.264 247.154 112.143 246.862 111.928 246.646C111.712 246.431 111.42 246.31 111.116 246.31C110.819 246.321 110.538 246.447 110.332 246.662C110.126 246.876 110.011 247.162 110.011 247.459Z" fill="#666666"/>
<path d="M91.3186 263.635L73.3781 258.994L70.2407 265.093L89.7721 269.292L91.3186 263.635Z" fill="#666666"/>
<path d="M152.299 263.06L140.015 265.844V272.606L155.79 269.292L152.299 263.06Z" fill="#666666"/>
<path d="M75.6314 248.564C78.7261 251.368 81.5789 254.429 84.1596 257.712C84.6457 259.304 85.6179 262.132 85.6179 262.132L75.6314 259.525L72.6267 255.326L75.6314 248.564Z" fill="#FCCAB1"/>
<path d="M141.606 56.6665C143.152 57.1969 151.813 59.0531 148.897 70.2789C145.98 81.5046 138.424 78.8527 138.424 78.8527L141.606 56.6665Z" fill="#EAB69B"/>
<path d="M141.163 74.6544C141.163 74.6544 141.429 74.6544 141.782 74.6544C142.324 74.5654 142.846 74.3862 143.329 74.1241C144.05 73.7076 144.68 73.1517 145.185 72.4889C145.512 72.1114 145.766 71.6769 145.936 71.2071C146.155 70.7304 146.304 70.2242 146.378 69.7045C146.544 68.6964 146.453 67.6624 146.113 66.6991C145.858 65.911 145.436 65.1874 144.875 64.5777C144.512 64.1532 144.079 63.7944 143.594 63.5171C143.24 63.5171 143.019 63.5171 143.019 63.5171C143.019 63.5171 143.638 64.0916 144.389 65.1081C144.802 65.7176 145.115 66.389 145.317 67.097C145.572 67.9564 145.647 68.8589 145.538 69.7486C145.446 70.2018 145.313 70.6457 145.14 71.0746C144.961 71.4572 144.754 71.8264 144.522 72.1795C144.126 72.7999 143.616 73.3396 143.019 73.7704C141.915 74.3892 141.163 74.5218 141.163 74.6544Z" fill="#D68772"/>
<path d="M140.412 69.5718C140.412 69.5718 140.766 69.2623 141.252 68.9087C141.841 68.443 142.579 68.2073 143.328 68.2458C143.825 68.2923 144.3 68.4759 144.698 68.7761C145.025 68.9687 145.31 69.2241 145.538 69.5275L145.98 69.3066C145.715 68.9972 145.494 68.8645 145.449 68.9087C145.405 68.9529 145.449 69.2182 145.449 69.5718L145.847 69.3066C145.71 68.8489 145.432 68.4465 145.052 68.1574C144.572 67.6954 143.948 67.4142 143.284 67.3619C142.736 67.3174 142.185 67.4243 141.694 67.6712C141.305 67.8662 140.96 68.1368 140.677 68.4668C140.368 69.0414 140.324 69.5276 140.412 69.5718Z" fill="#D68772"/>
<path d="M84.4705 55.1641C82.8797 55.6944 74.263 57.5507 77.1794 68.7322C80.0959 79.9137 87.6521 77.3062 87.6521 77.3062L84.4705 55.1641Z" fill="#EAB69B"/>
<path d="M84.824 72.8423C84.824 72.8423 84.0286 72.533 83.0122 71.7817C82.4161 71.368 81.9057 70.8427 81.5096 70.2348C81.0072 69.4869 80.6615 68.645 80.4932 67.7598C80.2902 66.9025 80.2902 66.0096 80.4932 65.1523C80.6859 64.441 80.9998 63.7681 81.4212 63.1635C82.1283 62.1028 82.8796 61.6609 82.7912 61.5725C82.7028 61.4841 82.5702 61.5725 82.2167 61.5725C81.7317 61.8498 81.2983 62.2086 80.9352 62.6331C80.3832 63.249 79.9622 63.9709 79.6978 64.7546C79.3679 65.7199 79.262 66.7476 79.3884 67.7598C79.4765 68.2959 79.6401 68.8167 79.8745 69.3067C80.0663 69.7567 80.3032 70.186 80.5816 70.5883C81.0856 71.2393 81.7173 71.7808 82.4377 72.1794C82.9345 72.4534 83.4713 72.6474 84.0285 72.754C84.4705 73.1075 84.824 73.0633 84.824 72.8423Z" fill="#D68772"/>
<path d="M85.6179 67.8925C85.6179 67.8925 85.6179 67.4063 85.2202 66.7875C84.9377 66.4574 84.5921 66.187 84.2038 65.992C83.7105 65.7493 83.1613 65.6424 82.613 65.6826C81.9521 65.7452 81.3306 66.0249 80.8454 66.4781C80.4757 66.8044 80.188 67.2132 80.0058 67.6714L80.4477 67.8925C80.4477 67.5389 80.6687 67.2738 80.4477 67.2296C80.2268 67.1854 80.1826 67.2295 79.9175 67.6273L80.3594 67.8925C80.5834 67.5739 80.8688 67.3034 81.199 67.097C81.5977 66.7967 82.072 66.613 82.5689 66.5665C83.3187 66.528 84.0568 66.7638 84.6458 67.2296C85.2644 67.6273 85.4854 67.9367 85.6179 67.8925Z" fill="#D68772"/>
<path d="M92.0713 102.453C100.909 111.558 132.459 105.061 136.834 101.039C141.209 97.0173 143.683 44.7781 143.683 44.7781C145.451 17.8189 130.029 16.1836 115.182 12.3386C100.335 8.49361 84.5151 17.1118 83.0569 39.3422C83.0569 39.3422 85.0012 94.9402 92.0713 102.453Z" fill="#FCCAB1"/>
<path d="M141.341 77.2619C119.467 77.8806 100.069 76.2012 84.7356 70.7651C84.7356 70.7651 87.5194 93.6584 88.2706 96.0892C90.0381 101.614 90.8336 108.685 114.209 106.608C137.585 104.531 137.054 102.674 138.954 97.415C140.209 90.7597 141.006 84.0262 141.341 77.2619Z" fill="#4C3737"/>
<path d="M125.036 84.1122C123.184 85.5606 121.038 86.5878 118.749 87.1221C116.459 87.6564 114.081 87.6849 111.779 87.206C109.468 86.6785 107.293 85.6698 105.398 84.2459C103.502 82.8219 101.927 81.0146 100.776 78.9414" fill="#ECE9DE"/>
<path d="M107.89 69.8809C107.89 69.8809 108.288 70.323 109.083 70.9417C110.205 71.804 111.387 72.5867 112.618 73.2841C113.505 73.7405 114.42 74.1391 115.358 74.4773L116.153 74.6984H116.595H117.611C117.832 74.6143 118.019 74.4587 118.142 74.2564C118.312 73.9301 118.389 73.5628 118.363 73.1956C118.431 72.564 118.431 71.9269 118.363 71.2952C118.363 70.6765 118.097 70.0578 117.921 69.4391C117.744 68.8204 117.125 66.9198 116.683 65.594C115.755 63.0307 114.783 60.5999 113.9 58.4344L113.237 56.8434V56.4456V56.1362V55.8268C113.237 55.8268 113.237 55.6059 113.237 55.4733C113.237 54.4568 113.458 53.4846 113.59 52.6007C114.012 50.7203 114.322 48.8165 114.518 46.8994C114.518 46.8994 114.253 47.3855 113.988 48.3578C113.723 49.3301 113.369 50.7445 112.972 52.4681C112.972 53.352 112.618 54.3242 112.486 55.3849C112.486 55.3849 112.486 55.6943 112.486 55.8268V56.534V56.7549V57.1528L113.148 58.788C113.988 60.9536 114.96 63.2075 115.844 65.9476C116.286 67.2293 116.728 68.4668 117.081 69.7043C117.435 70.9417 117.39 70.9417 117.523 71.5163C117.662 72.0806 117.736 72.6588 117.744 73.2398C117.8 73.4422 117.8 73.6563 117.744 73.8586H117.081H116.728C116.479 73.9043 116.225 73.9043 115.976 73.8586C115.06 73.5938 114.172 73.2384 113.325 72.7979C112.068 72.1678 110.844 71.4745 109.658 70.7207C109.106 70.3679 108.512 70.0857 107.89 69.8809Z" fill="#E2A893"/>
<path d="M106.653 40.8005L88.9331 42.48L88.2261 38.4139L106.564 33.906L106.653 40.8005Z" fill="#4C3737"/>
<path d="M105.945 55.6502C105.945 55.6502 103.515 46.2808 96.7539 47.209C89.993 48.1371 89.3743 56.269 89.3743 56.269L105.945 55.6502Z" fill="#EFA98E"/>
<path d="M105.945 55.6501C105.52 53.8357 104.485 52.2223 103.013 51.0798C101.541 49.9374 99.7214 49.3354 97.8586 49.3743C95.8609 49.3477 93.9173 50.0232 92.3668 51.2832C90.8163 52.5433 89.7571 54.3078 89.3743 56.2689C89.3743 56.2689 102.145 55.8711 105.945 55.6501Z" fill="#ECE9DE"/>
<path d="M101.748 55.827C101.748 55.827 101.748 50.9213 97.3295 50.7445C92.9106 50.5677 92.9106 56.269 92.9106 56.269C95.8621 56.5606 98.8406 56.4117 101.748 55.827Z" fill="#70924F"/>
<path d="M89.3752 56.2689C89.3752 56.2689 89.8172 55.0314 90.9661 53.3077C91.5607 52.3002 92.3582 51.4273 93.308 50.7444C94.52 49.9685 95.9345 49.5687 97.3733 49.5953C98.8014 49.6041 100.202 49.9849 101.438 50.7002C102.471 51.2753 103.374 52.0578 104.09 52.9985C105.327 54.5895 105.68 55.8711 105.857 55.8269C106.034 55.7827 105.857 55.4734 105.857 54.8989C105.613 54.0792 105.24 53.3035 104.753 52.6007C104.038 51.544 103.104 50.6543 102.013 49.993C100.693 49.1515 99.1594 48.7068 97.5942 48.7115C96.0227 48.7071 94.4851 49.1684 93.1754 50.0373C92.1254 50.7822 91.2507 51.7476 90.6126 52.8659C89.8794 53.8565 89.4495 55.0387 89.3752 56.2689Z" fill="#443949"/>
<path d="M91.3635 53.7941C91.3635 54.0593 92.1148 54.3245 93.1312 54.3245C94.1476 54.3245 94.9431 54.0593 94.9431 53.7941C94.9431 53.5289 94.1034 53.4404 93.1312 53.4404C92.159 53.4404 91.3635 53.5731 91.3635 53.7941Z" fill="white"/>
<path d="M134.933 55.1641C134.933 55.1641 132.502 45.8387 125.786 46.7227C119.069 47.6066 118.406 55.827 118.406 55.827L134.933 55.1641Z" fill="#EFA98E"/>
<path d="M134.933 55.164C134.524 53.3533 133.497 51.7413 132.03 50.6044C130.563 49.4675 128.746 48.8764 126.891 48.9323C124.891 48.8969 122.943 49.5693 121.39 50.8309C119.838 52.0924 118.781 53.8618 118.406 55.8269C118.406 55.8269 131.133 55.164 134.933 55.164Z" fill="#ECE9DE"/>
<path d="M129.851 55.1638C129.851 55.1638 129.851 50.214 125.432 50.0372C121.014 49.8604 121.014 55.6058 121.014 55.6058C123.965 55.8974 126.944 55.7484 129.851 55.1638Z" fill="#70924F"/>
<path d="M118.406 55.7385C118.406 55.7385 118.848 54.4568 119.953 52.7774C120.605 51.7957 121.446 50.9542 122.428 50.3025C123.641 49.5676 125.03 49.1709 126.449 49.1535C127.892 49.1566 129.308 49.5376 130.558 50.2584C131.572 50.8596 132.47 51.638 133.209 52.5565C133.833 53.4686 134.408 54.4126 134.933 55.3849C134.933 55.3849 134.933 55.0314 134.933 54.4568C134.678 53.6414 134.306 52.8673 133.828 52.1587C133.106 51.109 132.172 50.2211 131.088 49.5512C129.754 48.7413 128.23 48.2991 126.67 48.2695C125.093 48.2729 123.553 48.7502 122.251 49.6396C121.195 50.3593 120.318 51.3119 119.688 52.4239C118.959 53.387 118.515 54.5355 118.406 55.7385Z" fill="#443949"/>
<path d="M120.35 53.2193C120.35 53.4845 121.146 53.7496 122.162 53.7496C123.178 53.7496 123.974 53.4845 123.93 53.2193C123.885 52.9541 123.134 52.8657 122.162 52.8657C121.19 52.8657 120.395 52.9983 120.35 53.2193Z" fill="white"/>
<path d="M136.745 42.4799C136.745 42.4799 118.142 42.2146 118.009 41.8611C117.877 41.5075 118.009 34.7456 118.009 34.7456L136.745 38.5906V42.4799Z" fill="#4C3737"/>
<path d="M141.296 61.7493C141.296 61.7493 145.362 30.0611 137.805 21.9733C137.805 21.9733 101.792 33.0222 95.6499 28.47C89.5077 23.9179 88.9333 21.4429 88.9333 21.4429C88.9333 21.4429 86.282 35.4972 84.8237 40.9332C84.0436 46.208 84.0436 51.5689 84.8237 56.8437L82.4377 55.8271C82.4377 55.8271 80.0956 19.5868 82.9237 17.9073C85.7517 16.2279 99.1849 2.61561 111.911 6.54902C124.637 10.4824 146.511 21.0894 146.643 28.6468C146.776 36.2043 142.622 62.0587 142.622 62.0587L141.296 61.7493Z" fill="#4C3737"/>
<path d="M118.936 8.93551C118.936 8.93551 97.4608 -2.29023 92.6884 1.68737C91.2627 3.14844 90.2093 4.93112 89.6172 6.88488C89.025 8.83864 88.9114 10.9062 89.286 12.9131C88.5012 12.3675 87.5683 12.0751 86.6125 12.0751C85.6568 12.0751 84.724 12.3675 83.9392 12.9131C81.4205 14.9019 81.7298 23.078 81.7298 23.078L97.2399 17.7746L118.936 8.93551Z" fill="#4C3737"/>
<path d="M137.806 21.8406C137.806 21.8406 147.306 28.4699 146.643 33.2872L145.76 40.005L142.048 35.5855C141.268 30.8317 139.841 26.207 137.806 21.8406Z" fill="#331E1E"/>
<path d="M123.444 25.7739C89.1095 16.9348 98.5658 1.11279 98.5658 1.11279L105.503 3.0133C97.7262 16.2719 133.563 23.0779 133.563 23.0779L123.444 25.7739Z" fill="#331E1E"/>
<path d="M106.167 29.0887C106.167 29.0887 89.6404 20.2495 89.2869 12.913C89.2869 12.913 87.2543 11.322 85.6194 12.1175C85.6194 12.1175 84.5588 21.4428 100.643 29.3981L106.167 29.0887Z" fill="#331E1E"/>
<path d="M88.2263 25.0669C88.2263 25.0669 81.9073 25.4647 81.7305 27.0557L81.5095 33.906L87.3425 29.4865L88.2263 25.0669Z" fill="#331E1E"/>
<path d="M103.382 41.1099L104.752 34.3479L100.642 35.3643L99.2283 41.5077L103.382 41.1099Z" fill="#331E1E"/>
<path d="M96.3125 41.7728L96.887 36.2925L95.8707 36.5134L94.501 41.9496L96.3125 41.7728Z" fill="#331E1E"/>
<path d="M119.688 35.0991L121.191 41.9496L124.505 42.2147L122.56 35.6737L119.688 35.0991Z" fill="#331E1E"/>
<path d="M127.952 42.3032L126.67 36.5137L128.349 37.265L129.189 40.8006L129.631 37.265L131.752 37.5743L131.266 42.3032H127.952Z" fill="#331E1E"/>
<path d="M217.358 34.0097C217.358 34.0097 202.6 34.0097 202.025 47.2684C201.451 60.5271 210.863 65.2118 213.558 65.5212C216.254 65.8306 232.029 64.3279 232.029 50.1411C232.029 35.9543 223.235 33.8329 217.358 34.0097Z" fill="#F7BB44"/>
<path d="M210.996 60.5268L212.763 69.41L221.292 69.3217L223.678 59.5103L210.333 60.1291" fill="#F7BB44"/>
<path d="M224.915 71.2665C222.64 71.9111 220.296 72.282 217.933 72.3714C215.62 72.8277 213.265 73.0352 210.907 72.9902C213.039 71.8739 215.396 71.2544 217.801 71.1782C220.151 70.699 222.577 70.7291 224.915 71.2665Z" fill="#827D75"/>
<path d="M223.59 73.8295C221.904 74.6384 220.068 75.0899 218.199 75.1555C216.378 75.5434 214.497 75.5434 212.676 75.1555C214.352 74.3073 216.19 73.8252 218.067 73.7412C219.894 73.3823 221.776 73.4124 223.59 73.8295Z" fill="#827D75"/>
<path d="M220.851 77.7633C220.851 78.0727 219.967 78.4704 218.774 78.603C217.581 78.7356 216.564 78.6029 216.52 78.2494C216.476 77.8958 217.404 77.5424 218.597 77.4098C219.79 77.2773 220.806 77.1888 220.851 77.7633Z" fill="#827D75"/>
<path d="M221.514 68.924C221.495 68.6297 221.495 68.3344 221.514 68.0401C221.514 67.5097 221.514 66.6701 221.514 65.6536C221.514 63.5323 221.514 60.4828 221.514 56.8146C221.514 55.8865 221.514 54.9141 221.514 53.8534C221.564 52.7841 221.697 51.7202 221.911 50.6713C221.891 50.5247 221.891 50.376 221.911 50.2294V49.7875C221.965 49.7565 222.026 49.74 222.088 49.74C222.15 49.74 222.211 49.7565 222.265 49.7875C222.381 49.7624 222.502 49.7624 222.618 49.7875V50.0084C222.795 50.2653 222.929 50.5488 223.016 50.8482C223.037 51.1424 223.037 51.4377 223.016 51.732C223.236 52.9597 223.236 54.2168 223.016 55.4445C222.882 56.0908 222.659 56.7154 222.353 57.3006C222.05 57.9078 221.612 58.4371 221.072 58.8475C220.804 59.0655 220.506 59.2441 220.188 59.3778H219.658H219.393H219.128C218.765 59.4659 218.386 59.4659 218.023 59.3778C217.683 59.2397 217.37 59.0454 217.095 58.8033C216.59 58.2845 216.172 57.6876 215.857 57.0355C215.551 56.3888 215.328 55.7057 215.195 55.0025C215.027 54.3063 214.923 53.5962 214.885 52.8811C214.754 52.1355 214.754 51.3727 214.885 50.6271V50.3619C214.866 50.2746 214.866 50.1841 214.885 50.0968L215.106 49.7875C215.154 49.7255 215.214 49.6739 215.282 49.6359C215.351 49.5979 215.426 49.5743 215.504 49.5664C215.553 49.5458 215.606 49.5352 215.659 49.5352C215.712 49.5352 215.764 49.5458 215.813 49.5664C215.826 49.6544 215.826 49.7437 215.813 49.8316C215.827 50.0229 215.827 50.2149 215.813 50.4062C215.877 51.1266 215.877 51.8513 215.813 52.5717C215.772 53.9901 215.504 55.3928 215.018 56.7261C214.773 57.3943 214.38 57.9987 213.869 58.494C213.598 58.7414 213.283 58.9361 212.941 59.0684C212.752 59.109 212.556 59.109 212.367 59.0684H211.792C211.434 58.9633 211.102 58.7825 210.82 58.5381C210.562 58.3096 210.326 58.0582 210.113 57.7869C209.758 57.2456 209.461 56.6677 209.229 56.0632C208.754 54.9191 208.442 53.7141 208.301 52.4834V51.5553C208.284 51.3937 208.284 51.2307 208.301 51.0691C208.271 50.9084 208.271 50.7437 208.301 50.583C208.385 50.4854 208.491 50.4095 208.611 50.3619H208.964C209.136 50.4018 209.29 50.4946 209.406 50.6271L209.759 50.9365L210.025 51.3342C210.309 51.8204 210.531 52.34 210.687 52.8811C210.847 53.3863 210.965 53.9036 211.041 54.428C211.041 55.4445 211.35 56.4168 211.439 57.3891C211.439 59.2453 211.439 60.9689 211.439 62.4716C211.439 63.9742 211.439 65.2558 211.439 66.2723C211.439 67.2888 211.439 68.1728 211.439 68.7031C211.439 69.2335 211.439 69.5428 211.439 69.5428C211.392 69.2648 211.392 68.9811 211.439 68.7031C211.439 68.1286 211.439 67.333 211.439 66.2723C211.439 65.2116 211.439 63.93 211.439 62.4716C211.439 61.0131 211.439 59.2895 211.129 57.3891C211.129 56.5052 210.908 55.4886 210.732 54.5163C210.555 53.544 210.732 53.4998 210.334 53.0137C210.212 52.5096 210.003 52.0309 209.715 51.5994C209.668 51.4799 209.592 51.3739 209.494 51.2901L209.229 51.025H208.964V51.3342C208.964 51.3342 208.964 51.5994 208.964 51.732V52.5717C209.113 53.739 209.41 54.8827 209.848 55.9748C210.089 56.5331 210.385 57.066 210.732 57.5658C211.04 58.0597 211.508 58.4339 212.057 58.6266C212.343 58.672 212.635 58.6429 212.906 58.5423C213.177 58.4416 213.417 58.2728 213.604 58.052C214.032 57.6098 214.363 57.0829 214.576 56.5052C215.054 55.2479 215.308 53.9166 215.327 52.5717C215.393 51.8956 215.393 51.2148 215.327 50.5388V50.0968V50.3178V50.5388C215.214 51.2117 215.214 51.8987 215.327 52.5717C215.35 53.2563 215.439 53.9372 215.592 54.6048C215.732 55.2582 215.939 55.8951 216.211 56.5052C216.475 57.1009 216.85 57.6408 217.316 58.0961C217.53 58.3077 217.786 58.4732 218.067 58.5823C218.343 58.6498 218.631 58.6498 218.906 58.5823H219.348H219.746C220.038 58.4895 220.308 58.3392 220.541 58.1404C221.028 57.7816 221.422 57.3119 221.69 56.7703C221.987 56.2326 222.196 55.6506 222.309 55.0466C222.53 53.8933 222.53 52.7086 222.309 51.5553C222.33 51.2758 222.33 50.9951 222.309 50.7156C222.27 50.47 222.163 50.2403 222 50.0527C221.9 50.2794 221.826 50.5166 221.779 50.7598C221.548 51.7923 221.4 52.8416 221.337 53.8976C221.337 54.9141 221.337 55.8864 221.337 56.8587C221.337 60.5711 221.072 63.6206 221.028 65.6977C221.028 66.7142 221.028 67.554 221.028 68.0843C221.227 68.3406 221.391 68.6231 221.514 68.924Z" fill="white"/>
</svg>
