<svg width="812" height="530" viewBox="0 0 812 530" fill="none" xmlns="http://www.w3.org/2000/svg">
<g opacity="0.1" clip-path="url(#clip0)">
<path d="M556.951 316.366L547.083 274.077C561.221 259.81 572.704 243.581 581.482 226.156L551.506 178.253L493.303 155.3L431.213 219.454L399.973 129.957L341.537 93.1811L276.4 126.435L265.936 68.0493L240.428 56.6483L197.386 61.2881C195.901 61.4605 194.614 62.5909 194.309 64.0312L182.706 114.859C182.37 116.368 183.02 117.899 184.296 118.67L221.163 141.601C221.313 161.894 224.608 182.293 231.454 202.066L204.243 235.879C203.264 237.063 203.206 238.695 203.997 239.998L231.706 284.122C232.498 285.426 234.054 286.031 235.531 285.689L277.816 275.823C292.684 290.479 309.595 302.39 327.854 311.25L332.555 354.446C332.727 355.931 333.838 357.169 335.298 357.524L386.091 369.201C387.6 369.537 389.131 368.887 389.902 367.612L412.827 330.742C433.119 330.594 453.516 327.301 473.286 320.455L507.098 347.672C508.282 348.652 509.914 348.71 511.217 347.918L555.335 320.211C556.688 319.4 557.293 317.843 556.951 316.366Z" fill="#828282"/>
<path opacity="0.6" d="M383.789 169.391C369.102 155.355 367.435 132.774 379.014 116.795L368.674 110.276C355.53 129.045 356.091 154.411 370.174 172.533C371.744 174.512 373.465 176.433 375.316 178.246C388.013 190.408 405.296 194.816 421.36 191.762L417.29 180.057C405.523 181.735 393.087 178.269 383.789 169.391Z" fill="#BDBDBD"/>
<path opacity="0.6" d="M492.04 241.909C514.378 224.469 530.22 200.344 537.322 172.645L531.613 170.37C524.94 197.098 509.785 220.324 488.281 237.097C484.976 239.698 481.525 242.068 477.934 244.378C457.45 257.248 434.622 263.322 412.074 263.136C371.516 262.906 331.921 242.583 308.77 205.779C304.124 198.378 300.251 190.448 297.285 182.34C296.736 180.77 294.983 179.954 293.363 180.523C293.063 180.639 292.783 180.805 292.502 180.971C291.488 181.766 291.044 183.145 291.528 184.395C291.721 184.895 292.145 185.249 292.339 185.749C292.436 185.999 292.782 186.152 292.879 186.402C292.918 186.502 292.937 186.552 292.976 186.652C295.453 193.053 298.179 199.356 301.687 205.3C302.39 206.523 302.973 207.734 303.726 208.938C306.094 212.679 308.542 216.331 311.27 219.817C329.436 243.142 354.85 259.351 384.055 266.045C417.6 273.703 452.064 267.841 481.201 249.552C484.992 247.166 488.554 244.637 492.04 241.909Z" fill="#BDBDBD"/>
<path d="M291.227 73.0945L353.281 41.3786L411.716 78.1544L442.136 165.382C442.492 166.452 443.863 166.726 444.639 165.909L505.047 103.497L563.25 126.45L593.225 174.354C593.582 173.641 593.958 172.978 594.314 172.265L637.506 167.567C638.991 167.395 640.228 166.284 640.583 164.824L652.186 113.997C652.522 112.487 651.872 110.956 650.596 110.185L613.729 87.2549C613.579 66.9612 610.284 46.5622 603.438 26.79L630.649 -7.02355C631.628 -8.20728 631.686 -9.83952 630.895 -11.1429L603.186 -55.267C602.394 -56.5704 600.838 -57.1755 599.361 -56.8338L557.076 -46.968C542.208 -61.6237 525.297 -73.5346 507.038 -82.394L502.337 -125.59C502.165 -127.076 501.034 -128.363 499.594 -128.668L448.77 -140.276C447.261 -140.612 445.73 -139.962 444.959 -138.687L422.034 -101.818C401.743 -101.669 381.346 -98.3758 361.576 -91.5305L327.763 -118.747C326.579 -119.727 324.947 -119.785 323.644 -118.993L279.527 -91.2858C278.223 -90.494 277.618 -88.9377 277.96 -87.4602L287.829 -45.1712C273.176 -30.3026 261.267 -13.3915 252.41 4.86847L252.291 4.85718L277.799 16.2582L287.694 71.2423C287.844 72.9665 289.685 73.8636 291.227 73.0945Z" fill="#828282"/>
<path opacity="0.6" d="M390.827 65.024C391.879 63.5822 393 62.1711 394.259 60.8213C409.553 44.785 435.036 44.2375 451.053 59.4837C452.511 60.8743 453.838 62.3729 455.065 63.9102C460.325 70.6708 463.279 78.8988 463.49 87.6134C463.728 98.3296 459.8 108.531 452.395 116.283C445.977 123.02 437.729 126.959 429.133 128.216L433.203 139.922C443.53 137.938 453.403 132.852 461.231 124.707C470.882 114.591 476.039 101.327 475.729 87.3041C475.438 73.3313 469.641 60.2819 459.525 50.6286C438.633 30.6573 405.422 31.4358 385.454 52.3279C383.611 54.2486 381.994 56.3112 380.517 58.4352L390.827 65.024Z" fill="#BDBDBD"/>
<path opacity="0.6" d="M549.971 117.388C557.626 83.8408 551.743 49.3236 533.453 20.1818C495.649 -39.9279 415.998 -58.1458 355.847 -20.3247C352.157 -17.9769 348.575 -15.4984 345.14 -12.7893C330.264 -1.16902 318.132 13.5291 309.58 30.3488C308.786 31.8632 309.433 33.6827 310.928 34.4265C312.006 34.9863 313.272 34.8413 314.187 34.085C314.548 33.8303 314.821 33.4948 315.055 33.0594C323.17 17.0412 334.757 3.01399 348.929 -8.04668C352.203 -10.5784 355.585 -12.9795 359.145 -15.2193C416.428 -51.2408 492.286 -33.9123 528.31 23.3793C545.769 51.1178 551.372 84.0189 544.064 115.937C543.885 116.811 543.636 117.655 543.407 118.548L549.116 120.824C549.387 119.741 549.67 118.54 549.971 117.388Z" fill="#BDBDBD"/>
</g>
<defs>
<clipPath id="clip0">
<rect width="636" height="623" fill="white" transform="translate(581.754 -288.321) rotate(68.8456)"/>
</clipPath>
</defs>
</svg>
