<svg width="359" height="408" viewBox="0 0 359 408" fill="none" xmlns="http://www.w3.org/2000/svg">
<path d="M234.709 148.147C247.151 173.956 314.923 265.668 293.225 287.397C268.812 298.351 198.881 183.975 234.709 148.147Z" fill="#808080"/>
<path d="M136.275 330.507C136.275 330.507 -1.90071 355.53 0.0198368 365.654C1.94039 375.777 24.2603 404.486 41.5452 405.109C58.8302 405.732 213.643 396.723 213.643 396.723L204.013 383.668C204.013 383.668 116.654 384.395 128.697 366.9C132.745 361.033 152.418 375.518 228.202 363.629C228.202 363.629 231.368 367.419 226.074 369.08C195.397 378.84 155.221 372.766 155.221 372.766L155.896 389.846C155.896 389.846 297.29 406.978 314.315 407.549C331.34 408.12 355.841 381.124 358.28 371.209C360.72 361.293 224.828 326.51 224.828 326.51" fill="#1C1414"/>
<path d="M203.754 383.668H196.954C192.594 383.668 186.261 383.668 178.424 383.149C158.011 382.087 137.728 379.273 117.797 374.739L109.18 372.558L100.875 370.274L92.8815 368.197C90.2343 367.574 87.6908 367.003 85.0955 366.588C80.3041 365.688 75.4369 365.253 70.5617 365.29C66.3187 365.386 62.0948 365.89 57.9484 366.796C54.4339 367.495 50.9667 368.414 47.5671 369.547C44.6084 370.482 42.3764 371.468 40.0925 372.247L35.3689 374.064C34.8611 374.339 34.3204 374.548 33.7598 374.687C34.2418 374.359 34.7655 374.097 35.3169 373.908C36.355 373.389 37.9123 372.714 39.9367 371.832C41.961 370.949 44.4526 370.014 47.4112 368.976C50.8193 367.829 54.2843 366.858 57.7926 366.069C61.9835 365.102 66.2619 364.562 70.5617 364.46C75.486 364.359 80.4076 364.759 85.2511 365.654C87.8464 366.069 90.4418 366.588 93.089 367.263C95.7363 367.938 98.2796 368.561 101.134 369.288L109.44 371.52C112.243 372.299 115.097 372.974 118.004 373.7C137.897 378.203 158.119 381.102 178.476 382.37C186.262 382.889 192.594 383.149 196.954 383.253H202.145C202.695 383.329 203.235 383.468 203.754 383.668Z" fill="#030000"/>
<path d="M326.304 363.11H324.747L322.93 362.798H321.736H320.387L317.272 362.331L313.483 361.967L309.175 361.604H304.296H296.094H293.136C291.112 361.604 289.035 361.604 286.907 361.967H283.637L280.315 362.331C271.335 363.213 261.525 364.719 251.247 366.536C240.97 368.353 231.211 370.378 222.283 371.987C217.819 372.818 213.563 373.493 209.566 374.064L203.805 374.791L201.053 375.102H199.704H198.406C196.745 375.102 195.084 375.414 193.527 375.466H189.167H185.378H182.212H179.668H177.799C177.282 375.521 176.76 375.521 176.242 375.466H185.378H189.167L193.735 374.323C195.24 374.323 196.849 374.323 198.562 373.908H199.86H201.157L203.908 373.597L209.67 372.766C213.615 372.195 217.871 371.468 222.335 370.637C231.211 368.976 240.97 366.899 251.247 365.082C261.525 363.265 271.439 361.76 280.471 360.929L283.793 360.618H287.063L293.291 360.306H296.25C297.236 360.306 298.223 360.306 299.157 360.306H304.348C306.061 360.306 307.722 360.306 309.538 360.618C311.355 360.929 312.497 360.618 313.847 361.033L317.636 361.5L320.802 362.019H322.1L323.294 362.279L325.11 362.694C325.522 362.788 325.923 362.927 326.304 363.11Z" fill="#030000"/>
<path d="M126.516 145.896L150.133 142.21L199.808 142.729L213.096 145.117L182.887 264.003L145.721 259.487L126.516 145.896Z" fill="#E0E0E0"/>
<path d="M154.648 119.419V141.898C157.838 146.383 162.591 149.511 167.972 150.664C173.352 151.817 178.969 150.912 183.716 148.128L193.475 141.275V117.602L154.648 119.419Z" fill="#FCCAB1"/>
<path d="M148.836 141.795L149.511 133.644L170.741 143.768L169.755 155.552L148.836 141.795Z" fill="#EAEAEA"/>
<path d="M170.74 143.768L174.011 151.399L170.014 152.437L170.74 143.768Z" fill="#CECECE"/>
<path d="M174.012 151.399L176.711 143.768L179.566 153.06L174.012 151.399Z" fill="#CECECE"/>
<path d="M196.278 134.215C196.278 134.527 176.709 143.768 176.709 143.768L179.564 154.981L199.808 142.729L196.278 134.215Z" fill="#EAEAEA"/>
<path d="M112.033 152.334L113.642 148.128L144.423 142.937L170.013 248.74L171.414 337.983L168.092 360.825L113.486 339.8L129.058 307.56L119.456 216.864" fill="#808080"/>
<path d="M227.267 198.85C226.434 181.514 228.828 164.174 234.326 147.713L199.808 142.521L170.014 248.325V341.046L176.035 361.812L230.745 330.663C230.745 330.663 216.366 304.393 214.082 257.981C214.186 256.579 227.267 198.85 227.267 198.85Z" fill="#808080"/>
<path d="M138.455 143.767C139.13 143.767 144.425 203.729 144.425 203.729L154.806 216.345L153.197 224.496L170.171 255.645V248.584L144.58 142.781L138.455 143.767Z" fill="#666666"/>
<path d="M234.535 148.388C234.084 150.876 233.495 153.337 232.77 155.76L231.887 159.498C231.524 160.796 231.264 162.249 230.901 163.755C230.278 166.766 229.655 170.14 229.136 173.671C228.617 177.201 228.15 180.523 227.839 183.638C227.839 185.144 227.527 186.598 227.423 187.999C227.32 189.401 227.423 190.647 227.423 191.789C227.112 196.461 227.06 199.369 226.904 199.369C226.787 198.699 226.787 198.014 226.904 197.344C226.904 196.669 226.904 195.89 226.904 194.956C226.904 194.021 226.904 192.931 226.904 191.789C226.904 190.647 226.904 189.297 226.904 187.947C226.904 186.598 226.904 185.092 226.904 183.535C227.216 180.42 227.579 177.045 228.15 173.463C228.721 169.881 229.344 166.61 230.019 163.547L231.057 159.29L232.095 155.552C232.407 154.41 232.77 153.424 233.029 152.541L233.808 150.257C233.992 149.613 234.236 148.987 234.535 148.388Z" fill="#666666"/>
<path d="M170.118 254.555L187.195 219.875L184.807 213.386L195.967 202.172L204.324 143.508L199.808 142.729L170.014 248.532L170.118 254.555Z" fill="#666666"/>
<path d="M170.846 343.174C170.642 342.025 170.521 340.862 170.483 339.696C170.483 337.463 170.171 334.245 169.964 330.247C169.6 322.2 169.289 311.142 169.185 299.098C169.082 287.054 169.185 275.788 169.497 267.949C169.497 263.951 169.497 260.681 169.912 258.448C169.885 257.281 169.989 256.114 170.223 254.97C170.301 256.145 170.301 257.325 170.223 258.5C170.223 260.733 170.223 263.951 170.223 267.949C170.223 275.996 170.223 287.054 170.223 299.098C170.223 311.142 170.535 322.408 170.69 330.247C170.69 334.245 170.69 337.463 170.69 339.748C170.829 340.884 170.881 342.03 170.846 343.174Z" fill="#666666"/>
<path d="M177.593 279.007C177.593 279.365 177.451 279.708 177.197 279.961C176.944 280.215 176.601 280.357 176.243 280.357C175.894 280.343 175.564 280.195 175.322 279.943C175.08 279.692 174.945 279.356 174.945 279.007C174.945 278.663 175.082 278.333 175.326 278.089C175.569 277.846 175.899 277.709 176.243 277.709C176.592 277.709 176.928 277.844 177.18 278.086C177.431 278.328 177.579 278.658 177.593 279.007Z" fill="#666666"/>
<path d="M177.593 296.45C177.579 296.799 177.431 297.129 177.18 297.371C176.928 297.613 176.592 297.748 176.243 297.748C175.899 297.748 175.569 297.611 175.326 297.368C175.082 297.125 174.945 296.795 174.945 296.45C174.945 296.101 175.08 295.765 175.322 295.514C175.564 295.262 175.894 295.114 176.243 295.101C176.601 295.101 176.944 295.243 177.197 295.496C177.451 295.749 177.593 296.092 177.593 296.45Z" fill="#666666"/>
<path d="M199.549 313.634L220.623 309.844L224.308 317.009L201.365 321.941L199.549 313.634Z" fill="#666666"/>
<path d="M127.088 314.413L143.802 318.203L142.349 325.834L123.818 321.941L127.088 314.413Z" fill="#666666"/>
<path fill-rule="evenodd" clip-rule="evenodd" d="M209.208 282.214C209.208 282.214 217.18 301.849 217.597 302.755C217.597 302.755 268.188 300.442 275.157 299.565C298.583 296.764 313.12 253.08 266.101 265.916C245.427 271.589 209.208 282.214 209.208 282.214Z" fill="#808080"/>
<path fill-rule="evenodd" clip-rule="evenodd" d="M216.861 300.683C216.861 300.683 217.105 302.303 217.305 302.633C217.504 302.963 268.14 300.511 275.111 299.65C287.949 298.109 298.078 284.369 296.873 274.312C296.119 277.501 295.238 281.852 293.122 284.356C291.006 286.859 289.733 289.741 282.976 293.841C269.85 300.1 243.471 298.217 223.308 299.729C220.053 300.187 219.241 300.461 216.861 300.683Z" fill="#666666"/>
<path fill-rule="evenodd" clip-rule="evenodd" d="M210.303 281.471C210.303 281.471 202.66 284.36 199.16 283.627C195.661 282.894 180.052 272.015 177.86 271.194C175.668 270.373 173.209 269.56 170.999 271.313C166.162 275.455 161.65 279.964 157.502 284.8C156.282 286.971 161.15 290.945 168.282 285.442L170.962 283.22L162.915 294.759C161.618 296.588 165.638 299.411 168.59 298.977C171.543 298.543 173.873 297.894 178.061 293.183C178.061 293.183 174.281 300.207 173.735 301.862C173.612 302.774 173.798 303.7 174.263 304.488C174.729 305.277 175.446 305.883 176.301 306.209C177.891 306.828 183.097 305.637 187.135 299.451C185.892 303.694 187.109 308.749 192.178 306.062C194.653 304.259 196.902 302.161 198.876 299.816L203.737 302.875L217.304 302.632L210.303 281.471Z" fill="#FCCAB1"/>
<path fill-rule="evenodd" clip-rule="evenodd" d="M175.249 305.574C175.594 305.879 175.987 306.126 176.412 306.306C177.996 306.922 183.18 305.734 187.203 299.571C187.609 296.899 189.381 295.848 188.099 295.949C186.818 296.05 186.213 298.947 182.008 302.974C177.803 307.001 175.366 305.618 175.311 305.613L175.249 305.574ZM186.96 304.336C187.507 306.554 189.167 307.833 192.223 306.155C194.688 304.358 196.928 302.268 198.895 299.931L203.735 302.977L217.304 302.633L216.861 300.683C204.593 301.746 204.332 301.152 203.522 300.642C201.154 299.152 199.244 296.545 198.735 297.63C196.721 300.899 195.562 302.164 192.644 304.656C190.136 307.351 186.996 304.417 186.96 304.336Z" fill="#EAB69B"/>
<path d="M282.77 261.005C280.161 261.972 277.5 262.792 274.8 263.462L270.765 264.72C269.332 265.103 267.81 265.671 266.181 266.17C262.98 267.266 259.435 268.567 255.801 270.052C252.167 271.538 248.758 272.956 245.634 274.405C244.208 275.249 242.657 275.768 241.271 276.454C239.885 277.141 238.763 277.937 237.682 278.577C233.082 280.899 230.299 282.478 230.212 282.33C230.781 281.844 231.43 281.46 232.13 281.196C232.769 280.818 233.507 280.382 234.392 279.859C235.277 279.335 236.309 278.725 237.391 278.085C238.473 277.446 239.751 276.69 241.029 275.934C242.308 275.178 243.734 274.335 245.209 273.462C248.333 272.013 251.733 270.467 255.445 269.002C259.158 267.536 262.604 266.294 265.883 265.218L270.497 263.817L274.618 262.707C275.874 262.362 277.012 262.154 277.993 261.906L280.593 261.364C281.306 261.178 282.035 261.058 282.77 261.005Z" fill="#666666"/>
<rect x="89.1426" y="268" width="171" height="112" rx="8" fill="#C4C4C4"/>
<ellipse cx="175.143" cy="324.5" rx="17" ry="16.5" fill="#828282"/>
<path d="M140.748 69.592C138.851 70.2424 128.23 72.5187 131.807 86.2854C135.383 100.052 144.65 96.8001 144.65 96.8001L140.748 69.592Z" fill="#EAB69B"/>
<path d="M141.289 91.7058C141.289 91.7058 141.289 91.7058 140.531 91.7058C139.86 91.6227 139.214 91.4013 138.634 91.0554C137.75 90.5446 136.976 89.863 136.358 89.0501C135.989 88.5848 135.679 88.0749 135.437 87.5325C134.789 85.7839 134.789 83.8613 135.437 82.1126C135.749 81.1462 136.267 80.2587 136.954 79.511C137.399 78.9903 137.931 78.5503 138.526 78.2103C138.959 78.2103 139.23 77.9393 139.23 78.2103C139.23 78.4813 138.471 78.9148 137.55 80.2156C137.043 80.9432 136.659 81.7487 136.412 82.6004C136.164 83.6702 136.164 84.7825 136.412 85.8524C136.471 86.4136 136.617 86.9622 136.846 87.4783C137.066 87.9648 137.319 88.4357 137.604 88.8875C138.104 89.6214 138.728 90.2633 139.447 90.7845C140.314 91.3265 141.289 91.489 141.289 91.7058Z" fill="#D68772"/>
<path d="M142.211 85.4183C142.211 85.4183 141.777 85.0932 141.181 84.6054C140.464 84.025 139.555 83.735 138.634 83.7924C138.025 83.8495 137.443 84.0746 136.954 84.4428C136.549 84.696 136.199 85.0276 135.925 85.4183L135.383 85.0931C135.708 84.7137 135.979 84.5512 136.033 84.6054C136.087 84.6596 136.033 84.9847 136.033 85.4183L135.545 85.0931C135.741 84.5458 136.077 84.0599 136.521 83.6841C137.128 83.1473 137.884 82.807 138.688 82.7084C139.361 82.6538 140.036 82.785 140.639 83.0878C141.115 83.327 141.539 83.6586 141.886 84.0633C142.319 84.7679 142.319 85.3641 142.211 85.4183Z" fill="#D68772"/>
<path d="M210.87 67.8579C212.821 68.5083 223.389 70.7847 219.812 84.4972C216.235 98.2096 206.969 95.0118 206.969 95.0118L210.87 67.8579Z" fill="#EAB69B"/>
<path d="M210.383 89.5376C210.383 89.5376 211.358 89.1582 212.605 88.2368C213.341 87.7179 213.982 87.0762 214.501 86.3398C214.8 85.905 215.037 85.4307 215.206 84.9306C215.432 84.4099 215.596 83.8641 215.694 83.3047C215.854 82.2322 215.762 81.137 215.423 80.1069C215.175 79.2387 214.791 78.4154 214.285 77.6679C213.418 76.3671 212.496 75.8794 212.605 75.7168C212.713 75.5542 212.93 75.7168 213.309 75.7168C213.914 76.0189 214.449 76.4433 214.881 76.9633C215.558 77.7186 216.074 78.6038 216.398 79.5649C216.805 80.7668 216.935 82.0454 216.777 83.3047C216.654 83.9344 216.473 84.5513 216.235 85.1474C215.973 85.6963 215.665 86.2221 215.314 86.7193C214.711 87.5315 213.933 88.1981 213.038 88.6704C212.456 89.0222 211.812 89.2613 211.141 89.375C210.654 89.5376 210.383 89.5376 210.383 89.5376Z" fill="#D68772"/>
<path d="M209.406 83.3587C209.406 83.3587 209.406 82.7625 209.894 82.0579C210.221 81.6198 210.649 81.2666 211.14 81.0281C211.742 80.7231 212.423 80.6096 213.091 80.7029C213.91 80.7719 214.686 81.094 215.313 81.6244C215.736 82.0394 216.068 82.5377 216.289 83.0877L215.747 83.3587C215.747 82.925 215.476 82.6541 215.747 82.5999C216.018 82.5457 216.072 82.5999 216.397 83.0335L215.909 83.3587C215.592 83.0075 215.247 82.6813 214.88 82.3831C214.361 82.0414 213.765 81.8364 213.145 81.787C212.226 81.7398 211.321 82.0288 210.598 82.5999C209.84 83.0335 209.84 83.4671 209.406 83.3587Z" fill="#D68772"/>
<path d="M201.496 125.743C190.658 136.908 151.966 128.941 146.601 124.008C141.236 119.076 138.202 55.0126 138.202 55.0126C136.034 21.9509 154.946 19.9456 173.154 15.2302C191.362 10.5149 210.762 21.0837 212.551 48.346C212.551 48.346 210.166 116.637 201.496 125.743Z" fill="#FCCAB1"/>
<path d="M141.072 94.9578C167.897 95.7166 191.686 93.657 210.49 86.9905C210.49 86.9905 207.076 115.066 206.155 118.047C204.042 124.822 203.012 133.494 174.4 130.946C145.787 128.399 146.329 126.177 143.999 119.727C142.46 111.547 141.482 103.271 141.072 94.9578Z" fill="#4C3737"/>
<path d="M182.097 85.7975C182.097 85.7975 181.609 86.3395 180.634 87.0983C179.257 88.1557 177.809 89.1155 176.298 89.9708C175.229 90.5819 174.104 91.0901 172.938 91.4884L171.963 91.7595H171.421H170.175C169.904 91.6564 169.675 91.4656 169.524 91.2175C169.315 90.8173 169.222 90.3671 169.253 89.9167C169.173 89.1419 169.173 88.361 169.253 87.5862C169.253 86.8274 169.633 86.0685 169.795 85.3097C169.958 84.551 170.771 82.2203 171.313 80.6485C172.451 77.4507 173.643 74.4699 174.727 71.8141L175.54 69.8629V69.3751V68.9956V68.6705C175.566 68.5089 175.566 68.3442 175.54 68.1827C175.458 67.0014 175.314 65.8254 175.106 64.6598C174.584 62.3548 174.204 60.0197 173.968 57.668C173.968 57.668 174.293 58.2643 174.618 59.4566C174.944 60.649 175.377 62.3834 175.865 64.5514C175.865 65.6354 176.298 66.7734 176.461 68.1284C176.461 68.1284 176.461 68.4538 176.461 68.6164V69.5377V70.0254L175.648 72.0308C174.618 74.7408 173.426 77.4509 172.342 80.8113C171.8 82.383 171.259 83.9547 170.879 85.4181C170.5 86.8815 170.446 86.9357 170.283 87.6403C170.12 88.3335 170.029 89.042 170.012 89.7541C169.946 90.0211 169.946 90.3002 170.012 90.5671H171.909H172.83C173.948 90.201 175.035 89.7479 176.082 89.2121C178.032 88.2365 179.55 87.3152 180.579 86.719C181.051 86.3584 181.559 86.0495 182.097 85.7975Z" fill="#E2A893"/>
<path d="M183.613 50.1343L205.344 52.248L206.211 47.2075L183.722 41.6792L183.613 50.1343Z" fill="#4C3737"/>
<path d="M184.533 68.3457C184.533 68.3457 187.459 56.9096 195.751 57.9936C204.042 59.0776 204.801 69.1586 204.801 69.1586L184.533 68.3457Z" fill="#EFA98E"/>
<path d="M184.533 68.3458C185.035 66.1252 186.294 64.1486 188.093 62.7543C189.893 61.3601 192.121 60.635 194.396 60.7037C196.848 60.6602 199.238 61.4849 201.141 63.0319C203.045 64.5789 204.341 66.7489 204.801 69.1587C204.801 69.1587 189.139 68.6709 184.533 68.3458Z" fill="#ECE9DE"/>
<path d="M189.629 68.6165C189.629 68.6165 189.629 62.5462 195.048 62.3294C200.467 62.1126 200.467 69.1584 200.467 69.1584C196.848 69.516 193.195 69.3335 189.629 68.6165Z" fill="#70924F"/>
<path d="M204.801 69.1583C204.801 69.1583 204.259 67.5866 202.904 65.5271C202.092 64.3337 201.062 63.304 199.869 62.4919C198.365 61.5813 196.642 61.0944 194.884 61.0827C193.132 61.0935 191.414 61.5605 189.898 62.4377C188.654 63.175 187.553 64.1296 186.647 65.256C185.882 66.3745 185.177 67.5324 184.533 68.7248C184.533 68.7248 184.533 68.2913 184.533 67.5867C185.322 65.0753 186.998 62.9368 189.248 61.5705C190.876 60.5599 192.751 60.0162 194.667 59.9987C196.603 59.989 198.495 60.5756 200.086 61.6788C201.381 62.5615 202.456 63.7297 203.229 65.0934C204.123 66.2745 204.668 67.6829 204.801 69.1583Z" fill="#443949"/>
<path d="M202.362 66.0694C202.362 66.3946 201.441 66.7197 200.194 66.7197C198.948 66.7197 197.973 66.3946 197.973 66.0694C197.973 65.7442 199.002 65.6357 200.194 65.6357C201.387 65.6357 202.362 65.7984 202.362 66.0694Z" fill="white"/>
<path d="M148.93 67.858C148.93 67.858 151.91 56.4218 160.201 57.5058C168.492 58.5898 169.197 68.671 169.197 68.671L148.93 67.858Z" fill="#EFA98E"/>
<path d="M148.93 67.8579C149.432 65.6373 150.69 63.6604 152.49 62.2662C154.289 60.8719 156.517 60.147 158.792 60.2156C161.245 60.1722 163.634 60.9968 165.538 62.5439C167.441 64.0909 168.737 66.2609 169.197 68.6708C169.197 68.6708 153.59 67.8579 148.93 67.8579Z" fill="#ECE9DE"/>
<path d="M155.164 67.8577C155.164 67.8577 155.164 61.7874 160.854 61.5706C166.544 61.3538 166.273 68.3998 166.273 68.3998C162.653 68.7574 159.001 68.5747 155.435 67.8577" fill="#70924F"/>
<path d="M169.199 68.4542C169.199 68.4542 168.657 66.9367 167.302 64.8229C166.497 63.6384 165.466 62.6253 164.268 61.8419C162.795 60.8984 161.085 60.3909 159.336 60.3784C157.588 60.4082 155.874 60.874 154.351 61.7334C153.09 62.4461 151.984 63.4045 151.099 64.5519C150.307 65.6633 149.584 66.8217 148.932 68.0207C148.859 67.6448 148.859 67.2584 148.932 66.8825C149.234 65.8952 149.692 64.9621 150.287 64.1182C151.169 62.8133 152.313 61.7059 153.646 60.8661C155.282 59.8729 157.152 59.3307 159.065 59.2944C160.995 59.324 162.876 59.9072 164.484 60.9746C165.783 61.8757 166.858 63.0623 167.627 64.4434C168.551 65.5871 169.1 66.9875 169.199 68.4542Z" fill="#443949"/>
<path d="M166.814 65.4187C166.814 65.6897 165.838 66.015 164.592 66.015C163.345 66.015 162.37 65.6897 162.424 65.4187C162.478 65.1477 163.399 64.9309 164.592 64.9309C165.784 64.9309 166.759 65.0935 166.814 65.4187Z" fill="white"/>
<path d="M146.709 52.194C146.709 52.194 169.523 51.8689 169.686 51.4353C169.848 51.0017 169.686 42.7092 169.686 42.7092L146.709 47.4787V52.194Z" fill="#4C3737"/>
<path d="M141.181 75.825C141.181 75.825 136.196 37.0181 145.408 27.0454C145.408 27.0454 189.574 40.5953 197.16 35.0127C204.747 29.4302 205.343 26.395 205.343 26.395C205.343 26.395 208.594 43.6305 210.383 50.2971C211.339 56.784 211.339 63.3761 210.383 69.863L213.363 68.5623C213.363 68.5623 216.181 24.1186 212.713 22.1132C209.245 20.1078 192.771 3.30602 177.218 8.12979C161.665 12.9535 134.733 25.9614 134.57 35.5005C134.408 45.0396 139.502 76.4754 139.502 76.4754L141.181 75.825Z" fill="#4C3737"/>
<path d="M168.547 11.0568C168.547 11.0568 194.883 -2.65551 200.736 2.16824C202.484 3.96001 203.776 6.14605 204.502 8.54205C205.229 10.938 205.368 13.4737 204.909 15.9349C205.871 15.2658 207.015 14.9071 208.187 14.9071C209.359 14.9071 210.503 15.2658 211.466 15.9349C214.555 18.3739 214.175 28.4007 214.175 28.4007L195.209 21.951L168.547 11.0568Z" fill="#4C3737"/>
<path d="M145.408 26.8828C145.408 26.8828 133.757 35.0128 134.57 40.9747L135.654 49.1587L140.206 43.7388C141.19 37.9154 142.939 32.2478 145.408 26.8828Z" fill="#331E1E"/>
<path d="M163.073 31.7065C205.125 20.8667 193.528 1.46338 193.528 1.46338L185.02 3.84816C194.558 20.108 150.609 28.4005 150.609 28.4005L163.073 31.7065Z" fill="#331E1E"/>
<path d="M184.209 35.7716C184.209 35.7716 204.53 25.2572 204.91 15.9349C204.91 15.9349 207.403 13.9836 209.408 14.9592C209.408 14.9592 210.708 26.3953 190.983 36.2053L184.209 35.7716Z" fill="#331E1E"/>
<path d="M206.211 30.8936C206.211 30.8936 213.96 31.3272 214.177 33.2783V41.7333L207.024 36.3134L206.211 30.8936Z" fill="#331E1E"/>
<path d="M187.621 50.5137L185.941 42.2212L190.981 43.4678L192.715 51.0016L187.621 50.5137Z" fill="#331E1E"/>
<path d="M196.294 51.3812L195.59 44.6062L196.836 44.8773L198.516 51.598L196.294 51.3812Z" fill="#331E1E"/>
<path d="M167.628 43.1428L165.785 51.5978L161.721 51.923L164.159 43.8474L167.628 43.1428Z" fill="#331E1E"/>
<path d="M157.492 52.0314L159.064 44.8772L157.005 45.7985L155.975 50.1346L155.433 45.8528L152.832 46.1779L153.428 52.0314H157.492Z" fill="#331E1E"/>
<path d="M156.842 72.5187C156.842 72.5187 167.68 73.657 169.197 68.0747H148.93C148.93 68.0747 150.23 71.5432 156.842 72.5187Z" fill="#D8A99A"/>
<path d="M192.554 73.2779C192.554 73.2779 203.663 74.416 205.289 68.8335H184.371C184.371 68.8335 185.78 72.2481 192.554 73.2779Z" fill="#D8A99A"/>
<path d="M189.139 100.811C181.066 101.316 172.966 101.171 164.916 100.377C168.81 99.0237 172.95 98.5247 177.055 98.9139C181.173 98.6501 185.299 99.2976 189.139 100.811Z" fill="#D68772"/>
<path d="M166.489 0C166.489 0 167.356 0.541867 168.169 1.89686C169.203 3.68395 169.658 5.74835 169.469 7.8048C169.275 9.79003 168.502 11.6746 167.247 13.2248C166.218 14.4172 165.351 14.9049 165.296 14.7965C165.242 14.6881 165.838 13.9835 166.597 12.7911C167.621 11.1549 168.235 9.2955 168.385 7.37111C168.535 5.51589 168.218 3.65274 167.464 1.95112C167.089 1.32712 166.763 0.674812 166.489 0Z" fill="#4C3737"/>
<path d="M133.974 19.0784C133.974 19.0784 133.974 19.0784 133.974 18.5906C134.311 18.3178 134.732 18.169 135.166 18.169C135.6 18.169 136.021 18.3178 136.358 18.5906C136.647 18.9619 136.8 19.4209 136.792 19.8913C136.742 20.4016 136.555 20.8888 136.25 21.3005C136.073 21.5389 135.852 21.7411 135.599 21.8966C135.35 22.0657 135.076 22.1938 134.786 22.2761C134.17 22.3911 133.536 22.3833 132.923 22.2531C132.309 22.1229 131.727 21.8729 131.21 21.5174C129.998 20.7477 129.066 19.6071 128.555 18.2654C127.965 16.7042 128.01 14.9744 128.678 13.4454C129.346 11.9164 130.585 10.7091 132.131 10.0813C133.739 9.59758 135.454 9.59758 137.062 10.0813C138.518 10.4465 139.934 10.9549 141.289 11.5988C142.53 12.1638 143.711 12.8539 144.812 13.6584C145.774 14.3437 146.632 15.1653 147.359 16.0975C148.425 17.4691 149.048 19.1324 149.147 20.8669C149.147 22.1134 149.147 22.764 148.822 22.7098C148.497 22.6556 148.822 22.0593 148.822 20.9211C148.583 19.3238 147.908 17.8236 146.871 16.5852C145.229 14.8075 143.211 13.4187 140.964 12.5203C139.673 11.9296 138.331 11.4579 136.954 11.1111C135.538 10.7045 134.035 10.7045 132.619 11.1111C131.295 11.6611 130.243 12.7135 129.693 14.0379C129.222 15.2774 129.222 16.6464 129.693 17.886C130.081 19.0705 130.866 20.085 131.914 20.7585C132.753 21.3836 133.804 21.6559 134.841 21.5174C135.234 21.413 135.59 21.2 135.868 20.9029C136.146 20.6058 136.334 20.2365 136.412 19.8372C136.5 19.5548 136.5 19.2524 136.412 18.97C136.229 18.7431 135.985 18.5738 135.708 18.4822C135.53 18.396 135.336 18.3511 135.139 18.3511C134.942 18.3511 134.747 18.396 134.57 18.4822C133.974 19.0784 133.974 19.0784 133.974 19.0784Z" fill="#4C3737"/>
<path d="M156.897 6.55811C156.897 6.55811 156.517 7.37102 155.921 8.5092C155.524 9.16739 155.18 9.85611 154.892 10.5688C154.507 11.4127 154.182 12.2819 153.916 13.1704C153.671 14.063 153.473 14.9675 153.32 15.8804C153.32 16.7476 153.32 17.5063 153.32 18.1567C153.32 18.807 153.32 20.2706 153.32 20.3248C152.946 19.6648 152.759 18.9151 152.778 18.1567C152.68 16.3296 152.881 14.4987 153.374 12.7367C153.66 11.8051 154.023 10.8987 154.458 10.0268C154.829 9.30273 155.265 8.61359 155.759 7.96734C156.084 6.99176 156.788 6.44971 156.897 6.55811Z" fill="#4C3737"/>
<path d="M222.142 45.636C222.142 45.636 221.438 45.636 220.408 45.636C220.138 45.6105 219.866 45.6105 219.595 45.636H218.62C217.237 46.0657 215.936 46.7254 214.772 47.5872C214.513 47.7762 214.277 47.9944 214.068 48.2376C213.83 48.3931 213.627 48.596 213.472 48.8337C212.767 49.5925 212.388 50.1346 212.225 50.0804C212.063 50.0262 212.225 49.3215 212.821 48.3459L213.363 47.5872C214.152 46.71 215.087 45.9763 216.127 45.4191C216.853 45.0774 217.617 44.8228 218.403 44.6604H219.487H220.679C221.546 45.2024 222.142 45.5276 222.142 45.636Z" fill="#4C3737"/>
<path d="M219.106 56.6385C219.106 56.6385 218.781 56.0423 218.293 55.1751L217.914 54.4705C217.751 54.2228 217.569 53.9873 217.372 53.7659C216.969 53.1999 216.475 52.7054 215.909 52.3026C215.35 51.8827 214.751 51.5195 214.12 51.2185L213.254 50.9476H212.495C211.519 50.9476 210.869 50.9475 210.869 50.5681C210.869 50.1887 211.465 50.1345 212.603 50.1887H213.47L214.5 50.4598C215.24 50.7329 215.934 51.1166 216.559 51.5979C217.223 52.0486 217.778 52.641 218.185 53.3324C218.385 53.6089 218.566 53.8987 218.727 54.1996L219.052 55.0668C219.323 55.9882 219.214 56.6385 219.106 56.6385Z" fill="#4C3737"/>
<path d="M137.497 54.7957C137.497 54.7957 138.093 55.5544 138.148 56.9636C138.138 57.9161 137.913 58.8541 137.491 59.708C137.069 60.5619 136.46 61.3097 135.709 61.8958C134.87 62.5429 133.883 62.9714 132.837 63.1425C132.015 63.3119 131.166 63.3119 130.344 63.1425C128.935 62.7631 128.285 62.1127 128.339 62.0043C128.393 61.8959 129.206 62.0042 130.452 62.3836C131.189 62.4881 131.937 62.4881 132.674 62.3836C133.536 62.1631 134.346 61.7765 135.059 61.2454C135.732 60.6955 136.286 60.013 136.684 59.2401C137.033 58.5832 137.254 57.8657 137.335 57.1262C137.551 55.6628 137.335 54.8499 137.497 54.7957Z" fill="#4C3737"/>
<path d="M138.798 64.335C138.798 64.335 137.551 65.2021 136.034 66.0151C134.517 66.8281 133.27 67.6411 133.053 67.3701C132.837 67.0991 133.812 65.961 135.492 65.0396C137.172 64.1182 138.743 64.064 138.798 64.335Z" fill="#4C3737"/>
<path d="M182.745 136.745C181.537 135 180.757 132.995 180.469 130.892C179.93 128.831 179.93 126.666 180.469 124.605C181.018 126.593 181.398 128.623 181.607 130.675C182.19 132.655 182.571 134.689 182.745 136.745Z" fill="#4C3737"/>
<path d="M189.303 137.287C189.303 137.287 188.653 136.908 187.84 135.932C186.863 134.644 186.044 133.243 185.401 131.759C184.759 130.282 184.287 128.736 183.992 127.152C183.992 125.906 183.992 125.147 183.992 125.147C183.992 125.147 184.968 128.019 186.485 131.326C188.002 134.632 189.574 137.071 189.303 137.287Z" fill="#4C3737"/>
<path d="M209.353 105.472C209.353 105.472 209.353 105.093 209.353 104.551C209.617 104.196 209.96 103.908 210.356 103.71C210.751 103.512 211.187 103.411 211.629 103.413C212.294 103.411 212.933 103.663 213.418 104.117C213.98 104.589 214.362 105.24 214.501 105.96C214.74 106.737 214.74 107.568 214.501 108.345C214.121 109.102 213.54 109.739 212.822 110.188C212.102 110.642 211.285 110.921 210.437 111C209.701 111.11 208.952 111.11 208.215 111C207.026 110.647 205.92 110.057 204.964 109.266C204.311 108.79 203.711 108.245 203.176 107.64C202.796 107.207 202.634 106.99 202.688 106.881C202.742 106.773 203.013 106.881 203.447 107.315L205.397 108.67C206.345 109.29 207.389 109.748 208.486 110.025C209.114 110.191 209.769 110.229 210.411 110.135C211.054 110.042 211.671 109.82 212.225 109.483C212.767 109.188 213.203 108.733 213.475 108.179C213.747 107.626 213.84 107.002 213.743 106.394C213.656 105.863 213.41 105.372 213.038 104.984C212.723 104.652 212.301 104.441 211.846 104.388C211.136 104.34 210.435 104.574 209.895 105.039C209.516 105.201 209.408 105.472 209.353 105.472Z" fill="#4C3737"/>
<path d="M168.007 72.4646C168.007 72.4646 167.248 73.2775 165.677 73.9279L164.43 74.47L162.913 74.9035C161.719 75.1794 160.505 75.3607 159.282 75.4455C158.073 75.5331 156.86 75.5331 155.651 75.4455L154.08 75.1204L152.779 74.6868C151.208 74.1448 150.341 73.5486 150.395 73.4402C150.449 73.3318 151.425 73.4402 152.996 73.9822H154.297H155.814C156.95 74.0661 158.092 74.0661 159.228 73.9822C160.39 73.9179 161.548 73.7912 162.696 73.6028L164.159 73.2776L165.406 72.8981C166.255 72.6604 167.127 72.5151 168.007 72.4646Z" fill="#E2A893"/>
<path d="M203.012 74.687C202.241 75.268 201.353 75.6749 200.41 75.8793C199.932 76.0249 199.443 76.1336 198.947 76.2045C198.407 76.2654 197.862 76.2654 197.322 76.2045C196.043 76.342 194.753 76.342 193.474 76.2045C192.191 76.1119 190.921 75.8941 189.681 75.5541L188.055 75.0121L186.7 74.4701C185.074 73.7113 184.207 73.0067 184.316 72.8983C184.424 72.7899 185.345 73.2235 187.025 73.7655L188.326 74.1449L189.897 74.5784C191.097 74.8239 192.309 75.0049 193.528 75.1205C194.755 75.2018 195.986 75.2018 197.213 75.1205H198.839H200.194C201.928 74.7953 202.957 74.5244 203.012 74.687Z" fill="#E2A893"/>
<path d="M124.289 203.461C93.6162 207.912 41.1571 201.222 39.027 200.413C36.8969 199.605 25.0689 184.993 28.7035 176.262C46.5 154 97.0006 166 113.218 148.547C117.223 162.252 129.296 199.374 124.289 203.461Z" fill="#808080"/>
<path d="M121.098 76.9902L113.776 57.675C104.102 63.5823 98.5386 75.439 94.3839 79.7257L103.201 91.9575C103.201 91.9575 113.06 80.274 121.098 76.9902Z" fill="#EAB69B"/>
<path d="M129.595 56.1717C132.706 53.3412 136.386 51.2073 140.388 49.9123C142.109 49.6816 148.77 49.4367 149.823 50.1687C150.875 50.9008 150.474 53.9805 148.531 54.0861C146.589 54.1917 141.29 54.1847 139.961 54.9146C138.631 55.6444 134.952 59.7266 133.413 60.2231C131.875 60.7196 127.481 58.2865 129.595 56.1717Z" fill="#EAB69B"/>
<path d="M132.66 47.6848C135.404 45.4915 138.611 43.9514 142.038 43.1808C143.767 43.1929 149.437 43.113 150.617 43.9918C151.798 44.8706 150.975 48.0606 148.751 47.8634C146.401 47.5153 144.014 47.4912 141.658 47.7917C140.346 48.2462 135.162 52.3578 133.828 52.4937C132.495 52.6296 130.93 49.1111 132.66 47.6848Z" fill="#EAB69B"/>
<path d="M125.013 45.3608C126.653 42.9278 135.313 37.4362 138.473 37.1654C140.217 37.0275 145.015 36.5231 146.531 37.1464C148.047 37.7697 148.771 41.1576 146.502 41.2682C144.06 41.3449 141.624 41.5446 139.202 41.8664C136.169 42.7774 135.336 46.2597 134.086 46.6244C132.837 46.9892 123.892 47.0431 125.013 45.3608Z" fill="#EAB69B"/>
<path d="M139.121 55.0434C138.941 53.1902 135.329 39.1414 127.971 42.1037C118.675 47.1919 114.855 50.7572 105.231 65.8129L120.986 77.2272C129.363 72.1061 139.324 56.9265 139.121 55.0434Z" fill="#EAB69B"/>
<path d="M89.6417 75.2942C74.9909 94.6538 29.078 162.27 28.3088 177.201C27.5396 192.132 58.5205 182.093 64.0501 178.595C69.5797 175.096 112.894 89.1066 112.894 89.1066L89.6417 75.2942Z" fill="#808080"/>
<path d="M115.11 172.437C115.311 173.237 115.433 174.054 115.473 174.877C115.473 176.435 115.888 178.719 116.148 181.522C116.719 187.077 117.654 194.813 118.64 203.327C119.626 211.841 120.405 219.628 120.82 225.235C120.82 228.039 121.131 230.427 121.183 231.88C121.24 232.693 121.24 233.508 121.183 234.32C120.938 233.548 120.815 232.742 120.82 231.932C120.82 230.323 120.404 228.091 120.093 225.287C119.522 219.68 118.64 211.997 117.654 203.483C116.667 194.969 115.888 187.181 115.473 181.574C115.473 178.771 115.162 176.383 115.11 174.929C114.987 174.103 114.987 173.263 115.11 172.437Z" fill="#666666"/>
</svg>
