<svg width="180" height="180" viewBox="0 0 180 180" fill="none" xmlns="http://www.w3.org/2000/svg">
<ellipse cx="83.4375" cy="104.885" rx="74.0625" ry="74.918" fill="#E0E0E0"/>
<mask id="mask0" mask-type="alpha" maskUnits="userSpaceOnUse" x="0" y="0" width="180" height="180">
<path d="M180 89.9017C180 123.073 160.312 159.201 129.375 163.883C117.188 172.312 106.498 179.803 90 179.803C46.875 182.613 13.125 155.455 0 89.9017C0 40.2503 40.2944 0 90 0C139.706 0 180 40.2503 180 89.9017Z" fill="#C4C4C4"/>
</mask>
<g mask="url(#mask0)">
<path fill-rule="evenodd" clip-rule="evenodd" d="M153.992 71.1721C152.584 70.3346 151.483 69.0624 150.859 67.545C150.409 66.1495 150.8 64.613 151.17 63.1567C151.426 62.1503 151.672 61.1822 151.624 60.3252C151.543 58.8581 150.747 58.1798 149.884 57.4436C149.513 57.1273 149.129 56.8004 148.784 56.3956C147.636 55.0485 148.589 53.2427 151.137 54.2385C152.346 54.8333 153.325 55.8089 153.923 57.0148C154.522 58.2207 154.706 59.5898 154.448 60.9107C154.448 60.9107 154.547 64.2825 156.742 60.0143C157.228 59.0707 157.595 58.2639 157.902 57.5921C158.98 55.2251 159.296 54.5324 161.313 55.4255C162.354 55.8677 161.937 57.4423 161.937 57.4423C161.937 57.4423 164.615 56.6294 164.209 58.9167C164.209 58.9167 167.267 59.3523 166.683 61.5568C166.683 61.5568 169.236 61.2505 168.015 65.4126C166.913 69.1655 165.776 70.2662 162.809 73.1395C162.783 73.1639 162.758 73.1884 162.733 73.2131L163.491 80.3764L156.482 84.0521L153.992 71.1721Z" fill="#FCCAB1"/>
<path d="M87.1328 87.374C87.1328 87.374 115.309 121.378 134.457 132.159C146.079 138.557 151.203 109.319 154.597 90.7968L155.333 79.1527L163.85 77.2014C163.85 77.2014 174.544 150.777 141.437 154.135C124.755 155.831 119.024 145.05 119.024 145.05L87.1328 87.374Z" fill="#808080"/>
<path d="M51.8791 98.2502C68.0806 89.901 70.3219 91.0846 85.9151 86.8621L104.006 114.309L101.989 159.349L62.4453 146.938L41.5049 107.015L51.8791 98.2502Z" fill="#E0E0E0"/>
<path d="M59.4361 96.523L57.5791 83.7273L75.3174 83.9512L78.5193 90.0292C78.5193 90.0292 70.7068 101.257 59.4361 96.523Z" fill="#FCCAB1"/>
<path d="M81.9455 88.2059L78.9357 84.0473L72.0195 92.0446L75.4456 98.2505L81.9455 88.2059Z" fill="#EAEAEA"/>
<path d="M72.0195 92.0445L72.0836 96.9708L74.5171 96.619L72.0195 92.0445Z" fill="#CECECE"/>
<path d="M72.0831 96.9707L68.7852 93.4839L69.4255 99.2419L72.0831 96.9707Z" fill="#CECECE"/>
<path d="M55.7539 92.9401C55.7539 93.132 68.7856 93.4839 68.7856 93.4839L69.9062 100.298L55.882 98.4742L55.7539 92.9401Z" fill="#EAEAEA"/>
<path d="M83.291 87.3738C83.291 87.3738 106.857 131.167 101.99 159.285C101.99 160.053 101.061 172.657 100.133 187.532C99.0762 203.91 97.9235 222.72 97.9235 222.72L124.051 215.554C124.051 215.554 123.667 159.349 114.605 129.568C109.514 113.701 100.737 99.2647 88.9904 87.4378C88.0937 87.044 87.1266 86.8354 86.1472 86.8244C85.1678 86.8134 84.1963 87.0002 83.291 87.3738Z" fill="#808080"/>
<path d="M101.99 159.349C101.99 159.349 107.85 148.345 107.113 141.819L103.687 139.004V125.537L85.2762 86.8621L83.291 87.4379C83.291 87.4379 106.217 140.348 101.99 159.349Z" fill="#666666"/>
<path d="M98.2109 220.161C98.2109 220.161 98.211 219.937 98.3711 219.521C98.5312 219.106 98.6593 218.562 98.8834 217.826C99.2996 216.322 99.9079 214.147 100.516 211.428C102.083 204.346 103.153 197.163 103.718 189.931C104.323 182.704 104.323 175.438 103.718 168.211C103.493 166.063 103.162 163.928 102.726 161.813C102.726 161.429 102.566 161.109 102.502 160.789C102.437 160.469 102.501 160.277 102.341 160.053C102.181 159.83 102.341 159.446 102.341 159.446C102.341 159.446 102.341 159.638 102.598 160.022L102.822 160.757C102.822 161.045 102.982 161.365 103.078 161.749C103.623 163.853 104.03 165.99 104.295 168.147C105.089 175.382 105.186 182.677 104.583 189.931C104.081 197.191 103.011 204.4 101.381 211.492C100.708 214.211 100.036 216.386 99.5237 217.89C99.2676 218.626 99.0435 219.202 98.8834 219.585C98.7233 219.969 98.243 220.161 98.2109 220.161Z" fill="#666666"/>
<path d="M107.785 168.563C107.785 168.826 107.681 169.078 107.494 169.264C107.308 169.45 107.056 169.554 106.792 169.554C106.556 169.512 106.341 169.388 106.187 169.204C106.033 169.02 105.948 168.787 105.948 168.547C105.948 168.307 106.033 168.074 106.187 167.89C106.341 167.706 106.556 167.581 106.792 167.539C106.926 167.539 107.057 167.566 107.18 167.618C107.302 167.669 107.413 167.745 107.506 167.841C107.598 167.936 107.671 168.049 107.719 168.173C107.767 168.298 107.789 168.43 107.785 168.563Z" fill="#666666"/>
<path d="M97.8587 221.729L59.6282 215.555C64.7864 203.372 68.7955 190.735 71.6032 177.807C75.1253 161.813 34.2373 110.342 34.2373 110.342L51.7516 98.2503L101.861 159.35C101.861 159.35 103.59 187.82 100.388 203.367L97.8587 221.729Z" fill="#808080"/>
<path d="M49.0303 99.7538L76.3744 142.811L88.2534 147.61L91.7755 156.279L101.99 159.35L51.88 98.2503L49.0303 99.7538Z" fill="#666666"/>
<path d="M34.3654 110.023C34.3654 110.023 21.5578 170.258 32.3161 184.461C43.5548 199.528 81.5932 219.426 81.5932 219.426L87.1324 215.683C87.1324 215.683 57.3229 185.997 52.8402 170.354C50.4068 161.941 58.2194 136.414 58.2194 136.414C58.2194 136.414 50.599 105.384 34.3654 110.023Z" fill="#808080"/>
<path d="M56.8103 141.756C56.6883 141.199 56.6239 140.63 56.6182 140.06C56.6182 138.973 56.3941 137.373 56.234 135.422C56.0429 133.151 55.6464 130.903 55.0493 128.704C54.6818 127.419 54.2326 126.158 53.7045 124.929C53.1567 123.59 52.5037 122.295 51.7514 121.059C50.3517 118.625 48.5304 116.458 46.3723 114.661C44.6093 113.23 42.6319 112.086 40.5128 111.27C39.0715 110.746 37.5802 110.37 36.0622 110.15C35.4888 110.129 34.9196 110.043 34.3652 109.894C34.9399 109.831 35.5196 109.831 36.0942 109.894C37.6535 110.029 39.1909 110.351 40.6729 110.854C42.872 111.632 44.9274 112.766 46.7565 114.213C47.8162 115.078 48.8015 116.03 49.7022 117.06C50.6986 118.161 51.5785 119.361 52.3277 120.643C53.0742 121.905 53.7271 123.22 54.2809 124.577C54.8047 125.84 55.2537 127.133 55.6257 128.448C56.2005 130.69 56.5545 132.983 56.6823 135.294C56.6823 137.245 56.8424 138.845 56.8424 139.932C56.9189 140.538 56.9081 141.152 56.8103 141.756Z" fill="#666666"/>
<path d="M119.792 154.807C119.636 154.329 119.528 153.836 119.472 153.336C119.472 152.856 119.28 152.28 119.152 151.608C119.024 150.936 118.864 150.169 118.671 149.337C118.479 148.505 118.511 148.473 118.415 148.025C118.319 147.578 118.159 147.098 118.063 146.618L117.679 145.082C117.519 144.571 117.391 144.027 117.231 143.483L116.75 141.82C116.75 141.244 116.398 140.668 116.206 140.092C115.854 138.877 115.438 137.693 115.021 136.445C114.829 135.838 114.605 135.23 114.381 134.622L113.709 132.831C113.517 132.287 113.292 131.711 113.068 131.135L112.748 130.335C112.748 130.047 112.524 129.792 112.428 129.536C112.332 129.28 112.012 128.48 111.787 128C111.563 127.52 111.371 127.009 111.179 126.561C110.795 125.601 110.411 124.769 110.058 123.97L108.394 120.259C108.148 119.82 107.944 119.36 107.785 118.883C107.785 118.883 108.137 119.299 108.586 120.163C109.034 121.027 109.706 122.242 110.475 123.778C110.859 124.545 111.275 125.409 111.659 126.337C111.873 126.785 112.097 127.264 112.332 127.776L112.972 129.312C112.972 129.568 113.196 129.824 113.324 130.111C113.417 130.383 113.524 130.65 113.645 130.911L114.317 132.607L114.989 134.398C115.181 135.006 115.438 135.614 115.63 136.221C116.046 137.469 116.462 138.685 116.814 139.9C117.007 140.476 117.167 141.084 117.359 141.628C117.551 142.171 117.647 142.779 117.807 143.323C117.967 143.867 118.095 144.411 118.223 144.954C118.351 145.498 118.447 145.978 118.575 146.49L118.896 147.929C118.896 148.377 119.056 148.825 119.12 149.241C119.184 149.657 119.408 150.872 119.536 151.544C119.664 152.216 119.536 152.824 119.728 153.304C119.827 153.799 119.849 154.306 119.792 154.807Z" fill="#666666"/>
<path d="M43.5855 51.8341C42.4649 52.3139 36.3173 54.0733 38.9748 62.0067C41.6324 69.94 46.9795 67.7007 46.9795 67.7007L43.5855 51.8341Z" fill="#EAB69B"/>
<path d="M44.7722 64.9815C44.7722 64.9815 44.612 64.9815 44.3239 64.9815C43.9281 64.922 43.541 64.8145 43.1712 64.6615C42.6358 64.3932 42.1574 64.0239 41.7624 63.5739C41.5269 63.2989 41.3228 62.9985 41.154 62.6782C40.9878 62.3414 40.859 61.9874 40.7698 61.6226C40.5754 60.8996 40.5754 60.1382 40.7698 59.4153C40.9141 58.8354 41.1756 58.2911 41.5382 57.8158C41.782 57.505 42.0738 57.235 42.4027 57.0161C42.6588 57.0161 42.819 56.8242 42.819 57.0161C42.819 57.208 42.4027 57.464 41.9224 58.2317C41.6566 58.6901 41.4623 59.1863 41.3461 59.7032C41.2176 60.3366 41.2176 60.9892 41.3461 61.6226C41.4245 61.9452 41.5428 62.2569 41.6983 62.5503C41.832 62.8318 41.9928 63.0997 42.1785 63.35C42.515 63.7624 42.915 64.1187 43.3633 64.4057C44.1958 64.6296 44.7722 64.6936 44.7722 64.9815Z" fill="#D68772"/>
<path d="M45.0909 61.0791C45.0909 61.0791 44.8028 60.8871 44.4505 60.6632C43.9986 60.3604 43.455 60.2246 42.9136 60.2793C42.5478 60.3348 42.2045 60.4898 41.921 60.7272C41.703 60.9037 41.5093 61.108 41.3446 61.335L41.0244 61.175C41.2165 60.9511 41.3446 60.8232 41.4086 60.8552C41.4727 60.8871 41.4086 61.0791 41.4086 61.335L41.0884 61.175C41.1795 60.8468 41.3563 60.5487 41.6007 60.3113C41.9416 59.9521 42.392 59.7158 42.8815 59.6395C43.257 59.5236 43.6588 59.5236 44.0343 59.6395C44.3224 59.7566 44.5837 59.9307 44.8027 60.1514C45.0909 60.7272 45.1549 61.0471 45.0909 61.0791Z" fill="#D68772"/>
<path d="M84.8273 47.8353C86.012 48.1232 92.3197 49.0509 90.7828 57.4321C89.2459 65.8133 83.6426 64.1499 83.6426 64.1499L84.8273 47.8353Z" fill="#EAB69B"/>
<path d="M85.4355 60.823C85.4355 60.823 85.9799 60.5671 86.6844 59.9913C87.0972 59.6518 87.4444 59.2398 87.7089 58.7757C87.869 58.5143 87.998 58.2352 88.0932 57.944C88.1981 57.6319 88.2731 57.3105 88.3173 56.9843C88.355 55.8267 87.9807 54.6932 87.2607 53.7854C86.6843 53.0816 86.14 52.7937 86.172 52.6977C86.2041 52.6018 86.3641 52.6977 86.6203 52.6977C86.9827 52.8543 87.3096 53.0829 87.5809 53.3695C88.0687 53.8358 88.4456 54.4055 88.6839 55.0366C88.9222 55.6678 89.0158 56.3442 88.9577 57.0162C88.9254 57.3996 88.8392 57.7766 88.7016 58.1359C88.5806 58.4738 88.4192 58.7961 88.2212 59.0956C87.8895 59.5969 87.4658 60.0311 86.9725 60.3751C86.6308 60.594 86.2504 60.746 85.8518 60.823C85.5957 60.8869 85.4355 60.8869 85.4355 60.823Z" fill="#D68772"/>
<path d="M84.6016 57.1763C84.6016 57.1763 84.6016 56.8244 84.8578 56.3766C85.0241 56.1099 85.2554 55.8897 85.5301 55.7368C85.8865 55.5519 86.2814 55.4533 86.6829 55.4489C87.1613 55.4604 87.6227 55.629 87.9956 55.9287C88.2765 56.1336 88.4976 56.4097 88.6359 56.7285L88.3478 56.9204C88.3478 56.6645 88.1557 56.5045 88.3478 56.4725C88.5399 56.4405 88.5399 56.4725 88.764 56.7285L88.4438 56.9204C88.2575 56.7095 88.0418 56.5263 87.8034 56.3766C87.4921 56.1948 87.1394 56.0957 86.7789 56.0887C86.2353 56.1011 85.7136 56.305 85.306 56.6645C84.8577 56.9524 84.6976 57.2083 84.6016 57.1763Z" fill="#D68772"/>
<path d="M81.6567 82.4477C75.8293 89.4534 52.5836 86.3504 49.2216 83.6313C45.8597 80.9122 41.5051 43.3569 41.5051 43.3569C38.8795 23.9715 49.958 22.0201 60.4922 18.5333C71.0264 15.0464 82.9055 20.4526 85.0507 36.4153C85.0507 36.4153 86.3955 76.7537 81.6567 82.4477Z" fill="#FCCAB1"/>
<path d="M44.8037 66.8372C60.621 66.1974 74.5812 64.0221 85.4035 59.3197C85.4035 59.3197 84.5071 75.9861 84.0908 77.8095C83.0982 81.8721 82.8741 87.0224 65.8721 86.6705C48.8702 86.3187 49.1583 84.9751 47.4933 81.2643C46.2691 76.5221 45.3705 71.7018 44.8037 66.8372Z" fill="#4C3737"/>
<path d="M68.5928 59.7355C68.5928 59.7355 68.3687 60.0554 67.7923 60.5352C67.0235 61.221 66.1988 61.8416 65.3269 62.3906C64.7343 62.796 64.1012 63.1391 63.4378 63.4142C63.2508 63.4925 63.0581 63.5567 62.8615 63.6062H62.5733H62.2211C62.0957 63.6435 61.9622 63.6435 61.8369 63.6062C61.748 63.5873 61.6644 63.5488 61.5924 63.4934C61.5204 63.438 61.4617 63.3673 61.4206 63.2863C61.2883 63.0624 61.2114 62.8101 61.1965 62.5506C61.1494 62.0932 61.1494 61.6323 61.1965 61.175C61.2424 60.7123 61.3173 60.2529 61.4206 59.7995C61.6127 58.9038 61.8368 57.9441 62.093 56.9844C62.6373 55.0651 63.2137 53.2737 63.758 51.6742C63.9181 51.2583 64.0462 50.8745 64.1743 50.4906V50.2027V49.7229C64.1743 49.7229 64.1743 49.5309 64.1743 49.4669C64.1743 48.7312 63.8861 48.0274 63.758 47.3877C63.3635 46.0543 63.0534 44.6974 62.8295 43.325C63.0246 43.6444 63.1755 43.9888 63.2778 44.3487C63.5019 45.0525 63.854 46.0441 64.2062 47.2917C64.2062 47.9315 64.5585 48.6032 64.6866 49.371C64.6866 49.371 64.6866 49.563 64.6866 49.6589V50.2027V50.4906L64.3023 51.6742C63.79 53.3057 63.2137 55.097 62.7014 57.0164C62.4452 57.9441 62.189 58.8718 61.9969 59.7675C61.8048 60.6632 61.8369 60.6632 61.7729 61.111C61.7423 61.5263 61.7423 61.9433 61.7729 62.3586C61.7458 62.5066 61.7458 62.6584 61.7729 62.8065H62.2531H62.5092C62.6954 62.7568 62.8775 62.6926 63.0536 62.6145C63.6962 62.3675 64.3173 62.0679 64.9107 61.7188C65.9993 61.079 66.8639 60.4713 67.4722 60.0554C67.8291 59.8972 68.2062 59.7895 68.5928 59.7355Z" fill="#E2A893"/>
<path d="M68.0492 38.6546L80.9527 39.0065L81.2729 35.9994L67.793 33.6642L68.0492 38.6546Z" fill="#4C3737"/>
<path d="M46.404 41.3415C46.404 41.3415 59.82 40.2539 59.884 39.966C59.9481 39.678 59.5318 34.8477 59.5318 34.8477L46.2119 38.5585L46.404 41.3415Z" fill="#4C3737"/>
<path d="M44.0659 55.3847C44.0659 55.3847 39.5512 32.7363 44.5782 26.4025C44.5782 26.4025 71.1859 32.5764 75.4124 28.9936C79.6388 25.4108 79.8951 23.6194 79.8951 23.6194C79.8951 23.6194 82.5206 33.632 83.8333 37.4707C84.6545 41.2508 84.9241 45.1296 84.6338 48.9868L86.3308 48.1231C86.3308 48.1231 86.3309 21.828 84.0895 20.7723C81.8482 19.7167 71.5702 10.5038 62.5729 13.9906C53.5755 17.4775 38.2705 26.1785 38.5587 31.8086C38.8469 37.4387 43.1053 55.7365 43.1053 55.7365L44.0659 55.3847Z" fill="#4C3737"/>
<path d="M57.6123 16.2301C57.6123 16.2301 72.5651 7.11318 76.2152 9.83225C77.3202 10.8153 78.173 12.0488 78.7023 13.4292C79.2315 14.8095 79.4218 16.2966 79.2571 17.7656C79.7831 17.3123 80.4423 17.0422 81.1354 16.9961C81.8285 16.9499 82.5178 17.1302 83.0994 17.5097C85.0205 18.8212 85.2125 24.7072 85.2125 24.7072L73.7498 21.6683L57.6123 16.2301Z" fill="#4C3737"/>
<path d="M44.5794 26.5946C44.5794 26.5946 38.1756 31.8728 38.7839 35.2956L39.7446 40.0939L42.21 36.895C42.5326 33.3707 43.3295 29.906 44.5794 26.5946Z" fill="#331E1E"/>
<path d="M55.21 28.6101C79.5443 20.4849 71.9559 9.57654 71.9559 9.57654L67.057 11.336C73.4608 20.5808 47.8457 27.3305 47.8457 27.3305L55.21 28.6101Z" fill="#331E1E"/>
<path d="M67.8574 30.1772C67.8574 30.1772 79.3842 23.1396 79.2561 17.6695C79.2561 17.6695 80.6329 16.4219 81.8496 16.9017C81.8496 16.9017 83.0664 23.5875 71.8598 30.1453L67.8574 30.1772Z" fill="#331E1E"/>
<path d="M80.5996 26.4025C80.5996 26.4025 85.1784 26.4025 85.4026 27.4901L85.883 32.4485L81.4642 29.5374L80.5996 26.4025Z" fill="#331E1E"/>
<path d="M70.4503 38.7183L69.1055 33.8879L72.1473 34.4317L73.4602 38.7823L70.4503 38.7183Z" fill="#331E1E"/>
<path d="M75.6058 38.8464L74.9014 34.9117L75.6379 35.0397L76.9187 38.8783L75.6058 38.8464Z" fill="#331E1E"/>
<path d="M58.3798 35.1675L57.6113 40.2219L55.21 40.5738L56.3306 35.7434L58.3798 35.1675Z" fill="#331E1E"/>
<path d="M52.7443 40.7977L53.3846 36.543L52.232 37.1508L51.7837 39.774L51.2715 37.2468L49.7666 37.5667L50.3429 40.9576L52.7443 40.7977Z" fill="#331E1E"/>
<path d="M68.6739 50.3473C68.6739 50.3473 69.2983 43.3935 74.2087 43.2235C79.1191 43.0535 80.5437 48.6591 80.5437 48.6591L68.6739 50.3473Z" fill="#EFA98E"/>
<path d="M68.6718 50.3475C68.7482 49.0048 69.2898 47.7305 70.2035 46.7429C71.1173 45.7554 72.3465 45.1161 73.6803 44.9347C75.103 44.6568 76.5782 44.8952 77.8408 45.6069C79.1033 46.3186 80.0704 47.4569 80.568 48.8172C80.568 48.8172 71.4483 50.0466 68.6718 50.3475Z" fill="#ECE9DE"/>
<path d="M71.8548 49.9463C71.8548 49.9463 71.2687 46.4407 74.4086 45.787C77.5486 45.1332 78.2298 49.2073 78.2298 49.2073C76.1533 49.768 74.0048 50.017 71.8548 49.9463Z" fill="#70924F"/>
<path d="M80.6001 48.8118C80.6001 48.8118 80.1362 47.9803 79.1453 46.912C78.5705 46.2785 77.8659 45.776 77.0794 45.4388C76.1273 45.0423 75.0821 44.924 74.0654 45.0976C73.0337 45.2721 72.0657 45.7134 71.2577 46.3776C70.5956 46.9198 70.0448 47.5849 69.6357 48.3363C69.2987 49.0625 69 49.8058 68.7408 50.5632C68.7408 50.5632 68.6986 50.3106 68.6299 49.9C68.7151 49.2868 68.8888 48.6893 69.1456 48.1259C69.5371 47.2895 70.0984 46.5436 70.7939 45.9356C71.6514 45.1976 72.6892 44.6997 73.8018 44.4923C74.9254 44.2957 76.0822 44.4421 77.1213 44.9124C77.9615 45.3194 78.7026 45.9048 79.2927 46.6277C79.925 47.2188 80.378 47.9757 80.6001 48.8118Z" fill="#443949"/>
<path d="M78.9135 47.2758C78.9453 47.4655 78.4081 47.7501 77.681 47.8714C76.954 47.9927 76.3532 47.8979 76.3531 47.7029C76.353 47.508 76.8799 47.3551 77.5753 47.2391C78.2707 47.123 78.8555 47.123 78.9135 47.2758Z" fill="white"/>
<path d="M48.2979 51.3348C48.2979 51.3348 48.9223 44.381 53.8327 44.211C58.7431 44.041 60.1677 49.6466 60.1677 49.6466L48.2979 51.3348Z" fill="#EFA98E"/>
<path d="M48.2977 51.3348C48.3742 49.9921 48.9157 48.7178 49.8295 47.7302C50.7433 46.7427 51.9725 46.1034 53.3063 45.922C54.729 45.6441 56.2042 45.8825 57.4668 46.5942C58.7293 47.3059 59.6963 48.4442 60.194 49.8045C60.194 49.8045 51.0743 51.0339 48.2977 51.3348Z" fill="#ECE9DE"/>
<path d="M51.4808 50.9336C51.4808 50.9336 50.8947 47.428 54.0346 46.7743C57.1746 46.1206 57.8558 50.1946 57.8558 50.1946C55.7792 50.7553 53.6307 51.0043 51.4808 50.9336Z" fill="#70924F"/>
<path d="M60.2261 49.7992C60.2261 49.7992 59.7622 48.9676 58.7713 47.8994C58.1965 47.2658 57.4919 46.7633 56.7054 46.4261C55.7533 46.0297 54.7081 45.9114 53.6914 46.0849C52.6597 46.2594 51.6917 46.7007 50.8837 47.365C50.2215 47.9072 49.6708 48.5723 49.2617 49.3236C48.9247 50.0498 48.626 50.7931 48.3668 51.5505C48.3668 51.5505 48.3246 51.2979 48.2559 50.8873C48.3411 50.2742 48.5148 49.6766 48.7716 49.1132C49.1631 48.2769 49.7244 47.531 50.4199 46.9229C51.2774 46.185 52.3152 45.687 53.4278 45.4797C54.5514 45.2831 55.7082 45.4295 56.7473 45.8997C57.5874 46.3067 58.3286 46.8921 58.9187 47.6151C59.5509 48.2061 60.004 48.963 60.2261 49.7992Z" fill="#443949"/>
<path d="M58.5395 48.2631C58.5712 48.4528 58.0341 48.7374 57.307 48.8587C56.58 48.98 55.9792 48.8852 55.9791 48.6902C55.979 48.4953 56.5059 48.3424 57.2013 48.2264C57.8967 48.1103 58.4815 48.1103 58.5395 48.2631Z" fill="white"/>
<path d="M56.25 72.0021C57.8964 73.2724 59.7987 74.1714 61.826 74.6372C63.8533 75.1031 65.9575 75.1247 67.994 74.7008C70.0374 74.2361 71.9605 73.3487 73.6395 72.0957C75.3184 70.8427 76.7158 69.252 77.7415 67.4262" fill="#ECE9DE"/>
</g>
</svg>
