<svg width="13" height="20" viewBox="0 0 13 20" fill="none" xmlns="http://www.w3.org/2000/svg">
<path d="M11.1251 15H2.37508V3.33337H11.1251V15ZM8.41675 17.5H5.08342V16.6667H8.41675V17.5ZM10.0834 0.833374H3.41675C2.75371 0.833374 2.11782 1.09677 1.64898 1.56561C1.18014 2.03445 0.916748 2.67033 0.916748 3.33337V16.6667C0.916748 17.3297 1.18014 17.9656 1.64898 18.4345C2.11782 18.9033 2.75371 19.1667 3.41675 19.1667H10.0834C10.7465 19.1667 11.3823 18.9033 11.8512 18.4345C12.32 17.9656 12.5834 17.3297 12.5834 16.6667V3.33337C12.5834 2.67033 12.32 2.03445 11.8512 1.56561C11.3823 1.09677 10.7465 0.833374 10.0834 0.833374Z" fill="#E4322B"/>
</svg>
