<svg width="1440" height="768" viewBox="0 0 1440 768" fill="none" xmlns="http://www.w3.org/2000/svg">
<g clip-path="url(#clip0)">
<rect width="1440" height="768" fill="#F2F2F2"/>
<g opacity="0.1">
<path d="M356.773 759.149L383.319 317.964L527.727 290.603L536.096 761.835L356.773 759.149Z" fill="#828282"/>
<path d="M858.723 157.754L1025.1 191.757L1048.69 767.661L882.631 764.88L858.723 157.754Z" fill="#BDBDBD"/>
<path d="M387 770L383.368 367L173.404 379.804L146 770H387Z" fill="#828282"/>
<path d="M383.752 367.291L420.729 381.847L429.914 761.858L379.292 760.491L383.752 367.291Z" fill="#4F4F4F"/>
<path d="M422.502 441.437L382.983 433.428L169.058 441.437L168.122 449.71L382.887 442.66L422.982 448.175L422.502 441.437Z" fill="#BDBDBD"/>
<path d="M164.333 503.714L383.318 498.39L422.981 501.052L423.773 507.551H382.143L163.757 511.699L164.333 503.714Z" fill="#BDBDBD"/>
<path d="M160.521 558.939L381.329 558.508L425.044 560.306L425.236 568.675L381.473 567.428L159.921 566.421L160.521 558.939Z" fill="url(#paint0_linear)"/>
<path d="M1294.56 770.131L1262.57 262.091L1050.73 257.367L1048.67 770.227L1294.56 770.131Z" fill="#828282"/>
<path d="M1050.73 257.367L1029.3 294.2L1031.21 759.149L1072.72 756.942L1050.73 257.367Z" fill="#4F4F4F"/>
<path d="M1098.59 258.71L1112.5 769.844H1128.21L1105.69 258.59L1098.59 258.71Z" fill="#BDBDBD"/>
<path d="M1153.05 259.645L1171.62 770.132H1181.64L1160.18 259.813L1153.05 259.645Z" fill="#BDBDBD"/>
<path d="M1214.42 261.012L1237.08 769.532L1245.19 769.844L1218.02 261.108L1214.42 261.012Z" fill="#BDBDBD"/>
<path d="M1440 618.649L1280.84 568.315L162.752 526.206L0 603.518V770.131H1438.82L1440 618.649Z" fill="#828282"/>
<path d="M527.727 290.603L563.577 294.104L570.891 731.068L523.003 737.879L527.727 290.603Z" fill="#4F4F4F"/>
<path d="M577.558 770.131L598.348 94.3984L854.647 96.0051L882.631 765.167L577.558 770.131Z" fill="#828282"/>
<path d="M615.687 94.4947L626.142 49.0046H821.795L831.747 96.1014L615.687 94.4947Z" fill="#828282"/>
<path d="M647.414 49.0043L650.819 35H799.807L804.77 49.0043H647.414Z" fill="#BDBDBD"/>
<path d="M861.456 126.724H747.072L727.072 767.709L890.352 766.798L861.456 126.724Z" fill="#828282"/>
<path d="M861.46 126.724L855.657 120.249H740.361L710.914 770.131L727.076 767.709L750.889 128.426L861.46 126.724Z" fill="#BDBDBD"/>
<path d="M595.833 176.53H737.555V188.736H595.449L595.833 176.53Z" fill="#BDBDBD"/>
<path d="M733.477 271.971H592.906V282.234H733.189L733.477 271.971Z" fill="#BDBDBD"/>
<path d="M865.537 217.32H766.283V228.495H866.136L865.537 217.32Z" fill="#BDBDBD"/>
<path d="M1280.85 568.315L1359.48 613.997V767.661H1278.81L1280.85 568.315Z" fill="#4F4F4F"/>
<path d="M203.737 701.597V603.519L340.375 534.912L331.454 742.771L203.737 701.597Z" fill="#4F4F4F"/>
<path d="M1251.78 410.863V575.894C1251.78 606.372 1241.71 767.062 1241.71 767.062H1231.59C1231.59 767.062 1246.22 624.093 1247.03 568.747C1247.44 541.17 1247.66 505.608 1247.78 475.225C1247.92 439.04 1247.92 410.024 1247.92 410.024L1251.78 410.863Z" fill="#4F4F4F"/>
<path d="M1251.71 395.3L1222.65 375.66L1199.77 377.89L1188.33 380.888L1190.32 388.346L1183.34 383.861L1175.14 398.969L1182.1 416.45L1220.01 398.969L1239.65 408.249L1256.22 402.35L1251.71 395.3Z" fill="#4F4F4F"/>
<path d="M1239.65 424.651V456.737L1258.3 479.853L1261.63 459.231L1264.97 428.632L1247.85 409.928L1239.65 424.651Z" fill="#4F4F4F"/>
<path d="M1250.01 420.216L1248.16 443.116L1258.93 438.344L1249.65 445.466L1252.4 461.389L1263.75 471.605L1268.4 468.847L1265.95 471.605L1278.33 480.933L1283.82 488.175L1288.45 460.046L1286.29 452.421L1275.35 449.639H1284.8L1282.43 435.347L1256.48 411.799L1251.71 410.863L1250.01 420.216Z" fill="#4F4F4F"/>
<path d="M1251.78 410.863L1239.79 437.673L1217.18 432.014L1236.74 440.047L1234.35 448.08L1214.08 440.047L1231.42 449.639L1206.63 466.929L1202.17 476.329L1188.23 451.03L1193.87 437.098L1208.38 434.915H1193.87L1215.83 416.954L1229.29 415.444L1218.74 414.628C1218.74 414.628 1245.45 409.832 1247.75 409.832C1249.16 409.815 1250.55 410.171 1251.78 410.863Z" fill="#4F4F4F"/>
<path d="M1247.85 410.672L1268.55 400.552L1293.8 398.969L1295.4 400.984L1283.44 401.895L1299.94 404.82L1310.08 415.899L1296.84 417.914H1310.08L1318.16 430.887L1307.37 454.507L1306.03 446.69L1281.18 440.791L1289.36 426.738L1279.84 437.937L1260.37 420.24L1254.33 413.142L1250.3 413.861L1247.85 410.672Z" fill="#4F4F4F"/>
<path d="M1261.64 403.908L1279.6 385.828H1272.14L1279.6 382.878L1277.61 371.919L1236.75 364.725L1220.01 369.881L1232.29 368.442L1231.52 377.89L1241.62 379.137L1231.52 381.631L1241.62 395.3L1251.71 398.969L1215.19 389.017L1194.3 390.336L1207.47 395.3L1192.31 393.573L1178.88 403.908L1175.14 428.392L1178.38 439.998L1182.1 429.639L1207.73 420.479L1217.92 412.661L1222.89 402.35L1221.66 412.661H1246.96L1261.64 403.908Z" fill="#4F4F4F"/>
<path d="M1279.84 437.936L1254.32 413.141L1250.29 413.86L1248.16 422.085L1279.84 437.936Z" fill="#4F4F4F"/>
<path d="M1221.66 412.662H1235.33L1251.71 410.863L1229.31 418.105L1215.93 416.954L1229.38 415.443L1218.83 414.628L1221.66 412.662Z" fill="#4F4F4F"/>
<path d="M1231.52 381.631L1222.64 375.66L1230.34 393.142L1251.71 398.969L1241.61 395.3L1231.52 381.631Z" fill="#4F4F4F"/>
<path d="M1215.93 416.954L1193.97 434.915H1208.47L1193.97 437.098L1188.33 451.03L1202.26 476.329L1190.63 449.519L1195.12 437.937L1212.07 434.963L1198.81 433.069L1215.93 416.954Z" fill="#BDBDBD"/>
<path d="M1183.34 383.861L1175.14 398.969L1178.28 406.858L1175.14 428.392L1178.38 439.998L1177.54 428.68L1181.64 405.347L1176.39 398.969L1183.34 383.861Z" fill="#BDBDBD"/>
<path d="M1190.32 388.346L1188.33 380.888L1199.77 377.89L1222.65 375.66L1198.81 379.689L1189.89 381.991L1190.32 388.346Z" fill="#BDBDBD"/>
<path d="M1239.65 437.672V456.736L1258.3 479.853L1243.39 457.384L1239.65 437.672Z" fill="#BDBDBD"/>
<path d="M1248.04 594.382C1248.04 600.329 1235 766.799 1235 766.799L1231.52 767.086C1231.52 767.086 1246.15 624.117 1246.96 568.772C1247.37 541.195 1247.59 505.632 1247.71 475.25L1247.85 474.914C1247.85 474.914 1248.04 588.459 1248.04 594.382Z" fill="#BDBDBD"/>
<path d="M111.028 447.097L132.658 450.67L154.647 447.217L154.288 444.411L145.919 445.49L156.11 425.587L149.755 407.722L143.64 412.014L147.453 405.611L142.801 388.777L124.672 366.812L113.45 394.533L121.027 407.338L112.155 396.187L108.869 412.038L123.281 424.795L109.421 416.402L106.711 434.148L111.028 447.097Z" fill="#4F4F4F"/>
<path d="M130.666 571.984C130.666 606.108 136.829 762.314 136.829 762.314H130.354C130.354 762.314 125.942 603.111 125.942 572.632C125.942 542.153 135.702 442.66 135.702 442.66H140.09C140.09 442.66 137.021 473.618 134.311 506.543C134.311 506.927 134.311 507.382 134.191 507.91C132.345 532.322 130.666 557.596 130.666 571.984Z" fill="#4F4F4F"/>
<path d="M130.188 443.14L124.673 473.211L131.195 481.484L135.152 469.974L132.442 482.131L138.653 498.39L146.159 487.983L142.825 501.004L163.304 516.111L170.355 485.8L165.846 455.322L155.031 440.694L134.337 440.358L130.188 443.14Z" fill="#4F4F4F"/>
<path d="M132.105 439.614L154.359 455.465L160.162 452.276L152.8 446.904L169.994 450.046L189.034 443.283L178.171 433.667L189.825 439.231L198.53 428.176L189.01 421.677L196.612 424.651L219.057 408.177L188.123 403.956L164.502 411.654L159.826 422.996L159.994 414.124L134 424.339L132.105 439.614Z" fill="#4F4F4F"/>
<path d="M98.2712 454.171L79.6147 476.353L79.0872 491.94L88.3674 484.889L116.352 482.06L145.44 456.497L140.092 438.2L98.2712 454.171Z" fill="#4F4F4F"/>
<path d="M83.2368 472.036L105.61 475.345L129.686 467.12L139.926 444.507L90.7905 457.696L83.2368 472.036Z" fill="#4F4F4F"/>
<path d="M139.086 440.358L127.168 464.937H120.525L124.41 456.688L110.837 467.695L90.8858 470.908L95.8017 457.24L88.248 467.695L75.2988 462.204L80.5504 451.916L75.2988 458.175L47.6978 454.506L72.8288 435.945L97.2405 431.365L106.785 439.087L102.396 431.365L130.093 427.888L139.086 440.358Z" fill="#4F4F4F"/>
<path d="M140.09 442.66L139.49 445.466L154.67 424.411L151.792 423.332L145.557 432.589L139.322 411.103L122.441 402.47L120.954 409.808L119.323 402.518L107.693 398.249L72.2024 400.24L84.5281 417.721L101.29 421.918L87.1899 419.903L95.6548 433.692L103.568 433.428L101.842 435.874L114.887 448.176L140.09 442.66Z" fill="#4F4F4F"/>
<path d="M137.094 438.248L146.062 433.932L167.524 416.978L169.299 419.208L162.656 424.436L184.022 431.078L193.902 447.84L184.982 449.495L194.07 450.598L201.096 463.019L202.583 489.877L175.821 483.378L172.512 468.895L174.263 483.043L160.642 474.314L161.601 455.082L157.908 470.861L143.208 455.969L137.094 438.248Z" fill="#4F4F4F"/>
<path d="M140.092 442.66L116.352 444.507L103.57 433.428H97.2876L114.889 448.175L140.092 442.66Z" fill="#4F4F4F"/>
<path d="M184.024 431.078L193.904 447.84L184.983 449.494L194.072 450.597L201.098 463.019L202.513 488.63L199.515 465.081L193.28 454.171L178.988 449.111L190.762 447.312L184.024 431.078Z" fill="#BDBDBD"/>
<path d="M165.629 468.295L170.353 485.8L163.303 516.111L171.936 485.824L165.629 468.295Z" fill="#BDBDBD"/>
<path d="M192.15 436.282L198.529 428.177L189.009 421.678L196.61 424.652L219.056 408.177L196.059 422.23L185.124 420.167L195.171 428.68L192.15 436.282Z" fill="#BDBDBD"/>
<path d="M136.829 762.314H133.016C133.016 762.314 128.724 578.291 128.724 571.984C128.724 566.493 133.112 519.996 134.263 507.91C132.345 532.321 130.666 557.596 130.666 571.984C130.666 606.108 136.829 762.314 136.829 762.314Z" fill="#BDBDBD"/>
<path d="M218.147 284.2L251.12 289.668L284.644 284.416L284.092 280.124L271.311 281.754L286.874 251.419L277.186 224.178L267.882 230.725L273.661 220.965L265.244 204.059L223.831 169.144L219.203 201.445L233.399 223.603L219.874 206.625L214.862 230.773L236.804 250.22L215.701 237.415L211.577 264.465L218.147 284.2Z" fill="#4F4F4F"/>
<path d="M248.095 474.578C248.095 526.615 257.472 764.736 257.472 764.736H247.616C247.616 764.736 240.877 522.058 240.877 475.561C240.877 429.064 255.745 277.438 255.745 277.438H262.459C262.459 277.438 257.927 323.216 253.947 372.567C253.952 372.639 253.952 372.711 253.947 372.783C250.853 411.247 248.095 451.821 248.095 474.578Z" fill="#4F4F4F"/>
<path d="M247.355 278.182L238.938 324.032L248.914 336.645L254.933 319.068L250.785 337.604L260.257 362.424L271.695 346.549L266.611 366.38L297.833 389.401L308.576 343.216L301.694 296.742L285.22 274.465L253.662 273.937L247.355 278.182Z" fill="#4F4F4F"/>
<path d="M250.254 272.786L284.186 296.958L293.058 292.114L281.836 283.912L308.046 288.708L337.062 278.421L320.491 263.745L338.237 272.21L351.546 255.376L337.014 245.473L348.596 249.981L382.839 224.898L335.671 218.447L299.653 230.197L292.555 247.463L292.77 233.938L253.179 249.525L250.254 272.786Z" fill="#4F4F4F"/>
<path d="M198.675 294.992L170.258 328.827L169.443 352.592L183.591 341.848L226.276 337.508L270.615 298.541L262.462 270.676L198.675 294.992Z" fill="#4F4F4F"/>
<path d="M175.775 322.257L209.899 327.268L246.588 314.727L262.175 280.268L187.31 300.387L175.775 322.257Z" fill="#4F4F4F"/>
<path d="M233.779 300.387L261.524 281.707L284.688 249.621L280.276 247.991L270.78 262.115L261.284 229.358L235.529 216.193L233.251 227.368L230.781 216.265L213.036 209.767L158.961 212.764L177.762 239.454L203.3 245.833L181.79 242.763L194.715 263.77L224.043 262.858L199.919 268.014L215.458 290.531L233.779 300.387Z" fill="#4F4F4F"/>
<path d="M260.929 273.961L242.728 311.418H232.632L238.532 298.852L217.837 315.638L187.454 320.506L194.96 299.691L183.425 315.638L163.69 307.245L171.675 291.562L163.69 301.082L121.605 295.495L159.901 267.198L197.142 260.244L211.674 271.994L204.96 260.244L247.212 254.921L260.929 273.961Z" fill="#4F4F4F"/>
<path d="M257.879 270.748L271.548 264.129L304.28 238.303L306.942 241.708L296.846 249.693L329.411 259.813L344.495 285.352L330.898 287.845L344.735 289.524L355.43 308.468L357.732 349.426L316.918 339.522L311.858 317.461L314.52 339.019L293.777 325.71L295.24 296.406L289.604 320.434L267.183 297.749L257.879 270.748Z" fill="#4F4F4F"/>
<path d="M262.462 277.438L226.276 280.268L206.757 263.386H197.189L224.046 285.855L262.462 277.438Z" fill="#4F4F4F"/>
<path d="M264.764 270.676L299.774 274.632L338.742 311.61L357.734 349.426L337.447 313.288L298.863 277.438L264.764 270.676Z" fill="#4F4F4F"/>
<path d="M262.171 266.431L232.628 238.303L158.961 212.764L232.028 240.653L262.171 266.431Z" fill="#4F4F4F"/>
<path d="M212.034 275.808L169.445 276.551L121.605 295.495L169.445 278.349L213.161 276.767L212.034 275.808Z" fill="#4F4F4F"/>
<path d="M328.049 231.444L337.233 226.96L371.62 236.768L362.22 245.137L328.049 231.444Z" fill="#4F4F4F"/>
<path d="M381.472 224.706H336.845L311.234 239.598L337.229 226.96L381.472 224.706Z" fill="#4F4F4F"/>
<path d="M254.837 191.062L247.715 209.766L250.257 215.905L256.708 194.563L254.837 191.062Z" fill="#4F4F4F"/>
<path d="M282.295 338.059L274.094 381.271L280.496 386.427L284.693 342.471L282.295 338.059Z" fill="#4F4F4F"/>
<path d="M291.067 357.243L305.455 379.736V389.185L291.067 361.152V357.243Z" fill="#4F4F4F"/>
<path d="M193.951 327.7L189.035 346.525L193.951 344.654L197.188 327.7H193.951Z" fill="#4F4F4F"/>
<path d="M300.256 250.557L329.416 259.813L344.499 285.352L330.903 287.846L344.739 289.524L355.434 308.468L357.736 349.426L353.324 310.051L342.077 291.73L326.394 287.702L340.638 284.129L328.097 261.563L300.256 250.557Z" fill="#BDBDBD"/>
<path d="M307.662 337.125L308.573 343.216L297.83 389.401L312.242 346.525L307.662 337.125Z" fill="#BDBDBD"/>
<path d="M169.443 352.591L183.591 341.848L226.276 337.508L238.937 326.405L225.892 335.805L182.728 339.474L169.443 352.591Z" fill="#BDBDBD"/>
<path d="M261.526 281.707L254.236 287.702L242.725 311.418H232.63L240.303 310.051L251.67 285.855L261.526 281.707Z" fill="#BDBDBD"/>
<path d="M187.452 320.506L217.834 315.638L238.529 298.852L217.355 314.104L187.452 320.506Z" fill="#BDBDBD"/>
<path d="M338.235 272.21L351.544 255.376L337.012 245.473L348.595 249.981L382.838 224.898L349.434 246.767L333.032 242.859L346.389 256.383L338.235 272.21Z" fill="#BDBDBD"/>
<path d="M257.473 764.736H251.67C251.67 764.736 246.226 478.534 246.226 463.379C246.226 448.751 253.42 377.051 253.924 372.782C250.854 411.15 248.097 451.916 248.097 474.577C248.097 526.614 257.473 764.736 257.473 764.736Z" fill="#BDBDBD"/>
<path d="M1340.99 317.749L1309.91 312.761L1281.56 298.061L1283.34 294.368L1294.25 299.668L1289.43 267.918L1306.21 246.504L1312.57 255.137L1310.32 244.682L1322.9 232.116L1370.29 213.316L1364.77 243.554L1345.47 259.094L1362.64 247.967L1359.88 271.012L1334.46 281.827L1357.15 276.719L1352.76 302.09L1340.99 317.749Z" fill="#4F4F4F"/>
<path d="M1316.53 497.023C1316.53 540.763 1310.2 769.197 1310.2 769.197H1300.94C1300.94 769.197 1309.74 545.079 1309.74 496.088C1309.74 466.928 1304.94 406.643 1301.08 362.687C1301.08 361.512 1300.92 360.865 1300.92 360.865C1298.35 331.945 1296.12 310.507 1296.12 310.507H1302.43C1302.43 310.507 1316.53 453.26 1316.53 497.023Z" fill="#4F4F4F"/>
<path d="M1287.44 330.889L1295.35 374.053L1285.98 385.924L1280.29 369.401L1284.2 386.835L1275.3 410.191L1264.51 395.252L1269.31 413.932L1239.91 435.61L1229.81 392.11L1236.26 348.371L1251.8 327.412L1281.49 326.909L1287.44 330.889Z" fill="#4F4F4F"/>
<path d="M1310.87 299.308L1270.41 323.983L1260.92 324.679L1265.62 312.473L1247.32 329.618L1219.1 336.237L1222.65 323.695L1215.02 331.945L1195.91 325.398L1202.36 310.147L1195.5 319.619L1155.62 317.197L1189.67 288.061L1224.16 279.021L1238.57 289.068L1231.49 278.493L1270.8 270.652L1310.87 299.308Z" fill="#4F4F4F"/>
<path d="M1356.26 327.053L1383.02 358.898L1390.58 390.672L1370.46 371.152L1304.22 358.49L1288.54 330.41L1296.24 304.152L1356.26 327.053Z" fill="#4F4F4F"/>
<path d="M1377.82 352.711L1345.71 357.435L1311.16 345.613L1296.48 313.168L1366.98 332.112L1377.82 352.711Z" fill="#4F4F4F"/>
<path d="M1323.67 331.082L1301.08 309.188L1284.94 275.592L1289.29 274.824L1295.76 289.476L1310 260.7L1336.05 252.787L1336.29 263.506L1340.43 253.65L1357.94 250.557L1415.23 260.436L1385.71 283.937L1360.99 285.615L1381.42 286.335L1365.95 303.648L1338.92 297.917L1360.43 306.718L1342.3 324.991L1323.67 331.082Z" fill="#4F4F4F"/>
<path d="M1297.68 307.245L1314.8 342.52H1324.3L1318.76 330.674L1338.23 346.477L1366.84 351.057L1359.79 331.465L1370.63 346.477L1389.21 338.563L1381.68 323.816L1389.21 332.784L1428.8 327.508L1392.76 300.891L1357.73 294.344L1344.06 305.399L1350.34 294.344L1310.58 289.332L1297.68 307.245Z" fill="#4F4F4F"/>
<path d="M1300.53 304.224L1287.68 297.989L1256.87 273.697L1254.35 276.887L1263.84 284.392L1233.2 293.912L1219.03 317.964L1231.81 320.338L1218.79 321.921L1208.71 339.738L1206.56 378.274L1244.95 368.97L1249.74 348.203L1247.23 368.49L1266.75 355.949L1265.38 328.372L1270.68 351.009L1291.78 329.643L1300.53 304.224Z" fill="#4F4F4F"/>
<path d="M1233.2 293.912L1218.07 317.748L1230.15 320.194L1218.79 321.921L1208.71 339.738L1206.56 378.274L1210.78 340.026L1222.65 322.712L1234.83 321.081L1222.65 316.333L1233.2 293.912Z" fill="#BDBDBD"/>
<path d="M1296.24 310.53L1330.29 313.192L1348.66 299.284L1354.2 301.634L1332.4 318.444L1296.24 310.53Z" fill="#4F4F4F"/>
<path d="M1294.06 304.152L1261.11 307.869L1224.42 342.688L1206.56 378.274L1225.64 344.27L1261.95 310.53L1294.06 304.152Z" fill="#4F4F4F"/>
<path d="M1303 294.895L1335.07 273.769L1407.56 262.331L1335.23 276.023L1303 294.895Z" fill="#4F4F4F"/>
<path d="M1343.7 308.996L1383.79 309.691L1428.8 327.508L1383.79 311.37L1342.64 309.883L1343.7 308.996Z" fill="#4F4F4F"/>
<path d="M1275.52 308.78L1300.53 304.224L1298.47 263.578L1295.16 263.458L1291.9 274.992L1278.33 255.137L1258.19 251.971L1259.12 259.957L1255.02 253.074L1241.69 252.595L1206.1 266.503L1224.57 280.244L1243.1 278.925L1227.99 281.587L1241.28 292.833L1260.73 285.759L1245.69 294.536L1261.06 306.214L1275.52 308.78Z" fill="#4F4F4F"/>
<path d="M1296.48 298.157L1261.09 267.438L1206.1 266.503L1261.21 269.141L1296.48 298.157Z" fill="#4F4F4F"/>
<path d="M1202.31 294.464L1192.74 295.591L1170.53 320.866L1182.24 322.712L1202.31 294.464Z" fill="#4F4F4F"/>
<path d="M1156.6 316.334L1191.93 293.625L1219.77 292.354L1192.74 295.591L1156.6 316.334Z" fill="#4F4F4F"/>
<path d="M1336.07 223.627L1336.84 242.452L1332.71 247.176L1333.36 226.193L1336.07 223.627Z" fill="#4F4F4F"/>
<path d="M1254.54 387.266L1262.26 427.936L1256.24 432.804L1252.28 391.415L1254.54 387.266Z" fill="#4F4F4F"/>
<path d="M1246.27 405.324L1232.74 426.474V435.395L1246.27 409.017V405.324Z" fill="#4F4F4F"/>
<path d="M1360.7 357.819L1365.35 375.565L1360.7 373.814L1357.68 357.819H1360.7Z" fill="#4F4F4F"/>
<path d="M1251.97 296.862L1273.6 307.725L1300.05 305.614V312.113H1269.55L1251.97 296.862Z" fill="#4F4F4F"/>
<path d="M1218.95 280.364L1189.67 288.061L1155.62 317.197L1160.18 317.461L1191.64 289.524L1218.95 280.364Z" fill="#BDBDBD"/>
<path d="M1231.13 383.166L1229.81 392.11L1239.91 435.61L1232.04 391.295L1231.13 383.166Z" fill="#BDBDBD"/>
<path d="M1301.64 315.399L1314.8 342.52L1318.16 342.688L1301.64 315.399Z" fill="#BDBDBD"/>
<path d="M1318.76 330.674L1338.23 346.477L1366.84 351.057L1337.39 342.688L1318.76 330.674Z" fill="#BDBDBD"/>
<path d="M1299.14 282.642L1310 260.7L1336.05 252.787L1310.87 263.506L1299.14 282.642Z" fill="#BDBDBD"/>
<path d="M1311.13 476.136C1314.13 499.876 1303.34 769.196 1303.34 769.196H1300.94C1300.94 769.196 1309.74 545.079 1309.74 496.088C1309.74 466.928 1304.94 406.642 1301.08 362.687C1302.47 376.427 1309.6 463.906 1311.13 476.136Z" fill="#BDBDBD"/>
<path d="M355.503 767.541L0.0234375 770.131V757.278C0.0234375 757.278 7.81694 731.164 27.1928 714.114C33.8365 708.185 41.779 703.897 50.3815 701.596C86.951 692.196 96.543 746.943 96.543 746.943C96.543 746.943 111.818 735.073 130.115 737.471C148.412 739.869 153.208 764.88 153.208 764.88C154.383 764.136 175.725 750.779 179.226 754.281C182.727 757.782 170.809 766.27 170.162 766.798C172.56 765.503 209.513 746.991 238.457 746.991C268.432 746.991 275.218 766.846 275.218 766.846C277.256 765.383 311.188 741.835 329.029 748.142C339.728 751.56 349.021 758.37 355.503 767.541Z" fill="#4F4F4F"/>
<path d="M153.208 764.88C153.208 764.88 137.621 738.502 119.924 742.458C102.227 746.415 94.7451 754.808 94.7451 754.808C94.7451 754.808 86.9516 714.57 68.6549 708.071C50.3581 701.572 27.1694 714.21 27.1694 714.21C33.8104 708.243 41.7622 703.922 50.3821 701.596C86.9516 692.196 96.5436 746.943 96.5436 746.943C96.5436 746.943 111.819 735.073 130.116 737.471C148.412 739.869 153.208 764.88 153.208 764.88Z" fill="#BDBDBD"/>
<path d="M170.281 766.775C170.664 766.151 176.228 757.183 173.038 757.183C169.849 757.183 154.286 764.377 153.327 764.76C154.502 764.017 175.844 750.66 179.345 754.161C182.846 757.662 170.856 766.319 170.281 766.775Z" fill="#BDBDBD"/>
<path d="M275.385 766.799C275.385 766.799 259.75 750.276 240.878 749.461C222.581 748.646 173.326 765.696 170.328 766.751C172.726 765.456 209.68 746.943 238.623 746.943C268.598 746.943 275.385 766.799 275.385 766.799Z" fill="#BDBDBD"/>
<path d="M355.501 767.541C355.501 767.541 340.346 749.46 321.354 749.46C309.22 749.46 277.446 765.743 275.48 766.75C277.518 765.287 311.45 741.739 329.291 748.045C339.906 751.539 349.102 758.38 355.501 767.541Z" fill="#BDBDBD"/>
<path style="mix-blend-mode:color-dodge" d="M317.977 693.899C315.938 652.629 315.267 619.057 316.562 619.057C317.857 619.057 320.351 652.414 322.389 693.707C324.427 735.001 325.123 768.525 323.924 768.597C322.725 768.669 320.015 735.193 317.977 693.899Z" fill="url(#paint1_radial)"/>
<path style="mix-blend-mode:color-dodge" d="M304.284 689.175C306.442 647.881 309.08 614.453 310.351 614.525C311.622 614.597 310.759 648.097 308.601 689.391C306.442 730.684 303.805 764.112 302.534 764.04C301.263 763.969 302.174 730.468 304.284 689.175Z" fill="url(#paint2_radial)"/>
<path style="mix-blend-mode:color-dodge" d="M1135.33 689.055C1140.75 648.074 1146.08 614.957 1147.32 615.125C1148.57 615.293 1145.07 648.697 1139.67 689.607C1134.28 730.517 1128.93 763.705 1127.68 763.561C1126.44 763.417 1129.94 730.037 1135.33 689.055Z" fill="url(#paint3_radial)"/>
<path d="M1128.21 759.149H325.838L338.955 503.45H1115.62L1128.21 759.149Z" fill="#4F4F4F"/>
<path d="M1128.21 759.149H1100.97L1072.29 553.88H381.879L356.772 759.149H325.838L338.955 503.45H1115.62L1128.21 759.149Z" fill="#828282"/>
<path d="M1125.67 701.74H1093.66V703.371H1125.67V701.74Z" fill="#BDBDBD"/>
<path d="M356.773 759.148H363.631L390.681 562.728L1060.32 565.006L1097.97 759.148H1100.97L1072.29 553.879H381.88L356.773 759.148Z" fill="#333333"/>
<path d="M416.603 740.42L386.172 739.269L399.001 567.212L422.981 567.308L416.603 740.42Z" fill="#828282"/>
<path d="M1039.34 741.379H1072.72L1051.74 566.253L1024.67 566.349L1039.34 741.379Z" fill="#828282"/>
<path d="M1093.66 502.946L1082.84 479.997L361.261 483.018L354.211 503.497L1093.66 502.946Z" fill="#828282"/>
<path d="M439.218 482.347L450.849 495.129H1002.82L1019.08 480.045V476.832L439.218 479.134V482.347Z" fill="#4F4F4F"/>
<path d="M439.218 479.134L450.849 491.915H1002.82L1019.08 476.832L439.218 479.134Z" fill="#666666"/>
<path d="M493.319 449.83L515.212 476.544L936.757 468.223L951.984 456.953C951.984 456.953 895.871 348.083 724.414 348.083C552.957 348.083 493.319 449.83 493.319 449.83Z" fill="#828282"/>
<path d="M358.887 650.663H331.454V649.008H357.472L374.066 538.125H1079.85L1079.97 538.82L1096.97 646.395H1122.72V648.049H1095.55L1095.46 647.354L1078.46 539.78H375.457L358.887 650.663Z" fill="#BDBDBD"/>
<path d="M493.318 449.83L491.159 426.45C491.159 426.45 574.322 325.734 727.027 325.734C879.732 325.734 955.149 431.39 955.149 431.39L952.031 456.952C952.031 456.952 872.106 374.029 724.461 374.029C579.79 374.029 493.318 449.83 493.318 449.83Z" fill="#4F4F4F"/>
<path d="M489.483 476.544L496.053 483.115H944.839L952.033 476.544C952.033 476.544 895.92 398.801 724.463 398.801C553.006 398.801 489.483 476.544 489.483 476.544Z" fill="#BDBDBD"/>
<path d="M489.483 476.544V459.015C489.483 459.015 574.324 384.293 727.029 384.293C879.733 384.293 952.033 464.195 952.033 464.195V476.544C952.033 476.544 859.662 430.431 724.463 430.431C588.688 430.431 489.483 476.544 489.483 476.544Z" fill="#4F4F4F"/>
<g style="mix-blend-mode:multiply" opacity="0.4">
<path d="M583.075 545.606L627.918 606.708C627.918 606.708 705.349 590.089 811.413 606.708L858.653 545.606C858.653 545.606 723.742 521.53 583.075 545.606Z" fill="#4F4F4F"/>
</g>
<path d="M818.439 759.124H623.026L627.822 600.137C627.822 600.137 649.908 591.6 717.244 591.6C773.932 591.6 811.317 600.137 811.317 600.137L818.439 759.124Z" fill="#333333"/>
<g style="mix-blend-mode:multiply" opacity="0.4">
<path d="M961.096 503.713L1015.27 761.858L962.702 766.798L954.381 503.713H961.096Z" fill="#828282"/>
</g>
<g style="mix-blend-mode:multiply" opacity="0.4">
<path d="M484.059 503.713L429.912 761.858L482.452 766.798L490.773 503.713H484.059Z" fill="#4F4F4F"/>
</g>
<path d="M812.275 759.149L806.328 613.998H634.703L630.459 759.149H812.275Z" fill="#252424"/>
<path d="M715.826 392.062L704.483 241.804H736.592L723.643 391.967L715.826 392.062Z" fill="#FF8E42"/>
<path d="M745.324 263.961L726.74 399.568L730.601 400.12L752.015 250.437L745.324 263.961Z" fill="#4F4F4F"/>
<path d="M692.856 262.595L711.633 399.568L707.748 400.12L686.358 250.437L692.856 262.595Z" fill="#4F4F4F"/>
<path d="M715.254 392.062L701.945 241.804H739.593L724.438 391.967L715.254 392.062Z" fill="#E0E0E0"/>
<path d="M752.012 250.437L728.032 399.568L732.588 400.12L777.599 265.232L752.012 250.437Z" fill="#E0E0E0"/>
<path d="M686.358 250.437L710.314 399.568L705.758 400.12L660.771 265.232L686.358 250.437Z" fill="#E0E0E0"/>
<path d="M484.42 664.355H571.539L583.025 545.606C683.742 532.273 745.466 531.218 858.604 545.606L873.663 664.355H962.653L953.445 484.889C876.271 474.618 798.524 469.26 720.671 468.846C643.668 469.187 566.769 474.545 490.463 484.889L484.42 664.355Z" fill="#828282"/>
<path d="M876.997 592.416H864.479V590.761H875.39L876.517 498.006L954.357 505.848L954.213 507.478L878.124 499.829L876.997 592.416Z" fill="#BDBDBD"/>
<path d="M578.614 592.416H568.279L563.77 494.793L490.08 499.733L489.984 498.103L565.329 493.043L569.837 590.762H578.614V592.416Z" fill="#BDBDBD"/>
<path d="M776.186 671.142C776.186 671.957 776.186 672.773 776.186 673.54C774.579 698.24 749.113 717.879 717.939 717.879C696.357 717.879 677.7 708.551 667.581 694.714C664.383 690.412 662.061 685.523 660.746 680.326C660.007 677.296 659.629 674.189 659.619 671.07C659.619 653.517 671.609 638.194 689.498 630.304C698.456 626.319 708.158 624.283 717.963 624.333C740.6 624.333 760.191 634.692 769.855 649.776C771.74 652.711 773.254 655.869 774.364 659.176L774.987 661.31C775.8 664.524 776.203 667.827 776.186 671.142Z" fill="#828282"/>
<path d="M715.803 759.149L716.427 613.998H717.002L717.674 759.149H715.803Z" fill="#828282"/>
<g style="mix-blend-mode:multiply" opacity="0.4">
<path d="M585.136 522.849L611.514 541.602C611.514 541.602 694.844 535.247 722.661 535.391C749.615 535.391 830.188 542.585 830.188 542.585L862.201 522.921L585.136 522.849Z" fill="#4F4F4F"/>
</g>
<path d="M583.984 345.061L619.762 440.526C619.762 440.526 688.057 431.845 731.653 431.845C775.248 431.845 827.884 441.437 827.884 441.437L866.132 345.517C866.132 345.517 809.923 296.838 726.785 296.838C643.646 296.838 583.984 345.061 583.984 345.061Z" fill="#828282"/>
<path d="M583.984 345.062L619.762 433.02C619.762 433.02 689.927 423.021 733.547 423.021C777.167 423.021 827.501 430.215 827.501 430.215L866.132 345.565C866.132 345.565 809.923 296.886 726.785 296.886C643.646 296.886 583.984 345.062 583.984 345.062Z" fill="#BDBDBD"/>
<path d="M585.183 522.85L720.07 571.409L862.128 522.85L862.943 517.862L721.077 474.266L585.974 517.862L585.183 522.85Z" fill="#333333"/>
<path d="M585.974 517.861L720.886 566.421L862.943 517.861L720.622 468.846L585.974 517.861Z" fill="#4F4F4F"/>
<path d="M574.872 664.356H464.301L459.241 711.093L574.872 712.556V664.356Z" fill="#828282"/>
<path d="M576.358 664.356H546.958L545.424 712.172L574.871 712.556L576.358 664.356Z" fill="#4F4F4F"/>
<path d="M574.873 716.632H456.987L451.424 759.149H574.873V716.632Z" fill="#828282"/>
<path d="M574.874 716.632H545.091L543.485 758.813L574.874 759.149V716.632Z" fill="#4F4F4F"/>
<path d="M463.751 711.165L462.936 716.632H570.894V712.508L463.751 711.165Z" fill="#BDBDBD"/>
<path d="M874.671 664.356H985.219L990.279 711.093L874.671 712.556V664.356Z" fill="#828282"/>
<path d="M873.163 664.356H902.587L904.097 712.172L874.674 712.556L873.163 664.356Z" fill="#4F4F4F"/>
<path d="M874.671 716.632H992.557L998.12 759.149H874.671V716.632Z" fill="#828282"/>
<path d="M874.671 716.632H904.43L906.061 758.813L874.671 759.149V716.632Z" fill="#4F4F4F"/>
<path d="M985.771 711.165L986.587 716.632H878.629V712.508L985.771 711.165Z" fill="#BDBDBD"/>
<path d="M577.56 603.518H560.127L555.762 523.593H522.166L513.893 603.518H486.532V601.888H512.406L520.704 521.938H557.321L561.685 601.888H577.56V603.518Z" fill="#BDBDBD"/>
<path d="M959.536 603.519H928.098L928.026 602.775L919.921 522.227H885.893V603.519H865.894V601.888H884.239V520.572H921.408L921.48 521.315L929.585 601.888H959.536V603.519Z" fill="#BDBDBD"/>
<path d="M849.801 344.822C849.801 345.657 850.05 346.474 850.514 347.169C850.979 347.863 851.64 348.404 852.412 348.723C853.185 349.042 854.035 349.124 854.854 348.959C855.673 348.794 856.425 348.39 857.015 347.797C857.604 347.205 858.004 346.45 858.164 345.63C858.324 344.81 858.237 343.961 857.914 343.19C857.591 342.419 857.046 341.762 856.349 341.301C855.652 340.84 854.834 340.596 853.998 340.601C853.445 340.601 852.897 340.71 852.386 340.923C851.876 341.135 851.412 341.446 851.022 341.839C850.632 342.231 850.323 342.696 850.114 343.208C849.904 343.72 849.798 344.269 849.801 344.822Z" fill="#828282"/>
<path d="M853.784 349.042C855.81 349.042 857.453 347.453 857.453 345.493C857.453 343.533 855.81 341.944 853.784 341.944C851.758 341.944 850.115 343.533 850.115 345.493C850.115 347.453 851.758 349.042 853.784 349.042Z" fill="#E0E0E0"/>
<path d="M823.283 425.443C825.614 425.443 827.504 423.554 827.504 421.223C827.504 418.892 825.614 417.002 823.283 417.002C820.952 417.002 819.063 418.892 819.063 421.223C819.063 423.554 820.952 425.443 823.283 425.443Z" fill="#828282"/>
<path d="M819.397 421.894C819.373 422.624 819.568 423.345 819.956 423.964C820.345 424.582 820.909 425.071 821.577 425.368C822.245 425.664 822.986 425.754 823.706 425.626C824.425 425.498 825.09 425.159 825.615 424.651C826.14 424.143 826.502 423.489 826.653 422.775C826.805 422.06 826.74 421.316 826.466 420.639C826.192 419.961 825.722 419.381 825.116 418.972C824.511 418.564 823.797 418.345 823.066 418.345C822.11 418.332 821.187 418.698 820.5 419.363C819.813 420.028 819.416 420.937 819.397 421.894Z" fill="#E0E0E0"/>
<path d="M720.361 304.703C720.356 305.539 720.599 306.357 721.06 307.054C721.521 307.752 722.179 308.296 722.949 308.619C723.72 308.942 724.569 309.03 725.39 308.869C726.21 308.709 726.964 308.309 727.557 307.72C728.15 307.131 728.554 306.379 728.719 305.559C728.883 304.74 728.801 303.89 728.483 303.118C728.164 302.345 727.623 301.684 726.928 301.22C726.234 300.755 725.417 300.507 724.581 300.507C723.466 300.507 722.396 300.948 721.605 301.734C720.814 302.521 720.367 303.588 720.361 304.703Z" fill="#828282"/>
<path d="M724.362 308.924C726.388 308.924 728.031 307.335 728.031 305.375C728.031 303.415 726.388 301.826 724.362 301.826C722.336 301.826 720.693 303.415 720.693 305.375C720.693 307.335 722.336 308.924 724.362 308.924Z" fill="#E0E0E0"/>
<path d="M720.361 417.002C720.356 417.838 720.599 418.656 721.06 419.354C721.521 420.051 722.179 420.596 722.949 420.919C723.72 421.242 724.569 421.329 725.39 421.169C726.21 421.009 726.964 420.608 727.557 420.019C728.15 419.43 728.554 418.678 728.719 417.859C728.883 417.039 728.801 416.189 728.483 415.417C728.164 414.644 727.623 413.984 726.928 413.519C726.234 413.054 725.417 412.806 724.581 412.806C723.466 412.806 722.396 413.247 721.605 414.034C720.814 414.82 720.367 415.887 720.361 417.002Z" fill="#828282"/>
<path d="M724.362 421.222C726.388 421.222 728.031 419.633 728.031 417.673C728.031 415.713 726.388 414.124 724.362 414.124C722.336 414.124 720.693 415.713 720.693 417.673C720.693 419.633 722.336 421.222 724.362 421.222Z" fill="#E0E0E0"/>
<path style="mix-blend-mode:color-dodge" d="M418.895 770.139C420.471 767.532 419.634 764.141 417.027 762.566C414.42 760.991 411.029 761.827 409.454 764.434C407.879 767.042 408.715 770.432 411.322 772.007C413.93 773.582 417.32 772.746 418.895 770.139Z" fill="url(#paint4_radial)"/>
<path d="M416.797 767.734C416.742 768.262 416.532 768.762 416.193 769.17C415.854 769.579 415.401 769.878 414.892 770.03C414.384 770.181 413.841 770.179 413.334 770.022C412.826 769.866 412.377 769.562 412.042 769.15C411.707 768.738 411.501 768.236 411.452 767.707C411.402 767.179 411.51 766.647 411.762 766.18C412.015 765.713 412.4 765.331 412.869 765.082C413.338 764.834 413.871 764.73 414.399 764.784C414.75 764.82 415.091 764.925 415.402 765.092C415.712 765.26 415.987 765.488 416.21 765.762C416.432 766.035 416.599 766.351 416.7 766.689C416.801 767.027 416.834 767.382 416.797 767.734Z" fill="white"/>
<path style="mix-blend-mode:color-dodge" d="M1039.57 772.172C1042.17 770.596 1043.01 767.206 1041.43 764.599C1039.86 761.992 1036.47 761.155 1033.86 762.73C1031.25 764.306 1030.42 767.696 1031.99 770.303C1033.57 772.91 1036.96 773.747 1039.57 772.172Z" fill="url(#paint5_radial)"/>
<path d="M1034.07 767.734C1034.14 768.443 1034.49 769.094 1035.05 769.544C1035.6 769.993 1036.31 770.205 1037.02 770.132C1037.73 770.059 1038.38 769.707 1038.83 769.154C1039.28 768.6 1039.49 767.891 1039.42 767.182C1039.38 766.831 1039.27 766.491 1039.11 766.18C1038.94 765.869 1038.71 765.595 1038.44 765.372C1038.16 765.15 1037.85 764.983 1037.51 764.882C1037.17 764.781 1036.82 764.748 1036.47 764.784C1036.12 764.82 1035.77 764.925 1035.46 765.093C1035.15 765.261 1034.88 765.488 1034.66 765.762C1034.43 766.036 1034.27 766.351 1034.17 766.69C1034.07 767.028 1034.03 767.383 1034.07 767.734Z" fill="white"/>
<path d="M590.484 344.822C590.484 345.657 590.733 346.474 591.197 347.169C591.662 347.863 592.323 348.404 593.095 348.723C593.868 349.042 594.718 349.124 595.537 348.959C596.357 348.794 597.108 348.39 597.698 347.797C598.287 347.205 598.687 346.45 598.847 345.63C599.007 344.81 598.92 343.961 598.597 343.19C598.274 342.419 597.729 341.762 597.032 341.301C596.335 340.84 595.517 340.596 594.681 340.601C594.128 340.601 593.58 340.71 593.069 340.923C592.559 341.135 592.095 341.446 591.705 341.839C591.315 342.231 591.006 342.696 590.797 343.208C590.588 343.72 590.481 344.269 590.484 344.822Z" fill="#828282"/>
<path d="M594.467 349.042C596.494 349.042 598.136 347.453 598.136 345.493C598.136 343.533 596.494 341.944 594.467 341.944C592.441 341.944 590.798 343.533 590.798 345.493C590.798 347.453 592.441 349.042 594.467 349.042Z" fill="#E0E0E0"/>
<path d="M620.82 424.1C620.815 424.937 621.06 425.756 621.521 426.454C621.983 427.152 622.642 427.697 623.414 428.019C624.187 428.341 625.037 428.427 625.858 428.265C626.679 428.103 627.433 427.7 628.025 427.109C628.617 426.517 629.019 425.763 629.181 424.942C629.343 424.121 629.258 423.27 628.935 422.498C628.613 421.726 628.068 421.067 627.37 420.605C626.673 420.143 625.853 419.899 625.017 419.904C623.904 419.904 622.836 420.346 622.049 421.133C621.262 421.92 620.82 422.987 620.82 424.1Z" fill="#828282"/>
<path d="M621.108 424.82C621.084 425.55 621.279 426.271 621.667 426.89C622.055 427.509 622.62 427.997 623.288 428.294C623.956 428.59 624.697 428.68 625.416 428.552C626.136 428.424 626.801 428.085 627.326 427.577C627.851 427.069 628.212 426.415 628.364 425.701C628.516 424.986 628.45 424.242 628.176 423.565C627.903 422.887 627.433 422.307 626.827 421.898C626.221 421.49 625.508 421.271 624.777 421.271C623.821 421.258 622.898 421.624 622.211 422.289C621.523 422.954 621.127 423.863 621.108 424.82Z" fill="#E0E0E0"/>
<path d="M827.887 441.437C827.887 441.437 846.879 400.528 855.416 394.029C866.255 385.804 930.377 388.586 930.377 388.586C930.377 388.586 910.93 442.085 887.093 453.595C887.093 453.595 849.972 443.452 827.887 441.437Z" fill="#828282"/>
<path d="M830.57 436.45C830.57 436.45 849.586 395.54 858.099 389.065C868.962 380.84 933.061 383.622 933.061 383.622C933.061 383.622 910.616 436.162 886.755 447.601C886.755 447.601 852.656 438.464 830.57 436.45Z" fill="#BDBDBD"/>
<path d="M620.314 441.437C620.314 441.437 601.298 400.528 592.761 394.029C581.922 385.804 517.8 388.586 517.8 388.586C517.8 388.586 537.176 442.085 561.156 453.595C561.156 453.595 598.229 443.452 620.314 441.437Z" fill="#828282"/>
<path d="M617.631 436.45C617.631 436.45 598.614 395.54 590.077 389.065C579.239 380.84 515.116 383.622 515.116 383.622C515.116 383.622 537.585 436.162 561.421 447.601C561.421 447.601 595.545 438.464 617.631 436.45Z" fill="#BDBDBD"/>
<path d="M1155.09 770.472L1145.67 755.148H300.062L286.369 770.472H1155.09Z" fill="#333333"/>
<path d="M969.299 664.356L983.615 665.291L987.883 711.117L990.281 711.093L985.221 664.356H969.299Z" fill="#BDBDBD"/>
<path d="M989.415 716.632L994.834 759.149H998.119L992.556 716.632H989.415Z" fill="#BDBDBD"/>
<path d="M451.424 759.149L456.987 716.632H482.694L459.241 717.927L453.51 759.149H451.424Z" fill="#BDBDBD"/>
<path d="M509.119 664.116L464.301 664.356L459.241 711.093H461.207L465.691 665.603L509.119 664.116Z" fill="#BDBDBD"/>
<path d="M1145.67 755.148H300.06L297.662 757.834L1146.51 756.491L1145.67 755.148Z" fill="#828282"/>
<g style="mix-blend-mode:multiply" opacity="0.4">
<path d="M776.186 671.142C776.186 671.957 776.186 672.773 776.186 673.54C774.579 698.239 749.113 717.879 717.939 717.879C696.357 717.879 677.7 708.551 667.581 694.714C664.383 690.411 662.061 685.523 660.746 680.326C660.007 677.296 659.629 674.189 659.619 671.07C659.619 653.517 671.609 638.193 689.498 630.304L690.673 697.112L706.068 697.544L728.322 675.362H754.436L757.769 664.116L736.787 661.718V659.08H774.268L774.891 661.214C775.745 664.455 776.18 667.791 776.186 671.142Z" fill="#828282"/>
</g>
<g style="mix-blend-mode:multiply" opacity="0.4">
<path d="M1072.72 741.379L1060.71 640.999L1054.76 645.747V706.105L1037.37 717.951L1039.34 741.379H1072.72Z" fill="#747474"/>
</g>
<g style="mix-blend-mode:multiply" opacity="0.4">
<path d="M416.603 740.421L418.977 677.425L406.579 661.814L396.795 596.564L386.172 739.27L416.603 740.421Z" fill="#BDBDBD"/>
</g>
<path d="M638.085 618.65L630.459 754.449H636.382L643.216 618.65H638.085Z" fill="#828282"/>
<path d="M810.187 754.448L803.257 616.371H798.413L804.288 754.448H810.187Z" fill="#828282"/>
<path d="M720.745 724.066L721.368 726.416L755.204 725.241V724.186L720.745 724.066Z" fill="#828282"/>
<path d="M712.663 724.066L712.039 726.416L678.204 725.241V724.186L712.663 724.066Z" fill="#828282"/>
<path d="M953.496 484.889L960.882 664.355H962.704L953.496 484.889Z" fill="#BDBDBD"/>
<path d="M484.467 664.355L490.51 484.889L486.529 664.355H484.467Z" fill="#BDBDBD"/>
<path d="M1439.42 740.42L1438.82 770.131H1226.46H1183.15C1183.15 770.131 1175.79 764.688 1181.95 760.396C1186.86 756.918 1207.34 764.112 1216.22 767.59C1218.76 768.549 1220.34 769.196 1220.34 769.196C1220.32 768.997 1220.32 768.796 1220.34 768.597C1220.22 766.654 1220.87 760.443 1232.64 756.942C1246.74 752.746 1278.85 767.661 1278.85 767.661C1285.67 763.648 1293.48 761.629 1301.39 761.834C1313.33 762.213 1325.2 763.82 1336.81 766.63H1337.1L1336.76 766.415C1335.32 765.503 1330.34 762.17 1332.16 760.348C1333.98 758.525 1346.12 765.743 1347.43 766.582C1346.86 765.431 1339.33 749.796 1350.55 745.504C1361.77 741.212 1383.93 754.137 1391.2 758.765L1393.6 760.348V759.916C1393.02 755.264 1388.46 714.594 1407.98 710.637C1418.85 708.431 1430.12 724.354 1435.7 733.73C1437.07 735.936 1438.1 737.83 1438.7 739.005C1438.89 739.413 1439.06 739.725 1439.18 739.941C1439.27 740.094 1439.35 740.254 1439.42 740.42Z" fill="#4F4F4F"/>
<path d="M1347.39 766.726C1344.07 765.119 1340.61 763.811 1337.06 762.818C1335.81 762.818 1336.29 765.216 1336.72 766.558C1335.28 765.647 1330.29 762.314 1332.12 760.491C1333.94 758.669 1346.07 765.887 1347.39 766.726Z" fill="#BDBDBD"/>
<path d="M1391.25 758.909C1381.66 754.353 1363.15 746.271 1355.5 748.453C1345.42 751.331 1347.32 765.575 1347.49 766.726C1346.91 765.575 1339.38 749.94 1350.6 745.648C1361.83 741.355 1383.98 754.281 1391.25 758.909Z" fill="#BDBDBD"/>
<path d="M1435.78 733.874C1430.98 726.32 1422.28 715.122 1412.45 716.633C1397.79 718.887 1397.15 761.835 1397.15 761.835L1393.6 760.06C1393.02 755.408 1388.47 714.738 1407.99 710.781C1418.92 708.575 1430.19 724.57 1435.78 733.874Z" fill="#BDBDBD"/>
</g>
</g>
<defs>
<linearGradient id="paint0_linear" x1="17853.8" y1="3231.24" x2="47208.2" y2="3231.24" gradientUnits="userSpaceOnUse">
<stop stop-color="#9400B3"/>
<stop offset="1" stop-color="#FF9215"/>
</linearGradient>
<radialGradient id="paint1_radial" cx="0" cy="0" r="1" gradientUnits="userSpaceOnUse" gradientTransform="translate(-6960.52 -107854) rotate(175.236) scale(7.8508 4666.59)">
<stop stop-color="#9DD6E5"/>
<stop offset="1"/>
</radialGradient>
<radialGradient id="paint2_radial" cx="0" cy="0" r="1" gradientUnits="userSpaceOnUse" gradientTransform="translate(4093.7 -109832) rotate(-175.236) scale(8.19637 4667.72)">
<stop stop-color="#9DD6E5"/>
<stop offset="1"/>
</radialGradient>
<radialGradient id="paint3_radial" cx="0" cy="0" r="1" gradientUnits="userSpaceOnUse" gradientTransform="translate(18008.3 -125186) rotate(-170.538) scale(18.5518 4633.04)">
<stop stop-color="#9DD6E5"/>
<stop offset="1"/>
</radialGradient>
<radialGradient id="paint4_radial" cx="0" cy="0" r="1" gradientUnits="userSpaceOnUse" gradientTransform="translate(4582.32 4161.8) rotate(5.60256) scale(25.3061)">
<stop stop-color="#00F4FF"/>
<stop offset="0.05" stop-color="#00E3ED"/>
<stop offset="0.25" stop-color="#009FA6"/>
<stop offset="0.45" stop-color="#00666B"/>
<stop offset="0.63" stop-color="#003A3D"/>
<stop offset="0.78" stop-color="#001A1C"/>
<stop offset="0.91" stop-color="#000707"/>
<stop offset="1"/>
</radialGradient>
<radialGradient id="paint5_radial" cx="0" cy="0" r="1" gradientUnits="userSpaceOnUse" gradientTransform="translate(-6927.96 4205.55) rotate(174.397) scale(25.3061)">
<stop stop-color="#00F4FF"/>
<stop offset="0.05" stop-color="#00E3ED"/>
<stop offset="0.25" stop-color="#009FA6"/>
<stop offset="0.45" stop-color="#00666B"/>
<stop offset="0.63" stop-color="#003A3D"/>
<stop offset="0.78" stop-color="#001A1C"/>
<stop offset="0.91" stop-color="#000707"/>
<stop offset="1"/>
</radialGradient>
<clipPath id="clip0">
<rect width="1440" height="768" fill="white"/>
</clipPath>
</defs>
</svg>
