<svg width="95" height="95" viewBox="0 0 95 95" fill="none" xmlns="http://www.w3.org/2000/svg">
<path d="M72.2036 61.1976C69.4292 66.2022 65.2338 70.2723 60.1475 72.8938C55.0611 75.5153 49.3119 76.5707 43.6261 75.9266C37.9403 75.2824 32.5729 72.9677 28.2019 69.2748C23.8309 65.5818 20.6524 60.6763 19.0679 55.1779C17.4833 49.6795 17.5638 43.8348 19.2992 38.3821C21.0345 32.9294 24.3469 28.1133 28.8179 24.5421C33.289 20.9709 38.7181 18.8049 44.4195 18.3176C50.1208 17.8302 55.8388 19.0435 60.851 21.8041C64.1869 23.6414 67.1275 26.1189 69.5042 29.0945C71.881 32.0702 73.6473 35.4856 74.7019 39.145C75.7565 42.8045 76.0787 46.6361 75.65 50.4202C75.2213 54.2044 74.0501 57.8668 72.2036 61.1976Z" fill="#333333"/>
<path d="M87.9858 70.0525C83.4272 78.1518 76.5695 84.7177 68.2799 88.9202C59.9902 93.1228 50.6406 94.7732 41.413 93.6628C32.1855 92.5525 23.4943 88.7312 16.4382 82.6821C9.38207 76.6331 4.27781 68.6278 1.77067 59.6782C-0.736476 50.7287 -0.533931 41.2367 2.3527 32.4022C5.23932 23.5678 10.6804 15.7875 17.9882 10.0449C25.2959 4.30233 34.1422 0.855308 43.4087 0.139592C52.6752 -0.576124 61.9458 1.4716 70.0487 6.0239C75.4324 9.04854 80.1673 13.1045 83.9828 17.9599C87.7983 22.8153 90.6196 28.375 92.2853 34.3212C93.9511 40.2675 94.4288 46.4837 93.6911 52.6147C92.9533 58.7456 91.0147 64.6711 87.9858 70.0525Z" fill="#282828"/>
<g opacity="0.25">
<path opacity="0.25" d="M70.0487 6.0239C61.9459 1.4716 52.6752 -0.576124 43.4087 0.139592C34.1422 0.855308 25.2959 4.30233 17.9882 10.0449C10.6804 15.7875 5.23932 23.5678 2.3527 32.4022C-0.533931 41.2367 -0.736476 50.7286 1.77067 59.6782C4.27781 68.6277 9.38208 76.6331 16.4382 82.6821C23.4943 88.7312 31.2423 92.4389 41.413 93.6628C50.6406 94.7731 60.1134 93.2095 68.4031 89.007C76.6928 84.8045 83.4272 78.1518 87.9858 70.0525C94.0722 59.1776 95.602 46.3342 92.2402 34.3339C88.8784 22.3336 80.899 12.1541 70.0487 6.0239ZM24.6384 86.1731C16.7745 81.7917 10.3903 75.1719 6.29671 67.1544C2.20309 59.1369 0.584765 50.0837 1.6473 41.1445C2.70983 32.2054 6.40526 23.7837 12.2642 16.9493C18.1232 10.1148 25.8813 5.17595 34.5531 2.76C43.2249 0.344045 52.4192 0.560032 60.968 3.38052C69.5168 6.20101 77.0344 11.4987 82.566 18.6008C88.0975 25.7028 91.3934 34.2887 92.035 43.2679C92.6766 52.2471 90.635 61.2144 86.1694 69.0307C80.2391 79.3241 70.5113 86.8836 59.0722 90.0883C47.6332 93.2929 35.5256 92.12 25.1108 86.4058L24.6384 86.1731Z" fill="url(#paint0_linear)"/>
</g>
<path d="M73.7931 62.1057C70.7755 67.397 66.2551 71.6734 60.8047 74.3931C55.3542 77.1128 49.2192 78.1533 43.1768 77.3828C37.1345 76.6124 31.4568 74.0656 26.8633 70.0652C22.2698 66.0648 18.9671 60.7909 17.3738 54.9117C15.7806 49.0325 15.9684 42.8127 17.9134 37.0403C19.8585 31.2679 23.4734 26.2029 28.2999 22.4869C33.1264 18.7709 38.9474 16.5714 45.0252 16.1669C51.103 15.7624 57.1641 17.1711 62.4405 20.2147C65.9403 22.2163 69.0107 24.8886 71.4761 28.0786C73.9415 31.2686 75.7534 34.9136 76.8079 38.8049C77.8625 42.6962 78.139 46.7573 77.6217 50.7556C77.1043 54.754 75.8033 58.611 73.7931 62.1057V62.1057Z" stroke="white" stroke-width="2" stroke-linecap="round" stroke-linejoin="round" stroke-dasharray="15 15"/>
<mask id="mask0" mask-type="alpha" maskUnits="userSpaceOnUse" x="22" y="22" width="50" height="50">
<path d="M68.6852 59.36C66.2348 63.6568 62.5639 67.1294 58.1379 69.338C53.7119 71.5465 48.7299 72.3914 43.8232 71.7658C38.9165 71.1401 34.3059 69.072 30.5757 65.8235C26.8455 62.575 24.1636 58.2923 22.8698 53.518C21.576 48.7438 21.7285 43.693 23.308 39.0055C24.8875 34.318 27.8229 30.2049 31.7423 27.1874C35.6617 24.1698 40.3886 22.3836 45.3242 22.0552C50.2597 21.7267 55.1816 22.8707 59.4663 25.3422C62.3083 26.9676 64.8017 29.1376 66.8037 31.7281C68.8057 34.3186 70.2771 37.2785 71.1334 40.4385C71.9898 43.5984 72.2143 46.8962 71.7942 50.1431C71.3741 53.39 70.3176 56.522 68.6852 59.36Z" fill="#C6140D"/>
</mask>
<g mask="url(#mask0)">
<path d="M46.9998 22C36.0832 22 26.8332 29 23.4165 38.6667H70.5832C67.1665 29 57.9165 22 46.9998 22Z" fill="#3E4347"/>
<path d="M46.9998 72C57.9165 72 67.1665 65.0833 70.5832 55.3333H23.4165C26.8332 65.0833 36.0832 72 46.9998 72Z" fill="#FFE62E"/>
<path d="M23.4167 38.6667C22.5 41.25 22 44.0833 22 47C22 49.9167 22.5 52.75 23.4167 55.3333H70.5833C71.5 52.75 72 49.9167 72 47C72 44.0833 71.5 41.25 70.5833 38.6667H23.4167Z" fill="#ED4C5C"/>
</g>
<path fill-rule="evenodd" clip-rule="evenodd" d="M54.5884 12.2573C61.6656 13.6811 68.0153 17.1155 73.0158 21.9392L79.0153 12.2683C76.2959 9.82371 73.2833 7.72635 70.0468 6.02438C66.9454 4.24023 63.6253 2.86643 60.17 1.93745L54.5884 12.2573Z" fill="#F8F8FF"/>
<path fill-rule="evenodd" clip-rule="evenodd" d="M38.2763 83.3684C31.1943 81.6964 24.895 77.9981 20.0242 72.9192C19.9722 72.9097 19.9203 72.9003 19.8683 72.8911L14.8894 81.3891C17.5238 83.7854 20.3368 85.9531 23.4364 87.7065C26.5378 89.4906 29.9225 91.1479 33.3778 92.0769L38.2763 83.3684Z" fill="#F8F8FF"/>
<path fill-rule="evenodd" clip-rule="evenodd" d="M56.0378 83.3093L60.9645 91.8489C64.3855 90.7719 67.7524 89.5702 70.8165 87.7064C73.931 85.9395 76.8272 83.731 79.3635 81.2033L74.3007 72.648C69.4513 77.8068 63.1445 81.5798 56.0378 83.3093Z" fill="#F8F8FF"/>
<path fill-rule="evenodd" clip-rule="evenodd" d="M82.5444 57.564C83.4976 54.2748 84.0085 50.7976 84.0085 47.2011C84.0085 43.4882 83.464 39.9024 82.4504 36.5194C82.4782 36.4577 82.5062 36.3961 82.5345 36.3347H92.7518C93.5719 39.7944 93.991 43.337 94.0006 46.8926C94.0662 50.477 93.7234 54.0572 92.9789 57.564H82.5444Z" fill="#F8F8FF"/>
<path fill-rule="evenodd" clip-rule="evenodd" d="M11.3665 37.3935C11.3623 37.3815 11.3582 37.3694 11.354 37.3574H1.13663C0.354941 40.86 -0.0259253 44.4402 0.0013692 48.0288C0.104644 51.5846 0.56099 55.1213 1.36368 58.5867H11.8353C10.6816 54.9987 10.0586 51.1726 10.0586 47.2011C10.0586 43.8064 10.5138 40.5179 11.3665 37.3935Z" fill="#F8F8FF"/>
<path fill-rule="evenodd" clip-rule="evenodd" d="M20.2906 21.5931C25.0414 16.5989 31.1671 12.9247 38.0609 11.1774C37.2796 9.84964 36.4641 8.44065 35.6486 7.03165C34.6837 5.36451 33.7188 3.69737 32.8106 2.16477C29.4065 3.28528 26.1331 4.7697 23.0474 6.59228C19.9712 8.41664 17.1144 10.5878 14.533 13.0633L20.2906 21.5931Z" fill="#F8F8FF"/>
<defs>
<linearGradient id="paint0_linear" x1="81.1743" y1="19.42" x2="13.0588" y2="74.48" gradientUnits="userSpaceOnUse">
<stop stop-color="white"/>
<stop offset="1"/>
</linearGradient>
</defs>
</svg>
