<svg width="526" height="382" viewBox="0 0 526 382" fill="none" xmlns="http://www.w3.org/2000/svg">
<path d="M211.469 154.196L237.62 150.172L292.625 150.747L307.338 153.391L273.887 284.975L232.735 280.032L211.469 154.196Z" fill="#E0E0E0"/>
<path d="M323.029 212.889C322.135 193.755 324.765 174.621 330.788 156.438L292.624 150.69L259.633 267.845V268.25L259.63 268.075L231.237 150.92L197.211 156.668L195.43 161.324L203.419 232.721L214.052 333.205L207.443 382.251H321.236C318.17 357.664 308.575 280.65 308.43 278.767C308.257 276.525 323.029 212.889 323.029 212.889Z" fill="#808080"/>
<path d="M34.2712 189.205C31.2824 185.411 34.5587 181.214 41.0534 188.113C47.5482 195.011 39.4441 208.635 39.4441 208.635L50.3069 214.383L45.8814 219.442L31.34 214.901C28.4874 213.993 25.8343 212.55 23.5232 210.647C16.5687 204.898 1.51001 191.964 0.130588 188.343C-1.59368 183.629 14.3271 194.091 14.3271 194.091C14.3271 194.091 1.51013 182.594 1.3377 179.202C1.16528 175.811 14.6146 189.032 14.6146 189.032C-1.59357 163.164 4.09643 165.118 4.09643 165.118C9.39682 171.568 14.3655 178.283 18.9828 185.238C18.9828 185.238 16.3388 161.152 18.6953 162.934C21.0518 164.716 24.443 179.432 26.3397 185.928C26.9827 188.586 28.2875 191.038 30.1329 193.056C31.6848 194.666 33.4091 195.931 34.6735 194.838C37.3749 192.481 34.2712 189.205 34.2712 189.205Z" fill="#FCCAB1"/>
<g opacity="0.34">
<path opacity="0.34" d="M37.8918 208.175C37.8918 208.175 38.1793 207.83 38.4666 207.14C38.6098 206.731 38.7062 206.306 38.754 205.875C38.7451 205.303 38.6281 204.737 38.4091 204.208C38.1536 203.56 37.7384 202.986 37.2022 202.541C36.5632 202.027 35.845 201.619 35.0756 201.334C33.2215 200.714 31.2827 200.384 29.3279 200.357C27.2588 200.357 25.1897 200.357 23.293 200.357C21.6227 200.18 19.9921 199.734 18.4649 199.035C17.3992 198.588 16.4396 197.922 15.6486 197.08C15.1313 196.505 14.9589 196.103 15.0164 196.045C15.0739 195.988 15.3612 196.045 15.9934 196.793C16.8271 197.436 17.7586 197.94 18.7523 198.287C20.2429 198.857 21.8142 199.187 23.4079 199.265C25.1897 199.265 27.2013 199.265 29.1555 199.265C31.2198 199.283 33.2638 199.673 35.1905 200.414C36.0734 200.739 36.8768 201.249 37.547 201.909C38.1776 202.468 38.6527 203.181 38.9264 203.978C39.1216 204.544 39.192 205.145 39.1325 205.741C39.0729 206.336 38.8849 206.912 38.5815 207.428C38.2942 207.83 37.9493 208.175 37.8918 208.175Z" fill="#8E6C55"/>
</g>
<g opacity="0.34">
<path opacity="0.34" d="M30.5925 197.195C30.5925 197.195 30.0177 197.77 28.9257 198.172C27.485 198.69 25.9726 198.981 24.4426 199.035C22.9082 199.084 21.3756 198.89 19.9019 198.46C19.2612 198.365 18.6621 198.085 18.1777 197.655C18.1777 197.31 21.0515 198 24.4426 197.655C27.8336 197.31 30.4776 196.678 30.5925 197.195Z" fill="#8E6C55"/>
</g>
<path d="M491.489 177.363C494.421 173.511 491.145 169.315 484.707 176.213C478.27 183.111 486.604 196.678 486.604 196.678L475.684 202.426L480.167 207.485L494.708 202.944C497.568 202.095 500.214 200.645 502.468 198.69C509.48 192.941 524.538 180.007 525.86 176.386C527.642 171.672 511.721 182.134 511.721 182.134C511.721 182.134 524.538 170.637 524.711 167.245C524.883 163.854 511.434 177.075 511.434 177.075C527.585 151.207 521.952 153.161 521.952 153.161C519.71 154.829 507.066 173.281 507.066 173.281C507.066 173.281 509.709 149.195 507.066 150.977C504.422 152.759 501.318 167.475 499.421 173.971C498.771 176.639 497.445 179.094 495.57 181.099C494.076 182.766 492.352 183.974 491.087 182.881C488.386 180.582 491.489 177.363 491.489 177.363Z" fill="#FCCAB1"/>
<g opacity="0.34">
<path opacity="0.34" d="M487.869 196.045C487.869 196.045 487.351 196.045 486.892 195.241C486.588 194.725 486.4 194.149 486.341 193.554C486.281 192.958 486.352 192.357 486.547 191.792C486.834 191.001 487.307 190.291 487.926 189.722C488.585 189.075 489.367 188.567 490.225 188.227C492.178 187.51 494.237 187.121 496.318 187.078C498.444 187.078 500.456 187.078 502.065 187.078C503.659 187 505.23 186.67 506.721 186.1C507.715 185.753 508.646 185.249 509.48 184.606C510.054 184.089 510.399 183.801 510.457 183.859C510.514 183.916 510.457 184.318 509.767 184.893C509.001 185.752 508.06 186.438 507.008 186.905C505.448 187.557 503.803 187.983 502.123 188.17C500.284 188.17 498.215 188.17 496.375 188.17C494.421 188.204 492.483 188.533 490.628 189.147C489.887 189.455 489.191 189.861 488.559 190.354C488.034 190.81 487.621 191.381 487.352 192.021C487.106 192.542 486.988 193.113 487.007 193.689C486.909 194.104 486.909 194.537 487.007 194.953C487.581 195.701 487.926 195.988 487.869 196.045Z" fill="#8E6C55"/>
</g>
<g opacity="0.34">
<path opacity="0.34" d="M495.168 185.181C495.168 184.836 497.927 185.756 501.318 185.871C504.709 185.985 507.468 185.296 507.525 185.871C507.583 186.445 506.95 186.388 505.858 186.733C504.376 187.112 502.848 187.286 501.318 187.25C499.769 187.202 498.237 186.911 496.777 186.388C495.685 185.871 495.111 185.181 495.168 185.181Z" fill="#8E6C55"/>
</g>
<path d="M330.558 155.863C330.558 155.863 351.652 206.795 394.759 224.271C419.588 234.331 480.972 198.115 480.972 198.115L489.536 213.923C489.536 213.923 396.828 320.731 317.569 217.085C317.569 217.028 315.097 159.082 330.558 155.863Z" fill="#808080"/>
<path d="M196.235 162.819C196.235 162.819 175.142 213.923 131.978 231.169C107.206 241.229 45.7641 205.013 45.7641 205.013L37.2578 220.764C37.2578 220.764 125.828 329.181 204.972 225.42C204.972 225.42 211.639 166.038 196.235 162.819Z" fill="#808080"/>
<path d="M242.619 124.936V149.77C246.142 154.747 251.406 158.218 257.368 159.496C263.329 160.773 269.553 159.764 274.805 156.668L285.438 149.137V122.924L242.619 124.936Z" fill="#FCCAB1"/>
<path d="M236.125 149.712L236.93 140.687L260.437 151.897L259.345 164.946L236.125 149.712Z" fill="#EAEAEA"/>
<path d="M260.437 151.897L264.059 160.29L259.633 161.497L260.437 151.897Z" fill="#CECECE"/>
<path d="M264.059 160.29L267.047 151.897L270.208 162.129L264.059 160.29Z" fill="#CECECE"/>
<path d="M288.713 141.262C288.713 141.607 267.045 151.897 267.045 151.897L270.206 164.314L292.622 150.747L288.713 141.262Z" fill="#EAEAEA"/>
<path d="M197.732 161.497C197.926 162.388 198.06 163.29 198.134 164.199C198.134 165.923 198.537 168.453 198.882 171.499C199.514 177.708 200.491 186.273 201.64 195.701C202.79 205.128 203.594 213.693 203.997 219.959C203.997 223.063 204.342 225.708 204.399 227.317C204.474 228.216 204.474 229.12 204.399 230.019C204.127 229.143 203.972 228.234 203.939 227.317C203.939 225.593 203.537 223.064 203.192 220.017C202.56 213.808 201.583 205.243 200.491 195.815C199.399 186.388 198.479 177.823 198.077 171.557C198.077 168.453 197.732 165.808 197.675 164.199C197.558 163.3 197.577 162.389 197.732 161.497Z" fill="#666666"/>
<path d="M224.689 151.897C225.437 151.897 231.242 218.292 231.242 218.292L242.737 232.261L240.898 241.229L259.75 275.72V267.902L231.242 150.69L224.689 151.897Z" fill="#666666"/>
<path d="M331.074 157.013C330.56 159.765 329.908 162.489 329.12 165.176C328.775 166.383 328.431 167.763 328.086 169.257C327.741 170.752 327.453 172.362 327.051 174.029C326.361 177.363 325.672 181.042 325.04 184.951C324.407 188.86 324.005 192.596 323.66 195.988C323.66 197.713 323.315 199.322 323.2 200.817C323.086 202.311 323.2 203.748 322.913 205.071C322.568 210.244 322.453 213.463 322.281 213.463C322.208 212.699 322.208 211.929 322.281 211.164C322.281 210.474 322.281 209.554 322.281 208.52V205.013C322.281 203.748 322.281 202.311 322.281 200.759C322.281 199.207 322.281 197.598 322.626 195.873C322.913 192.481 323.373 188.687 323.948 184.778C324.522 180.869 325.327 177.133 326.074 173.799C326.476 172.132 326.821 170.522 327.223 169.027C327.626 167.533 328.028 166.211 328.373 164.946C328.718 163.681 329.063 162.589 329.407 161.612C329.641 160.751 329.929 159.907 330.27 159.082C330.426 158.354 330.698 157.656 331.074 157.013Z" fill="#666666"/>
<path d="M259.748 274.57L278.6 236.17L276.013 228.927L288.371 216.568L297.624 151.609L292.624 150.747L259.633 267.902L259.748 274.57Z" fill="#666666"/>
<path d="M260.496 366.604C260.264 365.429 260.129 364.237 260.094 363.04C260.094 360.741 259.749 357.292 259.519 353.21C259.117 344.932 258.772 333.435 258.715 320.731C258.657 308.027 258.715 296.587 259.06 288.309C259.06 284.113 259.059 280.779 259.519 278.479C259.531 277.267 259.627 276.057 259.807 274.858C259.955 276.06 259.955 277.277 259.807 278.479C259.807 280.779 259.807 284.228 259.807 288.309C259.807 296.587 259.807 308.084 259.807 320.731C259.807 333.378 260.094 344.875 260.324 353.21C260.324 357.349 260.324 360.683 260.324 363.04C260.481 364.221 260.538 365.414 260.496 366.604Z" fill="#666666"/>
<path d="M268.199 301.646C268.184 302.032 268.02 302.398 267.741 302.666C267.463 302.934 267.091 303.083 266.704 303.083C266.323 303.083 265.958 302.932 265.689 302.662C265.419 302.393 265.268 302.027 265.268 301.646C265.267 301.259 265.417 300.888 265.685 300.609C265.953 300.33 266.318 300.166 266.704 300.151C267.101 300.151 267.481 300.309 267.761 300.589C268.041 300.869 268.199 301.25 268.199 301.646Z" fill="#666666"/>
<path d="M268.199 320.731C268.199 321.127 268.041 321.508 267.761 321.788C267.481 322.068 267.101 322.226 266.704 322.226C266.318 322.211 265.953 322.047 265.685 321.768C265.417 321.489 265.267 321.118 265.268 320.731C265.268 320.35 265.419 319.984 265.689 319.715C265.958 319.445 266.323 319.294 266.704 319.294C267.091 319.294 267.463 319.443 267.741 319.711C268.02 319.979 268.184 320.345 268.199 320.731Z" fill="#666666"/>
<path d="M226.929 72.6245C224.86 73.3143 213.652 75.7287 217.446 90.2725C221.239 104.816 231.01 101.425 231.01 101.425L226.929 72.6245Z" fill="#EAB69B"/>
<path d="M227.447 96.0211C227.447 96.0211 227.159 96.0211 226.642 96.0211C225.931 95.9006 225.248 95.647 224.631 95.2738C223.694 94.7553 222.872 94.0512 222.217 93.2044C221.857 92.6691 221.531 92.1124 221.24 91.5373C220.98 90.8879 220.788 90.2138 220.665 89.5253C220.507 88.3347 220.605 87.1241 220.952 85.9742C221.299 84.8244 221.887 83.7617 222.676 82.857C223.112 82.3057 223.661 81.8548 224.286 81.5349C224.746 81.2474 225.033 81.1899 225.09 81.5349C224.457 82.1899 223.862 82.8809 223.309 83.6043C222.107 85.2648 221.573 87.317 221.814 89.3528C221.978 90.51 222.411 91.6126 223.079 92.572C223.629 93.353 224.31 94.0336 225.09 94.584C226.412 95.6187 227.504 95.7912 227.447 96.0211Z" fill="#D68772"/>
<path d="M228.421 89.3529C228.421 89.3529 227.962 89.008 227.33 88.5481C226.598 87.9156 225.652 87.5866 224.686 87.6283C224.024 87.7004 223.392 87.9376 222.846 88.3182C222.443 88.6188 222.076 88.9661 221.754 89.3529L221.18 89.008C221.582 88.6631 221.812 88.4331 221.927 88.4906C222.042 88.5481 221.927 88.893 221.927 89.3529H221.352C221.46 88.6533 221.758 87.997 222.214 87.4559C222.874 86.8758 223.697 86.5144 224.571 86.4211C225.284 86.369 225.998 86.5079 226.64 86.8235C227.135 87.0924 227.582 87.4421 227.962 87.8583C228.536 88.7206 228.594 89.2954 228.421 89.3529Z" fill="#D68772"/>
<path d="M301.245 70.2102C303.314 70.9 314.58 73.3144 310.786 87.8582C306.993 102.402 297.164 99.3552 297.164 99.3552L301.245 70.2102Z" fill="#EAB69B"/>
<path d="M300.729 93.8366C300.729 93.8366 301.763 93.4342 303.085 92.5144C303.853 91.9267 304.531 91.2295 305.097 90.445C305.411 89.9728 305.68 89.4724 305.902 88.9504C306.115 88.4131 306.27 87.8541 306.362 87.2833C306.596 86.1455 306.596 84.972 306.362 83.8342C306.099 82.9133 305.691 82.0401 305.154 81.2473C304.177 79.9252 303.258 79.3503 303.315 79.1778C303.373 79.0054 303.66 79.1778 304.12 79.1778C304.753 79.511 305.318 79.9594 305.787 80.5C306.484 81.316 307.029 82.2506 307.396 83.2593C307.837 84.5327 307.955 85.8954 307.741 87.2258C307.646 87.9018 307.452 88.5602 307.166 89.1803C306.888 89.7624 306.561 90.3201 306.189 90.8474C305.533 91.7095 304.713 92.4325 303.775 92.9743C303.148 93.3152 302.468 93.5484 301.763 93.6642C301.016 93.9516 300.729 93.8941 300.729 93.8366Z" fill="#D68772"/>
<path d="M299.75 87.4559C299.75 87.4559 299.75 86.8236 300.267 86.0763C300.596 85.6318 301.031 85.2762 301.532 85.0415C302.165 84.7018 302.886 84.5615 303.601 84.6391C304.469 84.7124 305.292 85.0539 305.957 85.6164C306.424 86.0411 306.779 86.5741 306.992 87.1685L306.417 87.5134C306.417 87.0152 306.417 86.7278 306.417 86.6511C306.417 86.6511 306.762 86.6511 307.164 87.1685L306.589 87.4559C306.282 87.0554 305.914 86.7061 305.497 86.4212C304.961 86.0738 304.351 85.8572 303.716 85.7888C302.738 85.7162 301.77 86.0252 301.014 86.6511C300.21 86.8236 299.865 87.4559 299.75 87.4559Z" fill="#D68772"/>
<path d="M291.188 132.122C279.693 143.964 238.598 135.571 232.908 130.282C227.218 124.994 224.056 57.1036 224.056 57.1036C221.7 22.0376 241.759 19.9106 261.071 14.9669C280.383 10.0232 300.959 21.1178 302.855 50.0329C303.028 50.0329 300.499 122.522 291.188 132.122Z" fill="#FCCAB1"/>
<path d="M227.217 99.6427C255.667 100.39 280.899 98.2056 300.901 91.1349C300.901 91.1349 297.28 120.912 296.245 124.074C294.004 131.26 292.969 140.457 262.564 137.813C232.16 135.169 232.849 132.697 230.321 125.856C228.692 117.199 227.655 108.441 227.217 99.6427Z" fill="#4C3737"/>
<path d="M248.482 108.266C250.888 110.156 253.678 111.497 256.657 112.192C259.636 112.887 262.732 112.92 265.725 112.29C268.663 111.563 271.419 110.239 273.822 108.399C276.225 106.559 278.224 104.244 279.692 101.597" fill="#ECE9DE"/>
<path d="M270.724 89.8128C270.724 89.8128 270.264 90.3301 269.23 91.1349C267.758 92.2677 266.201 93.2862 264.574 94.1816C263.454 94.8192 262.281 95.3578 261.068 95.7912H259.976H259.459H258.826C258.599 95.843 258.364 95.843 258.137 95.7912C257.823 95.7031 257.555 95.4971 257.389 95.2164C257.191 94.784 257.093 94.3124 257.102 93.8367C257.112 93.024 257.209 92.2147 257.389 91.4224C257.52 90.5854 257.712 89.7592 257.964 88.9505C258.424 87.3409 258.941 85.6738 259.516 84.0067C260.723 80.6151 261.988 77.5109 263.195 74.6367L264.057 72.5672V72.1073V71.13C264.057 69.8079 263.712 68.5432 263.539 67.3935C263.018 64.9451 262.634 62.4693 262.39 59.9779C262.666 60.5865 262.878 61.2223 263.022 61.8749C263.557 63.6519 263.998 65.4555 264.344 67.2785C264.634 68.5287 264.845 69.7959 264.976 71.0726C265.004 71.2439 265.004 71.4186 264.976 71.5899V72.5672C264.976 72.5672 264.976 72.5672 264.976 72.8546C264.955 73.0264 264.955 73.2002 264.976 73.372C264.689 74.0043 264.459 74.7516 264.172 75.4414C263.022 78.3157 261.815 81.19 260.608 84.7541C260.033 86.4211 259.516 88.0882 259.056 89.6978C258.811 90.4498 258.619 91.2181 258.482 91.9972C258.308 92.7325 258.212 93.4839 258.194 94.2391C258.154 94.5252 258.154 94.8154 258.194 95.1014H259.574H260.551C261.721 94.7239 262.856 94.2429 263.942 93.6643C266.011 92.6296 267.62 91.6523 268.712 91.02C269.321 90.5221 269.998 90.1154 270.724 89.8128Z" fill="#E2A893"/>
<path d="M272.334 51.9299L295.382 54.1718L296.301 48.8257L272.506 42.9622L272.334 51.9299Z" fill="#4C3737"/>
<path d="M233.193 54.1718C233.193 54.1718 257.448 53.7694 257.563 53.3096C257.678 52.8497 257.563 44.0544 257.563 44.0544L233.193 49.1131V54.1718Z" fill="#4C3737"/>
<path d="M227.332 79.1779C227.332 79.1779 222.044 38.0185 231.815 27.4412C231.815 27.4412 278.715 41.8125 286.704 35.8915C294.693 29.9705 295.383 26.8089 295.383 26.8089C295.383 26.8089 298.832 45.0892 300.728 52.1024C301.743 58.9825 301.743 65.9744 300.728 72.8545L303.89 71.5324C303.89 71.5324 306.878 24.337 303.2 22.21C299.521 20.0831 282.106 2.26265 265.553 7.37884C249 12.495 220.55 26.2915 220.377 36.4089C220.205 46.5263 225.607 79.8678 225.607 79.8678L227.332 79.1779Z" fill="#4C3737"/>
<path d="M256.355 10.483C256.355 10.483 284.289 -4.06077 290.496 1.1129C292.35 3.01331 293.72 5.33198 294.491 7.87324C295.261 10.4145 295.409 13.1038 294.921 15.7142C295.942 15.0045 297.156 14.6242 298.399 14.6242C299.642 14.6242 300.855 15.0045 301.876 15.7142C305.152 18.301 304.75 28.8783 304.75 28.8783L284.633 22.0376L256.355 10.483Z" fill="#4C3737"/>
<path d="M231.813 27.2688C231.813 27.2688 219.456 35.9491 220.318 42.215L221.468 50.8952L226.296 45.1467C227.327 38.9673 229.183 32.9544 231.813 27.2688Z" fill="#331E1E"/>
<path d="M250.551 32.3849C295.153 20.8878 282.91 0.308105 282.91 0.308105L273.887 2.83746C284.002 20.083 237.332 28.8783 237.332 28.8783L250.551 32.3849Z" fill="#331E1E"/>
<path d="M273.025 36.6962C273.025 36.6962 294.521 25.5441 294.924 15.7141C294.924 15.7141 297.568 13.5871 299.752 14.6793C299.752 14.6793 301.074 26.7513 280.152 37.1561L273.025 36.6962Z" fill="#331E1E"/>
<path d="M296.303 31.5227C296.303 31.5227 304.522 31.9826 304.809 34.0521V43.0198L297.222 37.2712L296.303 31.5227Z" fill="#331E1E"/>
<path d="M276.589 52.3323L274.807 43.5371L280.152 44.8593L281.992 52.8497L276.589 52.3323Z" fill="#331E1E"/>
<path d="M285.843 53.2521L285.096 46.0664L286.36 46.4113L288.199 53.482L285.843 53.2521Z" fill="#331E1E"/>
<path d="M255.438 44.5143L253.484 53.482L249.115 53.8269L251.702 45.2616L255.438 44.5143Z" fill="#331E1E"/>
<path d="M244.689 53.9419L246.299 46.4114L244.172 47.3311L243.08 51.93L242.447 47.3886L239.746 47.7335L240.321 53.9419H244.689Z" fill="#331E1E"/>
<path d="M292.338 339.931L315.673 335.792L319.696 343.725L294.292 349.129L292.338 339.931Z" fill="#666666"/>
<path d="M212.1 340.851L230.549 345.047L228.94 353.44L208.479 349.129L212.1 340.851Z" fill="#666666"/>
<path d="M272.529 69.9849C272.529 69.9849 275.22 57.6097 284.105 58.4143C292.989 59.219 294.167 69.9359 294.167 69.9359L272.529 69.9849Z" fill="#EFA98E"/>
<path d="M272.529 69.9849C272.958 67.5862 274.211 65.4124 276.07 63.8384C277.93 62.2644 280.281 61.3889 282.717 61.3627C285.33 61.2126 287.911 61.9906 290.006 63.5592C292.101 65.1279 293.575 67.3863 294.167 69.9359C294.167 69.9359 277.509 70.0765 272.529 69.9849Z" fill="#ECE9DE"/>
<path d="M279.164 62.1983C279.164 62.1983 280.493 66.5438 286.901 66.1736C293.309 65.8035 290.812 64.1086 290.812 64.1086C290.812 64.1086 288.243 59.1758 279.164 62.1983Z" fill="#70924F"/>
<path d="M294.457 69.9245C294.457 69.9245 293.815 68.3297 292.281 66.1336C291.393 64.8872 290.247 63.8469 288.92 63.0841C287.316 62.1332 285.465 61.6829 283.603 61.7906C281.737 61.8763 279.925 62.4468 278.346 63.4461C277.042 64.2493 275.904 65.2964 274.997 66.5304C273.464 68.7324 273.069 70.4265 272.833 70.3201C272.597 70.2137 272.817 69.9156 272.787 69.1644C273.09 68.0891 273.536 67.0594 274.112 66.1026C275.002 64.6927 276.176 63.4834 277.558 62.5515C279.249 61.3998 281.226 60.7403 283.269 60.6465C285.324 60.5485 287.361 61.0726 289.114 62.1504C290.564 63.0218 291.768 64.2489 292.612 65.7153C293.645 66.8955 294.289 68.3651 294.457 69.9245Z" fill="#443949"/>
<path d="M234.545 70.7406C234.545 70.7406 237.238 58.4231 246.122 59.2278C255.007 60.0324 256.24 70.6893 256.24 70.6893L234.545 70.7406Z" fill="#EFA98E"/>
<path d="M234.546 70.7405C234.999 68.3469 236.268 66.1845 238.137 64.6223C240.006 63.0601 242.359 62.1948 244.794 62.1739C247.399 62.0216 249.974 62.7916 252.067 64.3488C254.16 65.906 255.639 68.1507 256.242 70.6892C256.242 70.6892 239.528 70.8899 234.546 70.7405Z" fill="#ECE9DE"/>
<path d="M241.123 63.0141C240.441 63.3305 242.635 67.5836 248.581 67.2319C254.527 66.8801 253.492 65.5901 253.492 65.5901C252.041 63.803 250.018 62.571 247.765 62.1017C245.512 61.6324 243.166 61.9546 241.123 63.0141Z" fill="#70924F"/>
<path d="M256.239 70.6893C256.239 70.6893 255.597 69.0944 254.066 66.9562C253.149 65.7184 252.008 64.6643 250.702 63.8491C249.057 62.95 247.202 62.5045 245.328 62.558C243.461 62.6436 241.65 63.2142 240.071 64.2134C238.75 65.0188 237.611 66.0885 236.724 67.3554C235.189 69.4997 234.793 71.1936 234.56 71.145C234.327 71.0964 234.542 70.6827 234.512 69.9316C235.247 67.221 236.942 64.8705 239.283 63.3188C240.976 62.1726 242.951 61.5136 244.993 61.4138C247.057 61.3216 249.098 61.8669 250.841 62.9756C252.259 63.8617 253.455 65.0615 254.336 66.4826C255.354 67.6774 256.014 69.1357 256.239 70.6893Z" fill="#443949"/>
</svg>
