<svg width="21" height="20" viewBox="0 0 21 20" fill="none" xmlns="http://www.w3.org/2000/svg">
<path d="M19.4167 11.9231V1.92308C19.4167 1.81891 19.3837 1.72877 19.3177 1.65264C19.2517 1.57652 19.1736 1.53846 19.0833 1.53846H2.41667C2.32639 1.53846 2.24826 1.57652 2.18229 1.65264C2.11632 1.72877 2.08333 1.81891 2.08333 1.92308V11.9231C2.08333 12.0272 2.11632 12.1174 2.18229 12.1935C2.24826 12.2696 2.32639 12.3077 2.41667 12.3077H19.0833C19.1736 12.3077 19.2517 12.2696 19.3177 12.1935C19.3837 12.1174 19.4167 12.0272 19.4167 11.9231ZM20.75 1.92308V15C20.75 15.5288 20.5868 15.9816 20.2604 16.3582C19.934 16.7348 19.5417 16.9231 19.0833 16.9231H13.4167C13.4167 17.2196 13.4722 17.53 13.5833 17.8546C13.6944 18.1791 13.8056 18.4635 13.9167 18.7079C14.0278 18.9523 14.0833 19.1266 14.0833 19.2308C14.0833 19.4391 14.0174 19.6194 13.8854 19.7716C13.7535 19.9239 13.5972 20 13.4167 20H8.08333C7.90278 20 7.74653 19.9239 7.61458 19.7716C7.48264 19.6194 7.41667 19.4391 7.41667 19.2308C7.41667 19.1186 7.47222 18.9423 7.58333 18.7019C7.69444 18.4615 7.80556 18.1811 7.91667 17.8606C8.02778 17.5401 8.08333 17.2276 8.08333 16.9231H2.41667C1.95833 16.9231 1.56597 16.7348 1.23958 16.3582C0.913194 15.9816 0.75 15.5288 0.75 15V1.92308C0.75 1.39423 0.913194 0.941506 1.23958 0.564904C1.56597 0.188301 1.95833 0 2.41667 0H19.0833C19.5417 0 19.934 0.188301 20.2604 0.564904C20.5868 0.941506 20.75 1.39423 20.75 1.92308Z" fill="#282828"/>
</svg>
