<svg width="21" height="20" viewBox="0 0 21 20" fill="none" xmlns="http://www.w3.org/2000/svg">
<path d="M8.6875 0H11.8125C12.332 0 12.75 0.417969 12.75 0.9375V7.5H16.1758C16.8711 7.5 17.2188 8.33984 16.7266 8.83203L10.7852 14.7773C10.4922 15.0703 10.0117 15.0703 9.71875 14.7773L3.76953 8.83203C3.27734 8.33984 3.625 7.5 4.32031 7.5H7.75V0.9375C7.75 0.417969 8.16797 0 8.6875 0ZM20.25 14.6875V19.0625C20.25 19.582 19.832 20 19.3125 20H1.1875C0.667969 20 0.25 19.582 0.25 19.0625V14.6875C0.25 14.168 0.667969 13.75 1.1875 13.75H6.91797L8.83203 15.6641C9.61719 16.4492 10.8828 16.4492 11.668 15.6641L13.582 13.75H19.3125C19.832 13.75 20.25 14.168 20.25 14.6875ZM15.4062 18.125C15.4062 17.6953 15.0547 17.3438 14.625 17.3438C14.1953 17.3438 13.8438 17.6953 13.8438 18.125C13.8438 18.5547 14.1953 18.9062 14.625 18.9062C15.0547 18.9062 15.4062 18.5547 15.4062 18.125ZM17.9062 18.125C17.9062 17.6953 17.5547 17.3438 17.125 17.3438C16.6953 17.3438 16.3438 17.6953 16.3438 18.125C16.3438 18.5547 16.6953 18.9062 17.125 18.9062C17.5547 18.9062 17.9062 18.5547 17.9062 18.125Z" fill="#282828"/>
</svg>
