<svg width="60" height="63" viewBox="0 0 60 63" fill="none" xmlns="http://www.w3.org/2000/svg">
<circle cx="30" cy="30.6429" r="30" fill="#E4322B"/>
<g filter="url(#filter0_d)">
<circle cx="30" cy="30.6429" r="24" fill="white"/>
</g>
<path fill-rule="evenodd" clip-rule="evenodd" d="M34.5366 16.0009C34.5366 17.6392 33.3094 22.165 31.5889 24.1702C36.9649 25.4576 40.9834 33.8696 40.9834 39.8973C40.9834 45.6684 36.0626 46.6429 29.9927 46.6429C23.9229 46.6429 19 45.7486 19 39.8973C19 33.28 23.1228 25.7524 28.3524 24.2685C26.5818 22.3134 25.3205 17.6672 25.3205 16.0009C25.3205 14.0219 25.977 14.5588 27.0073 15.4016C27.8019 16.0514 28.8188 16.8832 29.9285 16.8832C31.037 16.8832 32.0542 16.059 32.8493 15.4148C33.8793 14.5801 34.5366 14.0475 34.5366 16.0009ZM23.6428 41.1566V40.1532C24.6133 40.837 26.3875 41.1566 28.1546 41.1566C29.9217 41.1566 31.6959 40.837 32.6664 40.1532V41.1566C32.6664 41.9861 30.6455 42.6605 28.1546 42.6605C25.6637 42.6605 23.6428 41.9861 23.6428 41.1566ZM35.6742 32.133C35.6742 32.9625 33.6533 33.6369 31.1625 33.6369C28.6716 33.6369 26.6507 32.9625 26.6507 32.133C26.6507 31.3035 28.6716 30.6291 31.1625 30.6291C33.6533 30.6291 35.6742 31.3035 35.6742 32.133ZM23.6428 38.9007V37.6882C24.6133 38.4871 26.3898 38.9007 28.1546 38.9007C29.9194 38.9007 31.6959 38.4871 32.6664 37.6882V38.9007C32.6664 39.7302 30.6455 40.4046 28.1546 40.4046C25.6637 40.4046 23.6428 39.7302 23.6428 38.9007ZM35.6742 36.6448C35.6742 37.2017 34.7648 37.6858 33.4183 37.9466V36.4521C34.3278 36.29 35.1291 36.0268 35.6742 35.6414V36.6448ZM23.6428 36.2688C23.6428 35.2302 25.6637 34.3889 28.1546 34.3889C30.6455 34.3889 32.6664 35.2302 32.6664 36.2688C32.6664 37.3075 30.6455 38.1487 28.1546 38.1487C25.6637 38.1487 23.6428 37.3075 23.6428 36.2688ZM35.6742 34.3889C35.6742 34.9599 34.7178 35.4581 33.3079 35.7119C33.1011 35.155 32.5912 34.7038 31.898 34.3678C33.4066 34.2926 34.84 33.9753 35.6742 33.3855V34.3889Z" fill="#E4322B"/>
<defs>
<filter id="filter0_d" x="2" y="6.64294" width="56" height="56" filterUnits="userSpaceOnUse" color-interpolation-filters="sRGB">
<feFlood flood-opacity="0" result="BackgroundImageFix"/>
<feColorMatrix in="SourceAlpha" type="matrix" values="0 0 0 0 0 0 0 0 0 0 0 0 0 0 0 0 0 0 127 0"/>
<feOffset dy="4"/>
<feGaussianBlur stdDeviation="2"/>
<feColorMatrix type="matrix" values="0 0 0 0 0 0 0 0 0 0 0 0 0 0 0 0 0 0 0.15 0"/>
<feBlend mode="normal" in2="BackgroundImageFix" result="effect1_dropShadow"/>
<feBlend mode="normal" in="SourceGraphic" in2="effect1_dropShadow" result="shape"/>
</filter>
</defs>
</svg>
