<svg width="28" height="28" viewBox="0 0 28 28" fill="none" xmlns="http://www.w3.org/2000/svg">
<path fill-rule="evenodd" clip-rule="evenodd" d="M19.6031 17.3572C20.219 17.0033 20.9147 16.6037 21.7923 16.7896C22.5872 16.9567 25.7897 19.5023 26.5316 20.2603C27.0194 20.7575 27.2884 21.2709 27.3319 21.7844C27.4039 23.8002 24.4215 26.3295 23.9201 26.6161C23.2557 27.0929 22.4839 27.3334 21.6143 27.3334C20.727 27.3334 19.7392 27.0834 18.659 26.5808C12.8056 24.148 3.7699 15.1134 1.40705 9.32674C0.426035 7.17236 0.419241 5.39696 1.38938 4.06032C1.77799 3.43411 4.22237 0.585598 6.19934 0.668459C6.72381 0.713285 7.23606 0.982243 7.73608 1.4699C8.49426 2.21157 11.0405 5.41326 11.2077 6.20791C11.3911 7.09221 10.9876 7.79313 10.6316 8.41119L10.6311 8.41203C10.2658 9.04739 9.94958 9.59736 10.2036 10.298C11.6438 13.8257 14.1725 16.3536 17.7147 17.7989C18.4049 18.0489 18.9539 17.7324 19.5884 17.3656L19.6031 17.3572ZM17.7068 0.673951C17.1915 0.609002 16.7283 0.987239 16.6723 1.50174C16.6151 2.01625 16.9866 2.47854 17.4994 2.53584C21.716 3.00578 24.9923 6.28001 25.4656 10.5005C25.5203 10.9793 25.9249 11.3334 26.3957 11.3334C26.4301 11.3334 26.4657 11.3308 26.5013 11.327C27.0154 11.2697 27.3856 10.8061 27.3271 10.2903C26.7545 5.19369 22.7987 1.23812 17.7068 0.673951ZM21.3513 10.5244C21.4451 11.003 21.8621 11.3334 22.3322 11.3334C22.396 11.3334 22.4599 11.3266 22.5251 11.3157C23.0671 11.2083 23.4204 10.6835 23.3144 10.141C22.7737 7.36466 20.6313 5.22329 17.8586 4.68216C17.3192 4.58835 16.7921 4.92961 16.6848 5.47345C16.5802 6.01594 16.9348 6.5421 17.4755 6.64679C19.4467 7.0302 20.9669 8.55296 21.3513 10.5244Z" fill="#E4322B"/>
</svg>
