<svg width="68" height="61" viewBox="0 0 68 61" fill="none" xmlns="http://www.w3.org/2000/svg">
<mask id="mask0_3109_15865" style="mask-type:alpha" maskUnits="userSpaceOnUse" x="0" y="0" width="68" height="61">
<rect x="0.804688" y="0.64447" width="67" height="59.5556" fill="#D9D9D9"/>
</mask>
<g mask="url(#mask0_3109_15865)">
<path d="M68.0597 55.6444C68.0597 58.0219 58.4669 59.6429 38.8867 59.6429C38.8867 59.6429 40.0476 58.6422 40.0476 56.2648C40.0476 53.8874 40.1915 44.7104 38.8867 48.3551C56.0657 48.3551 68.0597 50.8366 68.0597 55.6444Z" fill="url(#paint0_linear_3109_15865)"/>
<path d="M3.9084 24.7485L18.803 22.799L53.6282 24.4007L39.3717 27.0057L3.9084 24.7485Z" fill="#019220"/>
<path d="M18.799 22.7992L18.8062 25.5785L3.91206 24.7446" fill="#00BC29"/>
<path d="M37.8829 26.8373L3.67454 25.438L3.40453 56.2854L9.9806 56.9077L38.8824 59.6427L39.1686 26.9503L37.8829 26.8373Z" fill="#00BC29"/>
<path d="M25.79 26.3427L15.6471 25.9278L15.3728 57.4183L25.5304 58.3795L25.79 26.3427Z" fill="#E4322B"/>
<path d="M53.104 56.1979L38.8808 59.643L39.167 26.9506L53.3827 24.3571L53.104 56.1979Z" fill="#FFAA00"/>
<path d="M53.104 56.1979L38.8808 59.643L39.167 26.9506L53.3827 24.3571L53.104 56.1979Z" fill="#019220"/>
<path d="M50.3626 24.9082L44.0367 26.0513L43.754 58.4628L50.1028 56.925L50.3626 24.9082Z" fill="#E4322B"/>
<path opacity="0.1" d="M37.8884 26.8369L36.3434 26.7737C30.7472 48.1905 16.4231 54.7044 7.38503 56.6612L9.98613 56.9073L38.8879 59.6424L39.1741 26.95L37.8884 26.8369Z" fill="#AD4000"/>
<path d="M21.3972 19.7121C21.3972 19.7121 11.6172 17.8911 10.5776 14.0905C9.53811 10.29 17.5692 6.79482 17.5692 6.79482C17.5692 6.79482 17.0204 15.2109 25.9864 18.5841L21.3972 19.7121Z" fill="#E4322B"/>
<path d="M17.5655 6.7996C17.5655 6.7996 21.0225 5.27075 25.9611 18.5891C25.9611 18.5891 17.099 15.6971 17.5655 6.7996Z" fill="#BD0700"/>
<path d="M25.9414 19.7332C25.9414 19.7332 19.2326 9.92675 21.5178 4.75318C23.8029 -0.420397 33.4604 1.91662 33.4604 1.91662C33.4604 1.91662 26.0032 11.1225 30.7375 22.0641L25.9414 19.7332Z" fill="#E4322B"/>
<path d="M33.4609 1.9227C33.4609 1.9227 37.6383 2.9008 30.7197 22.0536C30.7196 22.0536 25.6728 11.7451 33.4609 1.9227Z" fill="#BD0700"/>
<path d="M31.2354 18.0626C31.2354 18.0626 32.7384 8.06259 36.484 6.79159C40.2296 5.52059 43.9568 13.4446 43.9568 13.4446C43.9568 13.4446 35.5728 13.3748 32.5011 22.6408L31.2354 18.0626Z" fill="#E4322B"/>
<path d="M43.9489 13.446C43.9489 13.446 45.5775 16.8555 32.4923 22.6204C32.4922 22.6204 35.0888 13.4872 43.9489 13.446Z" fill="#BD0700"/>
<path d="M39.2201 28.3784L39.4164 16.7743L55.0288 19.9869C55.3019 20.0431 55.4955 20.2878 55.4907 20.5709L55.3734 27.5089C55.368 27.8302 55.1108 28.091 54.7938 28.0968L39.2201 28.3784Z" fill="#11B025"/>
<path d="M2.70149 28.1329L39.2271 28.3779L39.4234 16.7738L2.82533 18.7461C2.51664 18.7627 2.27159 19.0201 2.26633 19.3332L2.12761 27.5371C2.12204 27.864 2.379 28.1308 2.70149 28.1329Z" fill="#00BC29"/>
<path d="M15.7589 18.0494L15.5869 28.2198L25.8019 28.2882L25.9844 17.4983L15.7589 18.0494Z" fill="#E4322B"/>
<path d="M50.6383 19.081L44.2939 17.7756L44.1161 28.2886L50.4847 28.1676L50.6383 19.081Z" fill="#E4322B"/>
<path opacity="0.15" d="M2.27417 18.7759L39.4218 16.7739L55.5044 20.0833L55.4985 20.4334L39.3956 18.3245L2.2657 19.2761L2.27417 18.7759Z" fill="white"/>
<path d="M50.3236 28.1737C48.4177 28.2126 44.583 28.2918 44.0236 28.2927L44.0274 31.5311L50.3273 31.2512L50.3236 28.1737Z" fill="#BD0700"/>
<path d="M25.7783 28.2832C22.7615 28.3238 16.5176 28.2684 15.6321 28.2698L15.6093 31.5083L25.7522 31.4924L25.7783 28.2832Z" fill="#BD0700"/>
</g>
<defs>
<linearGradient id="paint0_linear_3109_15865" x1="45.2664" y1="56.575" x2="70.4466" y2="53.637" gradientUnits="userSpaceOnUse">
<stop stop-color="#C4C0C0"/>
<stop offset="1" stop-color="#F4F1F1" stop-opacity="0"/>
</linearGradient>
</defs>
</svg>
