<svg width="71" height="71" viewBox="0 0 71 71" fill="none" xmlns="http://www.w3.org/2000/svg">
<circle cx="35.8047" cy="35.2" r="35" fill="#FFEEED"/>
<mask id="mask0_3114_20350" style="mask-type:alpha" maskUnits="userSpaceOnUse" x="13" y="11" width="45" height="49">
<rect x="13.8047" y="11.2" width="44" height="48" fill="#D9D9D9"/>
</mask>
<g mask="url(#mask0_3114_20350)">
<path d="M16.2868 30.6271L28.1889 29.0559L56.0174 30.3468L44.6251 32.4464L16.2868 30.6271Z" fill="#019220"/>
<path d="M28.1865 29.056L28.1923 31.2961L16.2905 30.624" fill="#00BC29"/>
<path d="M43.4373 32.3105L16.1019 31.1828L15.8861 56.0448L21.141 56.5464L44.2361 58.7508L44.4647 32.4017L43.4373 32.3105Z" fill="#00BC29"/>
<path d="M33.7732 31.912L25.6681 31.5776L25.449 56.958L33.5657 57.7327L33.7732 31.912Z" fill="#E4322B"/>
<path d="M55.5997 55.9742L44.234 58.7509L44.4627 32.4018L55.8224 30.3115L55.5997 55.9742Z" fill="#FFAA00"/>
<path d="M55.5997 55.9742L44.234 58.7509L44.4627 32.4018L55.8224 30.3115L55.5997 55.9742Z" fill="#019220"/>
<path d="M53.4096 30.7558L48.3547 31.6771L48.1288 57.7997L53.202 56.5603L53.4096 30.7558Z" fill="#E4322B"/>
<path opacity="0.1" d="M43.441 32.3103L42.2064 32.2594C37.7345 49.5206 26.2883 54.7706 19.0661 56.3478L21.1446 56.5462L44.2397 58.7505L44.4684 32.4014L43.441 32.3103Z" fill="#AD4000"/>
<path d="M30.2579 26.5679C30.2579 26.5679 22.4428 25.1002 21.6121 22.0371C20.7814 18.9739 27.199 16.1569 27.199 16.1569C27.199 16.1569 26.7604 22.94 33.9251 25.6587L30.2579 26.5679Z" fill="#E4322B"/>
<path d="M27.1976 16.1608C27.1976 16.1608 29.96 14.9286 33.9064 25.6628C33.9064 25.6628 26.8248 23.332 27.1976 16.1608Z" fill="#BD0700"/>
<path d="M33.8892 26.5851C33.8892 26.5851 28.5282 18.6814 30.3543 14.5116C32.1803 10.3419 39.8975 12.2254 39.8975 12.2254C39.8975 12.2254 33.9386 19.6451 37.7217 28.4637L33.8892 26.5851Z" fill="#E4322B"/>
<path d="M39.8954 12.2302C39.8954 12.2302 43.2334 13.0185 37.7049 28.455C37.7048 28.4551 33.6719 20.1467 39.8954 12.2302Z" fill="#BD0700"/>
<path d="M38.126 25.2385C38.126 25.2385 39.327 17.1788 42.3201 16.1544C45.3132 15.13 48.2916 21.5165 48.2916 21.5165C48.2916 21.5165 41.592 21.4602 39.1375 28.9283L38.126 25.2385Z" fill="#E4322B"/>
<path d="M48.2882 21.5177C48.2882 21.5177 49.5896 24.2656 39.1334 28.912C39.1333 28.9119 41.2083 21.5509 48.2882 21.5177Z" fill="#BD0700"/>
<path d="M44.5046 33.5527L44.6614 24.2002L57.1372 26.7894C57.3554 26.8347 57.5101 27.032 57.5063 27.2601L57.4126 32.852C57.4082 33.1109 57.2027 33.3211 56.9493 33.3258L44.5046 33.5527Z" fill="#11B025"/>
<path d="M15.3216 33.3549L44.5089 33.5523L44.6657 24.1998L15.4206 25.7894C15.1739 25.8028 14.9781 26.0102 14.9739 26.2626L14.863 32.8747C14.8586 33.1382 15.0639 33.3532 15.3216 33.3549Z" fill="#00BC29"/>
<path d="M25.7557 25.2279L25.6183 33.4249L33.781 33.4801L33.9268 24.7837L25.7557 25.2279Z" fill="#E4322B"/>
<path d="M53.6251 26.0593L48.5553 25.0071L48.4133 33.4803L53.5024 33.3828L53.6251 26.0593Z" fill="#E4322B"/>
<path opacity="0.15" d="M14.9796 25.8134L44.6638 24.1999L57.5153 26.8671L57.5105 27.1493L44.6429 25.4496L14.9728 26.2165L14.9796 25.8134Z" fill="white"/>
<path d="M53.3742 33.3877C51.8513 33.419 48.787 33.4829 48.3399 33.4836L48.343 36.0936L53.3772 35.8681L53.3742 33.3877Z" fill="#BD0700"/>
<path d="M33.7618 33.4761C31.3511 33.5087 26.3617 33.4641 25.6541 33.4652L25.6359 36.0753L33.7409 36.0625L33.7618 33.4761Z" fill="#BD0700"/>
</g>
</svg>
