<svg width="204" height="590" viewBox="0 0 204 590" fill="none" xmlns="http://www.w3.org/2000/svg">
<path d="M97.9648 329.389C97.9648 329.389 93.1041 392.412 93.546 442.397C94.0321 482.438 128.896 574.542 128.896 574.542H136.099C136.099 574.542 129.471 498.128 124.257 454.816C119.838 418.045 135.922 351.84 135.922 351.84C135.922 351.84 136.232 524.203 133.58 574.851H141.844C141.844 574.851 157.972 546.08 164.203 497.686C166.059 483.145 162.656 457.91 164.203 442.397C168.622 397.096 180.906 350.912 175.824 323.069" fill="#1C1414"/>
<path d="M129.163 574.542C129.163 574.542 109.985 580.597 114.316 582.453C118.646 584.309 136.808 575.072 136.808 575.072L129.163 574.542Z" fill="#272E33"/>
<path d="M133.317 574.851C133.317 574.851 139.989 590.143 143.966 589.48C147.943 588.817 141.757 574.851 141.757 574.851H133.317Z" fill="#272E33"/>
<path d="M133.405 574.851C133.405 574.851 133.405 574.63 133.405 574.277L132.786 572.553C132.477 571.846 132.123 570.918 131.726 569.813L131.018 568.089L130.267 566.101C128.19 560.399 125.23 552.179 122.269 541.793C118.806 529.64 116.091 517.286 114.139 504.801C113.034 497.774 112.15 490.349 111.399 482.704C110.648 475.058 110.25 466.926 109.941 458.705C109.411 442.265 109.941 426.531 110.206 412.3C110.471 398.069 111.266 385.164 111.664 374.38C112.062 363.596 112.283 354.846 112.327 348.791C112.327 345.786 112.327 343.399 112.327 341.852C112.327 341.057 112.327 340.438 112.327 340.04C112.327 339.642 112.327 339.421 112.327 339.421C112.327 339.421 112.327 339.421 112.327 340.04C112.327 340.659 112.327 341.057 112.327 341.808C112.327 343.399 112.327 345.786 112.327 348.791C112.327 354.802 111.885 363.552 111.399 374.336C110.913 385.12 110.25 397.981 109.72 412.256C109.19 426.531 108.836 442.265 109.411 458.749C109.676 467.014 110.162 475.058 110.869 482.792C111.576 490.526 112.548 497.995 113.697 504.89C115.675 517.399 118.449 529.77 122.004 541.926C125.053 552.312 128.102 560.532 130.312 566.145C130.577 566.852 130.842 567.515 131.107 568.134L131.814 569.901L132.963 572.597C133.272 573.304 133.493 573.879 133.67 574.233L133.405 574.851Z" fill="#030000"/>
<path d="M139.326 574.542C139.338 574.336 139.338 574.129 139.326 573.923C139.326 573.525 139.326 572.907 139.635 572.111C139.635 570.476 140.21 568.089 140.607 565.04C141.447 558.897 142.684 550.013 144.098 539.009C144.805 533.528 145.601 527.518 146.396 521.021C147.191 514.524 147.987 507.762 148.87 500.382C150.55 485.797 152.229 469.798 153.687 452.96C155.145 436.121 156.117 419.99 156.736 405.361C156.736 401.693 156.736 398.113 157.089 394.622C157.089 393.782 157.089 392.898 157.089 392.058C157.089 391.219 157.089 390.335 157.089 389.495C157.089 387.816 157.089 386.18 157.089 384.545C157.089 382.91 157.089 381.319 157.089 379.728C157.089 378.137 157.089 376.634 157.089 375.087C157.089 372.082 157.089 369.165 157.089 366.248C157.089 360.679 157.089 355.685 156.78 351.266C156.78 349.056 156.78 346.846 156.78 345.123C156.78 343.399 156.559 341.543 156.515 339.996C156.515 336.902 156.161 334.516 156.073 332.881C156.073 332.056 156.073 331.437 156.073 331.024C156.093 330.804 156.093 330.582 156.073 330.361C156.073 330.361 156.073 330.361 156.073 331.024C156.073 331.687 156.073 332.041 156.073 332.881C156.073 334.516 156.073 336.902 156.338 339.996C156.338 341.543 156.338 343.266 156.338 345.167C156.338 347.067 156.338 349.1 156.338 351.266C156.338 355.685 156.559 360.679 156.338 366.248V375.087C156.338 376.634 156.338 378.137 156.338 379.728C156.338 381.319 156.338 382.91 156.338 384.545C156.338 386.18 156.338 387.816 156.338 389.495V392.014C156.338 392.898 156.338 393.738 156.338 394.622C156.338 398.069 156.073 401.649 155.94 405.317C155.278 419.946 154.261 436.254 152.847 452.872C151.433 469.489 149.71 485.709 148.075 500.293C147.236 507.542 146.484 514.48 145.689 520.933C144.893 527.385 144.186 533.44 143.524 538.92C142.154 549.925 141.093 558.853 140.342 564.996C139.944 568.045 139.679 570.432 139.503 572.067C139.503 572.907 139.503 573.525 139.503 573.923C139.503 574.321 139.281 574.542 139.326 574.542Z" fill="#030000"/>
<path d="M128.278 574.851H141.756L143.744 571.139H135.349H127.837L128.278 574.851Z" fill="#494441"/>
<path d="M175.472 160.606L155.366 157.468L113.078 157.954L101.766 159.943L127.483 261.151L159.122 257.35L175.472 160.606Z" fill="#E0E0E0"/>
<path d="M151.522 138.066V157.203C148.814 161.029 144.767 163.698 140.183 164.68C135.6 165.662 130.815 164.887 126.777 162.506L118.514 156.673V136.563L151.522 138.066Z" fill="#FCCAB1"/>
<path d="M156.515 157.115L155.896 150.22L137.824 158.838L138.708 168.871L156.515 157.115Z" fill="#EAEAEA"/>
<path d="M137.824 158.838L135.04 165.291L138.442 166.219L137.824 158.838Z" fill="#CECECE"/>
<path d="M135.039 165.291L132.785 158.838L130.311 166.705L135.039 165.291Z" fill="#CECECE"/>
<path d="M116.082 150.662C116.082 150.927 132.786 158.794 132.786 158.794L130.311 168.34L113.078 157.91L116.082 150.662Z" fill="#EAEAEA"/>
<path d="M187.801 166.086L186.431 162.506L160.271 158.087L138.443 248.158L137.25 324.13L145.601 348.526L184.708 336.195L173.528 298.054L181.526 220.977" fill="#808080"/>
<path d="M89.7471 205.686C90.4102 190.93 88.3737 176.177 83.7375 162.153L113.078 157.733L138.442 247.804V326.737L133.316 344.415L86.919 323.069C86.919 323.069 100.75 258.322 100.75 256.599C100.75 254.875 89.7471 205.686 89.7471 205.686Z" fill="#808080"/>
<path d="M186.077 166.219C185.863 166.876 185.744 167.561 185.723 168.252C185.723 169.622 185.414 171.522 185.148 173.909C184.662 178.682 183.911 185.223 183.072 192.471C182.232 199.719 181.525 206.348 181.216 211.121C181.216 213.508 180.951 215.541 180.906 216.778C180.802 217.482 180.802 218.197 180.906 218.9C181.051 218.214 181.154 217.521 181.216 216.823C181.216 215.497 181.525 213.552 181.79 211.166C182.276 206.437 183.027 199.852 183.911 192.603C184.795 185.355 185.414 178.726 185.723 173.953C185.723 171.566 186.032 169.533 186.032 168.296C186.105 167.606 186.12 166.911 186.077 166.219Z" fill="#666666"/>
<path d="M165.308 158.794C164.733 158.794 160.27 209.84 160.27 209.84L151.432 220.579L152.846 227.518L138.353 254.035V248.025L160.182 157.954L165.308 158.794Z" fill="#666666"/>
<path d="M138.354 253.107L123.86 223.629L125.893 218.06L116.348 208.514L109.234 158.573L113.078 157.954L138.442 247.98L138.354 253.107Z" fill="#666666"/>
<path d="M137.78 323.909C137.982 323.009 138.086 322.091 138.089 321.169C138.089 319.357 138.354 316.749 138.531 313.611C138.84 307.203 139.105 298.408 139.194 288.641C139.282 278.873 139.194 270.079 138.884 263.67C138.884 260.488 138.884 257.925 138.531 256.113C138.594 255.201 138.594 254.285 138.531 253.373C138.436 254.283 138.436 255.202 138.531 256.113V263.714C138.531 270.079 138.531 278.873 138.531 288.641C138.531 298.408 138.531 307.203 138.133 313.567C138.133 316.749 138.133 319.357 138.133 321.124C137.938 322.041 137.82 322.972 137.78 323.909Z" fill="#666666"/>
<path d="M132.035 274.012C132.035 274.305 132.151 274.586 132.358 274.793C132.565 275 132.846 275.117 133.139 275.117C133.432 275.117 133.713 275 133.92 274.793C134.128 274.586 134.244 274.305 134.244 274.012C134.244 273.719 134.128 273.438 133.92 273.231C133.713 273.023 133.432 272.907 133.139 272.907C132.846 272.907 132.565 273.023 132.358 273.231C132.151 273.438 132.035 273.719 132.035 274.012Z" fill="#666666"/>
<path d="M132.035 288.641C132.035 288.934 132.151 289.215 132.358 289.422C132.565 289.629 132.846 289.745 133.139 289.745C133.432 289.745 133.713 289.629 133.92 289.422C134.128 289.215 134.244 288.934 134.244 288.641C134.244 288.347 134.128 288.066 133.92 287.859C133.713 287.652 133.432 287.536 133.139 287.536C132.846 287.536 132.565 287.652 132.358 287.859C132.151 288.066 132.035 288.347 132.035 288.641Z" fill="#666666"/>
<path d="M113.299 303.402L95.3584 300.176L92.2651 306.319L111.796 310.473L113.299 303.402Z" fill="#666666"/>
<path d="M175.03 304.065L160.802 307.335L162.039 313.788L177.77 310.473L175.03 304.065Z" fill="#666666"/>
<path d="M83.4902 162.345C83.4902 162.345 54.2634 244.931 79.4507 266.72C80.8387 267.94 82.5743 268.694 84.4133 268.877C86.2522 269.059 88.1019 268.66 89.7024 267.736L173.925 245.904L160.669 235.473C160.669 235.473 99.3797 244.931 94.9608 237.948C88.0233 226.855 114.422 171.052 83.4902 162.345Z" fill="#808080"/>
<path d="M138.751 238.346H137.559L134.156 238.744C131.24 239.098 126.953 239.628 121.695 240.026C119.044 240.026 116.127 240.379 112.857 240.423C109.553 240.526 106.245 240.393 102.959 240.026C101.213 239.833 99.4943 239.448 97.8334 238.877C96.991 238.614 96.1991 238.21 95.4913 237.683C95.1633 237.408 94.8668 237.096 94.6075 236.755C94.415 236.391 94.2667 236.005 94.1657 235.606V235.297C94.1441 235.18 94.1441 235.06 94.1657 234.943V232.778C94.1657 231.805 94.1657 230.833 94.1657 229.861C94.1657 227.916 94.1658 225.927 94.5193 223.894C94.7402 221.066 95.0493 218.237 95.4028 215.541C95.6091 214.186 95.8301 212.86 96.0658 211.564C96.3309 210.238 96.596 208.956 96.9054 207.763C97.9007 202.187 98.4621 196.543 98.5845 190.88C98.7308 186.366 98.0109 181.865 96.4636 177.621C95.845 175.854 95.182 174.263 94.6517 172.937C94.1215 171.611 94.1215 171.611 93.8564 171.036L93.2377 169.445C92.84 168.517 92.5748 167.766 92.3981 167.28C92.2213 166.794 92.089 166.528 92.0448 166.528C92.0271 166.793 92.0271 167.059 92.0448 167.324C92.0448 167.81 92.3982 168.561 92.7517 169.534L93.3261 171.169L94.033 173.069C94.5633 174.439 95.182 176.03 95.7564 177.798C97.1732 181.993 97.817 186.411 97.6565 190.836C97.6082 196.488 97.1653 202.129 96.3309 207.719C95.9788 208.984 95.6985 210.267 95.4913 211.564C95.2262 212.89 95.0051 214.215 94.8284 215.586C94.4307 218.326 94.1215 221.154 93.9006 224.027C93.9006 226.016 93.6354 228.049 93.547 229.993C93.547 231.01 93.547 231.982 93.547 232.954V235.518C93.5256 235.65 93.5256 235.784 93.547 235.916C93.645 236.447 93.8397 236.957 94.1215 237.418C94.4166 237.838 94.7742 238.211 95.182 238.523C95.9669 239.099 96.8299 239.56 97.7449 239.893C99.4828 240.459 101.275 240.845 103.092 241.042C106.424 241.383 109.776 241.486 113.122 241.352C116.216 241.352 119.132 241.042 121.96 240.821C127.263 240.335 131.505 239.761 134.421 239.274L137.824 238.7L138.751 238.346Z" fill="#666666"/>
<path d="M161.995 94.843C163.586 95.3734 172.202 97.2297 169.286 108.455C166.37 119.681 158.813 117.029 158.813 117.029L161.995 94.843Z" fill="#EAB69B"/>
<path d="M161.596 112.831C161.596 112.831 161.817 112.831 162.215 112.831C162.755 112.735 163.277 112.556 163.762 112.3C164.483 111.884 165.113 111.328 165.618 110.665C165.903 110.26 166.155 109.831 166.369 109.383C166.568 108.899 166.716 108.396 166.811 107.881C166.939 106.854 166.833 105.811 166.501 104.831C166.237 104.048 165.816 103.326 165.264 102.71C164.899 102.299 164.466 101.955 163.983 101.693C163.629 101.693 163.452 101.693 163.408 101.693C163.364 101.693 164.071 102.268 164.778 103.284C165.191 103.894 165.504 104.565 165.706 105.273C165.908 106.146 165.908 107.053 165.706 107.925C165.62 108.365 165.487 108.795 165.308 109.207C165.171 109.614 164.978 110.001 164.734 110.356C164.299 110.959 163.778 111.495 163.187 111.947C162.392 112.521 161.552 112.698 161.596 112.831Z" fill="#D68772"/>
<path d="M160.801 107.748C160.801 107.748 161.155 107.439 161.641 107.085C162.23 106.62 162.968 106.384 163.718 106.422C164.218 106.483 164.7 106.649 165.132 106.908C165.432 107.152 165.713 107.418 165.972 107.704L166.369 107.483C166.104 107.188 165.927 107.056 165.839 107.085C165.839 107.085 165.839 107.35 165.839 107.748L166.281 107.483C166.07 106.949 165.714 106.484 165.253 106.14C164.793 105.797 164.246 105.589 163.674 105.539C163.125 105.498 162.576 105.605 162.083 105.848C161.686 106.028 161.337 106.301 161.067 106.643C160.757 107.218 160.713 107.704 160.801 107.748Z" fill="#D68772"/>
<path d="M104.859 93.1636C103.268 93.6939 94.6075 95.5502 97.5239 106.776C100.44 118.002 107.997 115.35 107.997 115.35L104.859 93.1636Z" fill="#EAB69B"/>
<path d="M105.168 111.195C105.168 111.195 104.373 110.886 103.312 110.135C102.716 109.704 102.206 109.164 101.81 108.544C101.568 108.196 101.361 107.826 101.191 107.439C101.005 107.018 100.886 106.571 100.838 106.113C100.658 105.238 100.658 104.336 100.838 103.461C101.03 102.763 101.344 102.105 101.765 101.517C102.517 100.456 103.224 100.014 103.135 99.8814C103.047 99.7489 102.914 99.8814 102.561 99.8814C102.076 100.159 101.643 100.517 101.279 100.942C100.719 101.552 100.297 102.275 100.042 103.063C99.5145 104.489 99.5145 106.057 100.042 107.483C100.223 107.934 100.477 108.352 100.793 108.72C101.297 109.383 101.928 109.939 102.649 110.356C103.122 110.638 103.649 110.818 104.196 110.886C105.168 111.284 105.168 111.24 105.168 111.195Z" fill="#D68772"/>
<path d="M106.008 106.069C106.008 106.069 106.008 105.538 105.61 104.964C105.337 104.624 104.989 104.352 104.594 104.168C104.102 103.921 103.552 103.814 103.003 103.859C102.347 103.939 101.731 104.217 101.235 104.654C100.874 104.961 100.599 105.357 100.44 105.804L100.749 106.069C100.749 105.715 100.97 105.45 100.749 105.406C100.528 105.362 100.44 105.406 100.175 105.804L100.617 106.069C100.841 105.75 101.126 105.48 101.456 105.273C101.855 104.973 102.329 104.789 102.826 104.743C103.577 104.696 104.318 104.933 104.903 105.406C105.654 105.804 105.875 106.069 106.008 106.069Z" fill="#D68772"/>
<path d="M112.459 140.63C121.297 149.734 152.891 143.237 157.265 139.171C161.64 135.105 164.071 82.9543 164.071 82.9543C165.838 55.995 150.416 54.3156 135.613 50.5148C120.81 46.7139 104.903 55.2879 103.444 77.5183C103.444 77.5183 105.433 133.249 112.459 140.63Z" fill="#FCCAB1"/>
<path d="M161.729 115.615C139.9 116.234 120.457 114.554 105.124 109.074C105.124 109.074 107.907 131.967 108.703 134.442C110.426 139.967 111.221 147.038 134.597 144.961C157.972 142.884 157.442 141.027 159.387 135.768C160.63 129.112 161.412 122.379 161.729 115.615Z" fill="#4C3737"/>
<path d="M128.278 108.058C128.633 108.457 129.033 108.813 129.471 109.118C130.606 109.972 131.802 110.74 133.05 111.416C133.911 111.906 134.813 112.321 135.746 112.654L136.586 112.875H136.983H137.469C137.644 112.915 137.825 112.915 138 112.875C138.117 112.849 138.226 112.795 138.318 112.718C138.411 112.641 138.483 112.544 138.53 112.433C138.694 112.118 138.785 111.771 138.795 111.416C138.79 110.777 138.716 110.14 138.574 109.516C138.574 108.897 138.309 108.278 138.132 107.66C137.779 106.378 137.381 105.096 136.895 103.815C136.011 101.251 135.039 98.8206 134.111 96.655C133.905 96.0952 133.684 95.565 133.448 95.0641V94.6663V93.8266C133.528 92.8625 133.661 91.9034 133.846 90.9538C134.24 89.0701 134.535 87.1672 134.73 85.2527C134.492 85.7143 134.313 86.2043 134.199 86.7111C133.934 87.6834 133.581 89.0976 133.227 90.8212C133.227 91.7051 132.829 92.6774 132.697 93.7381V94.8873C132.693 94.9609 132.693 95.0346 132.697 95.1082V95.5059C132.697 96.0363 133.095 96.5667 133.316 97.1413C134.155 99.3068 135.127 101.561 136.011 104.301C136.497 105.583 136.895 106.82 137.248 108.058C137.602 109.295 137.558 109.251 137.69 109.869C137.755 110.442 137.755 111.02 137.69 111.593C137.718 111.798 137.718 112.007 137.69 112.212H137.028H136.63C136.381 112.252 136.127 112.252 135.879 112.212C134.969 111.927 134.082 111.573 133.227 111.151C131.681 110.356 130.443 109.604 129.56 109.074C129.188 108.67 128.756 108.327 128.278 108.058Z" fill="#E2A893"/>
<path d="M161.686 99.8814C161.686 99.8814 165.751 68.2374 158.239 60.1054C158.239 60.1054 122.182 71.1101 116.04 66.5579C109.897 62.0058 109.367 59.5751 109.367 59.5751C109.367 59.5751 106.716 73.6293 105.258 79.0653C104.478 84.3401 104.478 89.7009 105.258 94.9756L102.827 93.9592C102.827 93.9592 100.485 57.7188 103.313 56.0394C106.141 54.36 119.575 40.7477 132.301 44.6811C145.027 48.6145 166.9 59.2214 167.033 66.7789C167.165 74.3363 163.012 100.191 163.012 100.191L161.686 99.8814Z" fill="#4C3737"/>
<path d="M139.325 47.1117C139.325 47.1117 117.894 35.8861 113.122 39.8636C111.685 41.3184 110.621 43.099 110.021 45.0536C109.421 47.0082 109.302 49.0789 109.675 51.0893C108.91 50.5155 107.98 50.2053 107.024 50.2053C106.068 50.2053 105.137 50.5155 104.372 51.0893C101.854 53.0781 102.119 61.2542 102.119 61.2542L117.629 55.9508L139.325 47.1117Z" fill="#4C3737"/>
<path d="M158.195 60.0168C158.195 60.0168 167.651 66.6463 167.032 71.4636L166.149 78.1371L162.437 73.7175C161.64 68.9818 160.214 64.374 158.195 60.0168Z" fill="#331E1E"/>
<path d="M143.833 63.9061C109.543 55.067 118.955 39.2893 118.955 39.2893L125.892 41.1897C118.115 54.4483 153.996 61.2544 153.996 61.2544L143.833 63.9061Z" fill="#331E1E"/>
<path d="M126.555 67.2651C126.555 67.2651 110.028 58.426 109.675 51.0895C109.675 51.0895 107.686 49.4985 106.007 50.294C106.007 50.294 104.991 59.6193 121.031 67.5745L126.555 67.2651Z" fill="#331E1E"/>
<path d="M108.616 63.2432C108.616 63.2432 102.296 63.6409 102.12 65.1878V72.0823L107.909 67.6627L108.616 63.2432Z" fill="#331E1E"/>
<path d="M126.997 75.9717L109.278 77.6511L108.571 73.5851L126.864 69.0771L126.997 75.9717Z" fill="#4C3737"/>
<path d="M123.726 76.2811L125.096 69.519L120.987 70.5355L119.573 76.6788L123.726 76.2811Z" fill="#331E1E"/>
<path d="M116.613 76.9439L117.231 71.4636L116.215 71.6845L114.801 77.1207L116.613 76.9439Z" fill="#331E1E"/>
<path d="M157.133 83.5732C157.133 83.5732 138.53 83.2639 138.441 82.9103C138.353 82.5568 138.441 75.7949 138.441 75.7949L157.133 79.6841V83.5732Z" fill="#4C3737"/>
<path d="M140.077 76.1484L141.579 83.0428L144.938 83.308L142.949 76.7229L140.077 76.1484Z" fill="#331E1E"/>
<path d="M148.34 83.3965L147.058 77.6069L148.737 78.3141L149.577 81.8496L150.063 78.3583L152.14 78.6235L151.698 83.3965H148.34Z" fill="#331E1E"/>
<path d="M119.529 117.073C122.139 118.095 124.81 118.951 127.527 119.637C130.074 120.825 132.702 121.83 135.393 122.642C135.393 122.421 134.862 121.714 133.581 120.786C132.845 120.231 132.062 119.743 131.239 119.327C130.24 118.801 129.207 118.344 128.146 117.957C127.081 117.577 125.988 117.281 124.876 117.073C123.958 116.885 123.028 116.767 122.092 116.72C120.546 116.631 119.573 116.808 119.529 117.073Z" fill="#D68772"/>
<path d="M64.9902 85.3452C64.9902 86.8285 65.5476 88.2786 66.5914 89.512C67.6353 90.7454 69.119 91.7066 70.8549 92.2743C72.5907 92.8419 74.5006 92.9905 76.3434 92.7011C78.1861 92.4117 79.8789 91.6975 81.2074 90.6486C82.536 89.5997 83.4412 88.2633 83.8077 86.8084C84.1743 85.3536 83.9861 83.8456 83.267 82.4751C82.548 81.1047 81.33 79.9333 79.7678 79.1092C78.2055 78.285 76.3693 77.8452 74.4904 77.8452C71.9709 77.8452 69.5544 78.6354 67.7729 80.0419C65.9913 81.4484 64.9902 83.356 64.9902 85.3452Z" fill="#E0E0E0"/>
<path d="M83.9902 100.345C83.9902 101.037 84.2249 101.714 84.6644 102.29C85.1039 102.865 85.7287 103.314 86.4596 103.579C87.1904 103.844 87.9946 103.913 88.7705 103.778C89.5464 103.643 90.2591 103.31 90.8185 102.82C91.3779 102.331 91.759 101.707 91.9134 101.028C92.0677 100.349 91.9885 99.6454 91.6857 99.0058C91.383 98.3663 90.8701 97.8196 90.2124 97.4351C89.5546 97.0505 88.7814 96.8452 87.9903 96.8452C86.9295 96.8452 85.912 97.214 85.1619 97.8703C84.4117 98.5267 83.9902 99.4169 83.9902 100.345Z" fill="#E0E0E0"/>
<path d="M66.1056 27.7099C68.1365 27.5326 70.1815 27.8095 72.0922 28.5204C74.0029 29.2313 75.7314 30.3585 77.1526 31.8202C80.475 34.7759 82.6759 38.7878 83.3833 43.1784C83.6741 45.3836 83.4239 47.6265 82.654 49.7132C81.8841 51.7999 80.6178 53.6678 78.9645 55.1555C77.3029 56.6029 75.2332 57.4992 73.041 57.7208C70.8488 57.9424 68.6418 57.4785 66.7243 56.393C67.8554 59.1782 68.1305 62.2374 67.5142 65.1798C66.898 68.1221 65.4184 70.8138 63.2648 72.9109C61.1112 75.0079 58.3813 76.4151 55.424 76.9524C52.4667 77.4897 49.4164 77.1328 46.6629 75.9274C43.9791 74.6666 41.7171 72.6567 40.1491 70.1396C38.5811 67.6226 37.7741 64.7058 37.8253 61.7406C33.0192 64.5791 27.4192 65.7737 21.8734 65.1436C19.1123 64.788 16.4939 63.71 14.2826 62.0183C12.0714 60.3266 10.3456 58.0812 9.27966 55.509C8.33824 52.8982 8.36952 50.0354 9.36784 47.4458C10.3662 44.8562 12.2648 42.7135 14.715 41.4106C10.8527 41.3545 7.16221 39.8041 4.41853 37.0846C1.67484 34.3652 0.0912628 30.6884 0.000244141 26.8261C0.145699 22.9369 1.50111 19.1901 3.87749 16.1082C6.25388 13.0263 9.53273 10.7629 13.2567 9.63396C16.9946 8.52922 20.9389 8.31363 24.7749 9.00423C28.611 9.69484 32.2326 11.2725 35.3508 13.6115C35.1048 11.3658 35.5586 9.09906 36.6502 7.12125C37.7418 5.14344 39.4178 3.55123 41.4488 2.56264C45.4048 0.265702 50.0578 -0.522962 54.5496 0.341932C59.0414 1.20683 63.0692 3.66703 65.8898 7.2688C68.7105 10.8706 70.1338 15.371 69.8973 19.94C69.6609 24.5089 67.7807 28.8382 64.6033 32.1295" fill="#E0E0E0"/>
<path d="M40.6815 47.3091V44.6626C40.6815 42.9981 40.8842 41.6166 41.2898 40.518C41.7291 39.3862 42.2698 38.4208 42.9119 37.6218C43.5878 36.8229 44.2637 36.1071 44.9395 35.4746C45.852 34.6424 46.663 33.8268 47.3727 33.0279C48.0824 32.1956 48.4372 31.1137 48.4372 29.7821C48.4372 28.7169 48.0486 27.8846 47.2713 27.2854C46.5279 26.6529 45.7675 26.3367 44.9902 26.3367C44.0102 26.3367 43.1822 26.5697 42.5064 27.0358C41.8643 27.4685 41.3236 28.0344 40.8842 28.7335C40.4787 29.4326 40.1239 30.165 39.8197 30.9306L33.9902 28.2342C34.193 27.635 34.5478 26.8693 35.0548 25.9372C35.5617 25.0051 36.2713 24.073 37.1838 23.1409C38.13 22.2088 39.2959 21.4265 40.6815 20.794C42.1008 20.1615 43.7905 19.8452 45.7506 19.8452C47.6769 19.8452 49.4004 20.1781 50.9211 20.8439C52.4756 21.4764 53.7091 22.4751 54.6216 23.84C55.534 25.1715 55.9902 26.9359 55.9902 29.133C55.9902 30.9639 55.7368 32.4453 55.2299 33.5771C54.723 34.709 54.0978 35.6744 53.3543 36.4733C52.6108 37.239 51.8673 38.0047 51.1239 38.7703C50.2452 39.6358 49.468 40.6345 48.7921 41.7664C48.1162 42.8649 47.7783 44.363 47.7783 46.2605V47.3091H40.6815ZM44.2299 57.8452C43.0133 57.8452 42.0163 57.529 41.2391 56.8965C40.4618 56.2307 40.0732 55.3651 40.0732 54.2999C40.0732 53.2679 40.4618 52.4024 41.2391 51.7033C42.0501 51.0042 43.0471 50.6547 44.2299 50.6547C45.4127 50.6547 46.3758 51.0042 47.1193 51.7033C47.8965 52.4024 48.2852 53.2679 48.2852 54.2999C48.2852 55.3651 47.9134 56.2307 47.17 56.8965C46.4265 57.529 45.4465 57.8452 44.2299 57.8452Z" fill="#E4322B"/>
<path d="M126.334 94.3896C126.334 94.3896 123.904 85.0201 117.144 85.904C110.383 86.788 109.808 95.0083 109.808 95.0083L126.334 94.3896Z" fill="#EFA98E"/>
<path d="M126.334 94.3896C125.934 92.5708 124.912 90.9486 123.444 89.8029C121.975 88.6572 120.154 88.0598 118.292 88.1137C116.292 88.0783 114.344 88.7507 112.792 90.0122C111.24 91.2737 110.183 93.0432 109.808 95.0083C109.808 95.0083 122.534 94.6106 126.334 94.3896Z" fill="#ECE9DE"/>
<path fill-rule="evenodd" clip-rule="evenodd" d="M113.629 89.4127C113.339 89.5946 113.06 89.7947 112.792 90.0123C111.24 91.2738 110.183 93.0433 109.808 95.0084C109.808 95.0084 113.755 94.885 117.909 94.7376C117.848 93.5294 117.363 89.6749 113.646 89.4139C113.64 89.4135 113.634 89.4131 113.629 89.4127Z" fill="#70924F"/>
<path d="M109.587 95.0082C109.587 95.0082 110.029 93.7708 111.134 92.0471C111.774 91.0683 112.618 90.2391 113.608 89.6162C114.804 88.8414 116.205 88.4414 117.629 88.4672C119.057 88.476 120.458 88.8568 121.695 89.5721C122.715 90.146 123.615 90.9112 124.346 91.826C125.583 93.4613 125.937 94.7431 126.113 94.6547C126.29 94.5663 126.113 94.3452 126.113 93.7707C125.85 92.9587 125.478 92.1857 125.009 91.4725C124.286 90.4228 123.353 89.5348 122.269 88.865C120.943 88.0367 119.413 87.5929 117.85 87.5833C116.278 87.5708 114.738 88.0328 113.431 88.9091C112.351 89.6186 111.468 90.5922 110.869 91.7377C110.116 92.6703 109.668 93.8122 109.587 95.0082Z" fill="#443949"/>
<path d="M154.99 94.3896C154.99 94.3896 152.56 85.0201 145.799 85.904C139.038 86.788 138.464 95.0083 138.464 95.0083L154.99 94.3896Z" fill="#EFA98E"/>
<path d="M154.99 94.3896C154.59 92.5708 153.567 90.9486 152.099 89.8029C150.631 88.6572 148.809 88.0598 146.948 88.1137C144.948 88.0783 143 88.7507 141.448 90.0122C139.896 91.2737 138.839 93.0432 138.464 95.0083C138.464 95.0083 151.19 94.6106 154.99 94.3896Z" fill="#ECE9DE"/>
<path fill-rule="evenodd" clip-rule="evenodd" d="M142.284 89.4127C141.995 89.5946 141.715 89.7947 141.448 90.0123C139.895 91.2738 138.838 93.0433 138.464 95.0084C138.464 95.0084 142.41 94.885 146.564 94.7376C146.504 93.5294 146.018 89.6749 142.301 89.4139C142.296 89.4135 142.29 89.4131 142.284 89.4127Z" fill="#70924F"/>
<path d="M138.243 95.0082C138.243 95.0082 138.685 93.7708 139.789 92.0471C140.43 91.0683 141.274 90.2391 142.264 89.6162C143.46 88.8414 144.86 88.4414 146.285 88.4672C147.713 88.476 149.114 88.8568 150.35 89.5721C151.371 90.146 152.271 90.9112 153.002 91.826C154.239 93.4613 154.592 94.7431 154.769 94.6547C154.946 94.5663 154.769 94.3452 154.769 93.7707C154.505 92.9587 154.134 92.1857 153.664 91.4725C152.942 90.4228 152.009 89.5348 150.925 88.865C149.599 88.0367 148.069 87.5929 146.506 87.5833C144.933 87.5708 143.393 88.0328 142.087 88.9091C141.006 89.6186 140.124 90.5922 139.524 91.7377C138.771 92.6703 138.324 93.8122 138.243 95.0082Z" fill="#443949"/>
<path d="M171.95 210.845C171.95 210.845 159.847 220.391 163.328 225.847L173.063 226.394C173.063 226.394 177.242 220.909 171.95 210.845Z" fill="#BA9378"/>
<path d="M190.49 162.845L203.253 232.868C204.416 237.453 204.199 242.3 202.631 246.752C202.631 246.752 199.49 262.204 196.615 263.845C190.951 267.078 180.054 261.699 180.054 261.699L165.463 232.02L179.49 161.345L190.49 162.845Z" fill="#808080"/>
<path d="M146.546 137.808C146.262 138.04 143.468 137.021 140.213 135.834C136.263 134.394 131.635 132.707 129.99 132.707C126.99 132.707 123.49 133.04 122.49 133.707L112.49 140.53L112.905 140.981C113.579 141.692 114.389 142.247 115.283 142.607C116.177 142.968 117.134 143.126 118.091 143.073L121.912 142.242C121.912 142.242 121.378 144.389 122.99 145.707C124.816 147.199 125.858 147.304 129.49 147.346C133.123 147.388 135.725 148.789 135.725 148.789L146.219 153.873L149.555 161.176L152.99 159.207L157.99 156.207L152.593 149.627C152.195 148.07 151.611 142.91 151.732 141.432C151.822 140.717 151.982 140.022 152.142 139.326C152.354 138.409 152.565 137.492 152.614 136.528C152.614 136.143 152.666 135.76 152.77 135.392C152.977 134.978 153.258 134.611 153.599 134.31L155.881 132.038C156.161 131.819 156.362 131.507 156.452 131.154C156.477 130.943 156.442 130.729 156.349 130.539C156.257 130.35 156.112 130.193 155.933 130.09C155.571 129.895 155.163 129.814 154.758 129.856C153.509 129.999 152.347 130.592 151.473 131.533C150.529 132.481 149.757 133.587 148.983 134.695C148.227 135.778 147.469 136.863 146.546 137.808Z" fill="#EAB69B"/>
<path d="M158.98 154.107L192.949 217.919C195.958 223.563 197.008 230.116 195.923 236.473L192.794 254.973L180.053 261.663L170.804 258.652C168.347 257.854 166.122 256.421 164.339 254.485C162.555 252.549 161.271 250.174 160.605 247.581L157.925 237.159L148.054 160.778L158.98 154.107Z" fill="#808080"/>
<path d="M155.99 218.5L160.558 247.892C161.244 250.564 162.568 253.013 164.408 255.011C166.249 257.009 168.546 258.49 171.087 259.314L180.645 261.845L177.49 260.845L171.396 258.363C169.022 257.593 166.87 256.207 165.144 254.333C163.417 252.459 162.172 250.158 161.526 247.643L159.99 240L155.99 218.5Z" fill="#666666"/>
<path fill-rule="evenodd" clip-rule="evenodd" d="M196.416 236.558C197.519 230.092 196.452 223.426 193.39 217.684L190.49 213.345C193.446 218.89 196.99 226.345 195.43 236.389L194.168 249.845L193.287 255.057L196.416 236.558Z" fill="#666666"/>
<path d="M159.99 157.345L178.99 192.845L183.49 198.845L158.99 154.345L159.99 157.345Z" fill="#666666"/>
<path d="M158.828 251.727L119.203 258.876L112.109 261.31L161.99 251.699L158.828 251.727Z" fill="#666666"/>
</svg>
