<svg width="334" height="519" viewBox="0 0 334 519" fill="none" xmlns="http://www.w3.org/2000/svg">
<g clip-path="url(#clip0)">
<path d="M21.7615 178.637C19.8638 176.228 21.9441 173.563 26.0682 177.944C30.1922 182.324 25.0463 190.975 25.0463 190.975L31.944 194.625L29.1338 197.837L19.9003 194.954C18.089 194.378 16.4043 193.461 14.9368 192.253C10.5208 188.602 0.958825 180.389 0.0829211 178.09C-1.01196 175.097 9.09743 181.74 9.09743 181.74C9.09743 181.74 0.958905 174.44 0.849417 172.286C0.739929 170.132 9.27998 178.528 9.27998 178.528C-1.01189 162.102 2.60115 163.343 2.60115 163.343C5.9668 167.438 9.12181 171.702 12.0537 176.119C12.0537 176.119 10.3748 160.824 11.8712 161.956C13.3675 163.087 15.5208 172.432 16.7252 176.557C17.1335 178.244 17.962 179.802 19.1338 181.083C20.1192 182.105 21.2141 182.908 22.017 182.214C23.7324 180.718 21.7615 178.637 21.7615 178.637Z" fill="#FCCAB1"/>
<g opacity="0.34">
<path opacity="0.34" d="M24.0609 190.683C24.0609 190.683 24.2434 190.464 24.4258 190.026C24.5168 189.766 24.5779 189.496 24.6083 189.223C24.6027 188.859 24.5284 188.5 24.3893 188.164C24.227 187.752 23.9634 187.388 23.6229 187.105C23.2172 186.779 22.7612 186.52 22.2726 186.339C21.0953 185.945 19.8642 185.736 18.6229 185.718C17.3091 185.718 15.9953 185.718 14.7909 185.718C13.7303 185.606 12.6948 185.323 11.7251 184.879C11.0484 184.595 10.4391 184.173 9.9368 183.638C9.60833 183.273 9.4989 183.017 9.5354 182.981C9.57189 182.944 9.75431 182.981 10.1558 183.455C10.6851 183.863 11.2766 184.184 11.9076 184.404C12.8541 184.766 13.8519 184.975 14.8638 185.025C15.9952 185.025 17.2726 185.025 18.5135 185.025C19.8242 185.037 21.1221 185.284 22.3455 185.755C22.9062 185.961 23.4163 186.285 23.8419 186.704C24.2423 187.059 24.544 187.512 24.7178 188.018C24.8417 188.377 24.8864 188.759 24.8486 189.137C24.8108 189.515 24.6914 189.881 24.4988 190.208C24.3163 190.464 24.0974 190.683 24.0609 190.683Z" fill="#8E6C55"/>
</g>
<g opacity="0.34">
<path opacity="0.34" d="M19.4254 183.711C19.4254 183.711 19.0604 184.076 18.367 184.331C17.4522 184.66 16.4918 184.845 15.5203 184.879C14.546 184.91 13.5728 184.787 12.6371 184.514C12.2302 184.454 11.8498 184.276 11.5422 184.003C11.5422 183.784 13.367 184.222 15.5203 184.003C17.6736 183.784 19.3524 183.382 19.4254 183.711Z" fill="#8E6C55"/>
</g>
<path d="M312.087 171.118C313.948 168.672 311.868 166.007 307.78 170.388C303.693 174.768 308.985 183.382 308.985 183.382L302.05 187.033L304.897 190.245L314.131 187.361C315.947 186.822 317.627 185.901 319.058 184.66C323.51 181.01 333.072 172.797 333.912 170.497C335.043 167.504 324.934 174.147 324.934 174.147C324.934 174.147 333.072 166.847 333.182 164.693C333.291 162.54 324.751 170.935 324.751 170.935C335.007 154.509 331.43 155.75 331.43 155.75C330.007 156.809 321.977 168.526 321.977 168.526C321.977 168.526 323.656 153.232 321.977 154.363C320.299 155.495 318.328 164.839 317.123 168.964C316.711 170.658 315.868 172.217 314.678 173.49C313.729 174.549 312.634 175.315 311.832 174.622C310.116 173.162 312.087 171.118 312.087 171.118Z" fill="#FCCAB1"/>
<g opacity="0.34">
<path opacity="0.34" d="M309.787 182.981C309.787 182.981 309.459 182.981 309.167 182.47C308.974 182.142 308.855 181.777 308.817 181.399C308.779 181.021 308.824 180.639 308.948 180.28C309.13 179.778 309.431 179.327 309.824 178.966C310.242 178.555 310.739 178.232 311.284 178.017C312.524 177.561 313.831 177.314 315.152 177.287C316.503 177.287 317.78 177.287 318.802 177.287C319.814 177.237 320.812 177.028 321.758 176.666C322.389 176.445 322.981 176.125 323.51 175.717C323.875 175.388 324.094 175.206 324.131 175.242C324.167 175.279 324.131 175.534 323.693 175.899C323.206 176.445 322.609 176.88 321.941 177.177C320.95 177.591 319.906 177.861 318.839 177.98C317.671 177.98 316.357 177.98 315.189 177.98C313.948 178.002 312.718 178.211 311.539 178.601C311.069 178.796 310.627 179.054 310.225 179.367C309.892 179.657 309.63 180.019 309.459 180.426C309.303 180.756 309.228 181.119 309.24 181.484C309.178 181.748 309.178 182.023 309.24 182.287C309.605 182.762 309.824 182.944 309.787 182.981Z" fill="#8E6C55"/>
</g>
<g opacity="0.34">
<path opacity="0.34" d="M314.422 176.082C314.422 175.863 316.174 176.447 318.328 176.52C320.481 176.593 322.233 176.155 322.269 176.52C322.306 176.885 321.904 176.848 321.211 177.067C320.269 177.308 319.299 177.419 318.328 177.396C317.344 177.365 316.371 177.181 315.444 176.848C314.751 176.52 314.386 176.082 314.422 176.082Z" fill="#8E6C55"/>
</g>
<path d="M209.898 157.466C209.898 157.466 223.292 189.807 250.664 200.903C266.43 207.291 305.408 184.295 305.408 184.295L310.846 194.333C310.846 194.333 251.978 262.154 201.65 196.341C201.65 196.304 200.081 159.51 209.898 157.466Z" fill="#808080"/>
<path d="M121.869 506.426C121.869 506.426 99.9717 509.382 102.198 510.806C104.424 512.229 123.037 508.616 123.037 508.616L121.869 506.426Z" fill="#272E33"/>
<path d="M174.826 510.368C174.826 510.368 183.256 519.749 185.373 518.252C187.49 516.755 179.169 510.112 179.169 510.112L174.826 510.368Z" fill="#272E33"/>
<path d="M135.446 294.568C135.446 294.568 134.825 372.5 130.665 401.117C125.92 433.786 116.65 506.973 116.65 506.973H122.198C122.198 506.973 159.424 447.183 155.263 411.411C151.613 381.077 163.292 331.763 163.292 331.763C163.292 331.763 176.212 468.865 174.241 510.623H181.066C189.235 489.373 194.679 467.173 197.27 444.555C198.803 432.582 192.635 414.039 193.912 401.227C197.562 363.812 201.212 325.631 197.234 302.671L195.664 291.72L135.446 294.568Z" fill="#1C1414"/>
<path d="M118.841 506.9C118.832 506.73 118.832 506.559 118.841 506.389C118.841 506.024 119.06 505.513 119.242 504.856C119.644 503.542 120.191 501.607 120.921 499.089C121.286 497.811 121.724 496.424 122.162 494.891L123.476 489.89C123.987 488.102 124.498 486.24 125.045 484.159L125.811 480.984C126.067 479.925 126.359 478.793 126.614 477.662C127.162 475.399 127.746 473.026 128.33 470.362C128.914 467.697 129.461 465.251 130.045 462.587L130.921 458.462C131.213 457.075 131.468 455.651 131.76 454.228C132.344 451.332 132.928 448.375 133.512 445.358C135.738 433.202 137.892 419.806 139.789 405.607C141.687 391.408 143.001 377.938 144.059 365.455C144.315 362.388 144.534 359.359 144.753 356.439C144.753 354.979 145.008 353.555 145.081 352.131C145.154 350.708 145.264 349.321 145.337 347.934C145.519 345.196 145.665 342.531 145.848 340.013C146.03 337.494 146.067 335.012 146.213 332.712C146.213 331.544 146.213 330.376 146.213 329.281C146.213 328.186 146.213 327.091 146.213 326.032C146.213 323.915 146.213 321.944 146.432 320.083C146.651 318.221 146.432 316.432 146.614 314.899C146.797 313.366 146.614 311.87 146.614 310.555C146.614 307.927 146.614 305.92 146.614 304.533C146.614 303.839 146.614 303.328 146.614 302.963C146.598 302.781 146.598 302.598 146.614 302.416C146.63 302.598 146.63 302.781 146.614 302.963V310.555C146.614 311.87 146.614 313.33 146.614 314.899C146.614 316.469 146.614 318.221 146.614 320.083C146.614 321.944 146.614 323.952 146.614 326.032V329.281C146.614 330.413 146.614 331.544 146.614 332.712C146.614 335.146 146.505 337.579 146.286 340.013C146.286 342.568 145.994 345.232 145.848 347.97C145.848 349.357 145.665 350.744 145.592 352.168C145.519 353.591 145.41 355.015 145.3 356.475C145.081 359.432 144.862 362.425 144.643 365.528C143.585 377.865 142.235 391.408 140.41 405.68C138.585 419.952 136.322 433.275 134.06 445.467C133.476 448.497 132.855 451.453 132.308 454.337L131.432 458.571C131.14 459.958 130.811 461.309 130.519 462.66C129.936 465.361 129.352 467.952 128.768 470.435C128.184 472.917 127.563 475.289 127.016 477.735C126.724 478.867 126.468 479.962 126.176 481.057C125.884 482.152 125.666 483.174 125.374 484.196C124.79 486.24 124.279 488.138 123.768 489.927C123.257 491.715 122.819 493.394 122.381 494.927C121.943 496.461 121.468 497.848 121.103 499.089C120.301 501.571 119.68 503.505 119.279 504.819L118.804 506.316C118.95 506.718 118.877 506.9 118.841 506.9Z" fill="#030000"/>
<path d="M180.92 510.514C180.92 510.514 180.92 510.331 180.92 509.966C180.92 509.601 180.92 509.127 180.92 508.469C180.92 507.119 181.285 505.148 181.541 502.593C181.541 501.315 181.796 499.928 181.979 498.358C182.161 496.789 182.271 495.146 182.417 493.321C182.709 489.671 183.147 485.583 183.402 481.02C183.402 478.757 183.73 476.384 183.876 473.72C183.876 472.478 183.876 471.201 184.095 470.069C184.314 468.938 184.095 467.441 184.278 466.127L184.497 462.039C184.497 461.345 184.497 460.615 184.497 459.922C184.497 459.228 184.497 458.498 184.497 457.805C184.497 454.921 184.497 452.001 184.789 448.971C185.081 436.889 185.154 423.42 184.789 409.658C184.424 395.897 184.059 382.428 183.585 370.382C183.293 364.323 183.074 358.592 182.782 353.226C182.49 347.86 182.271 342.86 182.052 338.297C181.577 329.171 181.176 321.761 180.92 316.651C180.92 314.133 180.92 312.125 180.665 310.774C180.665 310.117 180.665 309.606 180.665 309.241C180.665 308.876 180.665 308.73 180.665 308.73C180.665 308.73 180.665 308.73 180.665 309.241C180.638 309.752 180.638 310.264 180.665 310.774C180.665 312.125 180.884 314.096 181.066 316.651C181.395 321.761 181.869 329.135 182.417 338.26C182.672 342.823 182.964 347.824 183.256 353.19C183.548 358.556 183.803 364.14 184.095 370.346C184.643 382.428 185.117 395.897 185.373 409.658C185.628 423.42 185.373 436.889 185.154 449.008C185.154 452.001 184.971 454.957 184.862 457.805C184.862 458.535 184.862 459.265 184.862 459.958V462.039C184.862 463.426 184.862 464.813 184.643 466.127L184.424 470.106L184.205 473.756C184.022 476.275 183.84 478.647 183.658 481.056C183.366 485.619 182.928 489.744 182.563 493.358C182.38 495.183 182.234 497.008 182.088 498.395C181.942 499.782 181.723 501.352 181.541 502.629C181.249 505.148 180.993 507.119 180.811 508.469C180.811 509.127 180.811 509.638 180.628 510.003L180.92 510.514Z" fill="#030000"/>
<path d="M124.606 161.883C124.606 161.883 111.212 194.333 83.8037 205.284C68.0739 211.671 29.0598 188.675 29.0598 188.675L23.6584 198.677C23.6584 198.677 79.8986 267.52 130.154 201.633C130.154 201.633 134.387 163.927 124.606 161.883Z" fill="#808080"/>
<path d="M273.365 65.5538C275.633 64.0006 278.278 63.0891 281.021 62.9156C283.764 62.7421 286.503 63.3131 288.949 64.5682C294.606 67.1963 306.175 70.664 308.766 66.6853L310.299 53.07C304.853 53.005 299.487 51.7596 294.569 49.4198C287.27 45.7696 274.642 48.3248 274.642 48.3248L273.365 65.5538Z" fill="#6F9331"/>
<path d="M293.146 50.8799C294.033 51.1877 294.844 51.6832 295.522 52.3326C296.2 52.982 296.731 53.77 297.077 54.6431C297.424 55.5161 297.578 56.4535 297.529 57.3915C297.48 58.3295 297.23 59.246 296.795 60.0785C295.606 61.443 293.976 62.3473 292.189 62.634C290.402 62.9208 288.571 62.5719 287.014 61.648C286.307 61.2531 285.685 60.7218 285.184 60.0849C284.683 59.448 284.313 58.7181 284.096 57.9375C283.879 57.1568 283.818 56.3408 283.918 55.5367C284.018 54.7326 284.277 53.9562 284.679 53.2526C285.553 51.8867 286.899 50.89 288.46 50.4525C290.022 50.015 291.689 50.1671 293.146 50.8799Z" fill="#99C445"/>
<path d="M294.386 53.6904C294.386 53.6904 294.057 53.6904 293.619 53.6904C293.063 53.5264 292.484 53.4524 291.904 53.4714C291.552 53.4743 291.204 53.5488 290.882 53.6904C290.723 53.7488 290.579 53.8411 290.459 53.9609C290.339 54.0806 290.247 54.225 290.189 54.384C290.109 54.5227 290.067 54.6801 290.067 54.8402C290.067 55.0004 290.109 55.1578 290.189 55.2965C290.462 55.5832 290.82 55.775 291.211 55.8441L292.123 56.0996C292.468 56.2198 292.799 56.379 293.109 56.5741C293.272 56.7012 293.419 56.8484 293.546 57.0121C293.665 57.1823 293.763 57.3661 293.838 57.5597C293.945 57.954 293.945 58.3698 293.838 58.7642C293.739 59.0987 293.567 59.4067 293.333 59.6657C293.099 59.9247 292.81 60.128 292.488 60.2608C291.986 60.3991 291.457 60.3991 290.955 60.2608C290.553 60.2051 290.16 60.0946 289.787 59.9323C289.525 59.8365 289.279 59.7011 289.057 59.5308C288.656 59.2753 288.473 59.0927 288.51 59.0197C288.546 58.9467 288.838 59.0197 289.276 59.0197C289.84 59.1452 290.414 59.2185 290.992 59.2388C291.332 59.2098 291.665 59.1234 291.977 58.9832C292.112 58.9276 292.23 58.8377 292.32 58.7225C292.409 58.6073 292.467 58.4707 292.488 58.3262C292.515 58.2627 292.529 58.1944 292.529 58.1254C292.529 58.0564 292.515 57.9881 292.488 57.9247C292.488 57.9247 292.488 57.9247 292.488 57.7422C292.032 57.534 291.555 57.3749 291.065 57.2676C290.704 57.1921 290.358 57.0564 290.043 56.8661C289.868 56.7819 289.708 56.6711 289.568 56.5376C289.415 56.3836 289.28 56.2121 289.167 56.0266C288.978 55.6858 288.879 55.3027 288.879 54.9133C288.879 54.5238 288.978 54.1407 289.167 53.7999C289.483 53.2052 290.02 52.7592 290.663 52.5589C291.167 52.4351 291.693 52.4351 292.196 52.5589C292.864 52.6349 293.503 52.873 294.057 53.2524C294.094 53.3984 294.386 53.6174 294.386 53.6904Z" fill="#6F9331"/>
<path d="M291.284 51.391C291.422 53.0619 291.337 54.7437 291.029 56.3918C290.94 58.0649 290.595 59.7144 290.007 61.2831C289.87 59.6107 289.969 57.9274 290.299 56.2823C290.366 54.6099 290.698 52.9588 291.284 51.391Z" fill="#6F9331"/>
<path d="M292.378 51.756C292.54 53.2791 292.467 54.8181 292.159 56.3187C292.085 57.8445 291.764 59.3483 291.211 60.772C291.049 59.2489 291.123 57.7098 291.43 56.2092C291.484 54.6808 291.805 53.1736 292.378 51.756Z" fill="#6F9331"/>
<path d="M274.788 63.3636C276.265 62.1688 278.028 61.3789 279.902 61.0717C281.777 60.7645 283.7 60.9505 285.481 61.6115C290.773 63.7651 300.809 68.9119 307.379 66.4298L308.765 54.3841C304.587 54.4416 300.444 53.6079 296.612 51.9385C293.533 50.2312 290.13 49.1868 286.623 48.8725C283.116 48.5582 279.582 48.9809 276.248 50.1134L274.788 63.3636Z" stroke="#99C445" stroke-width="0.25" stroke-miterlimit="10"/>
<path d="M54.6801 58.9832C57.2915 58.0995 60.0924 57.9348 62.7893 58.5064C65.4862 59.078 67.9797 60.3648 70.0083 62.2319C74.7163 66.2471 84.9353 72.7079 88.5119 69.5323L93.6578 56.8661C88.4322 55.3158 83.6106 52.6367 79.5339 49.0181C73.512 43.3603 60.6289 42.5938 60.6289 42.5938L54.6801 58.9832Z" fill="#6F9331"/>
<path d="M77.7461 50.1497C78.519 50.6843 79.1682 51.3786 79.6499 52.1857C80.1316 52.9928 80.4346 53.8938 80.5384 54.828C80.6421 55.7622 80.5443 56.7078 80.2515 57.6009C79.9586 58.494 79.4776 59.3139 78.8409 60.0052C76.4322 62.4509 71.5417 61.3193 68.987 58.9102C67.8281 57.7471 67.1775 56.172 67.1775 54.5299C67.1775 52.8879 67.8281 51.3128 68.987 50.1497C70.2054 49.1013 71.7593 48.5248 73.3665 48.5248C74.9737 48.5248 76.5277 49.1013 77.7461 50.1497Z" fill="#99C445"/>
<path d="M75.7754 50.1498C75.5037 51.8039 74.9742 53.4051 74.2061 54.8951C73.5928 56.459 72.7702 57.9325 71.7609 59.2753C72.0718 57.6263 72.6124 56.029 73.3667 54.53C73.949 52.959 74.7608 51.483 75.7754 50.1498Z" fill="#6F9331"/>
<path d="M76.7245 50.8069C76.487 52.3104 76.0063 53.7652 75.3012 55.1141C74.8322 56.5757 74.1163 57.9462 73.1844 59.1659C73.4427 57.6675 73.9224 56.2158 74.6077 54.8586C75.0962 53.4053 75.8105 52.0379 76.7245 50.8069Z" fill="#6F9331"/>
<path d="M56.651 57.2312C58.4196 56.4465 60.3646 56.1446 62.2879 56.3562C64.2111 56.5678 66.044 57.2853 67.5998 58.4358C72.0888 61.9035 80.337 69.7149 87.1982 68.9119L91.7966 57.7058C87.7923 56.623 84.0615 54.7076 80.8478 52.0845C78.3531 49.601 75.3656 47.6682 72.0779 46.4107C68.7902 45.1533 65.2755 44.5991 61.7605 44.784L56.651 57.2312Z" stroke="#99C445" stroke-width="0.25" stroke-miterlimit="10"/>
<path d="M160.592 1.20059C162.348 3.31802 163.498 5.87087 163.922 8.58894C164.346 11.307 164.028 14.0892 163 16.641C160.92 22.4813 158.548 34.3445 162.745 36.5711L176.431 36.8266C176.037 31.3908 176.834 25.9345 178.767 20.8387C181.869 13.1733 178 0.87207 178 0.87207L160.592 1.20059Z" fill="#6F9331"/>
<path d="M177.015 19.561C176.799 20.4769 176.388 21.3353 175.809 22.0776C175.231 22.8199 174.499 23.4284 173.664 23.8617C172.829 24.2949 171.91 24.5427 170.97 24.5879C170.031 24.6331 169.092 24.4748 168.219 24.1238C166.753 23.0627 165.703 21.5233 165.25 19.7708C164.797 18.0183 164.969 16.1626 165.738 14.5237C166.066 13.7741 166.539 13.0971 167.131 12.5324C167.723 11.9677 168.422 11.5264 169.186 11.2342C169.95 10.9421 170.765 10.8049 171.583 10.8307C172.4 10.8565 173.205 11.0448 173.949 11.3845C175.362 12.147 176.45 13.3951 177.014 14.8982C177.577 16.4013 177.578 18.0577 177.015 19.561Z" fill="#99C445"/>
<path d="M174.315 20.8752C174.315 20.8752 174.315 20.5832 174.315 20.1452C174.391 19.5637 174.391 18.9746 174.315 18.3931C174.278 18.0446 174.166 17.7083 173.986 17.4075C173.83 17.1162 173.569 16.8946 173.256 16.787C173.121 16.7166 172.971 16.6799 172.819 16.6799C172.666 16.6799 172.516 16.7166 172.381 16.787C172.125 16.787 171.979 17.3345 171.906 17.8821C171.833 18.4296 171.906 18.4661 171.724 18.7946C171.645 19.1492 171.523 19.4926 171.359 19.8167C171.245 19.9908 171.11 20.1502 170.957 20.2912C170.802 20.4331 170.631 20.5557 170.446 20.6562C170.055 20.7819 169.633 20.7819 169.242 20.6562C168.885 20.5866 168.548 20.4368 168.256 20.2182C167.99 20.0172 167.777 19.754 167.636 19.4517C167.407 18.9749 167.306 18.4463 167.344 17.9186C167.35 17.5314 167.424 17.1483 167.563 16.787C167.653 16.5118 167.763 16.2434 167.892 15.984C168.11 15.5824 168.256 15.3999 168.366 15.3999C168.475 15.3999 168.366 15.7284 168.366 16.1665C168.306 16.7368 168.306 17.3118 168.366 17.8821C168.414 18.2279 168.525 18.562 168.694 18.8676C168.769 18.9967 168.875 19.1046 169.003 19.1813C169.13 19.2579 169.276 19.3007 169.424 19.3056C169.556 19.3432 169.695 19.3432 169.826 19.3056C169.989 18.8325 170.099 18.3429 170.154 17.8456C170.218 17.4961 170.315 17.1537 170.446 16.8235C170.528 16.6259 170.639 16.4415 170.775 16.276C170.902 16.1122 171.049 15.9651 171.213 15.8379C171.51 15.6164 171.854 15.4675 172.219 15.4031C172.583 15.3387 172.958 15.3606 173.313 15.467C173.668 15.5734 173.993 15.7615 174.262 16.016C174.531 16.2706 174.736 16.5847 174.862 16.933C175.054 17.4086 175.153 17.9167 175.154 18.4296C175.105 19.1167 174.919 19.7869 174.607 20.4007C174.607 20.7292 174.424 20.9117 174.315 20.8752Z" fill="#6F9331"/>
<path d="M176.358 17.736C174.702 17.9947 173.015 17.9947 171.358 17.736C169.688 17.7985 168.017 17.6264 166.395 17.225C168.041 16.9036 169.727 16.8298 171.395 17.0059C173.075 17.025 174.744 17.2706 176.358 17.736Z" fill="#6F9331"/>
<path d="M176.066 18.8676C174.577 19.1635 173.05 19.2251 171.541 19.0501C170.014 19.1359 168.484 18.9631 167.016 18.5391C168.502 18.2204 170.031 18.1465 171.541 18.3201C173.069 18.2563 174.597 18.4412 176.066 18.8676Z" fill="#6F9331"/>
<path d="M163.001 2.40504C164.326 3.77145 165.271 5.45964 165.745 7.30312C166.219 9.1466 166.203 11.0817 165.701 12.9176C164.059 18.3564 159.716 28.869 162.928 34.8189L175.008 35.1109C174.558 30.9542 174.993 26.7494 176.285 22.7732C177.692 19.5495 178.418 16.07 178.418 12.5526C178.418 9.03524 177.692 5.55575 176.285 2.33203L163.001 2.40504Z" stroke="#99C445" stroke-width="0.25" stroke-miterlimit="10"/>
<path d="M112.564 107.568C113.479 107.785 114.338 108.196 115.081 108.774C115.824 109.352 116.434 110.083 116.87 110.917C117.306 111.751 117.558 112.669 117.608 113.609C117.658 114.549 117.506 115.489 117.162 116.365C116.116 117.849 114.579 118.916 112.822 119.377C111.066 119.837 109.204 119.663 107.564 118.883C106.094 118.194 104.957 116.95 104.403 115.425C103.849 113.899 103.923 112.215 104.607 110.743C105.346 109.36 106.549 108.283 108.005 107.701C109.461 107.12 111.076 107.073 112.564 107.568Z" fill="#D39C11"/>
<path d="M112.563 106.034C113.479 106.252 114.338 106.663 115.081 107.241C115.824 107.819 116.434 108.549 116.87 109.383C117.306 110.218 117.558 111.136 117.608 112.076C117.658 113.016 117.506 113.955 117.162 114.831C116.116 116.316 114.579 117.382 112.822 117.843C111.066 118.304 109.204 118.129 107.564 117.35C106.82 117.026 106.148 116.557 105.587 115.971C105.026 115.385 104.586 114.693 104.294 113.936C104.002 113.179 103.864 112.371 103.886 111.56C103.909 110.749 104.092 109.95 104.425 109.21C105.168 107.786 106.403 106.68 107.899 106.096C109.395 105.512 111.052 105.49 112.563 106.034Z" fill="#E0BA44"/>
<path d="M113.914 108.772C113.914 108.772 113.622 108.772 113.184 108.772C112.603 108.696 112.014 108.696 111.432 108.772C111.084 108.809 110.747 108.921 110.447 109.101C110.295 109.173 110.158 109.275 110.045 109.4C109.933 109.525 109.846 109.672 109.79 109.831C109.756 109.987 109.755 110.149 109.786 110.306C109.818 110.463 109.881 110.612 109.972 110.743C110.117 110.885 110.288 110.997 110.476 111.072C110.664 111.147 110.865 111.184 111.067 111.181L111.98 111.364C112.332 111.448 112.675 111.57 113.001 111.729L113.476 112.13C113.618 112.285 113.74 112.457 113.841 112.641C113.964 113.021 113.964 113.43 113.841 113.809C113.794 114.185 113.642 114.539 113.403 114.831C113.202 115.098 112.939 115.311 112.637 115.452C112.172 115.679 111.656 115.779 111.14 115.744C110.742 115.735 110.347 115.661 109.972 115.525C109.691 115.451 109.422 115.341 109.169 115.196C108.768 115.014 108.585 114.831 108.622 114.722C108.658 114.612 108.914 114.722 109.352 114.722C109.922 114.782 110.497 114.782 111.067 114.722C111.413 114.674 111.747 114.562 112.053 114.393C112.182 114.319 112.29 114.213 112.366 114.085C112.443 113.957 112.486 113.812 112.491 113.663C112.528 113.532 112.528 113.393 112.491 113.262C112.018 113.099 111.528 112.989 111.031 112.933C110.678 112.886 110.333 112.788 110.009 112.641L109.461 112.349C109.297 112.209 109.15 112.05 109.023 111.875C108.8 111.554 108.658 111.184 108.607 110.797C108.556 110.41 108.599 110.016 108.731 109.648C109.005 109.038 109.501 108.555 110.118 108.298C110.591 108.096 111.101 107.996 111.615 108.006C112.291 108.048 112.951 108.235 113.549 108.553C113.731 108.48 113.95 108.663 113.914 108.772Z" fill="#D39C11"/>
<path d="M110.739 106.728C111.08 108.372 111.154 110.061 110.958 111.729C111.049 113.4 110.877 115.075 110.447 116.693C110.126 115.046 110.052 113.361 110.228 111.692C110.166 110.022 110.338 108.351 110.739 106.728Z" fill="#D39C11"/>
<path d="M111.906 107.02C112.225 108.507 112.299 110.036 112.125 111.546C112.211 113.073 112.038 114.603 111.614 116.073C111.317 114.583 111.243 113.058 111.395 111.546C111.309 110.02 111.482 108.489 111.906 107.02Z" fill="#D39C11"/>
<path d="M123.33 12.4797C124.149 12.0178 125.057 11.737 125.993 11.6562C126.93 11.5753 127.873 11.6965 128.758 12.0113C129.644 12.3262 130.452 12.8275 131.127 13.4813C131.802 14.1352 132.33 14.9263 132.673 15.8014C133.768 19.0501 130.593 23.1018 127.345 24.1969C125.791 24.7195 124.094 24.6059 122.624 23.8809C121.153 23.1559 120.03 21.8785 119.498 20.3277C119.081 18.7773 119.239 17.1281 119.944 15.6854C120.648 14.2426 121.851 13.1038 123.33 12.4797Z" fill="#D39C11"/>
<path d="M122.308 11.348C123.129 10.887 124.039 10.6079 124.977 10.5295C125.916 10.4511 126.86 10.5754 127.746 10.8939C128.632 11.2123 129.439 11.7176 130.113 12.3753C130.787 13.0331 131.311 13.828 131.651 14.7062C132.746 17.9184 129.534 22.0066 126.322 23.0652C124.797 23.6086 123.12 23.5304 121.652 22.8474C120.184 22.1645 119.043 20.9317 118.476 19.415C117.998 17.8345 118.126 16.1327 118.834 14.6414C119.543 13.15 120.781 11.9759 122.308 11.348Z" fill="#E0BA44"/>
<path d="M125.118 12.4431C125.118 12.4431 125.118 12.6986 124.607 12.9907C124.13 13.32 123.69 13.6993 123.293 14.1222C123.073 14.409 122.901 14.7295 122.783 15.0713C122.689 15.3807 122.689 15.7109 122.783 16.0203C122.858 16.1587 122.962 16.2793 123.088 16.3738C123.214 16.4683 123.359 16.5345 123.512 16.5679C123.923 16.5574 124.319 16.4168 124.644 16.1663L125.41 15.6553C125.729 15.4707 126.073 15.3353 126.432 15.2538C126.637 15.2161 126.847 15.2161 127.053 15.2538C127.258 15.2161 127.468 15.2161 127.673 15.2538C128.037 15.4275 128.351 15.6913 128.585 16.0203C128.783 16.3116 128.907 16.6469 128.945 16.9969C128.983 17.3469 128.935 17.7009 128.804 18.0279C128.614 18.5142 128.299 18.942 127.892 19.269C127.601 19.5402 127.269 19.7622 126.907 19.9261C126.647 20.0439 126.378 20.1415 126.104 20.2181C125.666 20.2181 125.41 20.2181 125.374 20.2181C125.337 20.2181 125.374 19.9261 125.848 19.6705C126.332 19.3355 126.773 18.9433 127.162 18.5025C127.382 18.2486 127.544 17.9496 127.636 17.6264C127.701 17.4959 127.734 17.3522 127.734 17.2067C127.734 17.0611 127.701 16.9174 127.636 16.7869C127.546 16.6801 127.434 16.5931 127.308 16.5314H126.907C126.434 16.7227 125.992 16.9809 125.593 17.2979C125.3 17.4993 124.981 17.659 124.644 17.7724H124.06H123.403C123.027 17.6827 122.677 17.5077 122.379 17.2608C122.082 17.0139 121.845 16.7019 121.688 16.3489C121.558 16.0428 121.491 15.7139 121.491 15.3815C121.491 15.0492 121.558 14.7203 121.688 14.4142C121.9 13.9403 122.211 13.5172 122.6 13.1732C123.126 12.739 123.734 12.4162 124.388 12.2241C124.851 12.2728 125.094 12.3458 125.118 12.4431Z" fill="#D39C11"/>
<path d="M121.431 13.1003C122.835 14.1142 124.067 15.3466 125.081 16.7505C126.28 17.9346 127.301 19.2872 128.11 20.7658C126.703 19.7563 125.47 18.5233 124.461 17.1156C123.252 15.9395 122.23 14.5854 121.431 13.1003Z" fill="#D39C11"/>
<path d="M122.454 12.5529C123.704 13.4252 124.802 14.4982 125.702 15.7285C126.787 16.797 127.698 18.0286 128.403 19.3787C128.403 19.3787 126.797 18.1012 125.118 16.2031C124.023 15.1523 123.121 13.9167 122.454 12.5529Z" fill="#D39C11"/>
<path d="M129.862 19.7437C129.807 19.9277 129.721 20.1006 129.607 20.2547C129.257 20.8361 128.799 21.3443 128.256 21.7513C127.455 22.3829 126.518 22.8202 125.519 23.0289C124.287 23.2877 123.005 23.1338 121.869 22.5909C121.266 22.3211 120.721 21.9368 120.263 21.4593C119.834 21.0381 119.465 20.5589 119.169 20.0357C118.603 19.1776 118.287 18.1792 118.256 17.1521C118.228 16.4641 118.353 15.7786 118.621 15.1444C118.707 14.9794 118.804 14.8208 118.913 14.6699C118.913 14.6699 118.913 14.6699 118.913 14.8889C118.913 15.1079 118.913 15.181 118.913 15.4C118.808 16.0161 118.808 16.6455 118.913 17.2616C119.034 18.1737 119.358 19.047 119.862 19.8167C120.162 20.2736 120.504 20.7014 120.884 21.0943C121.303 21.4958 121.784 21.8284 122.307 22.0798C123.317 22.5637 124.458 22.7046 125.555 22.4814C126.481 22.3245 127.363 21.9764 128.147 21.4593C128.673 21.109 129.151 20.6918 129.57 20.2182L129.935 19.8167L129.862 19.7437Z" fill="#FFD066"/>
<path d="M244.861 88.477C245.68 88.0151 246.588 87.7343 247.525 87.6535C248.461 87.5727 249.404 87.6938 250.289 88.0087C251.175 88.3235 251.983 88.8248 252.658 89.4786C253.334 90.1325 253.861 90.9237 254.204 91.7987C255.299 95.0474 252.124 99.0991 248.876 100.158C248.109 100.427 247.297 100.542 246.486 100.495C245.675 100.448 244.881 100.24 244.151 99.8831C243.421 99.5264 242.769 99.0282 242.233 98.4174C241.697 97.8066 241.288 97.0953 241.029 96.325C240.612 94.7746 240.77 93.1254 241.475 91.6827C242.179 90.2399 243.382 89.1012 244.861 88.477Z" fill="#D39C11"/>
<path d="M243.84 87.1995C244.656 86.7379 245.561 86.4573 246.495 86.3767C247.429 86.2961 248.369 86.4175 249.252 86.7326C250.135 87.0478 250.94 87.5492 251.612 88.2029C252.284 88.8566 252.807 89.6473 253.146 90.5212C254.278 93.7699 251.066 97.8216 247.854 98.9167C247.088 99.1813 246.276 99.292 245.467 99.2425C244.657 99.193 243.865 98.9843 243.136 98.6283C242.407 98.2723 241.756 97.776 241.219 97.1678C240.682 96.5596 240.27 95.8515 240.008 95.084C239.58 93.5285 239.734 91.8706 240.439 90.4198C241.144 88.969 242.353 87.8244 243.84 87.1995Z" fill="#E0BA44"/>
<path d="M246.65 88.477C246.65 88.477 246.65 88.7325 246.139 88.988C245.656 89.323 245.215 89.7152 244.825 90.1561C244.599 90.4256 244.426 90.7351 244.314 91.0686C244.249 91.2247 244.215 91.3922 244.215 91.5614C244.215 91.7306 244.249 91.8981 244.314 92.0542C244.389 92.1926 244.493 92.3131 244.619 92.4076C244.745 92.5021 244.89 92.5683 245.044 92.6017C245.454 92.5913 245.851 92.4507 246.176 92.2002L246.942 91.6892C247.26 91.5045 247.605 91.3692 247.964 91.2876C248.169 91.2499 248.379 91.2499 248.584 91.2876H249.205C249.576 91.4505 249.893 91.7165 250.117 92.0542C250.329 92.3557 250.455 92.7089 250.482 93.0762C250.558 93.4003 250.558 93.7377 250.482 94.0618C250.291 94.548 249.977 94.9759 249.57 95.3029C249.271 95.5634 248.94 95.7843 248.584 95.9599C248.325 96.0777 248.056 96.1754 247.781 96.2519C247.343 96.2519 247.088 96.2519 247.051 96.2519C247.015 96.2519 247.051 95.9599 247.526 95.7044C248.001 95.3593 248.441 94.9681 248.84 94.5363C249.068 94.2741 249.231 93.9613 249.314 93.6238C249.379 93.4932 249.412 93.3496 249.412 93.204C249.412 93.0584 249.379 92.9148 249.314 92.7842C249.223 92.6872 249.11 92.6123 248.986 92.5652H248.584C248.112 92.7566 247.669 93.0147 247.27 93.3317C246.978 93.3317 246.686 93.6603 246.321 93.8063C246.128 93.8412 245.931 93.8412 245.738 93.8063C245.52 93.843 245.298 93.843 245.081 93.8063C244.697 93.7211 244.341 93.5436 244.042 93.2891C243.743 93.0346 243.511 92.7109 243.365 92.3462C243.238 92.0396 243.172 91.7109 243.172 91.3789C243.172 91.0469 243.238 90.7181 243.365 90.4116C243.582 89.9508 243.893 89.5405 244.278 89.207C244.803 88.7729 245.412 88.45 246.066 88.258C246.322 88.185 246.614 88.185 246.65 88.477Z" fill="#D39C11"/>
<path d="M242.964 88.9515C244.367 89.9654 245.6 91.1978 246.613 92.6017C247.813 93.7858 248.833 95.1384 249.642 96.617C248.254 95.5847 247.025 94.355 245.993 92.9668C244.796 91.78 243.776 90.4279 242.964 88.9515Z" fill="#D39C11"/>
<path d="M243.949 88.4769C244.132 88.4769 245.592 89.7545 247.234 91.6526C248.339 92.6955 249.242 93.9328 249.898 95.3028C248.648 94.4305 247.55 93.3575 246.65 92.1271C245.574 91.0512 244.663 89.821 243.949 88.4769Z" fill="#D39C11"/>
<path d="M251.394 95.7774C251.394 95.7774 251.394 95.7774 251.394 95.9599C251.332 96.1408 251.246 96.3127 251.139 96.4709C250.778 97.0438 250.321 97.5502 249.788 97.9675C248.984 98.5872 248.047 99.012 247.051 99.2086C245.825 99.4989 244.535 99.3571 243.401 98.807C242.792 98.5288 242.236 98.1458 241.759 97.6755C241.36 97.2371 241.006 96.7602 240.701 96.2519C240.135 95.3937 239.819 94.3954 239.788 93.3682C239.76 92.6803 239.885 91.9948 240.153 91.3606C240.153 91.1416 240.372 90.9956 240.409 90.8861C240.409 90.8861 240.409 90.8861 240.409 91.1051C240.409 91.3241 240.409 91.3606 240.409 91.6162C240.284 92.2304 240.284 92.8635 240.409 93.4778C240.529 94.3899 240.854 95.2632 241.358 96.0329C241.667 96.4831 242.008 96.9101 242.379 97.3105C242.793 97.7198 243.274 98.0534 243.803 98.296C244.817 98.765 245.953 98.9053 247.051 98.6975C247.977 98.5407 248.859 98.1926 249.642 97.6755C250.169 97.3252 250.647 96.908 251.066 96.4344L251.431 96.0329C251.431 96.0329 251.358 95.5584 251.394 95.7774Z" fill="#FFD066"/>
<path d="M319.058 113.152C319.641 113.889 320.06 114.743 320.285 115.655C320.511 116.567 320.538 117.517 320.365 118.441C320.192 119.365 319.823 120.241 319.283 121.01C318.742 121.779 318.043 122.423 317.233 122.899C315.491 123.418 313.623 123.307 311.954 122.586C310.286 121.866 308.925 120.58 308.109 118.956C307.349 117.503 307.195 115.808 307.68 114.242C308.166 112.676 309.251 111.365 310.7 110.597C312.168 109.948 313.82 109.849 315.355 110.318C316.889 110.787 318.204 111.793 319.058 113.152Z" fill="#D39C11"/>
<path d="M319.933 111.984C320.516 112.718 320.935 113.568 321.16 114.478C321.385 115.388 321.412 116.335 321.239 117.256C321.066 118.177 320.697 119.05 320.157 119.816C319.616 120.581 318.918 121.222 318.109 121.694C316.358 122.207 314.483 122.086 312.814 121.352C311.144 120.617 309.788 119.316 308.984 117.679C308.603 116.96 308.368 116.173 308.292 115.363C308.216 114.554 308.3 113.737 308.541 112.96C308.782 112.183 309.174 111.461 309.695 110.837C310.216 110.212 310.855 109.696 311.576 109.32C313.055 108.672 314.719 108.585 316.257 109.076C317.795 109.566 319.102 110.6 319.933 111.984Z" fill="#E0BA44"/>
<path d="M318.145 111.364C317.37 112.858 316.387 114.235 315.225 115.452C314.209 116.854 312.977 118.086 311.576 119.102C312.324 117.603 313.31 116.235 314.495 115.051C315.53 113.654 316.759 112.413 318.145 111.364Z" fill="#D39C11"/>
<path d="M318.838 112.276C318.156 113.622 317.27 114.853 316.211 115.927C315.311 117.154 314.242 118.248 313.035 119.175C313.701 117.82 314.59 116.586 315.663 115.525C316.55 114.287 317.621 113.191 318.838 112.276Z" fill="#D39C11"/>
<path d="M312.891 120.745H312.635C312.446 120.706 312.262 120.645 312.088 120.562C311.459 120.315 310.888 119.943 310.409 119.467C309.662 118.769 309.087 117.907 308.73 116.948C308.321 115.766 308.321 114.481 308.73 113.298C308.913 112.672 309.196 112.081 309.569 111.546C309.945 111.074 310.361 110.634 310.81 110.232C311.592 109.554 312.534 109.089 313.548 108.882C314.21 108.744 314.893 108.744 315.555 108.882L316.066 109.064H316.248C316.177 109.089 316.1 109.089 316.029 109.064H315.518C314.902 108.966 314.274 108.966 313.657 109.064C312.766 109.335 311.945 109.796 311.248 110.415C310.847 110.794 310.48 111.21 310.154 111.656C309.831 112.125 309.585 112.642 309.424 113.189C309.075 114.256 309.075 115.407 309.424 116.474C309.71 117.355 310.183 118.164 310.81 118.847C311.252 119.31 311.742 119.726 312.27 120.088L312.708 120.343C312.708 120.343 312.891 120.708 312.891 120.745Z" fill="#FFD066"/>
<path d="M28.2941 92.8572C28.8775 93.594 29.2961 94.4473 29.5216 95.3597C29.7472 96.2721 29.7744 97.2222 29.6014 98.146C29.4284 99.0698 29.0594 99.9457 28.519 100.715C27.9787 101.484 27.2797 102.128 26.4693 102.603C24.7275 103.115 22.8616 103.001 21.1951 102.281C19.5286 101.561 18.1666 100.28 17.3453 98.6611C16.9633 97.9399 16.7273 97.1504 16.6507 96.3378C16.5742 95.5252 16.6587 94.7055 16.8994 93.9257C17.1401 93.1458 17.5323 92.4211 18.0534 91.793C18.5746 91.165 19.2144 90.6459 19.9365 90.2656C21.4082 89.6195 23.0635 89.5258 24.5987 90.0019C26.1339 90.4779 27.4459 91.4917 28.2941 92.8572Z" fill="#D39C11"/>
<path d="M29.2432 91.6528C29.8251 92.3918 30.2415 93.2473 30.4643 94.1612C30.687 95.0752 30.7111 96.0263 30.5346 96.9503C30.3582 97.8743 29.9854 98.7496 29.4415 99.5171C28.8976 100.285 28.1952 100.926 27.3819 101.399C24.3893 103.005 20.0828 100.45 18.2945 97.4566C17.9125 96.7354 17.6765 95.9459 17.6 95.1333C17.5235 94.3207 17.608 93.501 17.8487 92.7212C18.0894 91.9413 18.4815 91.2166 19.0026 90.5886C19.5238 89.9605 20.1637 89.4415 20.8857 89.0611C22.3574 88.415 24.0127 88.3214 25.5479 88.7974C27.083 89.2735 28.3951 90.2873 29.2432 91.6528Z" fill="#E0BA44"/>
<path d="M28.6225 94.6096C28.6225 94.6096 28.2941 94.6096 28.0021 94.1715C27.586 93.7664 27.1341 93.3999 26.6518 93.0765C26.3559 92.8804 26.0185 92.7554 25.6663 92.7114C25.3383 92.6495 24.999 92.7148 24.7174 92.894C24.589 92.9865 24.4831 93.1067 24.4073 93.2457C24.3315 93.3847 24.2878 93.5389 24.2794 93.697C24.3325 94.1113 24.5413 94.4898 24.8634 94.7556L25.4839 95.4491C25.7034 95.7295 25.8872 96.036 26.0313 96.3616C26.0647 96.5671 26.0647 96.7767 26.0313 96.9822C26.069 97.1873 26.069 97.3976 26.0313 97.6027C25.9353 97.991 25.7331 98.3449 25.4473 98.6248C25.1623 98.8764 24.8262 99.0632 24.462 99.1723C24.1358 99.2268 23.8027 99.2268 23.4765 99.1723C22.9699 99.0431 22.4971 98.8066 22.0898 98.4788C21.7926 98.2122 21.5345 97.905 21.3233 97.5662C21.1557 97.343 21.0206 97.0973 20.9219 96.8362C20.7029 96.4347 20.6664 96.1791 20.7393 96.1061C20.8123 96.0331 21.0679 96.1061 21.3598 96.5077C21.7739 96.9259 22.2259 97.3047 22.7102 97.6392C23.0051 97.8027 23.3262 97.9139 23.6591 97.9677C23.8064 97.9852 23.9558 97.9679 24.0952 97.9172C24.2347 97.8665 24.3603 97.7838 24.462 97.6757C24.5647 97.58 24.6295 97.4504 24.6444 97.3107V97.1282C24.6444 97.1282 24.6444 97.1282 24.6444 96.9092C24.383 96.4783 24.0637 96.0852 23.6955 95.7411C23.4514 95.4774 23.2429 95.1829 23.0751 94.8651C22.9711 94.6966 22.897 94.5113 22.8562 94.3175C22.8021 94.1019 22.8021 93.8762 22.8562 93.6605C22.8735 93.2753 22.9859 92.9004 23.1833 92.5692C23.3807 92.238 23.657 91.9608 23.9875 91.7624C24.5768 91.4357 25.2679 91.3444 25.9218 91.5069C26.4186 91.6517 26.8788 91.9006 27.2721 92.2369C27.7685 92.694 28.1768 93.2384 28.4765 93.843C28.659 94.281 28.6954 94.5366 28.6225 94.6096Z" fill="#D39C11"/>
<path d="M27.3818 91.0686C26.5912 92.5419 25.6096 93.9043 24.4622 95.1203C23.4509 96.5264 22.2184 97.7591 20.8126 98.7705C21.6032 97.2972 22.5848 95.9349 23.7322 94.7188C24.7556 93.3231 25.9863 92.0921 27.3818 91.0686Z" fill="#D39C11"/>
<path d="M27.966 92.1272C27.2839 93.4724 26.3975 94.7037 25.3383 95.7774C24.4636 97.0258 23.3912 98.1231 22.1632 99.0261C22.829 97.671 23.7172 96.4372 24.7909 95.3759C25.6691 94.1304 26.741 93.0336 27.966 92.1272Z" fill="#D39C11"/>
<path d="M22.1263 100.413C21.9446 100.438 21.7605 100.438 21.5788 100.413C20.9503 100.15 20.3798 99.7655 19.9 99.2816C19.1616 98.5904 18.5878 97.7421 18.2211 96.7994C17.8151 95.6166 17.8151 94.3321 18.2211 93.1492C18.396 92.5092 18.68 91.9041 19.0606 91.3606C19.4271 90.8914 19.8431 90.4631 20.3014 90.0831C21.0637 89.398 21.9969 88.9314 23.0023 88.7325C23.6721 88.5561 24.3762 88.5561 25.046 88.7325C25.2143 88.6948 25.3887 88.6948 25.5569 88.7325H25.7395H25.5204H25.0095C24.3943 88.6185 23.7634 88.6185 23.1482 88.7325C22.2448 88.9739 21.4166 89.4383 20.7394 90.0831C20.338 90.4499 19.9715 90.8531 19.6445 91.2876C19.3219 91.757 19.0755 92.2744 18.9146 92.8207C18.5636 93.8876 18.5636 95.039 18.9146 96.1059C19.2014 96.9871 19.6744 97.7963 20.3014 98.4785C20.7331 98.9528 21.2237 99.3699 21.7613 99.7196L22.1993 100.012C22.2261 100.041 22.2458 100.076 22.2568 100.114C22.2678 100.152 22.2699 100.192 22.2628 100.231C22.2557 100.27 22.2397 100.306 22.216 100.338C22.1923 100.37 22.1616 100.395 22.1263 100.413Z" fill="#FFD066"/>
<path d="M235.007 27.5185C235.59 28.2521 236.008 29.1026 236.233 30.0122C236.458 30.9218 236.485 31.8693 236.312 32.7902C236.139 33.7112 235.77 34.5841 235.23 35.3498C234.69 36.1155 233.991 36.7561 233.182 37.228C231.44 37.7472 229.572 37.6367 227.903 36.9159C226.235 36.1951 224.874 34.91 224.058 33.2858C223.298 31.8328 223.144 30.1379 223.629 28.5716C224.115 27.0053 225.201 25.695 226.649 24.9268C228.12 24.2728 229.778 24.1751 231.315 24.6517C232.852 25.1284 234.164 26.1471 235.007 27.5185Z" fill="#D39C11"/>
<path d="M235.992 26.4235C236.574 27.1625 236.991 28.018 237.213 28.9319C237.436 29.8459 237.46 30.797 237.284 31.721C237.107 32.645 236.734 33.5203 236.19 34.2878C235.647 35.0553 234.944 35.697 234.131 36.1695C232.377 36.6606 230.507 36.5203 228.846 35.7732C227.185 35.026 225.839 33.7194 225.043 32.0813C224.283 30.6283 224.129 28.9334 224.615 27.3671C225.1 25.8008 226.186 24.4905 227.635 23.7223C229.118 23.078 230.785 22.9968 232.324 23.4941C233.862 23.9914 235.167 25.0329 235.992 26.4235Z" fill="#E0BA44"/>
<path d="M234.095 25.6935C233.336 27.1973 232.352 28.576 231.175 29.7817C230.215 31.1698 229.045 32.401 227.708 33.4319C228.467 31.9389 229.452 30.5721 230.628 29.3802C231.607 27.9962 232.774 26.7554 234.095 25.6935Z" fill="#D39C11"/>
<path d="M234.788 26.606C234.122 27.961 233.234 29.1949 232.161 30.2562C231.274 31.4944 230.203 32.5899 228.985 33.5048C229.651 32.1498 230.539 30.9159 231.613 29.8546C232.512 28.6271 233.582 27.5333 234.788 26.606Z" fill="#D39C11"/>
<path d="M228.693 35.0746C228.693 35.0746 228.693 35.0746 228.511 35.0746H228C227.359 34.814 226.776 34.4295 226.285 33.9431C225.538 33.2448 224.963 32.3826 224.606 31.4244C224.197 30.242 224.197 28.9566 224.606 27.7742C224.788 27.1484 225.072 26.5565 225.445 26.0221C225.812 25.5529 226.228 25.1246 226.686 24.7446C227.465 24.0563 228.408 23.5788 229.423 23.3575C230.085 23.2197 230.768 23.2197 231.43 23.3575L231.941 23.5765H232.124H231.394C230.777 23.4788 230.149 23.4788 229.533 23.5765C228.642 23.8409 227.828 24.3168 227.16 24.9636C226.729 25.3108 226.349 25.7162 226.029 26.1681C225.707 26.6375 225.46 27.1549 225.299 27.7012C224.951 28.7686 224.951 29.9191 225.299 30.9864C225.586 31.8676 226.059 32.6768 226.686 33.359C227.118 33.8333 227.608 34.2504 228.146 34.6001L228.584 34.8556L228.693 35.0746Z" fill="#FFD066"/>
<path d="M51.433 146.588C54.1423 147.067 56.6717 148.27 58.7534 150.069C60.835 151.868 62.3914 154.197 63.2578 156.809C65.4476 162.613 71.2869 173.235 75.9219 172.213L86.5422 163.562C82.7349 159.674 79.8206 155.003 78.0021 149.874C75.4474 142.026 64.5351 135.273 64.5351 135.273L51.433 146.588Z" fill="#6F9331"/>
<path d="M75.8474 150.019C76.2697 150.851 76.51 151.764 76.5522 152.696C76.5944 153.628 76.4377 154.558 76.0925 155.425C75.7472 156.292 75.2212 157.075 74.5497 157.723C73.8782 158.371 73.0765 158.868 72.1979 159.181C68.9133 160.094 65.0813 156.699 64.1324 153.451C63.6701 151.906 63.8268 150.243 64.5693 148.812C65.3118 147.381 66.5817 146.296 68.1104 145.785C69.6946 145.422 71.3571 145.652 72.7829 146.433C74.2088 147.213 75.2991 148.489 75.8474 150.019Z" fill="#99C445"/>
<path d="M74.1696 149.034C73.1225 150.335 71.8934 151.478 70.5201 152.429C69.281 153.567 67.8786 154.515 66.3596 155.239C67.4067 153.938 68.6358 152.795 70.0091 151.845C71.2621 150.723 72.6618 149.778 74.1696 149.034Z" fill="#6F9331"/>
<path d="M74.6802 150.093C73.72 151.276 72.5884 152.31 71.3227 153.159C70.2608 154.203 69.026 155.055 67.6731 155.677C68.6333 154.494 69.7649 153.46 71.0306 152.611C72.0925 151.567 73.3273 150.715 74.6802 150.093Z" fill="#6F9331"/>
<path d="M53.9868 146.004C55.8835 146.188 57.6993 146.864 59.2547 147.966C60.8101 149.067 62.0512 150.555 62.8553 152.283C65.1181 157.502 68.5852 168.344 74.972 170.935L84.3879 163.343C81.3794 160.437 79.0167 156.929 77.4537 153.049C76.4605 149.673 74.772 146.542 72.4967 143.858C70.2213 141.174 67.4096 138.995 64.2422 137.463L53.9868 146.004Z" stroke="#99C445" stroke-width="0.25" stroke-miterlimit="10"/>
<path d="M244.715 153.706C245.736 151.145 247.433 148.91 249.625 147.238C251.816 145.567 254.421 144.522 257.16 144.216C263.291 143.267 274.824 139.726 274.788 134.981L268.51 122.789C263.919 125.738 258.736 127.644 253.328 128.374C245.117 129.25 236.139 138.521 236.139 138.521L244.715 153.706Z" fill="#6F9331"/>
<path d="M253.036 130.491C253.936 130.243 254.878 130.191 255.8 130.337C256.722 130.484 257.601 130.827 258.379 131.342C259.157 131.858 259.816 132.534 260.311 133.325C260.806 134.116 261.125 135.005 261.248 135.93C261.504 139.324 257.38 142.427 253.949 142.683C253.136 142.747 252.317 142.65 251.542 142.396C250.767 142.142 250.049 141.737 249.431 141.204C248.814 140.671 248.308 140.021 247.943 139.291C247.578 138.561 247.362 137.766 247.307 136.952C247.335 135.369 247.928 133.848 248.979 132.663C250.029 131.479 251.468 130.708 253.036 130.491Z" fill="#99C445"/>
<path d="M255.482 132.28C255.482 132.28 255.263 132.499 254.861 132.681C254.316 132.861 253.8 133.119 253.329 133.448C253.041 133.656 252.793 133.916 252.599 134.214C252.407 134.491 252.328 134.83 252.38 135.163C252.417 135.316 252.489 135.458 252.591 135.578C252.692 135.699 252.819 135.794 252.964 135.857C253.148 135.935 253.347 135.975 253.548 135.975C253.748 135.975 253.947 135.935 254.131 135.857L255.007 135.565C255.368 135.489 255.741 135.489 256.102 135.565C256.295 135.53 256.493 135.53 256.686 135.565C256.897 135.625 257.095 135.724 257.27 135.857C257.594 136.093 257.836 136.425 257.963 136.806C258.053 137.165 258.053 137.541 257.963 137.901C257.897 138.23 257.76 138.542 257.562 138.813C257.252 139.24 256.837 139.58 256.358 139.799C256.007 139.959 255.64 140.081 255.263 140.164H254.387C253.949 140.164 253.694 140.164 253.657 140.164C253.621 140.164 253.876 139.908 254.277 139.762C254.828 139.553 255.355 139.284 255.847 138.959C256.131 138.772 256.368 138.522 256.54 138.229C256.611 138.094 256.647 137.944 256.647 137.791C256.647 137.639 256.611 137.489 256.54 137.353C256.486 137.232 256.397 137.131 256.285 137.061H256.029C255.538 137.125 255.058 137.26 254.606 137.463C254.263 137.578 253.908 137.651 253.548 137.682H252.964C252.745 137.648 252.535 137.574 252.343 137.463C251.988 137.294 251.682 137.038 251.452 136.719C251.223 136.4 251.077 136.028 251.029 135.638C250.999 135.31 251.035 134.979 251.135 134.666C251.235 134.352 251.398 134.062 251.613 133.813C251.909 133.396 252.313 133.068 252.781 132.864C253.394 132.558 254.068 132.396 254.752 132.389C255.226 132.061 255.482 132.28 255.482 132.28Z" fill="#6F9331"/>
<path d="M251.758 131.951C252.819 133.252 253.68 134.703 254.313 136.258C255.18 137.697 255.821 139.26 256.211 140.894C255.171 139.579 254.311 138.13 253.656 136.587C252.801 135.142 252.162 133.58 251.758 131.951Z" fill="#6F9331"/>
<path d="M252.89 131.659C253.862 132.835 254.65 134.152 255.226 135.565C256.007 136.878 256.574 138.307 256.905 139.799C255.927 138.627 255.139 137.309 254.569 135.893C253.775 134.586 253.207 133.155 252.89 131.659Z" fill="#6F9331"/>
<path d="M244.679 151.078C245.261 149.277 246.3 147.658 247.695 146.379C249.089 145.099 250.791 144.203 252.635 143.778C258.183 142.646 269.496 141.478 273.365 135.747L267.818 124.797C264.375 127.155 260.468 128.748 256.358 129.469C252.847 129.753 249.435 130.77 246.342 132.455C243.249 134.14 240.544 136.456 238.402 139.251L244.679 151.078Z" stroke="#99C445" stroke-width="0.25" stroke-miterlimit="10"/>
<path d="M134.278 156.407L150.883 153.852L185.81 154.217L195.153 155.896L173.912 239.449L147.781 236.31L134.278 156.407Z" fill="#E0E0E0"/>
<path d="M154.059 137.828V153.597C156.296 156.757 159.638 158.961 163.424 159.772C167.209 160.584 171.161 159.943 174.497 157.977L181.248 153.195V136.55L154.059 137.828Z" fill="#FCCAB1"/>
<path d="M149.935 153.56L150.446 147.829L165.372 154.947L164.679 163.233L149.935 153.56Z" fill="#EAEAEA"/>
<path d="M165.373 154.947L167.672 160.277L164.862 161.043L165.373 154.947Z" fill="#CECECE"/>
<path d="M167.672 160.277L169.569 154.947L171.576 161.445L167.672 160.277Z" fill="#CECECE"/>
<path d="M183.329 148.194C183.329 148.413 169.57 154.947 169.57 154.947L171.577 162.832L185.81 154.217L183.329 148.194Z" fill="#EAEAEA"/>
<path d="M124.095 160.934L125.227 157.977L146.832 154.327L164.861 228.718L165.847 291.465L158.949 311.578L129.752 309.825L135.92 270.075L129.168 206.269" fill="#808080"/>
<path d="M205.117 193.676C204.549 181.527 206.219 169.376 210.044 157.831L185.81 154.181L164.862 228.572V293.765L169.095 308.365L204.569 305.956C204.569 305.956 195.956 236.931 195.847 235.507C195.737 234.084 205.117 193.676 205.117 193.676Z" fill="#808080"/>
<path d="M125.555 161.043C125.679 161.609 125.764 162.182 125.811 162.759C125.811 163.854 126.066 165.46 126.285 167.394C126.687 171.337 127.307 176.775 128.037 182.762C128.767 188.748 129.278 194.187 129.533 198.166C129.533 200.137 129.752 201.816 129.789 202.838C129.836 203.409 129.836 203.983 129.789 204.554C129.616 203.997 129.518 203.42 129.497 202.838C129.497 201.743 129.242 200.137 129.023 198.202C128.621 194.26 128.001 188.821 127.307 182.835C126.614 176.848 126.03 171.41 125.774 167.431C125.774 165.46 125.556 163.781 125.519 162.759C125.445 162.188 125.457 161.61 125.555 161.043Z" fill="#666666"/>
<path d="M142.673 154.947C143.147 154.947 146.834 197.107 146.834 197.107L154.133 205.977L152.965 211.672L164.936 233.573V228.608L146.834 154.181L142.673 154.947Z" fill="#666666"/>
<path d="M210.226 158.196C209.9 159.943 209.486 161.673 208.985 163.379C208.766 164.146 208.547 165.022 208.328 165.971C208.109 166.92 207.927 167.942 207.671 169.001C207.233 171.118 206.796 173.454 206.394 175.936C205.993 178.418 205.737 180.791 205.518 182.944C205.518 184.039 205.299 185.061 205.226 186.01C205.153 186.96 205.226 187.872 205.044 188.712C204.825 191.997 204.752 194.041 204.642 194.041C204.596 193.555 204.596 193.066 204.642 192.581C204.642 192.143 204.642 191.559 204.642 190.902V188.675C204.642 187.872 204.642 186.96 204.642 185.974C204.642 184.988 204.642 183.966 204.861 182.871C205.044 180.718 205.336 178.309 205.701 175.826C206.066 173.344 206.577 170.972 207.051 168.855C207.307 167.796 207.525 166.774 207.781 165.825C208.036 164.876 208.292 164.036 208.511 163.233C208.73 162.43 208.949 161.737 209.168 161.116C209.316 160.57 209.499 160.033 209.715 159.51C209.815 159.048 209.987 158.604 210.226 158.196Z" fill="#666666"/>
<path d="M164.935 232.843L176.905 208.459L175.263 203.86L183.11 196.012L188.986 154.765L185.81 154.217L164.862 228.609L164.935 232.843Z" fill="#666666"/>
<path d="M165.409 291.282C165.262 290.536 165.176 289.779 165.154 289.019C165.154 287.559 164.935 285.369 164.789 282.777C164.534 277.521 164.315 270.221 164.278 262.154C164.242 254.087 164.278 246.823 164.497 241.567C164.497 238.902 164.497 236.785 164.789 235.325C164.796 234.555 164.857 233.787 164.972 233.025C165.065 233.789 165.065 234.561 164.972 235.325C164.972 236.785 164.972 238.975 164.972 241.567C164.972 246.823 164.972 254.123 164.972 262.154C164.972 270.184 165.154 277.485 165.3 282.777C165.3 285.406 165.3 287.523 165.3 289.019C165.399 289.769 165.436 290.526 165.409 291.282Z" fill="#666666"/>
<path d="M170.3 250.035C170.291 250.28 170.187 250.513 170.01 250.683C169.833 250.853 169.597 250.948 169.351 250.948C169.109 250.948 168.877 250.852 168.706 250.68C168.535 250.509 168.439 250.277 168.439 250.035C168.439 249.79 168.534 249.554 168.704 249.377C168.874 249.2 169.106 249.096 169.351 249.086C169.603 249.086 169.844 249.186 170.022 249.364C170.2 249.542 170.3 249.783 170.3 250.035Z" fill="#666666"/>
<path d="M170.3 262.154C170.3 262.405 170.2 262.647 170.022 262.825C169.844 263.003 169.603 263.103 169.351 263.103C169.106 263.093 168.874 262.989 168.704 262.812C168.534 262.635 168.439 262.399 168.439 262.154C168.439 261.912 168.535 261.68 168.706 261.508C168.877 261.337 169.109 261.241 169.351 261.241C169.597 261.241 169.833 261.336 170.01 261.506C170.187 261.676 170.291 261.908 170.3 262.154Z" fill="#666666"/>
<path d="M144.096 104.611C142.782 105.049 135.665 106.582 138.074 115.817C140.483 125.052 146.687 122.898 146.687 122.898L144.096 104.611Z" fill="#EAB69B"/>
<path d="M144.424 119.467C144.424 119.467 144.242 119.467 143.913 119.467C143.462 119.391 143.028 119.23 142.636 118.993C142.041 118.664 141.52 118.216 141.103 117.679C140.875 117.339 140.668 116.985 140.483 116.62C140.318 116.208 140.196 115.78 140.118 115.343C140.018 114.587 140.08 113.818 140.3 113.088C140.52 112.358 140.894 111.683 141.395 111.108C141.672 110.758 142.02 110.472 142.417 110.269C142.709 110.086 142.892 110.05 142.928 110.269C142.526 110.685 142.148 111.124 141.797 111.583C141.033 112.637 140.695 113.94 140.848 115.233C140.952 115.968 141.227 116.668 141.651 117.277C142 117.773 142.432 118.205 142.928 118.555C143.767 119.212 144.461 119.321 144.424 119.467Z" fill="#D68772"/>
<path d="M145.044 115.233C145.044 115.233 144.752 115.014 144.351 114.722C143.886 114.32 143.285 114.111 142.672 114.138C142.252 114.184 141.85 114.334 141.504 114.576C141.248 114.767 141.015 114.987 140.811 115.233L140.446 115.014C140.701 114.795 140.847 114.649 140.92 114.685C140.993 114.722 140.92 114.941 140.92 115.233H140.555C140.624 114.789 140.813 114.372 141.103 114.028C141.522 113.66 142.044 113.431 142.599 113.371C143.052 113.338 143.505 113.426 143.913 113.627C144.227 113.798 144.511 114.02 144.752 114.284C145.117 114.831 145.154 115.196 145.044 115.233Z" fill="#D68772"/>
<path d="M191.285 103.078C192.599 103.516 199.753 105.049 197.344 114.284C194.935 123.519 188.694 121.584 188.694 121.584L191.285 103.078Z" fill="#EAB69B"/>
<path d="M190.957 118.08C190.957 118.08 191.614 117.825 192.453 117.241C192.941 116.868 193.372 116.425 193.731 115.927C193.93 115.627 194.101 115.309 194.242 114.978C194.377 114.637 194.475 114.282 194.534 113.919C194.682 113.197 194.682 112.451 194.534 111.729C194.367 111.144 194.108 110.59 193.767 110.086C193.147 109.247 192.563 108.882 192.599 108.772C192.636 108.663 192.818 108.772 193.11 108.772C193.512 108.984 193.871 109.269 194.169 109.612C194.612 110.13 194.958 110.723 195.191 111.364C195.471 112.173 195.546 113.038 195.41 113.883C195.349 114.312 195.226 114.73 195.045 115.124C194.868 115.493 194.66 115.847 194.424 116.182C194.008 116.73 193.487 117.189 192.891 117.533C192.493 117.749 192.061 117.897 191.614 117.971C191.139 118.153 190.957 118.117 190.957 118.08Z" fill="#D68772"/>
<path d="M190.337 114.028C190.337 114.028 190.337 113.627 190.666 113.152C190.875 112.87 191.151 112.644 191.469 112.495C191.871 112.28 192.329 112.191 192.782 112.24C193.333 112.286 193.856 112.503 194.279 112.86C194.575 113.13 194.801 113.468 194.936 113.846L194.571 114.065C194.571 113.749 194.571 113.566 194.571 113.517C194.571 113.517 194.79 113.517 195.045 113.846L194.68 114.028C194.485 113.774 194.251 113.552 193.987 113.371C193.646 113.151 193.259 113.013 192.855 112.97C192.234 112.924 191.62 113.12 191.14 113.517C190.629 113.627 190.41 114.028 190.337 114.028Z" fill="#D68772"/>
<path d="M184.899 142.391C177.599 149.91 151.505 144.581 147.892 141.223C144.279 137.864 142.271 94.7555 142.271 94.7555C140.775 72.4892 153.512 71.1386 165.775 67.9995C178.037 64.8603 191.103 71.9052 192.307 90.2657C192.417 90.2657 190.811 136.295 184.899 142.391Z" fill="#FCCAB1"/>
<path d="M144.278 121.767C162.344 122.241 178.366 120.854 191.066 116.365C191.066 116.365 188.767 135.273 188.11 137.28C186.687 141.843 186.03 147.683 166.723 146.004C147.417 144.325 147.855 142.755 146.249 138.412C145.215 132.915 144.557 127.353 144.278 121.767Z" fill="#4C3737"/>
<path d="M171.906 115.525C171.906 115.525 171.614 115.853 170.957 116.364C170.022 117.084 169.034 117.73 168.001 118.299C167.29 118.704 166.545 119.046 165.774 119.321H165.081H164.752H164.351C164.207 119.354 164.057 119.354 163.913 119.321C163.714 119.265 163.544 119.134 163.439 118.956C163.313 118.682 163.25 118.382 163.256 118.08C163.263 117.564 163.324 117.05 163.439 116.547C163.521 116.016 163.644 115.491 163.804 114.977C164.096 113.955 164.424 112.897 164.789 111.838C165.555 109.685 166.358 107.713 167.125 105.888L167.672 104.574V104.282V103.662C167.672 102.822 167.453 102.019 167.344 101.289C167.013 99.7344 166.769 98.1623 166.614 96.5803C166.789 96.9668 166.924 97.3705 167.015 97.7849C167.355 98.9132 167.635 100.059 167.855 101.216C168.039 102.01 168.173 102.815 168.256 103.625C168.274 103.734 168.274 103.845 168.256 103.954V104.574C168.256 104.574 168.256 104.574 168.256 104.757C168.242 104.866 168.242 104.976 168.256 105.085C168.074 105.487 167.928 105.961 167.745 106.399C167.015 108.224 166.249 110.05 165.482 112.313C165.117 113.371 164.789 114.43 164.497 115.452C164.341 115.929 164.219 116.417 164.132 116.912C164.022 117.379 163.961 117.856 163.95 118.336C163.924 118.517 163.924 118.701 163.95 118.883H164.825H165.446C166.189 118.643 166.91 118.338 167.599 117.971C168.913 117.314 169.935 116.693 170.628 116.291C171.015 115.975 171.445 115.717 171.906 115.525Z" fill="#E2A893"/>
<path d="M172.928 91.4702L187.563 92.8938L188.147 89.4991L173.038 85.7759L172.928 91.4702Z" fill="#4C3737"/>
<path d="M173.548 103.735C173.548 103.735 175.556 96.033 181.139 96.763C186.723 97.4931 187.198 104.282 187.198 104.282L173.548 103.735Z" fill="#EFA98E"/>
<path d="M173.548 103.735C173.886 102.239 174.734 100.908 175.946 99.969C177.158 99.03 178.658 98.5417 180.191 98.588C181.842 98.5587 183.451 99.1141 184.733 100.156C186.015 101.198 186.888 102.659 187.198 104.282C187.198 104.282 176.687 103.954 173.548 103.735Z" fill="#ECE9DE"/>
<path d="M176.979 103.917C176.979 103.917 176.979 99.8291 180.811 99.6831C184.643 99.5371 184.461 104.282 184.461 104.282C182.023 104.523 179.563 104.4 177.162 103.917" fill="#70924F"/>
<path d="M187.197 104.282C187.197 104.282 186.832 103.224 185.92 101.837C185.382 101.026 184.687 100.331 183.876 99.7926C182.874 99.1856 181.727 98.858 180.555 98.8436C179.375 98.8457 178.217 99.1606 177.198 99.7561C176.348 100.236 175.604 100.882 175.008 101.654C174.475 102.403 173.987 103.183 173.548 103.99C173.499 103.737 173.499 103.477 173.548 103.224C173.759 102.55 174.066 101.911 174.461 101.326C175.057 100.459 175.828 99.7253 176.723 99.1721C177.825 98.5032 179.084 98.1379 180.373 98.1135C181.673 98.1334 182.939 98.5262 184.022 99.2451C184.886 99.8498 185.608 100.634 186.139 101.545C186.762 102.329 187.131 103.283 187.197 104.282Z" fill="#443949"/>
<path d="M185.591 102.238C185.591 102.421 184.934 102.64 184.095 102.64C183.255 102.64 182.598 102.421 182.635 102.238C182.671 102.056 183.292 101.91 184.095 101.91C184.898 101.91 185.555 102.019 185.591 102.238Z" fill="white"/>
<path d="M149.57 103.26C149.57 103.26 151.577 95.5584 157.161 96.2884C162.745 97.0185 163.219 103.808 163.219 103.808L149.57 103.26Z" fill="#EFA98E"/>
<path d="M149.57 103.26C149.908 101.765 150.756 100.434 151.967 99.4946C153.179 98.5556 154.68 98.0674 156.212 98.1136C157.864 98.0843 159.473 98.6397 160.755 99.6816C162.037 100.723 162.91 102.185 163.219 103.808C163.219 103.808 152.709 103.479 149.57 103.26Z" fill="#ECE9DE"/>
<path d="M153.804 103.443C153.804 103.443 153.804 99.3911 157.453 99.2086C161.103 99.0261 161.103 103.808 161.103 103.808C158.665 104.049 156.205 103.926 153.804 103.443Z" fill="#70924F"/>
<path d="M163.219 103.808C163.219 103.808 162.854 102.786 161.942 101.362C161.413 100.554 160.716 99.869 159.898 99.3546C158.91 98.7147 157.754 98.3842 156.577 98.4056C155.401 98.4 154.244 98.702 153.22 99.2816C152.383 99.7795 151.642 100.422 151.03 101.18C150.008 102.53 149.716 103.589 149.57 103.516C149.424 103.443 149.57 103.26 149.57 102.749C149.797 102.094 150.103 101.469 150.483 100.888C151.141 99.9004 152.03 99.0886 153.073 98.5225C154.116 97.9564 155.281 97.6532 156.468 97.639C157.767 97.6589 159.034 98.0517 160.117 98.7706C161.01 99.3566 161.739 100.161 162.234 101.107C162.83 101.886 163.173 102.828 163.219 103.808Z" fill="#443949"/>
<path d="M161.614 101.764C161.614 101.946 160.994 102.202 160.154 102.202C159.315 102.202 158.658 101.946 158.658 101.764C158.658 101.581 159.351 101.435 160.154 101.435C160.957 101.435 161.614 101.545 161.614 101.764Z" fill="white"/>
<path d="M148.074 92.8937C148.074 92.8937 163.475 92.6382 163.548 92.3462C163.621 92.0542 163.548 86.4694 163.548 86.4694L148.074 89.6815V92.8937Z" fill="#4C3737"/>
<path d="M144.351 108.772C144.351 108.772 140.993 82.6367 147.197 75.9203C147.197 75.9203 176.978 85.0459 182.051 81.2861C187.124 77.5264 187.562 75.5188 187.562 75.5188C187.562 75.5188 189.752 87.1265 190.956 91.5797C191.601 95.9485 191.601 100.388 190.956 104.757L192.964 103.917C192.964 103.917 194.861 73.9492 192.526 72.5987C190.19 71.2481 179.132 59.9324 168.621 63.1811C158.11 66.4298 140.044 75.1903 139.935 81.6147C139.825 88.039 143.256 109.21 143.256 109.21L144.351 108.772Z" fill="#4C3737"/>
<path d="M162.781 65.1522C162.781 65.1522 180.518 55.9172 184.46 59.2024C185.638 60.4091 186.508 61.8814 186.997 63.4951C187.486 65.1087 187.58 66.8164 187.27 68.4739C187.918 68.0233 188.689 67.7818 189.478 67.7818C190.268 67.7818 191.038 68.0233 191.686 68.4739C193.766 70.1165 193.511 76.8329 193.511 76.8329L180.737 72.4892L162.781 65.1522Z" fill="#4C3737"/>
<path d="M147.198 75.8109C147.198 75.8109 139.352 81.3227 139.899 85.3014L140.629 90.8132L143.695 87.163C144.349 83.2393 145.528 79.4211 147.198 75.8109Z" fill="#331E1E"/>
<path d="M159.095 79.0594C187.416 71.759 179.643 58.6913 179.643 58.6913L173.913 60.2974C180.336 71.248 150.701 76.8328 150.701 76.8328L159.095 79.0594Z" fill="#331E1E"/>
<path d="M173.365 81.7972C173.365 81.7972 187.015 74.7158 187.27 68.474C187.27 68.474 188.949 67.1234 190.336 67.817C190.336 67.817 191.175 75.4824 177.891 82.0893L173.365 81.7972Z" fill="#331E1E"/>
<path d="M188.147 78.512C188.147 78.512 193.366 78.804 193.548 80.118V85.8124L188.731 82.1622L188.147 78.512Z" fill="#331E1E"/>
<path d="M175.628 91.7256L174.496 86.1407L177.891 86.9803L179.059 92.0541L175.628 91.7256Z" fill="#331E1E"/>
<path d="M181.504 92.3096L181.03 87.7468L181.832 87.9658L183 92.4556L181.504 92.3096Z" fill="#331E1E"/>
<path d="M162.199 86.7614L160.958 92.4557L158.184 92.6747L159.826 87.2359L162.199 86.7614Z" fill="#331E1E"/>
<path d="M155.373 92.7477L156.395 87.9659L155.044 88.55L154.351 91.4701L153.949 88.5865L152.234 88.8055L152.599 92.7477H155.373Z" fill="#331E1E"/>
<path d="M145.41 278.543C147.442 275.092 148.513 271.16 148.513 267.155C148.513 263.15 147.442 259.217 145.41 255.766L136.395 256.642C137.888 259.994 138.586 263.646 138.434 267.312C138.282 270.978 137.285 274.56 135.52 277.777L145.41 278.543Z" fill="#5E7A29"/>
<path d="M145.592 277.959C145.592 277.959 146.723 267.41 133.767 260.548L123.841 264.855C123.841 264.855 136.541 270.695 134.497 277.12L145.592 277.959Z" fill="#6F9331"/>
<path d="M144.279 277.594C144.256 274.207 143.223 270.903 141.311 268.107C139.4 265.31 136.697 263.149 133.549 261.898L126.578 264.891C126.578 264.891 137.527 269.71 135.812 276.864" stroke="#99C445" stroke-width="0.25" stroke-miterlimit="10"/>
<path d="M140.264 268.542C139.615 267.875 138.736 267.481 137.807 267.44C136.878 267.399 135.968 267.715 135.264 268.323C134.315 269.564 135.264 271.973 136.797 272.958C137.417 273.477 138.212 273.739 139.019 273.692C139.826 273.644 140.584 273.291 141.14 272.703C142.089 271.462 141.505 269.819 140.264 268.542Z" fill="#99C445"/>
<path d="M138.73 268.505C138.73 268.505 138.73 268.505 138.73 268.834C138.919 269.069 139.079 269.326 139.205 269.6C139.242 269.756 139.242 269.919 139.205 270.075C139.261 270.215 139.261 270.372 139.205 270.513C139.142 270.542 139.073 270.557 139.004 270.557C138.934 270.557 138.866 270.542 138.803 270.513C138.598 270.43 138.421 270.291 138.292 270.111L137.964 269.746C137.834 269.607 137.686 269.484 137.526 269.381H137.234H136.905C136.727 269.329 136.537 269.329 136.358 269.381C136.232 269.492 136.132 269.629 136.066 269.783C136.013 269.924 136.013 270.08 136.066 270.221C136.106 270.478 136.193 270.725 136.322 270.951C136.449 271.114 136.596 271.262 136.759 271.389L137.088 271.681C137.307 271.681 137.416 271.681 137.453 271.681C137.489 271.681 137.453 271.681 137.27 271.352C137.093 271.109 136.934 270.853 136.796 270.586C136.765 270.429 136.765 270.268 136.796 270.111C136.802 270.047 136.822 269.985 136.853 269.928C136.885 269.872 136.927 269.822 136.978 269.783H137.453C137.662 269.936 137.847 270.121 138 270.33L138.402 270.732H138.694H138.986C139.17 270.769 139.36 270.759 139.539 270.701C139.718 270.644 139.88 270.541 140.007 270.403C140.108 270.291 140.18 270.156 140.218 270.01C140.256 269.864 140.259 269.711 140.226 269.564C140.174 269.305 140.075 269.057 139.934 268.834C139.728 268.543 139.468 268.296 139.168 268.104C138.876 268.542 138.767 268.469 138.73 268.505Z" fill="#6F9331"/>
<path d="M140.446 269.454C139.68 269.662 138.944 269.969 138.257 270.367C137.534 270.666 136.868 271.086 136.286 271.608C137.057 271.414 137.795 271.106 138.476 270.695C139.643 270.111 140.519 269.564 140.446 269.454Z" fill="#6F9331"/>
<path d="M140.044 269.053C139.328 269.182 138.645 269.456 138.037 269.856C137.375 270.116 136.768 270.5 136.249 270.987C136.958 270.814 137.635 270.531 138.256 270.148C138.905 269.876 139.508 269.507 140.044 269.053Z" fill="#6F9331"/>
<path d="M188.037 274.856C188.037 274.856 183.84 265.001 198.183 256.605L205.774 262.373C203.433 263.212 201.506 264.92 200.391 267.142C199.277 269.365 199.061 271.931 199.788 274.309L188.037 274.856Z" fill="#5E7A29"/>
<path d="M188.329 274.163C188.329 274.163 188.146 263.577 201.686 257.92L211.175 263.103C211.175 263.103 198 267.775 199.424 274.346L188.329 274.163Z" fill="#6F9331"/>
<path d="M189.68 273.944C190.018 270.586 191.347 267.405 193.498 264.805C195.649 262.205 198.525 260.304 201.76 259.343L208.475 262.993C208.475 262.993 197.125 266.644 198.147 273.944" stroke="#99C445" stroke-width="0.25" stroke-miterlimit="10"/>
<path d="M194.496 265.293C195.201 264.685 196.11 264.37 197.04 264.41C197.969 264.451 198.848 264.845 199.496 265.512C200.336 266.826 199.058 269.162 197.526 270.002C196.865 270.46 196.054 270.647 195.259 270.525C194.465 270.403 193.748 269.98 193.255 269.345C192.416 268.031 193.146 266.425 194.496 265.293Z" fill="#99C445"/>
<path d="M196.029 265.402C195.981 265.516 195.905 265.616 195.81 265.695C195.6 265.903 195.416 266.136 195.263 266.388C195.212 266.555 195.212 266.733 195.263 266.899C195.233 266.962 195.218 267.03 195.218 267.1C195.218 267.169 195.233 267.238 195.263 267.301C195.331 267.333 195.406 267.35 195.482 267.35C195.557 267.35 195.632 267.333 195.701 267.301C195.804 267.284 195.902 267.246 195.99 267.189C196.078 267.133 196.153 267.059 196.212 266.972L196.576 266.644L197.051 266.315H197.343H197.671C197.864 266.318 198.048 266.396 198.182 266.534C198.321 266.632 198.424 266.773 198.474 266.936C198.511 267.092 198.511 267.254 198.474 267.41C198.434 267.657 198.319 267.886 198.146 268.067C198.007 268.232 197.847 268.38 197.671 268.505L197.306 268.724C197.087 268.724 196.978 268.724 196.941 268.724C196.905 268.724 196.941 268.724 197.124 268.396C197.335 268.179 197.53 267.947 197.708 267.702C197.745 267.546 197.745 267.384 197.708 267.228C197.741 267.179 197.758 267.122 197.758 267.063C197.758 267.005 197.741 266.948 197.708 266.899H197.525H197.306L196.722 267.41C196.602 267.559 196.453 267.683 196.284 267.775H195.993H195.701C195.507 267.796 195.311 267.767 195.132 267.69C194.953 267.614 194.797 267.492 194.679 267.337C194.616 267.2 194.584 267.05 194.584 266.899C194.584 266.748 194.616 266.599 194.679 266.461C194.755 266.22 194.879 265.997 195.044 265.804C195.259 265.528 195.533 265.303 195.847 265.147C195.847 265.402 195.846 265.366 196.029 265.402Z" fill="#6F9331"/>
<path d="M194.204 266.206C194.971 266.438 195.688 266.81 196.321 267.301C197.005 267.654 197.622 268.124 198.146 268.688C197.401 268.431 196.699 268.062 196.066 267.593C195.375 267.233 194.747 266.764 194.204 266.206Z" fill="#6F9331"/>
<path d="M194.68 265.804C195.361 266.028 196.002 266.361 196.578 266.79C197.208 267.113 197.776 267.546 198.256 268.067C197.575 267.843 196.934 267.51 196.359 267.082C195.728 266.758 195.16 266.325 194.68 265.804Z" fill="#6F9331"/>
<path d="M185.629 274.345L200.446 271.717L203.001 276.755L186.87 280.186L185.629 274.345Z" fill="#666666"/>
<path d="M134.679 274.93L146.395 277.594L145.373 282.924L132.38 280.186L134.679 274.93Z" fill="#666666"/>
<path d="M157.202 127.095C158.075 125.828 178.319 124.316 178.96 125.377C179.6 126.439 176.491 133.526 168.548 134.066C159.216 134.473 156.548 127.772 157.202 127.095Z" fill="#331E1E"/>
<path style="mix-blend-mode:multiply" opacity="0.5" d="M157.202 127.095C158.075 125.828 178.319 124.316 178.96 125.377C179.6 126.439 176.491 133.526 168.548 134.066C159.216 134.473 156.548 127.772 157.202 127.095Z" fill="url(#paint0_linear)"/>
<path d="M158.303 127.541C158.501 126.388 175.421 125.155 175.973 126.146C175.57 128.058 174.547 129.784 173.063 131.056C171.579 132.328 169.717 133.075 167.766 133.18C160.862 133.243 158.069 128.738 158.303 127.541Z" fill="#ECE9DE"/>
<path d="M161.436 126.634C159.599 126.834 158.351 127.252 158.302 127.541C158.252 127.829 159.368 130.658 162.266 132.04C161.853 130.105 161.601 128.152 161.436 126.634Z" fill="#CECECE"/>
<path d="M159.286 129.899C161.191 129.673 163.106 129.546 165.024 129.518C163.372 129.966 161.698 130.323 160.008 130.588C159.729 130.401 159.485 130.168 159.286 129.899Z" fill="#1E0F10"/>
</g>
<defs>
<linearGradient id="paint0_linear" x1="9422.2" y1="2169.47" x2="9320.62" y2="2156.24" gradientUnits="userSpaceOnUse">
<stop stop-color="#9B6335"/>
<stop offset="0.3" stop-color="#996134"/>
<stop offset="0.48" stop-color="#905A31"/>
<stop offset="0.62" stop-color="#824D2C"/>
<stop offset="0.75" stop-color="#6E3C25"/>
<stop offset="0.86" stop-color="#54251C"/>
<stop offset="0.97" stop-color="#350A11"/>
<stop offset="1" stop-color="#29000D"/>
</linearGradient>
<clipPath id="clip0">
<rect width="334" height="517.542" fill="white" transform="translate(0 0.87207)"/>
</clipPath>
</defs>
</svg>
