<svg width="30" height="28" viewBox="0 0 30 28" fill="none" xmlns="http://www.w3.org/2000/svg">
<path d="M29.2104 22.1257C29.2104 22.7242 28.9844 23.233 28.5323 23.652L25.2385 26.7048C24.7864 27.1238 24.2375 27.3333 23.5916 27.3333C22.9458 27.3333 22.3969 27.1238 21.9448 26.7048L14.8244 20.1055L7.70412 26.7048C7.25203 27.1238 6.70307 27.3333 6.05724 27.3333C5.4114 27.3333 4.86244 27.1238 4.41036 26.7048L1.1166 23.652C0.664519 23.233 0.438477 22.7242 0.438477 22.1257C0.438477 21.5271 0.664519 21.0183 1.1166 20.5993L8.23693 14L1.1166 7.40063C0.664519 6.98163 0.438477 6.47284 0.438477 5.87426C0.438477 5.27568 0.664519 4.76689 1.1166 4.34788L4.41036 1.29513C4.86244 0.876128 5.4114 0.666626 6.05724 0.666626C6.70307 0.666626 7.25203 0.876128 7.70412 1.29513L14.8244 7.89446L21.9448 1.29513C22.3969 0.876128 22.9458 0.666626 23.5916 0.666626C24.2375 0.666626 24.7864 0.876128 25.2385 1.29513L28.5323 4.34788C28.9844 4.76689 29.2104 5.27568 29.2104 5.87426C29.2104 6.47284 28.9844 6.98163 28.5323 7.40063L21.412 14L28.5323 20.5993C28.9844 21.0183 29.2104 21.5271 29.2104 22.1257Z" fill="#E4322B"/>
</svg>
