<svg width="81" height="94" viewBox="0 0 81 94" fill="none" xmlns="http://www.w3.org/2000/svg">
<mask id="mask0_3109_15898" style="mask-type:alpha" maskUnits="userSpaceOnUse" x="0" y="0" width="81" height="94">
<rect x="0.804688" y="0.200012" width="80" height="93" fill="#D9D9D9"/>
</mask>
<g mask="url(#mask0_3109_15898)">
<path d="M80.4672 87.3171C80.4672 89.8628 70.1586 91.5986 49.1172 91.5986C49.1172 91.5986 50.3647 90.5271 50.3647 87.9814C50.3647 85.4356 50.5194 75.609 49.1172 79.5117C67.5782 79.5117 80.4672 82.1689 80.4672 87.3171Z" fill="url(#paint0_linear_3109_15898)"/>
<path d="M11.7414 55.2054L27.6266 52.9538L64.8568 54.2452L49.6627 57.187L11.7414 55.2054Z" fill="#019220"/>
<path d="M27.622 52.9543L27.6698 55.9123L11.745 55.2015" fill="#00BC29"/>
<mask id="mask1_3109_15898" style="mask-type:alpha" maskUnits="userSpaceOnUse" x="0" y="11" width="76" height="46">
<path d="M38.1349 11.4265C38.1162 11.4265 38.099 11.4269 38.0808 11.4269C38.0622 11.4269 38.045 11.4265 38.0263 11.4265C19.1045 11.4265 0.804688 24.9756 0.804688 24.9756L12.057 56.2847C12.1469 56.5349 13.0826 56.6872 13.0826 56.6872H20.8856H55.2756H63.0786C63.0786 56.6872 64.0143 56.5349 64.1042 56.2847L75.3565 24.9756C75.3565 24.9756 57.0567 11.4265 38.1349 11.4265Z" fill="url(#paint1_linear_3109_15898)"/>
</mask>
<g mask="url(#mask1_3109_15898)">
<path d="M38.131 11.4265C38.1123 11.4265 38.0951 11.427 38.0769 11.427C38.0583 11.427 38.0411 11.4265 38.0224 11.4265C19.1006 11.4265 0.800781 24.9756 0.800781 24.9756L12.0531 56.2847C12.143 56.5349 13.0787 56.6872 13.0787 56.6872H20.8817H55.2717H63.0747C63.0747 56.6872 64.0104 56.5349 64.1003 56.2847L75.3526 24.9756C75.3526 24.9756 57.0528 11.4265 38.131 11.4265Z" fill="url(#paint2_linear_3109_15898)"/>
</g>
<mask id="mask2_3109_15898" style="mask-type:alpha" maskUnits="userSpaceOnUse" x="12" y="14" width="49" height="44">
<path d="M12.4648 19.9382L21.3661 57.0408H51.5608L60.42 19.0833C60.42 19.0833 28.042 8.12196 12.4648 19.9382Z" fill="url(#paint3_linear_3109_15898)"/>
</mask>
<g mask="url(#mask2_3109_15898)">
<path d="M12.4609 19.9379L21.3622 57.0406H51.5569L60.4161 19.0831C60.4161 19.0831 28.0381 8.12173 12.4609 19.9379Z" fill="url(#paint4_linear_3109_15898)"/>
</g>
<mask id="mask3_3109_15898" style="mask-type:alpha" maskUnits="userSpaceOnUse" x="24" y="14" width="24" height="44">
<path d="M24.5859 19.9382L28.8051 57.0408H43.1171L47.3162 19.0833C47.3163 19.0833 31.9695 8.12196 24.5859 19.9382Z" fill="url(#paint5_linear_3109_15898)"/>
</mask>
<g mask="url(#mask3_3109_15898)">
<path d="M24.5938 19.9379L28.8129 57.0406H43.1249L47.324 19.0831C47.3241 19.0831 31.9773 8.12173 24.5938 19.9379Z" fill="url(#paint6_linear_3109_15898)"/>
</g>
<path d="M10.3608 32.7334C10.6153 32.8404 10.9248 32.8909 11.307 32.8877C12.0671 32.8812 12.9932 32.6558 13.8888 32.4379C14.8228 32.2105 15.7887 31.9755 16.6293 31.9683C17.1088 31.9643 17.5098 32.033 17.8553 32.1783C18.1538 32.3038 18.4032 32.4812 18.6101 32.7161L18.6331 32.6985L20.1195 35.0686C20.3623 35.4557 20.4809 35.8803 20.4821 36.3665C20.4832 36.7742 20.3997 37.2117 20.2267 37.7041C19.9233 38.5678 19.382 39.4799 18.8586 40.3619C18.2593 41.3719 17.6424 42.4117 17.4337 43.3027C17.5626 43.3183 17.7016 43.3254 17.8525 43.3241C18.6128 43.3177 19.5388 43.0923 20.4343 42.8744C21.3684 42.6471 22.3345 42.4119 23.1749 42.4049C23.6541 42.4008 24.0552 42.4695 24.4009 42.6148C24.8134 42.7882 25.1319 43.0607 25.3747 43.4478L26.6407 45.4675L26.6481 45.4794C26.6538 45.4879 26.6595 45.4964 26.665 45.5051C26.6767 45.5238 26.6881 45.5426 26.6993 45.5614L26.8578 45.8155L26.8364 45.8314C26.9639 46.1288 27.0267 46.4497 27.0277 46.8031C27.0288 47.2107 26.9453 47.6483 26.7723 48.1409C26.469 49.0043 25.9277 49.9166 25.4043 50.7988C24.805 51.8087 24.188 52.8487 23.9795 53.7398C24.1084 53.7554 24.2474 53.7625 24.3984 53.7612C25.1584 53.7548 26.0845 53.5295 26.9802 53.3116C27.9143 53.0842 28.8804 52.8491 29.7208 52.842C30.2002 52.838 30.6013 52.9067 30.9468 53.052L31.0581 53.0989L33.0917 56.3733L31.9694 55.9017C31.7149 55.7946 31.4052 55.7441 31.0231 55.7473C30.2632 55.7537 29.3372 55.9791 28.4408 56.1971C27.5068 56.4244 26.5409 56.6594 25.7007 56.6664C25.2215 56.6705 24.8204 56.6018 24.4746 56.4565C24.0622 56.2831 23.7436 56.0107 23.5009 55.6236L22.0056 53.2386L22.0312 53.2212C21.9091 52.929 21.8488 52.6143 21.8478 52.2681C21.8467 51.8605 21.9303 51.4229 22.1032 50.9305C22.4064 50.0674 22.9474 49.1554 23.4713 48.2725C24.0705 47.2626 24.6875 46.2227 24.8961 45.3316C24.7671 45.3159 24.6281 45.3089 24.4772 45.3101C23.7175 45.3166 22.7917 45.5418 21.8954 45.7599C20.9613 45.9873 19.9953 46.2223 19.1548 46.2295C18.6756 46.2335 18.2745 46.1649 17.9288 46.0195C17.5163 45.8461 17.1978 45.5737 16.955 45.1866L15.6738 43.1433L15.6646 43.1291C15.6618 43.1245 15.6589 43.1199 15.6562 43.1152L15.4336 42.7583L15.4656 42.7335C15.3566 42.4551 15.3028 42.1569 15.302 41.8312C15.3008 41.4235 15.3844 40.9859 15.5574 40.4936C15.8607 39.6302 16.402 38.7179 16.9257 37.8353C17.4275 36.9896 17.9463 36.1152 18.2206 35.3344C18.2751 35.1792 18.3183 35.0334 18.3507 34.8953C17.5206 34.7951 16.4194 35.063 15.3498 35.3233C14.4156 35.5506 13.4497 35.7857 12.6092 35.7928C12.1297 35.7969 11.7287 35.7282 11.3831 35.5829L11.2719 35.5361L9.23828 32.2617L10.3608 32.7334Z" fill="#14B6BE"/>
<path d="M47.3106 38.3082C47.3869 38.5332 47.5239 38.7631 47.7296 39.011C48.1386 39.504 48.7581 39.9852 49.3571 40.4505C49.9819 40.9359 50.6279 41.4377 51.0803 41.9829C51.3383 42.2938 51.514 42.5935 51.6175 42.899C51.7069 43.1628 51.7412 43.4231 51.7209 43.6872L51.743 43.6926L51.2174 45.9648C51.1316 46.3359 50.9586 46.6465 50.6887 46.9143C50.4625 47.1388 50.1746 47.3244 49.8084 47.4818C49.166 47.7578 48.3698 47.905 47.5999 48.0474C46.7184 48.2105 45.8107 48.3784 45.2038 48.7313C45.2638 48.8241 45.334 48.9187 45.4153 49.0166C45.8245 49.5097 46.4438 49.9908 47.0427 50.4562C47.6676 50.9415 48.3137 51.4434 48.7659 51.9886C49.0238 52.2994 49.1996 52.5991 49.3032 52.9047C49.4267 53.2693 49.4451 53.627 49.3593 53.998L48.911 55.9339L48.9084 55.9453C48.9067 55.9536 48.905 55.962 48.903 55.9704C48.8989 55.9883 48.8946 56.006 48.89 56.0237L48.8332 56.2667L48.8129 56.2615C48.7154 56.5081 48.5704 56.7253 48.3744 56.92C48.1482 57.1446 47.8603 57.3302 47.4939 57.4877C46.8518 57.7635 46.0555 57.9109 45.2855 58.0533C44.404 58.2164 43.4963 58.3843 42.8893 58.7373C42.9494 58.8301 43.0196 58.9248 43.1009 59.0227C43.5099 59.5156 44.1292 59.9968 44.7283 60.4623C45.3531 60.9477 45.9993 61.4495 46.4515 61.9947C46.7095 62.3057 46.8852 62.6054 46.9887 62.9109L47.022 63.0093L46.2852 66.1354L45.9489 65.1434C45.8727 64.9184 45.7356 64.6884 45.5299 64.4405C45.121 63.9477 44.5017 63.4665 43.9022 63.0007C43.2775 62.5154 42.6315 62.0135 42.1793 61.4686C41.9214 61.1577 41.7456 60.858 41.642 60.5524C41.5185 60.1878 41.5001 59.8302 41.586 59.459L42.1152 57.1729L42.1385 57.18C42.2359 56.9399 42.3788 56.7276 42.5709 56.5369C42.7971 56.3124 43.0851 56.1268 43.4513 55.9694C44.0932 55.6935 44.8891 55.5463 45.6598 55.4037C46.5413 55.2406 47.449 55.0727 48.056 54.7197C47.9959 54.6269 47.9257 54.5322 47.8445 54.4343C47.4357 53.9416 46.8164 53.4606 46.217 52.9948C45.5922 52.5095 44.9461 52.0076 44.4938 51.4624C44.2359 51.1516 44.0602 50.8519 43.9566 50.5463C43.833 50.1817 43.8146 49.824 43.9006 49.453L44.3538 47.4943L44.3568 47.4806C44.3578 47.4761 44.3589 47.4718 44.36 47.4674L44.4398 47.1261L44.4707 47.1334C44.5675 46.9094 44.7046 46.7105 44.8853 46.5311C45.1115 46.3066 45.3996 46.1209 45.7658 45.9636C46.4079 45.6877 47.2042 45.5403 47.9746 45.3979C48.7127 45.2613 49.476 45.1201 50.0567 44.8706C50.1721 44.821 50.2763 44.7692 50.3704 44.7145C49.9833 44.1173 49.2468 43.5451 48.5314 42.9893C47.9066 42.504 47.2605 42.002 46.8082 41.4569C46.5502 41.1459 46.3745 40.8463 46.2709 40.5408L46.2376 40.4424L46.9744 37.3163L47.3106 38.3082Z" fill="#056682"/>
<path d="M73.6419 44.2742C69.4415 46.0118 65.5516 48.59 62.2946 51.8708C60.7252 53.4517 59.5168 54.9346 58.2711 56.8343C57.9793 57.2794 57.6985 57.7317 57.429 58.1905C57.3557 58.3153 57.2833 58.4406 57.2117 58.5664C57.188 58.6083 57.1643 58.6503 57.1405 58.6922C57.034 58.8829 57.0463 58.8603 57.1775 58.6245C57.1843 58.8048 56.8558 59.2292 56.7739 59.3898C56.5345 59.8594 56.3071 60.335 56.0923 60.8159C56.034 60.9464 55.9817 61.0808 55.9197 61.2096C56.2087 60.6093 56.0636 60.8675 56.0051 61.0131C55.8806 61.3226 55.7555 61.6315 55.6387 61.9437C55.545 62.194 55.2513 63.1567 55.5487 62.1739C55.4664 62.4459 55.3713 62.7148 55.2887 62.9868C55.2473 63.1228 55.2081 63.2593 55.1679 63.3956C55.0147 63.9141 55.4035 62.5108 55.203 63.2796C55.1315 63.5542 55.0662 63.8299 55.001 64.1057C54.8676 64.6692 55.17 63.2824 55.0575 63.8495C55.0254 64.0115 54.9921 64.1732 54.9615 64.3355C54.9397 64.4513 54.9185 64.5673 54.8982 64.6834C54.7687 65.4227 54.9699 64.1521 54.9005 64.6448C54.861 64.9249 54.8219 65.2049 54.7893 65.4856C54.773 65.6261 54.7578 65.7666 54.7437 65.9072C54.6759 66.5851 54.7679 65.5437 54.735 65.978C54.6271 67.4038 54.3433 68.9567 53.6714 70.2602C53.5643 70.4681 53.3012 71.1163 52.9991 71.0542C52.7042 70.9937 52.7554 70.2304 52.7672 70.0745C53.2104 64.22 54.913 58.3937 57.8651 53.2047C60.2564 49.0014 63.6045 45.2976 67.475 42.4554C69.7381 40.7936 72.1881 39.4254 74.7524 38.3648C75.0739 38.2318 75.1237 38.4516 75.1692 38.7712C75.2505 39.3422 75.1236 40.0806 75.0136 40.6412C74.86 41.4233 74.6687 42.2149 74.3696 42.9611C74.2329 43.3022 73.9996 44.1262 73.6419 44.2742Z" fill="#FFCD00"/>
<path d="M49.1801 29.8269C49.3553 28.6906 49.9615 27.681 50.8443 27.0551C50.3238 26.1347 49.8031 25.2143 49.2826 24.2939C47.6732 25.4349 46.5682 27.2755 46.2487 29.347C47.2259 29.507 48.203 29.667 49.1801 29.8269Z" fill="#14B6BE"/>
<path d="M12.1814 33.4495C13.1751 32.5995 14.5613 32.677 15.416 33.6303C15.508 32.4371 15.5999 31.2441 15.6919 30.0509C14.8371 29.0976 13.451 29.0201 12.4573 29.8701C12.3653 31.0633 12.2734 32.2564 12.1814 33.4495Z" fill="#056682"/>
<path d="M52.461 54.4632C53.1706 53.9391 54.1699 53.995 54.7929 54.5935C54.8502 53.8507 54.9075 53.108 54.9647 52.3652C54.3417 51.7666 53.3423 51.7107 52.6328 52.2349C52.5755 52.9776 52.5183 53.7204 52.461 54.4632Z" fill="#FFCD00"/>
<path d="M60.4082 40.7332C59.6807 42.9289 57.4915 43.951 56.764 46.1465C57.4407 46.6899 58.1173 47.2332 58.794 47.7765C59.5215 45.5808 61.7107 44.5588 62.4382 42.3632C61.7615 41.8199 61.0849 41.2765 60.4082 40.7332Z" fill="#14B6BE"/>
<path d="M52.4026 34.3582C53.2533 34.6571 54.1225 34.7154 55.0103 34.533C54.8656 33.5484 54.9405 32.576 55.2351 31.616C54.383 31.3363 53.5122 31.2973 52.623 31.499C52.7649 32.4641 52.6914 33.4171 52.4026 34.3582Z" fill="#FFCD00"/>
<path d="M39.1356 52.8455C39.7141 53.5872 40.4194 54.1282 41.2517 54.4683C41.585 53.5224 42.0976 52.7111 42.7897 52.0344C42.2011 51.3088 41.4856 50.7839 40.6431 50.4599C40.3165 51.387 39.8139 52.1821 39.1356 52.8455Z" fill="#E4322B"/>
<path d="M56.4598 23.1297C57.0383 23.8715 57.7436 24.4124 58.5759 24.7525C58.9092 23.8067 59.4219 22.9954 60.1139 22.3187C59.5253 21.593 58.8098 21.0682 57.9674 20.7441C57.6407 21.6712 57.1382 22.4664 56.4598 23.1297Z" fill="#E4322B"/>
<path d="M44.8301 17.4647C45.4169 17.8672 45.8763 18.4605 46.1468 19.1697C46.7863 18.8445 47.209 18.1393 47.7401 17.6241C47.2905 17.0662 46.8416 16.5075 46.392 15.9496C45.8714 16.4547 45.1984 16.8181 44.8301 17.4647Z" fill="#FFCD00"/>
<path d="M33.7664 37.1459C34.3634 37.759 34.7756 38.5644 34.9465 39.4594C35.7495 39.2344 36.3779 38.5122 37.0935 38.0386C36.6856 37.277 36.2788 36.5147 35.8708 35.7531C35.1694 36.2174 34.3203 36.479 33.7664 37.1459Z" fill="#14B6BE"/>
<path d="M31.2078 47.5315C31.8048 48.1446 32.2171 48.95 32.3879 49.8451C33.1909 49.62 33.8193 48.8979 34.5349 48.4242C34.127 47.6626 33.7202 46.9003 33.3123 46.1387C32.6108 46.603 31.7617 46.8646 31.2078 47.5315Z" fill="#00BC29"/>
<path d="M29.7111 34.6868C29.7786 33.8122 29.0587 33.0599 28.1032 33.0065C27.1477 32.953 26.3185 33.6187 26.251 34.4932C26.1836 35.3678 26.9035 36.1201 27.859 36.1735C28.8145 36.227 29.6437 35.5613 29.7111 34.6868Z" fill="#FFCD00"/>
<path d="M52.6885 61.4192C52.7564 60.5388 52.0369 59.7817 51.0814 59.7283C50.1259 59.6749 49.2963 60.3452 49.2284 61.2257C49.1605 62.1061 49.88 62.8631 50.8355 62.9166C51.791 62.97 52.6206 62.2996 52.6885 61.4192Z" fill="#E4322B"/>
<path d="M43.0855 42.1965C43.1323 41.5899 42.6314 41.0681 41.9667 41.0309C41.302 40.9937 40.7252 41.4553 40.6785 42.0619C40.6317 42.6684 41.1326 43.1903 41.7973 43.2275C42.462 43.2647 43.0388 42.8031 43.0855 42.1965Z" fill="#FFCD00"/>
<path d="M62.5148 57.8678C62.5613 57.2643 62.0602 56.745 61.3955 56.7078C60.7308 56.6706 60.1542 57.1297 60.1077 57.7332C60.0612 58.3366 60.5623 58.8559 61.227 58.8931C61.8917 58.9303 62.4683 58.4712 62.5148 57.8678Z" fill="#14B6BE"/>
<path d="M62.2144 34.9124C62.2815 34.0425 61.5613 33.2939 60.6058 33.2405C59.6503 33.1871 58.8214 33.8489 58.7543 34.7188C58.6872 35.5888 59.4074 36.3373 60.3629 36.3907C61.3184 36.4442 62.1473 35.7823 62.2144 34.9124Z" fill="#056682"/>
<path d="M41.4233 29.528C41.1422 29.9527 40.7147 30.382 40.3011 30.7972C39.7277 31.373 39.1348 31.9684 38.9248 32.5596C39.0555 32.6379 39.2113 32.6996 39.3977 32.7468C39.8502 32.8614 40.4174 32.8707 40.9658 32.8797C41.5147 32.8886 42.0822 32.8979 42.5356 33.0127C42.7798 33.0745 42.9724 33.1612 43.1242 33.2776C43.2949 33.4085 43.4101 33.5732 43.4766 33.7812L43.6944 34.4643L43.7817 34.737C43.7822 34.7357 43.4403 34.5694 43.4408 34.5681C43.31 34.4898 43.1542 34.428 42.9679 34.3809C42.5153 34.2663 41.9482 34.2571 41.3997 34.2481C40.8508 34.2391 40.2832 34.2298 39.8299 34.115C39.5856 34.0532 39.3931 33.9665 39.2413 33.8501C39.0706 33.7193 38.9553 33.5545 38.8889 33.3464L38.4565 31.9911C38.4559 31.9894 38.4553 31.9879 38.4548 31.9863C38.4542 31.9846 38.4539 31.9829 38.4534 31.9813L38.4489 31.9672L38.4494 31.967C38.3887 31.7651 38.3853 31.5599 38.4401 31.3401C38.4904 31.1384 38.5885 30.929 38.74 30.7002C39.0211 30.2755 39.4486 29.8462 39.8621 29.431C40.2753 29.0161 40.7025 28.5872 40.9832 28.1631C41.1001 27.9865 41.1851 27.8216 41.2407 27.663L41.2381 27.6682C40.7453 27.3739 39.9584 27.3611 39.1975 27.3487C38.6486 27.3397 38.0811 27.3304 37.6278 27.2156C37.3835 27.1538 37.191 27.0671 37.0391 26.9508L36.6094 25.5838C36.7605 25.6996 36.9522 25.7859 37.1955 25.8474C37.6481 25.962 38.2152 25.9713 38.7637 25.9803C39.3125 25.9892 39.8801 25.9985 40.3334 26.1132C40.5777 26.1751 40.7702 26.2617 40.9221 26.3782C41.0927 26.509 41.208 26.6738 41.2744 26.8818C41.2767 26.889 41.2783 26.8962 41.2805 26.9034L41.2812 26.9032L41.7086 28.2419C41.775 28.45 41.7798 28.6613 41.7233 28.8881C41.6728 29.0898 41.5748 29.2992 41.4233 29.528Z" fill="#E4322B"/>
<path d="M66.415 27.3301C66.6651 27.7193 67.0547 28.1381 67.4315 28.5432C67.9539 29.105 68.4942 29.6859 68.6695 30.1956C68.5416 30.2351 68.3905 30.2568 68.2108 30.2615C67.7746 30.273 67.2336 30.18 66.7104 30.09C66.1868 30 65.6454 29.9069 65.2084 29.9184C64.973 29.9246 64.7858 29.9597 64.6361 30.0259C64.468 30.1003 64.3512 30.2116 64.2792 30.3661L64.0428 30.8735L63.9482 31.0761C63.9478 31.0749 64.2806 31.0025 64.2802 31.0014C64.4082 30.962 64.5593 30.9401 64.7389 30.9354C65.1752 30.924 65.7162 31.017 66.2394 31.1069C66.7629 31.1969 67.3044 31.29 67.7413 31.2785C67.9768 31.2723 68.1639 31.2372 68.3136 31.171C68.4818 31.0966 68.5985 30.9853 68.6705 30.8308L69.1397 29.824C69.1402 29.8228 69.1409 29.8217 69.1415 29.8204C69.1421 29.8192 69.1425 29.8179 69.1431 29.8167L69.148 29.8062C69.2143 29.6556 69.2257 29.4919 69.1827 29.3065C69.1432 29.1364 69.0585 28.9517 68.9238 28.742C68.6736 28.3527 68.2841 27.9339 67.9073 27.5288C67.5308 27.124 67.1416 26.7055 66.8919 26.3168C66.7879 26.155 66.7138 26.0081 66.6674 25.8715L66.6697 25.8761C67.1518 25.7282 67.9024 25.8572 68.6284 25.982C69.1519 26.072 69.6934 26.1651 70.1303 26.1536C70.3658 26.1474 70.5529 26.1123 70.7026 26.0461L71.1696 25.0295C71.0207 25.0954 70.8343 25.1303 70.5998 25.1365C70.1636 25.1479 69.6225 25.0549 69.0993 24.965C68.5757 24.875 68.0343 24.7819 67.5974 24.7934C67.362 24.7995 67.1748 24.8347 67.0251 24.9009C66.8569 24.9752 66.7402 25.0865 66.6682 25.2411C66.6657 25.2464 66.6638 25.2519 66.6615 25.2573L66.1972 26.2514C66.1252 26.4059 66.1117 26.574 66.1561 26.7652C66.1955 26.9356 66.2802 27.1203 66.415 27.3301Z" fill="#00BC29"/>
<path d="M48.2885 56.8266L11.7385 55.2061L11.4214 88.0387L18.4473 88.7263L49.3261 91.7482L49.6621 56.9518L48.2885 56.8266Z" fill="#00BC29"/>
<path d="M35.3726 56.2536L24.5354 55.7731L24.2131 89.2903L35.0655 90.3523L35.3726 56.2536Z" fill="#E4322B"/>
<path d="M64.5239 88.1359L49.3233 91.7484L49.6594 56.952L64.8512 54.246L64.5239 88.1359Z" fill="#FFAA00"/>
<path d="M64.5239 88.1359L49.3233 91.7484L49.6594 56.952L64.8512 54.246L64.5239 88.1359Z" fill="#019220"/>
<path d="M61.6275 54.8213L54.8674 56.0137L54.5353 90.511L61.3203 88.8986L61.6275 54.8213Z" fill="#E4322B"/>
<path opacity="0.1" d="M48.2943 56.8262L46.6435 56.753C40.6442 79.5274 25.3331 86.4058 15.6741 88.4539L18.4532 88.7259L49.3319 91.7478L49.668 56.9515L48.2943 56.8262Z" fill="#AD4000"/>
<path d="M19.829 29.8461C19.829 29.8461 12.469 37.3162 8.59989 35.9731C4.73073 34.63 6.50355 25.5389 6.50355 25.5389C6.50355 25.5389 13.3805 31.0051 21.5859 25.1661L19.829 29.8461Z" fill="#E4322B"/>
<path d="M6.50658 25.541C6.50658 25.541 7.24886 21.6133 21.5764 25.1872C21.5764 25.1872 13.8444 31.2204 6.50658 25.541Z" fill="#BD0700"/>
<path d="M22.5464 25.8847C22.5464 25.8847 10.1743 25.9389 7.10233 20.8761C4.03027 15.8134 11.7591 8.75599 11.7591 8.75599C11.7591 8.75599 15.214 20.729 27.3862 23.0732L22.5464 25.8847Z" fill="#E4322B"/>
<path d="M11.7675 8.76162C11.7675 8.76162 15.0825 5.68955 27.3695 23.0851C27.3695 23.0851 15.5536 21.3891 11.7675 8.76162Z" fill="#BD0700"/>
<path d="M24.2669 20.2658C24.2669 20.2658 16.6003 13.0271 17.7345 8.9999C18.8686 4.97267 27.861 6.40948 27.861 6.40948C27.861 6.40948 22.8278 13.6969 28.9357 21.8719L24.2669 20.2658Z" fill="#E4322B"/>
<path d="M27.8518 6.41518C27.8518 6.41518 31.7357 7.0117 28.9073 21.8655C28.9072 21.8656 22.6313 14.1845 27.8518 6.41518Z" fill="#BD0700"/>
<path d="M37.8253 19.3906L28.0109 12.3438L40.0214 0.599807C40.2315 0.394345 40.5558 0.370135 40.7952 0.542013L46.6633 4.75523C46.935 4.95032 47.0056 5.32973 46.8225 5.61025L37.8253 19.3906Z" fill="#11B025"/>
<path d="M15.9453 51.1753L37.8217 19.392L28.0072 12.3452L7.98542 45.5054C7.81653 45.7851 7.89142 46.1518 8.15627 46.3419L15.095 51.3239C15.3714 51.5225 15.7521 51.4559 15.9453 51.1753Z" fill="#00BC29"/>
<path d="M15.0717 33.7837L23.6735 39.9598L29.7916 31.0711L20.6658 24.5187L15.0717 33.7837Z" fill="#E4322B"/>
<path d="M36.6332 3.90992L31.7524 8.68237L40.644 15.0666L44.3183 9.42787L36.6332 3.90992Z" fill="#E4322B"/>
<path opacity="0.15" d="M7.68729 46.0029L28.0098 12.3447L40.382 0.247112L40.6781 0.459732L29.3211 13.2863L8.11031 46.3067L7.68729 46.0029Z" fill="white"/>
</g>
<defs>
<linearGradient id="paint0_linear_3109_15898" x1="55.9729" y1="88.3135" x2="83.0297" y2="85.1452" gradientUnits="userSpaceOnUse">
<stop stop-color="#C4C0C0"/>
<stop offset="1" stop-color="#F4F1F1" stop-opacity="0"/>
</linearGradient>
<linearGradient id="paint1_linear_3109_15898" x1="38.0806" y1="56.1702" x2="38.0806" y2="13.2856" gradientUnits="userSpaceOnUse">
<stop stop-color="white"/>
<stop offset="1"/>
</linearGradient>
<linearGradient id="paint2_linear_3109_15898" x1="36.1918" y1="56.6872" x2="36.1918" y2="11.4265" gradientUnits="userSpaceOnUse">
<stop stop-color="white"/>
<stop offset="0.9944" stop-color="white" stop-opacity="0"/>
</linearGradient>
<linearGradient id="paint3_linear_3109_15898" x1="36.4424" y1="57.5135" x2="36.4424" y2="24.4282" gradientUnits="userSpaceOnUse">
<stop stop-color="white"/>
<stop offset="1"/>
</linearGradient>
<linearGradient id="paint4_linear_3109_15898" x1="35.2261" y1="57.0408" x2="35.2261" y2="14.4551" gradientUnits="userSpaceOnUse">
<stop stop-color="white"/>
<stop offset="0.9944" stop-color="white" stop-opacity="0"/>
</linearGradient>
<linearGradient id="paint5_linear_3109_15898" x1="35.9511" y1="57.5135" x2="35.9511" y2="24.4282" gradientUnits="userSpaceOnUse">
<stop stop-color="white"/>
<stop offset="1"/>
</linearGradient>
<linearGradient id="paint6_linear_3109_15898" x1="35.3842" y1="57.0408" x2="35.3842" y2="14.4551" gradientUnits="userSpaceOnUse">
<stop stop-color="white"/>
<stop offset="0.9944" stop-color="white" stop-opacity="0"/>
</linearGradient>
</defs>
</svg>
