<svg width="32" height="32" viewBox="0 0 32 32" fill="none" xmlns="http://www.w3.org/2000/svg">
<path fill-rule="evenodd" clip-rule="evenodd" d="M27.3137 27.3137C33.5621 21.0653 33.5621 10.9347 27.3137 4.68629C21.0653 -1.5621 10.9347 -1.5621 4.68629 4.68629C-1.5621 10.9347 -1.5621 21.0653 4.68629 27.3137C10.9347 33.5621 21.0653 33.5621 27.3137 27.3137ZM23.1139 15.0286C23.1139 14.762 23.0187 14.5334 22.8282 14.3429C22.6378 14.1525 22.4092 14.0572 22.1425 14.0572L17.9428 14.0572L17.9428 9.85746C17.9428 9.5908 17.8475 9.36224 17.6571 9.17178C17.4666 8.98131 17.238 8.88608 16.9714 8.88608L15.0286 8.88608C14.762 8.88608 14.5334 8.98131 14.3429 9.17178C14.1525 9.36224 14.0572 9.5908 14.0572 9.85746V14.0572H9.85746C9.5908 14.0572 9.36224 14.1525 9.17178 14.3429C8.98131 14.5334 8.88608 14.762 8.88608 15.0286V16.9714C8.88608 17.238 8.98131 17.4666 9.17178 17.6571C9.36224 17.8475 9.5908 17.9428 9.85746 17.9428H14.0572V22.1425C14.0572 22.4092 14.1525 22.6378 14.3429 22.8282C14.5334 23.0187 14.762 23.1139 15.0286 23.1139L16.9714 23.1139C17.238 23.1139 17.4666 23.0187 17.6571 22.8282C17.8475 22.6378 17.9428 22.4092 17.9428 22.1425L17.9428 17.9428H22.1425C22.4092 17.9428 22.6378 17.8475 22.8282 17.6571C23.0187 17.4666 23.1139 17.238 23.1139 16.9714V15.0286Z" fill="#E4322B"/>
</svg>
