<svg width="21" height="20" viewBox="0 0 21 20" fill="none" xmlns="http://www.w3.org/2000/svg">
<path d="M15.9189 12.4511C15.6599 12.7021 15.5409 13.0651 15.5999 13.4211L16.4889 18.3411C16.5639 18.7581 16.3879 19.1801 16.0389 19.4211C15.6969 19.6711 15.2419 19.7011 14.8689 19.5011L10.4399 17.1911C10.2859 17.1091 10.1149 17.0651 9.93988 17.0601H9.66888C9.57488 17.0741 9.48288 17.1041 9.39888 17.1501L4.96888 19.4711C4.74988 19.5811 4.50188 19.6201 4.25888 19.5811C3.66688 19.4691 3.27188 18.9051 3.36888 18.3101L4.25888 13.3901C4.31788 13.0311 4.19888 12.6661 3.93988 12.4111L0.328876 8.9111C0.0268758 8.6181 -0.0781242 8.1781 0.0598758 7.7811C0.193876 7.3851 0.535876 7.0961 0.948876 7.0311L5.91888 6.3101C6.29688 6.2711 6.62888 6.0411 6.79888 5.7011L8.98888 1.2111C9.04088 1.1111 9.10788 1.0191 9.18888 0.941104L9.27888 0.871104C9.32588 0.819104 9.37988 0.776104 9.43988 0.741104L9.54888 0.701104L9.71888 0.631104H10.1399C10.5159 0.670104 10.8469 0.895104 11.0199 1.2311L13.2389 5.7011C13.3989 6.0281 13.7099 6.2551 14.0689 6.3101L19.0389 7.0311C19.4589 7.0911 19.8099 7.3811 19.9489 7.7811C20.0799 8.1821 19.9669 8.6221 19.6589 8.9111L15.9189 12.4511Z" fill="#E0E0E0"/>
</svg>
