<svg width="32" height="28" viewBox="0 0 32 28" fill="none" xmlns="http://www.w3.org/2000/svg">
<path d="M30.7392 6.12097L25.5688 0.949691C25.3871 0.768428 25.141 0.666626 24.8844 0.666626C24.6278 0.666626 24.3817 0.768428 24.2001 0.949691L10.4641 14.6857L6.82359 11.0457C6.64207 10.8642 6.39591 10.7623 6.13925 10.7623C5.88258 10.7623 5.63643 10.8642 5.45491 11.0457L0.28323 16.2169C0.10187 16.3985 0 16.6446 0 16.9013C0 17.1579 0.10187 17.404 0.28323 17.5856L9.74949 27.0499C9.83932 27.1397 9.94598 27.211 10.0634 27.2597C10.1808 27.3083 10.3066 27.3333 10.4336 27.3333C10.4452 27.3333 10.4557 27.3269 10.4669 27.3269C10.4765 27.3269 10.4869 27.3325 10.4969 27.3325C10.7455 27.3325 10.9917 27.238 11.181 27.0491L30.7392 7.48965C30.8292 7.39982 30.9005 7.29315 30.9492 7.17572C30.9979 7.0583 31.023 6.93243 31.023 6.80531C31.023 6.67819 30.9979 6.55232 30.9492 6.4349C30.9005 6.31747 30.8292 6.21079 30.7392 6.12097Z" fill="#E4322B"/>
</svg>
