<svg width="780" height="463" viewBox="0 0 780 463" fill="none" xmlns="http://www.w3.org/2000/svg">
<g opacity="0.1" clip-path="url(#clip0)">
<path d="M529.77 602.233L514.098 561.735C526.108 545.635 535.214 527.963 541.475 509.484L505.109 466.231L444.273 451.623L391.741 523.813L348.319 439.549L285.324 411.286L225.464 453.302L206.956 396.947L180.107 389.217L138.134 399.816C136.687 400.194 135.57 401.493 135.469 402.962L131.071 454.911C130.949 456.453 131.806 457.878 133.177 458.463L172.883 476.026C175.863 496.1 181.972 515.84 191.51 534.463L169.282 571.743C168.478 573.051 168.648 574.676 169.614 575.856L203.207 615.683C204.173 616.863 205.799 617.245 207.214 616.701L247.708 601.032C264.476 613.47 282.883 622.905 302.199 629.13L312.881 671.248C313.259 672.695 314.532 673.765 316.027 673.913L367.952 678.39C369.494 678.512 370.919 677.655 371.504 676.284L389.061 636.577C409.134 633.599 428.872 627.492 447.493 617.956L484.772 640.189C486.081 640.994 487.705 640.824 488.885 639.858L528.706 606.266C529.932 605.274 530.314 603.649 529.77 602.233Z" fill="#828282"/>
<path opacity="0.6" d="M337.796 480.856C321.295 469.006 316.494 446.878 325.73 429.44L314.581 424.427C304.185 444.846 308.279 469.886 324.753 485.866C326.584 487.607 328.556 489.269 330.642 490.806C344.911 501.078 362.641 503.031 378.121 497.766L372.458 486.743C361.04 490.047 348.243 488.349 337.796 480.856Z" fill="#BDBDBD"/>
<path opacity="0.6" d="M455.105 537.561C474.791 517.175 487.113 491.076 490.281 462.657L484.31 461.2C481.432 488.598 469.665 513.712 450.711 533.321C447.802 536.357 444.715 539.186 441.482 541.974C422.993 557.577 401.236 566.776 378.883 569.738C338.69 575.168 296.647 560.568 268.587 527.354C262.954 520.674 258.012 513.362 253.944 505.746C253.181 504.269 251.331 503.705 249.807 504.494C249.526 504.651 249.272 504.855 249.017 505.058C248.123 505.987 247.876 507.415 248.53 508.585C248.791 509.053 249.26 509.344 249.522 509.812C249.653 510.046 250.017 510.149 250.148 510.384C250.2 510.477 250.226 510.524 250.279 510.618C253.624 516.61 257.204 522.472 261.506 527.868C262.373 528.981 263.12 530.099 264.033 531.186C266.899 534.559 269.833 537.834 273.021 540.905C294.264 561.468 321.691 573.973 351.544 576.527C385.829 579.43 419.138 568.817 445.439 546.642C448.859 543.75 452.034 540.749 455.105 537.561Z" fill="#BDBDBD"/>
<path d="M232.704 398.415L289.726 358.351L352.721 386.615L395.013 468.746C395.515 469.755 396.911 469.835 397.565 468.917L448.674 398.688L509.51 413.297L545.876 456.55C546.13 455.794 546.41 455.085 546.663 454.33L588.777 443.652C590.224 443.274 591.294 442.001 591.442 440.506L595.84 388.557C595.961 387.015 595.104 385.59 593.734 385.004L554.027 367.442C551.047 347.368 544.939 327.628 535.401 309.004L557.629 271.725C558.433 270.416 558.263 268.792 557.297 267.612L523.703 227.785C522.737 226.605 521.112 226.223 519.697 226.767L479.203 242.436C462.435 229.998 444.028 220.563 424.711 214.337L414.03 172.22C413.652 170.773 412.353 169.656 410.884 169.555L358.938 165.151C357.396 165.029 355.971 165.886 355.386 167.256L337.829 206.963C317.756 209.941 298.018 216.048 279.397 225.585L242.118 203.352C240.809 202.547 239.185 202.717 238.005 203.683L198.184 237.274C197.004 238.24 196.622 239.866 197.167 241.281L212.839 281.78C200.404 298.547 190.971 316.954 184.748 336.272L184.628 336.277L211.478 344.008L228.947 397.074C229.336 398.76 231.285 399.391 232.704 398.415Z" fill="#828282"/>
<path opacity="0.6" d="M330.204 376.527C331.044 374.953 331.957 373.399 333.016 371.887C345.923 353.873 371.08 349.776 389.067 362.638C390.705 363.812 392.228 365.111 393.658 366.462C399.81 372.422 403.883 380.158 405.307 388.758C407.038 399.336 404.572 409.985 398.321 418.695C392.906 426.262 385.288 431.313 376.952 433.757L382.615 444.78C392.564 441.375 401.631 434.962 408.246 425.804C416.391 414.44 419.647 400.586 417.384 386.744C415.146 372.948 407.586 360.835 396.222 352.688C372.748 335.827 339.97 341.231 323.112 364.705C321.555 366.864 320.242 369.132 319.075 371.441L330.204 376.527Z" fill="#BDBDBD"/>
<path opacity="0.6" d="M495.096 406.176C497.996 371.889 487.354 338.53 465.177 312.225C419.357 257.977 337.943 251.05 283.657 296.894C280.331 299.733 277.129 302.687 274.105 305.849C260.997 319.431 251.034 335.678 244.912 353.527C244.337 355.137 245.231 356.849 246.815 357.376C247.962 357.78 249.195 357.46 249.995 356.584C250.318 356.281 250.541 355.911 250.712 355.447C256.512 338.453 266.029 322.947 278.52 310.017C281.409 307.053 284.423 304.204 287.635 301.489C339.332 257.828 416.866 264.403 460.53 316.109C481.689 341.14 491.827 372.938 489.044 405.564C488.988 406.454 488.86 407.324 488.758 408.241L494.729 409.697C494.846 408.588 494.958 407.358 495.096 406.176Z" fill="#BDBDBD"/>
</g>
<defs>
<clipPath id="clip0">
<rect width="636" height="623" fill="white" transform="translate(469.967) rotate(60.8257)"/>
</clipPath>
</defs>
</svg>
