<svg width="881" height="407" viewBox="0 0 881 407" fill="none" xmlns="http://www.w3.org/2000/svg">
<path d="M5.5 319.5V319L211 62H211.5V275H253V319.5H211.5V396H153V319.5H5.5ZM153 275V196L92 275H153Z" fill="#1C1414"/>
<path d="M614.5 319.5V319L820 62H820.5V275H862V319.5H820.5V396H762V319.5H614.5ZM762 275V196L701 275H762Z" fill="#1C1414"/>
<path d="M512.709 148.147C525.151 173.956 592.923 265.668 571.225 287.397C546.812 298.351 476.881 183.975 512.709 148.147Z" fill="#808080"/>
<path d="M414.275 330.507C414.275 330.507 276.099 355.53 278.02 365.654C279.94 375.777 302.26 404.486 319.545 405.109C336.83 405.732 491.643 396.723 491.643 396.723L482.013 383.668C482.013 383.668 394.654 384.395 406.697 366.9C410.745 361.033 430.418 375.518 506.202 363.629C506.202 363.629 509.368 367.419 504.074 369.08C473.397 378.84 433.221 372.766 433.221 372.766L433.896 389.846C433.896 389.846 575.29 406.978 592.315 407.549C609.34 408.12 633.841 381.124 636.28 371.209C638.72 361.293 502.828 326.51 502.828 326.51" fill="#1C1414"/>
<path d="M481.754 383.668H474.954C470.594 383.668 464.261 383.668 456.424 383.149C436.011 382.087 415.728 379.273 395.797 374.739L387.18 372.558L378.875 370.274L370.882 368.197C368.234 367.574 365.691 367.003 363.096 366.588C358.304 365.688 353.437 365.253 348.562 365.29C344.319 365.386 340.095 365.89 335.948 366.796C332.434 367.495 328.967 368.414 325.567 369.547C322.608 370.482 320.376 371.468 318.093 372.247L313.369 374.064C312.861 374.339 312.32 374.548 311.76 374.687C312.242 374.359 312.765 374.097 313.317 373.908C314.355 373.389 315.912 372.714 317.937 371.832C319.961 370.949 322.453 370.014 325.411 368.976C328.819 367.829 332.284 366.858 335.793 366.069C339.983 365.102 344.262 364.562 348.562 364.46C353.486 364.359 358.408 364.759 363.251 365.654C365.846 366.069 368.442 366.588 371.089 367.263C373.736 367.938 376.28 368.561 379.134 369.288L387.44 371.52C390.243 372.299 393.097 372.974 396.004 373.7C415.897 378.203 436.119 381.102 456.476 382.37C464.262 382.889 470.594 383.149 474.954 383.253H480.145C480.695 383.329 481.235 383.468 481.754 383.668Z" fill="#030000"/>
<path d="M604.304 363.11H602.747L600.93 362.798H599.736H598.387L595.272 362.331L591.483 361.967L587.175 361.604H582.296H574.094H571.136C569.112 361.604 567.035 361.604 564.907 361.967H561.637L558.315 362.331C549.335 363.213 539.525 364.719 529.247 366.536C518.97 368.353 509.211 370.378 500.283 371.987C495.819 372.818 491.563 373.493 487.566 374.064L481.805 374.791L479.053 375.102H477.704H476.406C474.745 375.102 473.084 375.414 471.527 375.466H467.167H463.378H460.212H457.668H455.799C455.282 375.521 454.76 375.521 454.242 375.466H463.378H467.167L471.735 374.323C473.24 374.323 474.849 374.323 476.562 373.908H477.86H479.157L481.908 373.597L487.67 372.766C491.615 372.195 495.871 371.468 500.335 370.637C509.211 368.976 518.97 366.899 529.247 365.082C539.525 363.265 549.439 361.76 558.471 360.929L561.793 360.618H565.063L571.291 360.306H574.25C575.236 360.306 576.223 360.306 577.157 360.306H582.348C584.061 360.306 585.722 360.306 587.538 360.618C589.355 360.929 590.497 360.618 591.847 361.033L595.636 361.5L598.802 362.019H600.1L601.294 362.279L603.11 362.694C603.522 362.788 603.923 362.927 604.304 363.11Z" fill="#030000"/>
<path d="M404.516 145.896L428.133 142.21L477.808 142.729L491.096 145.117L460.887 264.003L423.721 259.487L404.516 145.896Z" fill="#E0E0E0"/>
<path d="M432.648 119.419V141.898C435.838 146.383 440.591 149.511 445.972 150.664C451.352 151.817 456.969 150.912 461.716 148.128L471.475 141.275V117.602L432.648 119.419Z" fill="#FCCAB1"/>
<path d="M426.836 141.795L427.511 133.644L448.741 143.768L447.755 155.552L426.836 141.795Z" fill="#EAEAEA"/>
<path d="M448.74 143.768L452.011 151.399L448.014 152.437L448.74 143.768Z" fill="#CECECE"/>
<path d="M452.012 151.399L454.711 143.768L457.566 153.06L452.012 151.399Z" fill="#CECECE"/>
<path d="M474.278 134.215C474.278 134.527 454.709 143.768 454.709 143.768L457.564 154.981L477.808 142.729L474.278 134.215Z" fill="#EAEAEA"/>
<path d="M390.033 152.334L391.642 148.128L422.423 142.937L448.013 248.74L449.414 337.983L446.092 360.825L391.486 339.8L407.058 307.56L397.456 216.864" fill="#808080"/>
<path d="M505.267 198.85C504.434 181.514 506.828 164.174 512.326 147.713L477.808 142.521L448.014 248.325V341.046L454.035 361.812L508.745 330.663C508.745 330.663 494.366 304.393 492.082 257.981C492.186 256.579 505.267 198.85 505.267 198.85Z" fill="#808080"/>
<path d="M416.455 143.767C417.13 143.767 422.425 203.729 422.425 203.729L432.806 216.345L431.197 224.496L448.171 255.645V248.584L422.58 142.781L416.455 143.767Z" fill="#666666"/>
<path d="M512.535 148.388C512.084 150.876 511.495 153.337 510.77 155.76L509.887 159.498C509.524 160.796 509.264 162.249 508.901 163.755C508.278 166.766 507.655 170.14 507.136 173.671C506.617 177.201 506.15 180.523 505.839 183.638C505.839 185.144 505.527 186.598 505.423 187.999C505.32 189.401 505.423 190.647 505.423 191.789C505.112 196.461 505.06 199.369 504.904 199.369C504.787 198.699 504.787 198.014 504.904 197.344C504.904 196.669 504.904 195.89 504.904 194.956C504.904 194.021 504.904 192.931 504.904 191.789C504.904 190.647 504.904 189.297 504.904 187.947C504.904 186.598 504.904 185.092 504.904 183.535C505.216 180.42 505.579 177.045 506.15 173.463C506.721 169.881 507.344 166.61 508.019 163.547L509.057 159.29L510.095 155.552C510.407 154.41 510.77 153.424 511.029 152.541L511.808 150.257C511.992 149.613 512.236 148.987 512.535 148.388Z" fill="#666666"/>
<path d="M448.118 254.555L465.195 219.875L462.807 213.386L473.967 202.172L482.324 143.508L477.808 142.729L448.014 248.532L448.118 254.555Z" fill="#666666"/>
<path d="M448.846 343.174C448.642 342.025 448.521 340.862 448.483 339.696C448.483 337.463 448.171 334.245 447.964 330.247C447.6 322.2 447.289 311.142 447.185 299.098C447.082 287.054 447.185 275.788 447.497 267.949C447.497 263.951 447.497 260.681 447.912 258.448C447.885 257.281 447.989 256.114 448.223 254.97C448.301 256.145 448.301 257.325 448.223 258.5C448.223 260.733 448.223 263.951 448.223 267.949C448.223 275.996 448.223 287.054 448.223 299.098C448.223 311.142 448.535 322.408 448.69 330.247C448.69 334.245 448.69 337.463 448.69 339.748C448.829 340.884 448.881 342.03 448.846 343.174Z" fill="#666666"/>
<path d="M455.593 279.007C455.593 279.365 455.451 279.708 455.197 279.961C454.944 280.215 454.601 280.357 454.243 280.357C453.894 280.343 453.564 280.195 453.322 279.943C453.08 279.692 452.945 279.356 452.945 279.007C452.945 278.663 453.082 278.333 453.326 278.089C453.569 277.846 453.899 277.709 454.243 277.709C454.592 277.709 454.928 277.844 455.18 278.086C455.431 278.328 455.579 278.658 455.593 279.007Z" fill="#666666"/>
<path d="M455.593 296.45C455.579 296.799 455.431 297.129 455.18 297.371C454.928 297.613 454.592 297.748 454.243 297.748C453.899 297.748 453.569 297.611 453.326 297.368C453.082 297.125 452.945 296.795 452.945 296.45C452.945 296.101 453.08 295.765 453.322 295.514C453.564 295.262 453.894 295.114 454.243 295.101C454.601 295.101 454.944 295.243 455.197 295.496C455.451 295.749 455.593 296.092 455.593 296.45Z" fill="#666666"/>
<path d="M477.549 313.634L498.623 309.844L502.308 317.009L479.365 321.941L477.549 313.634Z" fill="#666666"/>
<path d="M405.088 314.413L421.802 318.203L420.349 325.834L401.818 321.941L405.088 314.413Z" fill="#666666"/>
<path fill-rule="evenodd" clip-rule="evenodd" d="M487.208 282.214C487.208 282.214 495.18 301.849 495.597 302.755C495.597 302.755 546.188 300.442 553.157 299.565C576.583 296.764 591.12 253.08 544.101 265.916C523.427 271.589 487.208 282.214 487.208 282.214Z" fill="#808080"/>
<path fill-rule="evenodd" clip-rule="evenodd" d="M494.861 300.683C494.861 300.683 495.105 302.303 495.305 302.633C495.504 302.963 546.14 300.511 553.111 299.65C565.949 298.109 576.078 284.369 574.873 274.312C574.119 277.501 573.238 281.852 571.122 284.356C569.006 286.859 567.733 289.741 560.976 293.841C547.85 300.1 521.471 298.217 501.308 299.729C498.053 300.187 497.241 300.461 494.861 300.683Z" fill="#666666"/>
<path fill-rule="evenodd" clip-rule="evenodd" d="M488.303 281.471C488.303 281.471 480.66 284.36 477.16 283.627C473.661 282.894 458.052 272.015 455.86 271.194C453.668 270.373 451.209 269.56 448.999 271.313C444.162 275.455 439.65 279.964 435.502 284.8C434.282 286.971 439.15 290.945 446.282 285.442L448.962 283.22L440.915 294.759C439.618 296.588 443.638 299.411 446.59 298.977C449.543 298.543 451.873 297.894 456.061 293.183C456.061 293.183 452.281 300.207 451.735 301.862C451.612 302.774 451.798 303.7 452.263 304.488C452.729 305.277 453.446 305.883 454.301 306.209C455.891 306.828 461.097 305.637 465.135 299.451C463.892 303.694 465.109 308.749 470.178 306.062C472.653 304.259 474.902 302.161 476.876 299.816L481.737 302.875L495.304 302.632L488.303 281.471Z" fill="#FCCAB1"/>
<path fill-rule="evenodd" clip-rule="evenodd" d="M453.249 305.574C453.594 305.879 453.987 306.126 454.412 306.306C455.996 306.922 461.18 305.734 465.203 299.571C465.609 296.899 467.381 295.848 466.099 295.949C464.818 296.05 464.213 298.947 460.008 302.974C455.803 307.001 453.366 305.618 453.311 305.613L453.249 305.574ZM464.96 304.336C465.507 306.554 467.167 307.833 470.223 306.155C472.688 304.358 474.928 302.268 476.895 299.931L481.735 302.977L495.304 302.633L494.861 300.683C482.593 301.746 482.332 301.152 481.522 300.642C479.154 299.152 477.244 296.545 476.735 297.63C474.721 300.899 473.562 302.164 470.644 304.656C468.136 307.351 464.996 304.417 464.96 304.336Z" fill="#EAB69B"/>
<path d="M560.77 261.005C558.161 261.972 555.5 262.792 552.8 263.462L548.765 264.72C547.332 265.103 545.81 265.671 544.181 266.17C540.98 267.266 537.435 268.567 533.801 270.052C530.167 271.538 526.758 272.956 523.634 274.405C522.208 275.249 520.657 275.768 519.271 276.454C517.885 277.141 516.763 277.937 515.682 278.577C511.082 280.899 508.299 282.478 508.212 282.33C508.781 281.844 509.43 281.46 510.13 281.196C510.769 280.818 511.507 280.382 512.392 279.859C513.277 279.335 514.309 278.725 515.391 278.085C516.473 277.446 517.751 276.69 519.029 275.934C520.308 275.178 521.734 274.335 523.209 273.462C526.333 272.013 529.733 270.467 533.445 269.002C537.158 267.536 540.604 266.294 543.883 265.218L548.497 263.817L552.618 262.707C553.874 262.362 555.012 262.154 555.993 261.906L558.593 261.364C559.306 261.178 560.035 261.058 560.77 261.005Z" fill="#666666"/>
<rect x="367.143" y="268" width="171" height="112" rx="8" fill="#C4C4C4"/>
<ellipse cx="453.143" cy="324.5" rx="17" ry="16.5" fill="#828282"/>
<path d="M418.748 69.592C416.851 70.2424 406.23 72.5187 409.807 86.2854C413.383 100.052 422.65 96.8001 422.65 96.8001L418.748 69.592Z" fill="#EAB69B"/>
<path d="M419.289 91.7058C419.289 91.7058 419.289 91.7058 418.531 91.7058C417.86 91.6227 417.214 91.4013 416.634 91.0554C415.75 90.5446 414.976 89.863 414.358 89.0501C413.989 88.5848 413.679 88.0749 413.437 87.5325C412.789 85.7839 412.789 83.8613 413.437 82.1126C413.749 81.1462 414.267 80.2587 414.954 79.511C415.399 78.9903 415.931 78.5503 416.526 78.2103C416.959 78.2103 417.23 77.9393 417.23 78.2103C417.23 78.4813 416.471 78.9148 415.55 80.2156C415.043 80.9432 414.659 81.7487 414.412 82.6004C414.164 83.6702 414.164 84.7825 414.412 85.8524C414.471 86.4136 414.617 86.9622 414.846 87.4783C415.066 87.9648 415.319 88.4357 415.604 88.8875C416.104 89.6214 416.728 90.2633 417.447 90.7845C418.314 91.3265 419.289 91.489 419.289 91.7058Z" fill="#D68772"/>
<path d="M420.211 85.4183C420.211 85.4183 419.777 85.0932 419.181 84.6054C418.464 84.025 417.555 83.735 416.634 83.7924C416.025 83.8495 415.443 84.0746 414.954 84.4428C414.549 84.696 414.199 85.0276 413.925 85.4183L413.383 85.0931C413.708 84.7137 413.979 84.5512 414.033 84.6054C414.087 84.6596 414.033 84.9847 414.033 85.4183L413.545 85.0931C413.741 84.5458 414.077 84.0599 414.521 83.6841C415.128 83.1473 415.884 82.807 416.688 82.7084C417.361 82.6538 418.036 82.785 418.639 83.0878C419.115 83.327 419.539 83.6586 419.886 84.0633C420.319 84.7679 420.319 85.3641 420.211 85.4183Z" fill="#D68772"/>
<path d="M488.87 67.8579C490.821 68.5083 501.389 70.7847 497.812 84.4972C494.235 98.2096 484.969 95.0118 484.969 95.0118L488.87 67.8579Z" fill="#EAB69B"/>
<path d="M488.383 89.5376C488.383 89.5376 489.358 89.1582 490.605 88.2368C491.341 87.7179 491.982 87.0762 492.501 86.3398C492.8 85.905 493.037 85.4307 493.206 84.9306C493.432 84.4099 493.596 83.8641 493.694 83.3047C493.854 82.2322 493.762 81.137 493.423 80.1069C493.175 79.2387 492.791 78.4154 492.285 77.6679C491.418 76.3671 490.496 75.8794 490.605 75.7168C490.713 75.5542 490.93 75.7168 491.309 75.7168C491.914 76.0189 492.449 76.4433 492.881 76.9633C493.558 77.7186 494.074 78.6038 494.398 79.5649C494.805 80.7668 494.935 82.0454 494.777 83.3047C494.654 83.9344 494.473 84.5513 494.235 85.1474C493.973 85.6963 493.665 86.2221 493.314 86.7193C492.711 87.5315 491.933 88.1981 491.038 88.6704C490.456 89.0222 489.812 89.2613 489.141 89.375C488.654 89.5376 488.383 89.5376 488.383 89.5376Z" fill="#D68772"/>
<path d="M487.406 83.3587C487.406 83.3587 487.406 82.7625 487.894 82.0579C488.221 81.6198 488.649 81.2666 489.14 81.0281C489.742 80.7231 490.423 80.6096 491.091 80.7029C491.91 80.7719 492.686 81.094 493.313 81.6244C493.736 82.0394 494.068 82.5377 494.289 83.0877L493.747 83.3587C493.747 82.925 493.476 82.6541 493.747 82.5999C494.018 82.5457 494.072 82.5999 494.397 83.0335L493.909 83.3587C493.592 83.0075 493.247 82.6813 492.88 82.3831C492.361 82.0414 491.765 81.8364 491.145 81.787C490.226 81.7398 489.321 82.0288 488.598 82.5999C487.84 83.0335 487.84 83.4671 487.406 83.3587Z" fill="#D68772"/>
<path d="M479.496 125.743C468.658 136.908 429.966 128.941 424.601 124.008C419.236 119.076 416.202 55.0126 416.202 55.0126C414.034 21.9509 432.946 19.9456 451.154 15.2302C469.362 10.5149 488.762 21.0837 490.551 48.346C490.551 48.346 488.166 116.637 479.496 125.743Z" fill="#FCCAB1"/>
<path d="M419.072 94.9578C445.897 95.7166 469.686 93.657 488.49 86.9905C488.49 86.9905 485.076 115.066 484.155 118.047C482.042 124.822 481.012 133.494 452.4 130.946C423.787 128.399 424.329 126.177 421.999 119.727C420.46 111.547 419.482 103.271 419.072 94.9578Z" fill="#4C3737"/>
<path d="M460.097 85.7975C460.097 85.7975 459.609 86.3395 458.634 87.0983C457.257 88.1557 455.809 89.1155 454.298 89.9708C453.229 90.5819 452.104 91.0901 450.938 91.4884L449.963 91.7595H449.421H448.175C447.904 91.6564 447.675 91.4656 447.524 91.2175C447.315 90.8173 447.222 90.3671 447.253 89.9167C447.173 89.1419 447.173 88.361 447.253 87.5862C447.253 86.8274 447.633 86.0685 447.795 85.3097C447.958 84.551 448.771 82.2203 449.313 80.6485C450.451 77.4507 451.643 74.4699 452.727 71.8141L453.54 69.8629V69.3751V68.9956V68.6705C453.566 68.5089 453.566 68.3442 453.54 68.1827C453.458 67.0014 453.314 65.8254 453.106 64.6598C452.584 62.3548 452.204 60.0197 451.968 57.668C451.968 57.668 452.293 58.2643 452.618 59.4566C452.944 60.649 453.377 62.3834 453.865 64.5514C453.865 65.6354 454.298 66.7734 454.461 68.1284C454.461 68.1284 454.461 68.4538 454.461 68.6164V69.5377V70.0254L453.648 72.0308C452.618 74.7408 451.426 77.4509 450.342 80.8113C449.8 82.383 449.259 83.9547 448.879 85.4181C448.5 86.8815 448.446 86.9357 448.283 87.6403C448.12 88.3335 448.029 89.042 448.012 89.7541C447.946 90.0211 447.946 90.3002 448.012 90.5671H449.909H450.83C451.948 90.201 453.035 89.7479 454.082 89.2121C456.032 88.2365 457.55 87.3152 458.579 86.719C459.051 86.3584 459.559 86.0495 460.097 85.7975Z" fill="#E2A893"/>
<path d="M461.613 50.1343L483.344 52.248L484.211 47.2075L461.722 41.6792L461.613 50.1343Z" fill="#4C3737"/>
<path d="M462.533 68.3457C462.533 68.3457 465.459 56.9096 473.751 57.9936C482.042 59.0776 482.801 69.1586 482.801 69.1586L462.533 68.3457Z" fill="#EFA98E"/>
<path d="M462.533 68.3458C463.035 66.1252 464.294 64.1486 466.093 62.7543C467.893 61.3601 470.121 60.635 472.396 60.7037C474.848 60.6602 477.238 61.4849 479.141 63.0319C481.045 64.5789 482.341 66.7489 482.801 69.1587C482.801 69.1587 467.139 68.6709 462.533 68.3458Z" fill="#ECE9DE"/>
<path d="M467.629 68.6165C467.629 68.6165 467.629 62.5462 473.048 62.3294C478.467 62.1126 478.467 69.1584 478.467 69.1584C474.848 69.516 471.195 69.3335 467.629 68.6165Z" fill="#70924F"/>
<path d="M482.801 69.1583C482.801 69.1583 482.259 67.5866 480.904 65.5271C480.092 64.3337 479.062 63.304 477.869 62.4919C476.365 61.5813 474.642 61.0944 472.884 61.0827C471.132 61.0935 469.414 61.5605 467.898 62.4377C466.654 63.175 465.553 64.1296 464.647 65.256C463.882 66.3745 463.177 67.5324 462.533 68.7248C462.533 68.7248 462.533 68.2913 462.533 67.5867C463.322 65.0753 464.998 62.9368 467.248 61.5705C468.876 60.5599 470.751 60.0162 472.667 59.9987C474.603 59.989 476.495 60.5756 478.086 61.6788C479.381 62.5615 480.456 63.7297 481.229 65.0934C482.123 66.2745 482.668 67.6829 482.801 69.1583Z" fill="#443949"/>
<path d="M480.362 66.0694C480.362 66.3946 479.441 66.7197 478.194 66.7197C476.948 66.7197 475.973 66.3946 475.973 66.0694C475.973 65.7442 477.002 65.6357 478.194 65.6357C479.387 65.6357 480.362 65.7984 480.362 66.0694Z" fill="white"/>
<path d="M426.93 67.858C426.93 67.858 429.91 56.4218 438.201 57.5058C446.492 58.5898 447.197 68.671 447.197 68.671L426.93 67.858Z" fill="#EFA98E"/>
<path d="M426.93 67.8579C427.432 65.6373 428.69 63.6604 430.49 62.2662C432.289 60.8719 434.517 60.147 436.792 60.2156C439.245 60.1722 441.634 60.9968 443.538 62.5439C445.441 64.0909 446.737 66.2609 447.197 68.6708C447.197 68.6708 431.59 67.8579 426.93 67.8579Z" fill="#ECE9DE"/>
<path d="M433.164 67.8577C433.164 67.8577 433.164 61.7874 438.854 61.5706C444.544 61.3538 444.273 68.3998 444.273 68.3998C440.653 68.7574 437.001 68.5747 433.435 67.8577" fill="#70924F"/>
<path d="M447.199 68.4542C447.199 68.4542 446.657 66.9367 445.302 64.8229C444.497 63.6384 443.466 62.6253 442.268 61.8419C440.795 60.8984 439.085 60.3909 437.336 60.3784C435.588 60.4082 433.874 60.874 432.351 61.7334C431.09 62.4461 429.984 63.4045 429.099 64.5519C428.307 65.6633 427.584 66.8217 426.932 68.0207C426.859 67.6448 426.859 67.2584 426.932 66.8825C427.234 65.8952 427.692 64.9621 428.287 64.1182C429.169 62.8133 430.313 61.7059 431.646 60.8661C433.282 59.8729 435.152 59.3307 437.065 59.2944C438.995 59.324 440.876 59.9072 442.484 60.9746C443.783 61.8757 444.858 63.0623 445.627 64.4434C446.551 65.5871 447.1 66.9875 447.199 68.4542Z" fill="#443949"/>
<path d="M444.814 65.4187C444.814 65.6897 443.838 66.015 442.592 66.015C441.345 66.015 440.37 65.6897 440.424 65.4187C440.478 65.1477 441.399 64.9309 442.592 64.9309C443.784 64.9309 444.759 65.0935 444.814 65.4187Z" fill="white"/>
<path d="M424.709 52.194C424.709 52.194 447.523 51.8689 447.686 51.4353C447.848 51.0017 447.686 42.7092 447.686 42.7092L424.709 47.4787V52.194Z" fill="#4C3737"/>
<path d="M419.181 75.825C419.181 75.825 414.196 37.0181 423.408 27.0454C423.408 27.0454 467.574 40.5953 475.16 35.0127C482.747 29.4302 483.343 26.395 483.343 26.395C483.343 26.395 486.594 43.6305 488.383 50.2971C489.339 56.784 489.339 63.3761 488.383 69.863L491.363 68.5623C491.363 68.5623 494.181 24.1186 490.713 22.1132C487.245 20.1078 470.771 3.30602 455.218 8.12979C439.665 12.9535 412.733 25.9614 412.57 35.5005C412.408 45.0396 417.502 76.4754 417.502 76.4754L419.181 75.825Z" fill="#4C3737"/>
<path d="M446.547 11.0568C446.547 11.0568 472.883 -2.65551 478.736 2.16824C480.484 3.96001 481.776 6.14605 482.502 8.54205C483.229 10.938 483.368 13.4737 482.909 15.9349C483.871 15.2658 485.015 14.9071 486.187 14.9071C487.359 14.9071 488.503 15.2658 489.466 15.9349C492.555 18.3739 492.175 28.4007 492.175 28.4007L473.209 21.951L446.547 11.0568Z" fill="#4C3737"/>
<path d="M423.408 26.8828C423.408 26.8828 411.757 35.0128 412.57 40.9747L413.654 49.1587L418.206 43.7388C419.19 37.9154 420.939 32.2478 423.408 26.8828Z" fill="#331E1E"/>
<path d="M441.073 31.7065C483.125 20.8667 471.528 1.46338 471.528 1.46338L463.02 3.84816C472.558 20.108 428.609 28.4005 428.609 28.4005L441.073 31.7065Z" fill="#331E1E"/>
<path d="M462.209 35.7716C462.209 35.7716 482.53 25.2572 482.91 15.9349C482.91 15.9349 485.403 13.9836 487.408 14.9592C487.408 14.9592 488.708 26.3953 468.983 36.2053L462.209 35.7716Z" fill="#331E1E"/>
<path d="M484.211 30.8936C484.211 30.8936 491.96 31.3272 492.177 33.2783V41.7333L485.024 36.3134L484.211 30.8936Z" fill="#331E1E"/>
<path d="M465.621 50.5137L463.941 42.2212L468.981 43.4678L470.715 51.0016L465.621 50.5137Z" fill="#331E1E"/>
<path d="M474.294 51.3812L473.59 44.6062L474.836 44.8773L476.516 51.598L474.294 51.3812Z" fill="#331E1E"/>
<path d="M445.628 43.1428L443.785 51.5978L439.721 51.923L442.159 43.8474L445.628 43.1428Z" fill="#331E1E"/>
<path d="M435.492 52.0314L437.064 44.8772L435.005 45.7985L433.975 50.1346L433.433 45.8528L430.832 46.1779L431.428 52.0314H435.492Z" fill="#331E1E"/>
<path d="M434.842 72.5187C434.842 72.5187 445.68 73.657 447.197 68.0747H426.93C426.93 68.0747 428.23 71.5432 434.842 72.5187Z" fill="#D8A99A"/>
<path d="M470.554 73.2779C470.554 73.2779 481.663 74.416 483.289 68.8335H462.371C462.371 68.8335 463.78 72.2481 470.554 73.2779Z" fill="#D8A99A"/>
<path d="M467.139 100.811C459.066 101.316 450.966 101.171 442.916 100.377C446.81 99.0237 450.95 98.5247 455.055 98.9139C459.173 98.6501 463.299 99.2976 467.139 100.811Z" fill="#D68772"/>
<path d="M444.489 0C444.489 0 445.356 0.541867 446.169 1.89686C447.203 3.68395 447.658 5.74835 447.469 7.8048C447.275 9.79003 446.502 11.6746 445.247 13.2248C444.218 14.4172 443.351 14.9049 443.296 14.7965C443.242 14.6881 443.838 13.9835 444.597 12.7911C445.621 11.1549 446.235 9.2955 446.385 7.37111C446.535 5.51589 446.218 3.65274 445.464 1.95112C445.089 1.32712 444.763 0.674812 444.489 0Z" fill="#4C3737"/>
<path d="M411.974 19.0784C411.974 19.0784 411.974 19.0784 411.974 18.5906C412.311 18.3178 412.732 18.169 413.166 18.169C413.6 18.169 414.021 18.3178 414.358 18.5906C414.647 18.9619 414.8 19.4209 414.792 19.8913C414.742 20.4016 414.555 20.8888 414.25 21.3005C414.073 21.5389 413.852 21.7411 413.599 21.8966C413.35 22.0657 413.076 22.1938 412.786 22.2761C412.17 22.3911 411.536 22.3833 410.923 22.2531C410.309 22.1229 409.727 21.8729 409.21 21.5174C407.998 20.7477 407.066 19.6071 406.555 18.2654C405.965 16.7042 406.01 14.9744 406.678 13.4454C407.346 11.9164 408.585 10.7091 410.131 10.0813C411.739 9.59758 413.454 9.59758 415.062 10.0813C416.518 10.4465 417.934 10.9549 419.289 11.5988C420.53 12.1638 421.711 12.8539 422.812 13.6584C423.774 14.3437 424.632 15.1653 425.359 16.0975C426.425 17.4691 427.048 19.1324 427.147 20.8669C427.147 22.1134 427.147 22.764 426.822 22.7098C426.497 22.6556 426.822 22.0593 426.822 20.9211C426.583 19.3238 425.908 17.8236 424.871 16.5852C423.229 14.8075 421.211 13.4187 418.964 12.5203C417.673 11.9296 416.331 11.4579 414.954 11.1111C413.538 10.7045 412.035 10.7045 410.619 11.1111C409.295 11.6611 408.243 12.7135 407.693 14.0379C407.222 15.2774 407.222 16.6464 407.693 17.886C408.081 19.0705 408.866 20.085 409.914 20.7585C410.753 21.3836 411.804 21.6559 412.841 21.5174C413.234 21.413 413.59 21.2 413.868 20.9029C414.146 20.6058 414.334 20.2365 414.412 19.8372C414.5 19.5548 414.5 19.2524 414.412 18.97C414.229 18.7431 413.985 18.5738 413.708 18.4822C413.53 18.396 413.336 18.3511 413.139 18.3511C412.942 18.3511 412.747 18.396 412.57 18.4822C411.974 19.0784 411.974 19.0784 411.974 19.0784Z" fill="#4C3737"/>
<path d="M434.897 6.55811C434.897 6.55811 434.517 7.37102 433.921 8.5092C433.524 9.16739 433.18 9.85611 432.892 10.5688C432.507 11.4127 432.182 12.2819 431.916 13.1704C431.671 14.063 431.473 14.9675 431.32 15.8804C431.32 16.7476 431.32 17.5063 431.32 18.1567C431.32 18.807 431.32 20.2706 431.32 20.3248C430.946 19.6648 430.759 18.9151 430.778 18.1567C430.68 16.3296 430.881 14.4987 431.374 12.7367C431.66 11.8051 432.023 10.8987 432.458 10.0268C432.829 9.30273 433.265 8.61359 433.759 7.96734C434.084 6.99176 434.788 6.44971 434.897 6.55811Z" fill="#4C3737"/>
<path d="M500.142 45.636C500.142 45.636 499.438 45.636 498.408 45.636C498.138 45.6105 497.866 45.6105 497.595 45.636H496.62C495.237 46.0657 493.936 46.7254 492.772 47.5872C492.513 47.7762 492.277 47.9944 492.068 48.2376C491.83 48.3931 491.627 48.596 491.472 48.8337C490.767 49.5925 490.388 50.1346 490.225 50.0804C490.063 50.0262 490.225 49.3215 490.821 48.3459L491.363 47.5872C492.152 46.71 493.087 45.9763 494.127 45.4191C494.853 45.0774 495.617 44.8228 496.403 44.6604H497.487H498.679C499.546 45.2024 500.142 45.5276 500.142 45.636Z" fill="#4C3737"/>
<path d="M497.106 56.6385C497.106 56.6385 496.781 56.0423 496.293 55.1751L495.914 54.4705C495.751 54.2228 495.569 53.9873 495.372 53.7659C494.969 53.1999 494.475 52.7054 493.909 52.3026C493.35 51.8827 492.751 51.5195 492.12 51.2185L491.254 50.9476H490.495C489.519 50.9476 488.869 50.9475 488.869 50.5681C488.869 50.1887 489.465 50.1345 490.603 50.1887H491.47L492.5 50.4598C493.24 50.7329 493.934 51.1166 494.559 51.5979C495.223 52.0486 495.778 52.641 496.185 53.3324C496.385 53.6089 496.566 53.8987 496.727 54.1996L497.052 55.0668C497.323 55.9882 497.214 56.6385 497.106 56.6385Z" fill="#4C3737"/>
<path d="M415.497 54.7957C415.497 54.7957 416.093 55.5544 416.148 56.9636C416.138 57.9161 415.913 58.8541 415.491 59.708C415.069 60.5619 414.46 61.3097 413.709 61.8958C412.87 62.5429 411.883 62.9714 410.837 63.1425C410.015 63.3119 409.166 63.3119 408.344 63.1425C406.935 62.7631 406.285 62.1127 406.339 62.0043C406.393 61.8959 407.206 62.0042 408.452 62.3836C409.189 62.4881 409.937 62.4881 410.674 62.3836C411.536 62.1631 412.346 61.7765 413.059 61.2454C413.732 60.6955 414.286 60.013 414.684 59.2401C415.033 58.5832 415.254 57.8657 415.335 57.1262C415.551 55.6628 415.335 54.8499 415.497 54.7957Z" fill="#4C3737"/>
<path d="M416.798 64.335C416.798 64.335 415.551 65.2021 414.034 66.0151C412.517 66.8281 411.27 67.6411 411.053 67.3701C410.837 67.0991 411.812 65.961 413.492 65.0396C415.172 64.1182 416.743 64.064 416.798 64.335Z" fill="#4C3737"/>
<path d="M460.745 136.745C459.537 135 458.757 132.995 458.469 130.892C457.93 128.831 457.93 126.666 458.469 124.605C459.018 126.593 459.398 128.623 459.607 130.675C460.19 132.655 460.571 134.689 460.745 136.745Z" fill="#4C3737"/>
<path d="M467.303 137.287C467.303 137.287 466.653 136.908 465.84 135.932C464.863 134.644 464.044 133.243 463.401 131.759C462.759 130.282 462.287 128.736 461.992 127.152C461.992 125.906 461.992 125.147 461.992 125.147C461.992 125.147 462.968 128.019 464.485 131.326C466.002 134.632 467.574 137.071 467.303 137.287Z" fill="#4C3737"/>
<path d="M487.353 105.472C487.353 105.472 487.353 105.093 487.353 104.551C487.617 104.196 487.96 103.908 488.356 103.71C488.751 103.512 489.187 103.411 489.629 103.413C490.294 103.411 490.933 103.663 491.418 104.117C491.98 104.589 492.362 105.24 492.501 105.96C492.74 106.737 492.74 107.568 492.501 108.345C492.121 109.102 491.54 109.739 490.822 110.188C490.102 110.642 489.285 110.921 488.437 111C487.701 111.11 486.952 111.11 486.215 111C485.026 110.647 483.92 110.057 482.964 109.266C482.311 108.79 481.711 108.245 481.176 107.64C480.796 107.207 480.634 106.99 480.688 106.881C480.742 106.773 481.013 106.881 481.447 107.315L483.397 108.67C484.345 109.29 485.389 109.748 486.486 110.025C487.114 110.191 487.769 110.229 488.411 110.135C489.054 110.042 489.671 109.82 490.225 109.483C490.767 109.188 491.203 108.733 491.475 108.179C491.747 107.626 491.84 107.002 491.743 106.394C491.656 105.863 491.41 105.372 491.038 104.984C490.723 104.652 490.301 104.441 489.846 104.388C489.136 104.34 488.435 104.574 487.895 105.039C487.516 105.201 487.408 105.472 487.353 105.472Z" fill="#4C3737"/>
<path d="M446.007 72.4646C446.007 72.4646 445.248 73.2775 443.677 73.9279L442.43 74.47L440.913 74.9035C439.719 75.1794 438.505 75.3607 437.282 75.4455C436.073 75.5331 434.86 75.5331 433.651 75.4455L432.08 75.1204L430.779 74.6868C429.208 74.1448 428.341 73.5486 428.395 73.4402C428.449 73.3318 429.425 73.4402 430.996 73.9822H432.297H433.814C434.95 74.0661 436.092 74.0661 437.228 73.9822C438.39 73.9179 439.548 73.7912 440.696 73.6028L442.159 73.2776L443.406 72.8981C444.255 72.6604 445.127 72.5151 446.007 72.4646Z" fill="#E2A893"/>
<path d="M481.012 74.687C480.241 75.268 479.353 75.6749 478.41 75.8793C477.932 76.0249 477.443 76.1336 476.947 76.2045C476.407 76.2654 475.862 76.2654 475.322 76.2045C474.043 76.342 472.753 76.342 471.474 76.2045C470.191 76.1119 468.921 75.8941 467.681 75.5541L466.055 75.0121L464.7 74.4701C463.074 73.7113 462.207 73.0067 462.316 72.8983C462.424 72.7899 463.345 73.2235 465.025 73.7655L466.326 74.1449L467.897 74.5784C469.097 74.8239 470.309 75.0049 471.528 75.1205C472.755 75.2018 473.986 75.2018 475.213 75.1205H476.839H478.194C479.928 74.7953 480.957 74.5244 481.012 74.687Z" fill="#E2A893"/>
<path d="M402.289 203.461C371.616 207.912 319.157 201.222 317.027 200.413C314.897 199.605 303.069 184.993 306.704 176.262C324.5 154 375.001 166 391.218 148.547C395.223 162.252 407.296 199.374 402.289 203.461Z" fill="#808080"/>
<path d="M399.098 76.9902L391.776 57.675C382.102 63.5823 376.539 75.439 372.384 79.7257L381.201 91.9575C381.201 91.9575 391.06 80.274 399.098 76.9902Z" fill="#EAB69B"/>
<path d="M407.595 56.1717C410.706 53.3412 414.386 51.2073 418.388 49.9123C420.109 49.6816 426.77 49.4367 427.823 50.1687C428.875 50.9008 428.474 53.9805 426.531 54.0861C424.589 54.1917 419.29 54.1847 417.961 54.9146C416.631 55.6444 412.952 59.7266 411.413 60.2231C409.875 60.7196 405.481 58.2865 407.595 56.1717Z" fill="#EAB69B"/>
<path d="M410.66 47.6848C413.404 45.4915 416.611 43.9514 420.038 43.1808C421.767 43.1929 427.437 43.113 428.617 43.9918C429.798 44.8706 428.975 48.0606 426.751 47.8634C424.401 47.5153 422.014 47.4912 419.658 47.7917C418.346 48.2462 413.162 52.3578 411.828 52.4937C410.495 52.6296 408.93 49.1111 410.66 47.6848Z" fill="#EAB69B"/>
<path d="M403.013 45.3608C404.653 42.9278 413.313 37.4362 416.473 37.1654C418.217 37.0275 423.015 36.5231 424.531 37.1464C426.047 37.7697 426.771 41.1576 424.502 41.2682C422.06 41.3449 419.624 41.5446 417.202 41.8664C414.169 42.7774 413.336 46.2597 412.086 46.6244C410.837 46.9892 401.892 47.0431 403.013 45.3608Z" fill="#EAB69B"/>
<path d="M417.121 55.0434C416.941 53.1902 413.329 39.1414 405.971 42.1037C396.675 47.1919 392.855 50.7572 383.231 65.8129L398.986 77.2272C407.363 72.1061 417.324 56.9265 417.121 55.0434Z" fill="#EAB69B"/>
<path d="M367.642 75.2942C352.991 94.6538 307.078 162.27 306.309 177.201C305.54 192.132 336.52 182.093 342.05 178.595C347.58 175.096 390.894 89.1066 390.894 89.1066L367.642 75.2942Z" fill="#808080"/>
<path d="M393.11 172.437C393.311 173.237 393.433 174.054 393.473 174.877C393.473 176.435 393.888 178.719 394.148 181.522C394.719 187.077 395.654 194.813 396.64 203.327C397.626 211.841 398.405 219.628 398.82 225.235C398.82 228.039 399.131 230.427 399.183 231.88C399.24 232.693 399.24 233.508 399.183 234.32C398.938 233.548 398.815 232.742 398.82 231.932C398.82 230.323 398.404 228.091 398.093 225.287C397.522 219.68 396.64 211.997 395.654 203.483C394.667 194.969 393.888 187.181 393.473 181.574C393.473 178.771 393.162 176.383 393.11 174.929C392.987 174.103 392.987 173.263 393.11 172.437Z" fill="#666666"/>
</svg>
