<svg width="157" height="59" viewBox="0 0 157 59" fill="none" xmlns="http://www.w3.org/2000/svg">
<path d="M55.4907 21.6303C55.2551 21.8266 54.8135 22.0915 54.1658 22.4252C53.5377 22.7589 52.7624 23.0533 51.8399 23.3085C50.9174 23.5636 49.8968 23.6814 48.778 23.6618C47.0704 23.6225 45.5394 23.3183 44.1851 22.7491C42.8504 22.1602 41.712 21.3653 40.7699 20.3643C39.8474 19.3633 39.1408 18.2151 38.6501 16.9196C38.1594 15.6242 37.9141 14.2405 37.9141 12.7684C37.9141 10.5701 38.3557 8.62694 39.2389 6.93896C40.1222 5.25098 41.3489 3.92611 42.9191 2.96435C44.509 2.00259 46.354 1.52172 48.4541 1.52172C49.9066 1.52172 51.1922 1.71799 52.311 2.11055C53.4298 2.5031 54.3424 2.9251 55.049 3.37653L53.3709 7.41003C52.8802 7.0371 52.2227 6.65436 51.3983 6.26181C50.5936 5.84962 49.6612 5.64353 48.6013 5.64353C47.5022 5.64353 46.4717 5.94776 45.51 6.55622C44.5679 7.16468 43.8024 7.98904 43.2135 9.02931C42.6443 10.05 42.3597 11.2178 42.3597 12.5329C42.3597 13.9264 42.6247 15.1532 43.1547 16.2131C43.6846 17.2533 44.4403 18.0679 45.4217 18.6567C46.403 19.2455 47.5513 19.5399 48.8663 19.5399C50.0244 19.5399 51.0156 19.3535 51.8399 18.9806C52.6643 18.6076 53.2924 18.2151 53.7242 17.8029L55.4907 21.6303Z" fill="#282828"/>
<path d="M57.3239 23.4262L67.0985 0.903442H67.334L77.1086 23.4262H72.1624L70.4842 19.1866H63.3005L61.534 23.4262H57.3239ZM64.802 15.5948H69.071L66.9807 10.3247L64.802 15.5948Z" fill="#282828"/>
<path d="M91.8379 6.99784C91.0135 6.54641 90.1695 6.17348 89.3059 5.87907C88.4619 5.58465 87.667 5.43744 86.9211 5.43744C85.9986 5.43744 85.2724 5.62391 84.7425 5.99683C84.2125 6.36976 83.9475 6.92915 83.9475 7.675C83.9475 8.18532 84.1438 8.64657 84.5364 9.05875C84.9486 9.45131 85.4687 9.80461 86.0968 10.1186C86.7445 10.4327 87.4118 10.7173 88.0988 10.9725C88.9428 11.2865 89.7573 11.6889 90.5424 12.1796C91.3276 12.6506 91.9753 13.3082 92.4856 14.1521C92.9959 14.9765 93.2511 16.0757 93.2511 17.4496C93.2511 18.5487 92.9665 19.5694 92.3973 20.5115C91.8281 21.4536 90.9939 22.2191 89.8947 22.808C88.7956 23.3772 87.4413 23.6618 85.8318 23.6618C84.5952 23.6618 83.3293 23.4753 82.0338 23.1024C80.758 22.7294 79.5509 22.1406 78.4125 21.3359L80.2968 18.009C81.0426 18.5586 81.8964 19.01 82.8582 19.3633C83.82 19.7166 84.6836 19.8932 85.4491 19.8932C85.9594 19.8932 86.4697 19.8245 86.98 19.6872C87.51 19.5301 87.9418 19.275 88.2754 18.9217C88.6287 18.5684 88.8054 18.0777 88.8054 17.4496C88.8054 16.8019 88.4913 16.2425 87.8633 15.7714C87.2548 15.2807 86.5188 14.8686 85.6551 14.5349C84.9878 14.2797 84.3008 13.9853 83.5942 13.6516C82.8876 13.318 82.2203 12.9156 81.5922 12.4445C80.9838 11.9538 80.4832 11.3552 80.0907 10.6486C79.7178 9.92237 79.5313 9.03912 79.5313 7.99886C79.5313 6.74268 79.8061 5.65335 80.3557 4.73084C80.9249 3.80834 81.7198 3.08212 82.7404 2.55217C83.7611 2.00259 84.9387 1.69836 86.2734 1.63948C88.0203 1.63948 89.4335 1.84557 90.513 2.25775C91.6122 2.66994 92.5935 3.16063 93.4572 3.72983L91.8379 6.99784Z" fill="#282828"/>
<path d="M97.432 1.75725H101.701V23.4262H97.432V1.75725Z" fill="#282828"/>
<path d="M126.696 24.3095L111.533 10.6192L111.622 23.4262H107.294V0.903442H107.47L122.603 14.7999L122.515 1.75725H126.814V24.3095H126.696Z" fill="#282828"/>
<path d="M131.069 12.6212C131.069 11.1295 131.354 9.71628 131.923 8.3816C132.492 7.04691 133.277 5.86925 134.278 4.84861C135.299 3.80834 136.476 2.99379 137.811 2.40496C139.146 1.81613 140.579 1.52172 142.11 1.52172C143.621 1.52172 145.044 1.81613 146.379 2.40496C147.713 2.99379 148.891 3.80834 149.912 4.84861C150.952 5.86925 151.757 7.04691 152.326 8.3816C152.915 9.71628 153.209 11.1295 153.209 12.6212C153.209 14.1521 152.915 15.585 152.326 16.9196C151.757 18.2543 150.952 19.432 149.912 20.4526C148.891 21.4536 147.713 22.2388 146.379 22.808C145.044 23.3772 143.621 23.6618 142.11 23.6618C140.579 23.6618 139.146 23.3772 137.811 22.808C136.476 22.2388 135.299 21.4536 134.278 20.4526C133.277 19.432 132.492 18.2543 131.923 16.9196C131.354 15.585 131.069 14.1521 131.069 12.6212ZM135.485 12.6212C135.485 13.897 135.78 15.0648 136.368 16.1247C136.977 17.165 137.791 17.9992 138.812 18.6273C139.833 19.2357 140.981 19.5399 142.257 19.5399C143.493 19.5399 144.602 19.2357 145.584 18.6273C146.585 17.9992 147.37 17.165 147.939 16.1247C148.508 15.0648 148.793 13.897 148.793 12.6212C148.793 11.3061 148.498 10.1285 147.91 9.08819C147.321 8.0283 146.526 7.19412 145.525 6.58566C144.524 5.95758 143.395 5.64353 142.139 5.64353C140.883 5.64353 139.754 5.95758 138.753 6.58566C137.752 7.19412 136.957 8.0283 136.368 9.08819C135.78 10.1285 135.485 11.3061 135.485 12.6212Z" fill="#282828"/>
<path d="M46.1525 29.2367C48.4491 29.2367 50.255 29.8158 51.5702 30.9739C52.8853 32.132 53.5429 33.7515 53.5429 35.8321C53.5429 36.6762 53.4153 37.5104 53.1601 38.3349C52.905 39.1397 52.4927 39.8758 51.9235 40.5431C51.3739 41.1909 50.6476 41.7209 49.7447 42.1331C48.8417 42.5257 47.7425 42.722 46.447 42.722H43.2965V50.5246H40.4404V29.2367H46.1525ZM46.447 39.9248C47.2714 39.9248 47.9584 39.7972 48.508 39.5421C49.0576 39.2673 49.4895 38.9139 49.8035 38.4821C50.1372 38.0502 50.3728 37.6086 50.5102 37.1571C50.6476 36.686 50.7163 36.264 50.7163 35.891C50.7163 35.3218 50.5789 34.7329 50.3041 34.1244C50.0489 33.5159 49.6171 33.0055 49.0086 32.5933C48.4197 32.1811 47.6149 31.975 46.5942 31.975H43.2965V39.9248H46.447Z" fill="#282828"/>
<path d="M67.9034 29.2367C69.3167 29.2367 70.5926 29.4919 71.7311 30.0023C72.8696 30.493 73.7725 31.2389 74.4399 32.24C75.1073 33.2215 75.441 34.4188 75.441 35.8321C75.441 37.0492 75.1662 38.2269 74.6166 39.3654C74.0866 40.5039 73.1837 41.3676 71.9078 41.9564L77.2665 50.5246H73.9394L68.9045 42.6631C68.6886 42.6827 68.4629 42.6925 68.2273 42.6925H65.0768V50.5246H62.2208V29.2367H67.9034ZM68.1684 39.9248C69.3069 39.9248 70.1804 39.7187 70.7889 39.3065C71.417 38.8747 71.8587 38.3545 72.1139 37.746C72.3691 37.1179 72.4966 36.5192 72.4966 35.9499C72.4966 35.3807 72.3592 34.7918 72.0844 34.1833C71.8096 33.5748 71.368 33.0546 70.7595 32.6228C70.1706 32.1909 69.3756 31.975 68.3745 31.975H65.0768V39.9248H68.1684Z" fill="#282828"/>
<path d="M84.1426 39.8954C84.1426 38.4232 84.4174 37.0295 84.967 35.7144C85.5362 34.3992 86.3214 33.2411 87.3225 32.24C88.3236 31.2389 89.4719 30.4537 90.7674 29.8845C92.0826 29.2956 93.4861 29.0012 94.9779 29.0012C96.4697 29.0012 97.8732 29.2956 99.1883 29.8845C100.523 30.4537 101.691 31.2389 102.692 32.24C103.693 33.2411 104.478 34.3992 105.048 35.7144C105.617 37.0295 105.902 38.4232 105.902 39.8954C105.902 41.4068 105.617 42.8201 105.048 44.1353C104.478 45.4308 103.693 46.5791 102.692 47.5802C101.691 48.5813 100.523 49.3665 99.1883 49.9357C97.8732 50.4853 96.4697 50.7601 94.9779 50.7601C93.4861 50.7601 92.0826 50.4853 90.7674 49.9357C89.4719 49.3861 88.3236 48.6206 87.3225 47.6391C86.3214 46.6576 85.5362 45.5093 84.967 44.1942C84.4174 42.8594 84.1426 41.4265 84.1426 39.8954ZM87.087 39.9248C87.087 41.0437 87.2931 42.0939 87.7053 43.0753C88.1175 44.0371 88.6867 44.891 89.413 45.6369C90.1393 46.3828 90.9833 46.9619 91.9452 47.3741C92.907 47.7863 93.9473 47.9924 95.0662 47.9924C96.5384 47.9924 97.8634 47.6391 99.0411 46.9324C100.239 46.2062 101.191 45.2345 101.897 44.0175C102.604 42.7809 102.957 41.4068 102.957 39.8954C102.957 38.7765 102.751 37.7264 102.339 36.7449C101.927 35.7438 101.357 34.8703 100.631 34.1244C99.9048 33.3785 99.0608 32.7994 98.0989 32.3872C97.1371 31.9554 96.1066 31.7395 95.0073 31.7395C93.5155 31.7395 92.1709 32.1124 90.9735 32.8583C89.7762 33.6042 88.8241 34.5955 88.1175 35.8321C87.4305 37.0688 87.087 38.433 87.087 39.9248Z" fill="#282828"/>
<path d="M114.983 29.2367H127.614V31.975H117.839V38.7471H126.407V41.4853H117.839V50.5246H114.983V29.2367Z" fill="#282828"/>
<path d="M142.244 43.4286L134.353 29.2367H137.886L143.745 40.1898L149.575 29.2367H153.079L145.1 43.4286V50.5246H142.244V43.4286Z" fill="#282828"/>
<path d="M3.59372 27.3553C2.86927 27.5968 -1.05491 28.4421 0.27326 33.5342C1.60143 38.6263 5.04257 37.4388 5.04257 37.4388L3.59372 27.3553Z" fill="#EAB69B"/>
<path d="M3.77421 35.5469C3.77421 35.5469 3.67368 35.5469 3.49256 35.5469C3.24344 35.5047 3.00441 35.4159 2.78814 35.2853C2.46006 35.1037 2.17249 34.8572 1.94294 34.5607C1.81273 34.3761 1.69832 34.1809 1.60086 33.977C1.51002 33.7497 1.44252 33.5136 1.39955 33.2726C1.34199 32.8116 1.39018 32.3435 1.54043 31.904C1.66082 31.547 1.85259 31.2183 2.10397 30.9379C2.26434 30.7448 2.46303 30.5871 2.68754 30.4749C2.82841 30.4749 2.92904 30.3743 2.94917 30.4749C2.96929 30.5756 2.6473 30.7165 2.32531 31.1995C2.13729 31.4771 1.99459 31.7828 1.90266 32.1052C1.8102 32.4957 1.8102 32.9023 1.90266 33.2927C1.93886 33.5005 1.99971 33.7032 2.08383 33.8965C2.15056 34.0805 2.23836 34.2561 2.34546 34.4198C2.53814 34.6933 2.77634 34.9316 3.04976 35.1243C3.412 35.406 3.79434 35.4866 3.77421 35.5469Z" fill="#D68772"/>
<path d="M4.13821 33.2122C4.13821 33.2122 3.97721 33.0915 3.75583 32.9304C3.48762 32.7183 3.15148 32.611 2.81 32.6285C2.58011 32.6469 2.35857 32.723 2.16598 32.8499C2.0294 32.9607 1.90156 33.0818 1.7836 33.2122L1.60254 33.0915C1.72329 32.9707 1.80378 32.8902 1.84403 32.9304C1.88428 32.9707 1.84403 33.0512 1.84403 33.2122H1.64271C1.72456 33.008 1.84789 32.8229 2.00494 32.6688C2.23598 32.4657 2.52429 32.3391 2.83015 32.3065C3.07988 32.2882 3.32993 32.3369 3.55462 32.4474C3.73145 32.5362 3.88877 32.6594 4.01747 32.8097C4.15834 32.9908 4.17846 33.1921 4.13821 33.2122Z" fill="#D68772"/>
<path d="M29.6144 26.5905C30.3388 26.832 34.283 27.6773 32.9549 32.7896C31.6267 37.9018 28.1855 36.6942 28.1855 36.6942L29.6144 26.5905Z" fill="#EAB69B"/>
<path d="M29.4326 34.7821C29.4326 34.7821 29.7949 34.6412 30.2779 34.3192C30.5403 34.1125 30.7708 33.8684 30.962 33.5946C31.0679 33.4338 31.162 33.2657 31.2438 33.0914C31.3255 32.8987 31.3797 32.6954 31.4048 32.4876C31.4867 32.0892 31.4867 31.6784 31.4048 31.28C31.3129 30.9576 31.1702 30.6519 30.9822 30.3743C30.6401 29.9114 30.3181 29.7101 30.3584 29.6497C30.3986 29.5893 30.459 29.6497 30.62 29.6497C30.8364 29.7742 31.033 29.9302 31.2035 30.1126C31.4549 30.3931 31.6467 30.7218 31.7671 31.0787C31.9213 31.5246 31.9628 32.0017 31.8878 32.4675C31.8544 32.7042 31.7865 32.9347 31.6865 33.1518C31.6045 33.3635 31.489 33.5606 31.3444 33.7355C31.1149 34.0373 30.8276 34.2905 30.4992 34.4802C30.2796 34.5995 30.0415 34.6812 29.7948 34.7217C29.5332 34.8223 29.4527 34.8022 29.4326 34.7821Z" fill="#D68772"/>
<path d="M29.0918 32.387C29.0918 32.387 29.0919 32.1455 29.2729 31.8839C29.3972 31.729 29.5556 31.605 29.7357 31.5216C29.9597 31.4091 30.2103 31.3604 30.4601 31.3807C30.7614 31.4077 31.0449 31.5353 31.265 31.743C31.4381 31.8746 31.5649 32.0578 31.6272 32.2663L31.446 32.387C31.446 32.2059 31.3454 32.1052 31.446 32.0851C31.5466 32.065 31.5869 32.0851 31.7076 32.2663L31.5064 32.3669C31.399 32.2267 31.2699 32.1044 31.1241 32.0046C30.9364 31.883 30.7227 31.8072 30.5003 31.7832C30.1584 31.7619 29.8209 31.8696 29.5546 32.0851C29.2527 32.387 29.1522 32.4877 29.0918 32.387Z" fill="#D68772"/>
<path d="M26.1523 48.1866C22.1277 52.3328 7.73946 49.3942 5.74724 47.5426C3.75502 45.6909 2.64815 21.921 2.64815 21.921C1.82308 9.64355 8.8663 8.89886 15.6077 7.16794C22.349 5.43703 29.5935 9.34165 30.2576 19.4454C30.2576 19.4454 29.352 44.8254 26.1523 48.1866Z" fill="#FCCAB1"/>
<path d="M3.71484 36.8149C13.6559 37.0766 22.5102 36.3118 29.4931 33.8362C29.4931 33.8362 28.2253 44.2619 27.8631 45.389C27.0783 47.8847 26.7161 51.1051 16.0707 50.1792C5.42537 49.2534 5.6668 48.4886 4.82161 45.9928C4.24312 42.9625 3.87334 39.896 3.71484 36.8149Z" fill="#4C3737"/>
<path d="M11.1406 39.8541C11.987 40.5078 12.9648 40.9705 14.007 41.2102C15.0491 41.4499 16.1308 41.4611 17.1777 41.2429C18.2281 41.0038 19.2167 40.5471 20.0798 39.9023C20.9429 39.2575 21.6612 38.4389 22.1884 37.4993" fill="#ECE9DE"/>
<path d="M17.8818 33.3733C17.8818 33.3733 17.7208 33.5745 17.3586 33.8362C16.8432 34.2328 16.2983 34.5894 15.7286 34.9029C15.3366 35.1261 14.9259 35.3147 14.5011 35.4665H14.1188H13.9377H13.7163C13.6368 35.4846 13.5543 35.4846 13.4748 35.4665C13.3649 35.4356 13.2712 35.3635 13.2132 35.2652C13.1776 35.1061 13.1776 34.9412 13.2132 34.7821C13.1835 34.5011 13.1835 34.2178 13.2132 33.9368C13.2633 33.6446 13.3306 33.3557 13.4145 33.0714C13.5755 32.5078 13.7565 31.9241 13.9577 31.3404C14.3803 30.1529 14.8231 29.0661 15.2457 28.0597L15.5475 27.3352V27.1742V26.832C15.5475 26.3691 15.4268 25.9263 15.3664 25.5439C15.1845 24.6797 15.0501 23.8062 14.9639 22.9274C15.0622 23.1468 15.1365 23.3762 15.1853 23.6117C15.3754 24.2262 15.5298 24.8512 15.6481 25.4835C15.748 25.9215 15.8219 26.3651 15.8695 26.8119C15.8792 26.8719 15.8792 26.933 15.8695 26.993V27.3352C15.8695 27.3352 15.8695 27.3352 15.8695 27.4358V27.617L15.5877 28.3415C15.1852 29.3479 14.7627 30.4548 14.3401 31.6222C14.1389 32.2059 13.9578 32.7694 13.7968 33.333C13.7109 33.5963 13.6436 33.8653 13.5955 34.1381C13.5348 34.3955 13.5011 34.6586 13.4949 34.923C13.471 35.0222 13.471 35.1257 13.4949 35.2249H13.9779H14.3199C14.7298 35.0927 15.1272 34.9243 15.5073 34.7218C16.2317 34.3796 16.7952 34.0173 17.1775 33.7959C17.3906 33.6216 17.6278 33.4792 17.8818 33.3733Z" fill="#E2A893"/>
<path d="M19.4922 20.1297L27.5618 20.8946L27.9039 19.0227L19.5526 16.9698L19.4922 20.1297Z" fill="#4C3737"/>
<path d="M18.9072 26.7313C18.9072 26.7313 20.014 22.4846 23.0728 22.8871C26.1315 23.2896 26.4333 26.9125 26.4333 26.9125L18.9072 26.7313Z" fill="#EFA98E"/>
<path d="M18.9062 26.7313C19.0927 25.9067 19.56 25.1727 20.2282 24.6549C20.8964 24.1372 21.7238 23.868 22.5687 23.8934C23.4786 23.8683 24.3675 24.1687 25.0758 24.7406C25.784 25.3124 26.265 26.1182 26.4323 27.0131C26.4323 27.0131 20.657 26.832 18.9062 26.7313Z" fill="#ECE9DE"/>
<path d="M20.9199 26.8118C20.9199 26.8118 20.9199 24.5777 22.9323 24.4972C24.9446 24.4167 24.9446 27.0131 24.9446 27.0131C23.6005 27.1459 22.2441 27.0781 20.9199 26.8118Z" fill="#70924F"/>
<path d="M26.4519 27.0131C26.4519 27.0131 26.2507 26.4495 25.7476 25.6847C25.4572 25.2324 25.0729 24.848 24.6207 24.5576C24.0721 24.2133 23.437 24.0318 22.7894 24.0343C22.1324 24.0357 21.4872 24.2092 20.918 24.5375C20.4518 24.8051 20.0418 25.1605 19.7106 25.5841C19.4267 25.9994 19.1647 26.4294 18.9258 26.8722C18.9258 26.8722 18.9258 26.7112 18.9258 26.4495C19.042 26.0782 19.2115 25.7256 19.4289 25.4029C19.7579 24.9249 20.1828 24.5205 20.6765 24.2154C21.284 23.8466 21.9783 23.6452 22.6888 23.6318C23.405 23.6261 24.1063 23.8365 24.7012 24.2356C25.1794 24.5748 25.5777 25.0144 25.8683 25.5237C26.1987 25.9556 26.4009 26.4717 26.4519 27.0131Z" fill="#443949"/>
<path d="M25.5663 25.886C25.5663 26.0068 25.2041 26.1275 24.7413 26.1275C24.2785 26.1275 23.9162 26.0068 23.9363 25.886C23.9565 25.7652 24.2986 25.725 24.7413 25.725C25.184 25.725 25.5461 25.7854 25.5663 25.886Z" fill="white"/>
<path d="M5.46582 26.6911C5.46582 26.6911 6.57265 22.4443 9.65156 22.8469C12.7305 23.2494 12.992 26.993 12.992 26.993L5.46582 26.6911Z" fill="#EFA98E"/>
<path d="M5.46582 26.6911C5.65224 25.8665 6.11958 25.1324 6.78778 24.6147C7.45598 24.0969 8.28345 23.8277 9.12833 23.8532C10.0391 23.8371 10.9261 24.1433 11.6331 24.7178C12.34 25.2923 12.8214 26.0981 12.992 26.993C12.992 26.993 7.19645 26.8118 5.46582 26.6911Z" fill="#ECE9DE"/>
<path d="M7.7793 26.7918C7.7793 26.7918 7.7793 24.5375 9.79171 24.457C11.8041 24.3765 11.8041 26.993 11.8041 26.993C10.4599 27.1238 9.10377 27.056 7.7793 26.7918Z" fill="#70924F"/>
<path d="M12.991 26.993C12.991 26.993 12.7898 26.4294 12.2867 25.6445C11.9899 25.1974 11.6068 24.8142 11.1598 24.5174C10.607 24.1827 9.97461 24.002 9.32844 23.9941C8.67808 23.9981 8.04002 24.1715 7.47708 24.4973C7.01114 24.7654 6.60113 25.1207 6.26957 25.5439C5.70611 26.2684 5.54519 26.8521 5.46469 26.832C5.43755 26.6924 5.43755 26.5489 5.46469 26.4093C5.5856 26.0461 5.75481 25.7009 5.96779 25.3828C6.33088 24.8385 6.82118 24.3908 7.39626 24.0787C7.97134 23.7665 8.61388 23.5993 9.26813 23.5916C9.92131 23.5948 10.5619 23.7717 11.1242 24.1041C11.6864 24.4366 12.1501 24.9127 12.4678 25.4835C12.7895 25.9228 12.9718 26.4488 12.991 26.993Z" fill="#443949"/>
<path d="M12.1058 25.8659C12.1058 25.8659 11.7434 26.0873 11.3007 26.0873C10.8579 26.0873 10.4756 25.9665 10.4756 25.8659C10.4756 25.7652 10.8579 25.6847 11.3007 25.6847C11.7434 25.6847 12.1058 25.7451 12.1058 25.8659Z" fill="white"/>
<path d="M5.80859 20.8945C5.80859 20.8945 14.2806 20.7537 14.3209 20.6128C14.3611 20.4719 14.3209 17.3522 14.3209 17.3522L5.80859 19.1234V20.8945Z" fill="#4C3737"/>
<path d="M3.73524 29.6497C3.73524 29.6497 1.88381 15.2389 5.30482 11.5355C5.30482 11.5355 21.7256 16.5672 24.5228 14.4942C27.32 12.4211 27.5615 11.3141 27.5615 11.3141C27.5615 11.3141 28.7689 17.7145 29.433 20.17C29.7882 22.5789 29.7882 25.0269 29.433 27.4358L30.5399 26.9729C30.5399 26.9729 31.6063 10.4486 30.3184 9.70395C29.0305 8.95925 22.9129 2.71991 17.1174 4.5112C11.3218 6.3025 1.36061 11.133 1.30024 14.6753C1.23987 18.2176 3.13144 29.8913 3.13144 29.8913L3.73524 29.6497Z" fill="#4C3737"/>
<path d="M13.9189 5.59806C13.9189 5.59806 23.6788 0.505948 25.8522 2.31737C26.5064 2.97987 26.9909 3.79073 27.2642 4.68088C27.5375 5.57102 27.5915 6.51405 27.4217 7.42961C27.7701 7.16832 28.1938 7.02707 28.6292 7.02707C29.0646 7.02707 29.4883 7.16832 29.8366 7.42961C30.9836 8.33533 30.8428 12.0387 30.8428 12.0387L23.7995 9.64358L13.9189 5.59806Z" fill="#4C3737"/>
<path d="M5.30455 11.4752C5.30455 11.4752 0.998116 14.5143 1.27985 16.7081L1.68234 19.7473L3.37277 17.7346C3.73431 15.5712 4.38396 13.466 5.30455 11.4752Z" fill="#331E1E"/>
<path d="M11.8648 13.2664C27.4807 9.24104 23.1944 2.0356 23.1944 2.0356L20.035 2.92118C23.5767 8.95926 7.23633 12.0387 7.23633 12.0387L11.8648 13.2664Z" fill="#331E1E"/>
<path d="M19.7334 14.776C19.7334 14.776 27.2597 10.8713 27.4207 7.42964C27.4207 7.42964 28.3263 6.70507 29.091 7.06735C29.091 7.06735 29.5539 11.294 22.2489 14.937L19.7334 14.776Z" fill="#331E1E"/>
<path d="M27.9014 12.9645C27.9014 12.9645 30.7589 13.1256 30.8595 13.8501V16.9899L28.2234 14.9772L27.9014 12.9645Z" fill="#331E1E"/>
<path d="M21.0017 20.2706L20.3779 17.1711L22.2493 17.634L22.8731 20.4518L21.0017 20.2706Z" fill="#331E1E"/>
<path d="M24.2216 20.5725L23.96 18.0567L24.4227 18.1774L25.0466 20.653L24.2216 20.5725Z" fill="#331E1E"/>
<path d="M13.5738 17.5132L12.8897 20.653L11.3604 20.7738L12.2659 17.795L13.5738 17.5132Z" fill="#331E1E"/>
<path d="M9.81158 20.814L10.3952 18.1774L9.63054 18.4994L9.24821 20.1297L9.02689 18.5196L8.08105 18.6605L8.28223 20.814H9.81158Z" fill="#331E1E"/>
</svg>
