<svg width="33" height="32" viewBox="0 0 33 32" fill="none" xmlns="http://www.w3.org/2000/svg">
<path fill-rule="evenodd" clip-rule="evenodd" d="M16.5 32C25.3366 32 32.5 24.8366 32.5 16C32.5 7.16344 25.3366 0 16.5 0C7.66344 0 0.5 7.16344 0.5 16C0.5 24.8366 7.66344 32 16.5 32ZM15.5398 8C16.2368 8.00894 16.898 8.42891 17.1572 9.11696L21.625 19.7951C21.7054 20.0274 21.7501 20.2866 21.7412 20.51C21.731 20.8551 21.622 21.1901 21.4272 21.4752C21.2324 21.7603 20.9599 21.9835 20.6421 22.1184L14.0565 24.8438C13.8241 24.951 13.5829 24.9778 13.3506 24.9778C13.0013 24.9701 12.662 24.8602 12.3745 24.6617C12.0871 24.4631 11.8641 24.1847 11.7332 23.8609L7.30108 13.1827C6.92579 12.2802 7.36364 11.2347 8.27508 10.8594L14.8517 8.13404C15.0751 8.05361 15.3075 8 15.5398 8ZM18.6494 8H19.9451C20.4191 8 20.8736 8.18829 21.2088 8.52344C21.5439 8.85859 21.7322 9.31316 21.7322 9.78714L21.7322 15.4613L18.6494 8ZM23.5283 9.3761L24.7257 9.88543C24.9425 9.97369 25.1397 10.1039 25.306 10.2685C25.4724 10.4331 25.6046 10.629 25.6951 10.8448C25.7855 11.0607 25.8325 11.2923 25.8333 11.5263C25.8341 11.7604 25.7887 11.9923 25.6997 12.2087L23.5283 17.445L23.5283 9.3761ZM13.2701 13.6206L16.1564 15.7741L15.7632 19.3573L12.877 17.1948L13.2701 13.6206Z" fill="white"/>
</svg>
