<svg width="32" height="32" viewBox="0 0 32 32" fill="none" xmlns="http://www.w3.org/2000/svg">
<path d="M16 0C24.8366 0 32 7.16344 32 16C32 24.8366 24.8366 32 16 32C7.16344 32 0 24.8366 0 16C0 7.16344 7.16344 0 16 0ZM14.9023 6.9336C10.6215 6.9336 7.15235 10.4047 7.15235 14.6855C7.15235 18.9664 10.6215 22.4355 14.9023 22.4355C16.1978 22.4355 17.4188 22.1186 18.4922 21.5566C18.4911 21.5616 18.4894 21.5673 18.4883 21.5723L21.9844 25.0664L24.8477 22.2012L21.4766 18.8281C21.471 18.8256 21.4646 18.8247 21.459 18.8223C22.216 17.6251 22.6543 16.2066 22.6543 14.6855C22.6543 10.4047 19.1832 6.9336 14.9023 6.9336ZM14.9023 10.377C17.2814 10.377 19.2109 12.3065 19.2109 14.6855C19.2109 17.0646 17.2814 18.9922 14.9023 18.9922C12.5233 18.9922 10.5957 17.0646 10.5957 14.6855C10.5957 12.3065 12.5233 10.377 14.9023 10.377Z" fill="white"/>
</svg>
