<svg width="26" height="28" viewBox="0 0 26 28" fill="none" xmlns="http://www.w3.org/2000/svg">
<path fill-rule="evenodd" clip-rule="evenodd" d="M18.8908 6.62663H19.1639C22.7533 6.62663 25.6663 9.62663 25.6663 13.3066V20.6666C25.6663 24.3466 22.7533 27.3333 19.1639 27.3333H6.8354C3.24608 27.3333 0.333008 24.3466 0.333008 20.6666V13.3066C0.333008 9.62663 3.24608 6.62663 6.8354 6.62663H7.1085C7.13451 5.02663 7.74574 3.53329 8.85115 2.41329C9.96956 1.27996 11.4001 0.706626 13.0127 0.666626C16.2379 0.666626 18.8518 3.33329 18.8908 6.62663ZM10.2167 3.83996C9.48839 4.58663 9.08524 5.57329 9.05923 6.62663H16.9401C16.9011 4.43996 15.1585 2.66663 13.0127 2.66663C12.0113 2.66663 10.9709 3.07996 10.2167 3.83996ZM17.9415 11.7599C18.4877 11.7599 18.9169 11.3066 18.9169 10.7599V9.21328C18.9169 8.66662 18.4877 8.21328 17.9415 8.21328C17.4083 8.21328 16.9661 8.66662 16.9661 9.21328V10.7599C16.9661 11.3066 17.4083 11.7599 17.9415 11.7599ZM8.91616 10.7599C8.91616 11.3066 8.487 11.7599 7.9408 11.7599C7.40761 11.7599 6.96544 11.3066 6.96544 10.7599V9.21328C6.96544 8.66662 7.40761 8.21328 7.9408 8.21328C8.487 8.21328 8.91616 8.66662 8.91616 9.21328V10.7599Z" fill="#E4322B"/>
</svg>
