<svg width="28" height="28" viewBox="0 0 28 28" fill="none" xmlns="http://www.w3.org/2000/svg">
<path fill-rule="evenodd" clip-rule="evenodd" d="M18.2185 6.10998C18.6386 6.11575 19.0597 6.12152 19.4823 6.12584C24.0227 6.12584 27.3332 9.36284 27.3332 13.833V19.5748C27.3332 24.0449 24.0227 27.2819 19.4823 27.2819C17.6636 27.3204 15.8448 27.3333 14.0129 27.3333C12.1811 27.3333 10.3361 27.3204 8.51734 27.2819C3.97694 27.2819 0.666504 24.0449 0.666504 19.5748V13.833C0.666504 9.36284 3.97694 6.12584 8.53042 6.12584C10.2445 6.10015 11.9979 6.07446 13.7774 6.07446V5.85609C13.7774 4.96977 13.0316 4.25044 12.1418 4.25044H10.8464C9.36785 4.25044 8.16405 3.06868 8.16405 1.63002C8.16405 1.10336 8.60893 0.666626 9.1454 0.666626C9.69496 0.666626 10.1268 1.10336 10.1268 1.63002C10.1268 2.01537 10.4539 2.32366 10.8464 2.32366H12.1418C14.1176 2.3365 15.727 3.91647 15.7401 5.84325V6.08731C16.565 6.08731 17.3898 6.09862 18.2185 6.10998ZM12.4689 17.6608H11.095V19.0224C11.095 19.5491 10.6502 19.9858 10.1137 19.9858C9.56412 19.9858 9.13232 19.5491 9.13232 19.0224V17.6608H7.74534C7.20887 17.6608 6.76399 17.237 6.76399 16.6975C6.76399 16.1708 7.20887 15.7341 7.74534 15.7341H9.13232V14.3853C9.13232 13.8587 9.56412 13.4219 10.1137 13.4219C10.6502 13.4219 11.095 13.8587 11.095 14.3853V15.7341H12.4689C13.0054 15.7341 13.4503 16.1708 13.4503 16.6975C13.4503 17.237 13.0054 17.6608 12.4689 17.6608ZM18.0299 15.49H18.1608C18.6973 15.49 19.1421 15.0661 19.1421 14.5266C19.1421 14 18.6973 13.5632 18.1608 13.5632H18.0299C17.4804 13.5632 17.0486 14 17.0486 14.5266C17.0486 15.0661 17.4804 15.49 18.0299 15.49ZM20.2674 19.9088H20.3983C20.9347 19.9088 21.3796 19.4849 21.3796 18.9454C21.3796 18.4187 20.9347 17.982 20.3983 17.982H20.2674C19.7165 17.982 19.2861 18.4187 19.2861 18.9454C19.2861 19.4849 19.7165 19.9088 20.2674 19.9088Z" fill="#E4322B"/>
</svg>
