<svg width="28" height="28" viewBox="0 0 28 28" fill="none" xmlns="http://www.w3.org/2000/svg">
<path fill-rule="evenodd" clip-rule="evenodd" d="M14.4355 0.946176C14.6484 0.755056 14.9301 0.654875 15.2184 0.667726C21.3128 0.850166 26.4062 5.27436 27.3293 11.1875C27.3351 11.2228 27.3351 11.2588 27.3293 11.2941C27.3491 11.5739 27.2546 11.8499 27.0665 12.0611C26.8784 12.2723 26.6123 12.4013 26.3271 12.4195L16.0877 13.0948C15.7491 13.1248 15.4133 13.0134 15.1628 12.7879C14.9122 12.5624 14.7702 12.2437 14.7716 11.9101L14.0834 1.85238V1.68653C14.0959 1.40366 14.2226 1.1373 14.4355 0.946176ZM13.7332 15.7247L22.6081 15.1561L22.6684 15.1798C23.0495 15.186 23.4125 15.3405 23.6775 15.6094C23.9424 15.8782 24.0876 16.2393 24.0812 16.6132C23.7315 21.7093 19.9952 25.9673 14.9107 27.0643C9.82616 28.1612 4.61389 25.8339 2.11737 21.3518C1.38328 20.0609 0.919396 18.6391 0.752931 17.17C0.688367 16.7346 0.660099 16.2949 0.668408 15.855C0.685235 10.436 4.54336 5.75871 9.94175 4.61263C10.5953 4.49031 11.2505 4.8166 11.5356 5.40635C11.6066 5.51336 11.6634 5.62881 11.7046 5.7499C11.8058 7.312 11.9108 8.85931 12.0153 10.4001C12.0979 11.6169 12.1802 12.8297 12.2601 14.0425C12.256 14.3282 12.3009 14.6125 12.3929 14.8836C12.6096 15.4169 13.1488 15.7553 13.7332 15.7247Z" fill="#E4322B"/>
</svg>
