<svg width="168" height="168" viewBox="0 0 168 168" fill="none" xmlns="http://www.w3.org/2000/svg">
<path fill-rule="evenodd" clip-rule="evenodd" d="M0.666992 84.0482C0.666992 38.0521 38.0705 0.666626 84.0003 0.666626C129.93 0.666626 167.334 38.0521 167.334 84.0482C167.334 129.948 129.93 167.333 84.0003 167.333C38.0705 167.333 0.666992 129.948 0.666992 84.0482ZM114.567 92.482C115.451 91.5976 116.577 90.2309 116.819 89.9092C118.106 88.2209 118.749 86.1305 118.749 84.0482C118.749 81.7086 118.025 79.5378 116.658 77.769C116.546 77.657 116.326 77.4182 116.041 77.107C115.505 76.5246 114.737 75.6886 114.003 74.9551C107.408 67.88 90.194 56.3026 81.185 52.765C79.8175 52.2103 76.3587 50.9963 74.5086 50.9159C72.739 50.9159 71.0498 51.3178 69.4411 52.1218C67.4301 53.2474 65.8214 55.0162 64.9366 57.1066C64.3735 58.5537 63.4887 62.8953 63.4887 62.9757C62.6039 67.7192 62.1213 75.4375 62.1213 83.9597C62.1213 92.0881 62.6039 99.4767 63.3278 104.301C63.3477 104.321 63.4169 104.666 63.5244 105.202C63.8512 106.831 64.532 110.225 65.2583 111.617C67.0279 114.994 70.4868 117.084 74.1869 117.084H74.5086C76.9218 117.004 81.9893 114.913 81.9893 114.833C90.5157 111.295 107.327 100.281 114.084 92.9644L114.567 92.482Z" fill="white"/>
</svg>
