<svg width="79" height="79" viewBox="0 0 79 79" fill="none" xmlns="http://www.w3.org/2000/svg">
<path d="M57.2077 60.75C58.147 60.75 59.0478 60.3769 59.712 59.7127C60.3762 59.0485 60.7494 58.1477 60.7494 57.2084V21.7917C60.7494 20.8524 60.3762 19.9515 59.712 19.2874C59.0478 18.6232 58.147 18.25 57.2077 18.25C56.2684 18.25 55.3675 18.6232 54.7034 19.2874C54.0392 19.9515 53.666 20.8524 53.666 21.7917V57.2084C53.666 58.1477 54.0392 59.0485 54.7034 59.7127C55.3675 60.3769 56.2684 60.75 57.2077 60.75ZM60.7494 14.7084H64.291V18.25C64.291 19.1893 64.6642 20.0902 65.3284 20.7544C65.9926 21.4186 66.8934 21.7917 67.8327 21.7917C68.772 21.7917 69.6728 21.4186 70.337 20.7544C71.0012 20.0902 71.3744 19.1893 71.3744 18.25V14.7084H74.916C75.8553 14.7084 76.7562 14.3352 77.4204 13.671C78.0846 13.0068 78.4577 12.106 78.4577 11.1667C78.4577 10.2274 78.0846 9.32655 77.4204 8.66236C76.7562 7.99817 75.8553 7.62503 74.916 7.62503H71.3744V4.08336C71.3744 3.14405 71.0012 2.24322 70.337 1.57903C69.6728 0.914834 68.772 0.541696 67.8327 0.541696C66.8934 0.541696 65.9926 0.914834 65.3284 1.57903C64.6642 2.24322 64.291 3.14405 64.291 4.08336V7.62503H60.7494C59.8101 7.62503 58.9092 7.99817 58.245 8.66236C57.5808 9.32655 57.2077 10.2274 57.2077 11.1667C57.2077 12.106 57.5808 13.0068 58.245 13.671C58.9092 14.3352 59.8101 14.7084 60.7494 14.7084ZM73.4994 28.875C73.0435 28.968 72.6105 29.1498 72.2249 29.4101C71.8394 29.6705 71.5089 30.0042 71.2523 30.3923C70.9958 30.7804 70.8182 31.2152 70.7298 31.672C70.6413 32.1287 70.6437 32.5984 70.7369 33.0542C72.1197 39.7699 71.3001 46.7525 68.3998 52.9655C65.4995 59.1785 60.673 64.2907 54.6369 67.5432C48.6008 70.7957 41.6768 72.0151 34.8927 71.0204C28.1087 70.0257 21.8261 66.87 16.9778 62.0216C12.1294 57.1732 8.97369 50.8907 7.979 44.1067C6.98432 37.3226 8.20373 30.3986 11.4562 24.3625C14.7087 18.3264 19.8209 13.4999 26.0338 10.5996C32.2468 7.69931 39.2295 6.87972 45.9452 8.26253C46.8845 8.45039 47.86 8.25742 48.657 7.72607C49.454 7.19471 50.0073 6.3685 50.1952 5.4292C50.3831 4.48989 50.1901 3.51442 49.6587 2.71739C49.1274 1.92036 48.3012 1.36706 47.3619 1.1792C44.77 0.696294 42.1352 0.482658 39.4994 0.541696C31.7941 0.541696 24.2619 2.82656 17.8553 7.10736C11.4486 11.3882 6.45522 17.4726 3.50656 24.5913C0.557896 31.71 -0.213609 39.5432 1.28961 47.1004C2.79282 54.6576 6.50324 61.5993 11.9517 67.0477C17.4001 72.4962 24.3418 76.2066 31.899 77.7098C39.4561 79.213 47.2894 78.4415 54.4081 75.4928C61.5268 72.5442 67.6112 67.5508 71.892 61.1441C76.1728 54.7375 78.4577 47.2053 78.4577 39.5C78.4652 36.883 78.2041 34.2721 77.6785 31.7084C77.5937 31.2462 77.4177 30.8055 77.1609 30.4119C76.904 30.0184 76.5714 29.6799 76.1825 29.4162C75.7935 29.1525 75.356 28.9689 74.8953 28.876C74.4347 28.783 73.9601 28.7827 73.4994 28.875ZM32.416 43.0417H35.9577C38.7756 43.0417 41.4781 41.9223 43.4707 39.9297C45.4633 37.9371 46.5827 35.2346 46.5827 32.4167V28.875C46.5827 26.0571 45.4633 23.3546 43.4707 21.362C41.4781 19.3694 38.7756 18.25 35.9577 18.25H32.416C29.5981 18.25 26.8956 19.3694 24.903 21.362C22.9104 23.3546 21.791 26.0571 21.791 28.875C21.791 29.8143 22.1642 30.7152 22.8284 31.3794C23.4926 32.0436 24.3934 32.4167 25.3327 32.4167C26.272 32.4167 27.1728 32.0436 27.837 31.3794C28.5012 30.7152 28.8744 29.8143 28.8744 28.875C28.8744 27.9357 29.2475 27.0349 29.9117 26.3707C30.5759 25.7065 31.4767 25.3334 32.416 25.3334H35.9577C36.897 25.3334 37.7978 25.7065 38.462 26.3707C39.1262 27.0349 39.4994 27.9357 39.4994 28.875V32.4167C39.4994 33.356 39.1262 34.2568 38.462 34.921C37.7978 35.5852 36.897 35.9584 35.9577 35.9584H32.416C29.5981 35.9584 26.8956 37.0778 24.903 39.0704C22.9104 41.0629 21.791 43.7654 21.791 46.5834V57.2084C21.791 58.1477 22.1642 59.0485 22.8284 59.7127C23.4926 60.3769 24.3934 60.75 25.3327 60.75H43.041C43.9803 60.75 44.8812 60.3769 45.5454 59.7127C46.2096 59.0485 46.5827 58.1477 46.5827 57.2084C46.5827 56.2691 46.2096 55.3682 45.5454 54.704C44.8812 54.0398 43.9803 53.6667 43.041 53.6667H28.8744V46.5834C28.8744 45.6441 29.2475 44.7432 29.9117 44.079C30.5759 43.4148 31.4767 43.0417 32.416 43.0417Z" fill="white"/>
</svg>
