<svg xmlns="http://www.w3.org/2000/svg" viewBox="0 0 553.171 100"><path fill="#9b9b9b" d="M48.781 0C21.952 0 0 21.952 0 48.781v45.365C0 97.561 2.439 100 5.854 100h262.925c3.416 0 5.856-2.439 5.856-5.854V5.854c0-3.415-2.44-5.854-5.856-5.854H48.781zm235.61 0c-3.415 0-5.854 2.439-5.854 5.854v88.292c0 3.415 2.439 5.854 5.854 5.854h220c26.83 0 48.78-21.952 48.78-48.781V5.854c0-3.415-2.438-5.854-5.855-5.854H284.391zM48.78 2.44h220c1.951 0 3.416 1.462 3.416 3.414v88.292c0 1.952-1.465 3.415-3.416 3.415H5.854c-1.952 0-3.415-1.463-3.415-3.415V48.781C2.44 22.928 23.416 2.44 48.781 2.44zm271.707 11.218c2.44 0 4.878 0 7.317.488s4.39 1.464 6.341 2.44c1.952.976 3.414 2.44 4.877 4.39 1.464 1.464 2.44 3.415 2.928 5.854.488 1.951.975 3.902.975 5.854 0 .488-.487.486-.487.486h-14.146c-.488 0-.488-.486-.488-.486 0-.976-.488-1.952-1.463-2.44-.488-.488-.976-.976-1.951-.976h-2.44c-.488 0-.975.488-1.951.488l-1.463 1.463c-.488.975-.488 1.952-.488 2.927.488.976.975 1.952 1.951 2.44l2.926 1.463c.975.488 1.952.976 3.416.976.975.488 1.95.487 3.414.975.975.488 1.95.975 3.414 1.463 3.902 1.951 7.318 4.39 9.27 8.293 2.438 3.415 3.414 7.317 3.414 11.707 0 4.39-.976 8.78-3.415 12.195-2.439 3.415-5.367 6.342-9.27 8.293-1.462.976-3.413 1.463-4.876 1.463-1.463.488-3.416.488-4.879.488-1.951 0-4.39-.487-6.342-.974-1.951-.488-3.902-1.464-5.853-2.928-3.415-1.951-5.854-4.878-7.805-8.293-1.951-3.415-2.438-6.828-2.926-10.73 0-.488.487-.489.487-.489h14.146c.488 0 .488.489.488.489 0 1.463.489 2.926.977 3.414l1.951 1.95c.976.976 2.439.975 3.414.975 1.463 0 2.44.001 3.903-.974.975-.488 1.463-.975 1.95-1.463.488-.488.975-.977.975-1.465.488-.488.489-.975.489-1.463V60c0-.488-.001-.975-.489-1.463-.488-.488-.487-.975-.974-1.463-.488-.488-.976-.977-1.951-1.465-.488-.487-1.464-.486-1.952-.974-.975-.488-1.464-.489-2.44-.977-1.463-.487-2.925-.975-4.876-1.463-1.464-.488-3.416-1.464-4.879-2.44-1.951-1.462-3.902-2.925-5.365-4.876-1.464-1.951-2.44-4.39-3.416-6.342-.488-2.439-.974-4.88-.487-7.318 0-2.44.976-4.878 1.952-7.317.975-1.95 2.439-3.901 4.39-5.365 1.464-1.463 3.414-2.928 5.365-3.416 1.952-.976 4.391-1.463 6.342-1.463zm-193.658 2.44c-.488 0-.488 0-.488.488l-22.928 66.342c0 .487 0 .974.488.974h15.123c.488 0 .487 0 .487-.488l2.44-7.316c0-.488.487-.489.487-.489h20.489c.487 0 .486 0 .486.489l2.44 7.316c0 .488.488.488.488.488h15.12c.489 0 .977-.487.49-.974l-20.49-66.342c-.487-.488-.486-.488-.974-.488H126.83zm50.242 0c-.488 0-.486.488-.486.488l-4.39 66.342c0 .487.488.974.488.974h14.146c.488 0 .486-.488.486-.488l1.465-24.877c0-.976.975-.976 1.463 0l8.78 24.877c0 .488.488.488.488.488h14.634c.488 0 .489 0 .489-.488l8.293-23.902c.488-.488 1.463-.488 1.463 0l1.463 23.416c0 .487.488.486.488.486h14.146c.488 0 .489-.487.489-.975l-2.928-65.853c0-.488-.488-.488-.488-.488h-15.122c-.487 0-.488 0-.488.488l-13.658 40c0 .488-.975.488-1.463 0l-14.146-40c0-.488-.489-.488-.489-.488h-15.123zm180.977 0h40c.488 0 .488.488.488.488v14.633c0 .487-.488.488-.488.488h-12.684v51.22c0 .488-.488.487-.488.487H370.73c-.487 0-.486-.486-.486-.486V31.707H358.05c-.488 0-.488-.488-.488-.488V16.586c0-.488.488-.488.488-.488zm81.463 0c4.878 0 9.27.976 13.172 2.44 3.902 1.95 7.803 4.389 10.73 7.316 2.927 2.926 5.367 6.83 7.318 10.732 1.952 3.902 2.438 8.292 2.438 13.17.488 4.878-.486 9.27-2.438 13.172-1.95 3.902-4.391 7.803-7.318 10.73-2.927 2.927-6.828 5.367-10.73 7.319-3.903 1.95-8.294 2.437-13.172 2.437s-9.268-.974-13.17-2.437c-3.903-1.952-7.806-4.392-10.733-7.319-2.926-2.927-5.365-6.828-7.316-10.73-1.951-3.903-2.44-8.294-2.44-13.172s.977-9.268 2.44-13.17c1.951-3.903 4.39-7.806 7.316-10.732 2.927-2.927 6.83-5.366 10.733-7.317 3.902-1.951 8.292-2.44 13.17-2.44zm49.756 0h15.123c3.901 0 7.316.976 10.73 2.44 3.414 1.463 6.343 3.414 8.781 6.34 2.439 2.44 4.39 5.366 5.854 8.78 1.465 3.415 1.951 6.83 1.951 10.733-.488 3.902-.974 7.804-2.44 11.218-1.463 3.415-3.414 6.343-5.853 8.782-2.438 2.439-5.365 4.39-8.78 6.341-3.413 1.464-6.83 2.438-10.243 2.438-.489 0-.489.488-.489.488v9.27c0 .487-.488.486-.488.486h-14.146c-.488 0-.487-.486-.487-.486V16.586c0-.488.487-.488.487-.488zm-422.926.488c-4.39 0-8.781.976-12.684 2.44-4.39 1.463-7.804 4.389-11.219 7.316-3.414 2.927-5.855 6.34-7.318 10.73-1.463 4.39-2.437 8.293-2.437 12.684 0 4.39.974 8.781 2.437 12.683 1.463 4.39 3.904 7.804 7.318 11.22 3.415 3.414 7.317 5.854 11.22 7.318 4.39 1.463 8.293 2.437 12.683 2.437 1.951 0 3.414.002 5.365-.486 1.463 0 2.927-.489 4.39-.977.488 0 .975 0 .975.488s.489.489.489.489h14.146c.488 0 .488-.489.488-.489V46.342c.976 0 .488-.488 0-.488H64.391c-.488 0-.489.488-.489.488v14.146c0 .488.489.489.489.489h12.195c.488 0 .486.486.486.486v2.44s.002.488-.486.488c-1.463.975-3.416 1.951-5.367 2.44-1.951 1.462-3.903 1.462-5.854 1.462s-4.388-.487-6.34-1.463c-1.95-.976-3.903-1.951-5.367-3.902-1.951-1.951-2.927-3.903-3.902-5.854-.976-2.439-1.463-4.39-1.463-6.83 0-2.439.487-4.879 1.463-6.83.975-2.439 2.439-4.39 3.902-5.853 1.951-1.952 3.902-2.927 5.854-3.903 2.439-.975 4.39-1.463 6.83-1.463 2.439 0 4.877.488 6.828 1.463 1.951.976 3.904 1.95 5.367 3.414.488.488.487.488.975 0L89.756 26.83c.488-.488.488-.489 0-.976-3.415-2.927-6.828-5.365-10.73-6.829-4.39-1.463-8.294-2.44-12.684-2.44zm373.172 15.121c-2.44 0-4.88.487-7.319 1.463-2.439.976-4.39 2.439-5.853 3.902-1.464 1.464-2.927 3.417-3.903 5.856-.975 2.439-1.462 4.39-1.462 7.316 0 2.44.487 4.878 1.462 7.317.976 2.439 2.44 4.39 3.903 5.853 1.463 1.464 3.414 2.927 5.853 3.902 2.44.976 4.392 1.465 7.319 1.465 2.439 0 4.877-.489 7.316-1.465 2.44-.975 4.39-2.438 5.854-3.902 1.463-1.463 2.926-3.414 3.902-5.853.976-2.44 1.465-4.39 1.465-7.317 0-2.439-.49-4.877-1.465-7.316-.976-2.44-2.439-4.392-3.902-5.856-1.952-1.463-3.903-2.926-5.854-3.902-2.439-.976-4.39-1.463-7.316-1.463zm64.877 0c-.488 0-.977.488-.977.488v24.39c0 .489.489.977.977.49 1.463 0 2.926-.49 3.902-.977 1.463-.488 2.927-1.465 3.902-2.928.976-.976 1.952-2.439 2.44-3.902.488-1.464.974-3.414.974-4.877 0-1.952-.486-3.416-.974-4.88-.488-1.463-1.464-2.926-2.44-3.902-.975-.975-2.439-1.95-3.902-2.925-1.463-.488-2.439-.977-3.902-.977zM133.719 45c.305 0 .672.121.916.365l4.39 13.658c-.487.488-.488.977-.976.977h-9.268c-.488 0-.976-.489-.488-.977l4.877-13.658c0-.244.244-.365.549-.365z"/></svg>