<svg width="28" height="27" viewBox="0 0 28 27" fill="none" xmlns="http://www.w3.org/2000/svg">
<path d="M14.0001 0.29834C6.63619 0.29834 0.666748 6.26779 0.666748 13.6317C0.666748 20.9956 6.63619 26.965 14.0001 26.965C21.364 26.965 27.3334 20.9956 27.3334 13.6317C27.3334 6.26779 21.364 0.29834 14.0001 0.29834ZM14.9126 16.7914C14.057 16.7261 13.6987 16.3025 13.0292 15.897C12.6612 17.8289 12.2112 19.6817 10.8779 20.6497C10.4654 17.7275 11.4806 15.5358 11.9529 13.2067C11.1487 11.8525 12.0487 9.1289 13.7459 9.79834C15.8334 10.6261 11.9376 14.8331 14.5529 15.3595C17.2834 15.9067 18.3987 10.6206 16.7056 8.9039C14.2584 6.42195 9.5848 8.84695 10.1598 12.3997C10.2987 13.2678 11.1973 13.5317 10.5181 14.7303C8.95286 14.3831 8.4848 13.1483 8.54592 11.5025C8.64175 8.80806 10.9668 6.92056 13.2973 6.66084C16.2459 6.33306 19.0126 7.74278 19.3959 10.5178C19.8251 13.6483 18.064 17.0358 14.9126 16.7914Z" fill="white"/>
</svg>
