<svg width="28" height="27" viewBox="0 0 28 27" fill="none" xmlns="http://www.w3.org/2000/svg">
<path d="M14 0.29834C6.63686 0.29834 0.666626 6.26858 0.666626 13.6317C0.666626 20.9948 6.63686 26.965 14 26.965C21.3631 26.965 27.3333 20.9948 27.3333 13.6317C27.3333 6.26858 21.3631 0.29834 14 0.29834ZM20.4077 10.3489C20.4166 10.4888 20.4166 10.6347 20.4166 10.7775C20.4166 15.1466 17.0892 20.1793 11.0089 20.1793C9.13389 20.1793 7.39579 19.6347 5.93151 18.6972C6.19936 18.7269 6.45532 18.7388 6.72913 18.7388C8.27675 18.7388 9.69936 18.215 10.8333 17.3281C9.38091 17.2983 8.16067 16.346 7.74401 15.0364C8.25294 15.1108 8.71127 15.1108 9.23508 14.9769C8.48724 14.825 7.81506 14.4188 7.33275 13.8275C6.85043 13.2361 6.58772 12.496 6.58925 11.7329V11.6912C7.02675 11.9382 7.54163 12.09 8.08032 12.1108C7.62747 11.809 7.25608 11.4002 6.9991 10.9205C6.74212 10.4407 6.60747 9.90504 6.6071 9.36084C6.6071 8.74477 6.76782 8.18227 7.05651 7.69417C7.88657 8.71601 8.92237 9.55174 10.0966 10.147C11.2708 10.7424 12.5571 11.0839 13.872 11.1495C13.4047 8.90251 15.0833 7.08405 17.1012 7.08405C18.0535 7.08405 18.9107 7.48286 19.5148 8.12572C20.2619 7.98584 20.9762 7.70608 21.6131 7.33108C21.366 8.09596 20.8482 8.74179 20.1607 9.14953C20.8273 9.0781 21.4702 8.89358 22.0654 8.63465C21.616 9.29536 21.0535 9.88167 20.4077 10.3489Z" fill="white"/>
</svg>
