<svg width="28" height="27" viewBox="0 0 28 27" fill="none" xmlns="http://www.w3.org/2000/svg">
<path d="M16.2265 13.3997L13.107 11.9442C12.8348 11.8178 12.6112 11.9595 12.6112 12.2608V15.0025C12.6112 15.3039 12.8348 15.4456 13.107 15.3192L16.2251 13.8636C16.4987 13.7358 16.4987 13.5275 16.2265 13.3997ZM14.0001 0.29834C6.63619 0.29834 0.666748 6.26779 0.666748 13.6317C0.666748 20.9956 6.63619 26.965 14.0001 26.965C21.364 26.965 27.3334 20.9956 27.3334 13.6317C27.3334 6.26779 21.364 0.29834 14.0001 0.29834ZM14.0001 19.0483C7.17508 19.0483 7.05564 18.4331 7.05564 13.6317C7.05564 8.83029 7.17508 8.21501 14.0001 8.21501C20.8251 8.21501 20.9445 8.83029 20.9445 13.6317C20.9445 18.4331 20.8251 19.0483 14.0001 19.0483Z" fill="white"/>
</svg>
