<svg width="217" height="288" viewBox="0 0 217 288" fill="none" xmlns="http://www.w3.org/2000/svg">
<path fill-rule="evenodd" clip-rule="evenodd" d="M186.721 90.0485C184.691 88.8405 183.105 87.0055 182.206 84.8175C181.558 82.8049 182.121 80.5888 182.654 78.4884C183.022 77.0371 183.377 75.6412 183.308 74.4054C183.191 72.2896 182.045 71.3116 180.801 70.2498C180.266 69.7937 179.714 69.3221 179.217 68.7383C177.563 66.7955 178.936 64.1914 182.607 65.6274C184.348 66.4854 185.758 67.8922 186.62 69.6316C187.482 71.3706 187.748 73.3447 187.377 75.2499C187.377 75.2499 187.518 80.1123 190.681 73.9569C191.38 72.596 191.91 71.4326 192.351 70.4635C193.905 67.0502 194.36 66.0514 197.265 67.3396C198.764 67.9772 198.164 70.2477 198.164 70.2477C198.164 70.2477 202.022 69.0756 201.437 72.374C201.437 72.374 205.842 73.0026 205.001 76.1814C205.001 76.1814 208.679 75.74 206.919 81.7421C205.333 87.1537 203.695 88.7415 199.421 92.8849C199.384 92.9203 199.348 92.9554 199.311 92.991L200.403 103.322L190.306 108.623L186.721 90.0485Z" fill="#FCCAB1"/>
<path d="M68.3573 284.104C68.3573 284.104 36.439 324.423 68.3573 398.004C100.276 471.586 176.704 569.294 176.704 569.294L185.422 556.608C185.422 556.608 120.847 443.676 119.786 358.654L113.836 292.684L68.3573 284.104Z" fill="#1C1414"/>
<path d="M90.405 113.413C90.405 113.413 130.995 162.452 158.577 177.999C175.321 187.225 182.701 145.06 187.59 118.349L188.651 101.557L200.92 98.7432C200.92 98.7432 216.325 204.848 168.633 209.692C144.602 212.137 136.345 196.59 136.345 196.59L90.405 113.413Z" fill="#808080"/>
<path d="M39.6218 129.098C62.9609 117.057 66.1896 118.764 88.6524 112.675L114.713 152.256L111.807 217.211L54.8429 199.311L24.6772 141.738L39.6218 129.098Z" fill="#E0E0E0"/>
<path d="M50.5072 126.607L47.832 108.154L73.385 108.477L77.9974 117.242C77.9974 117.242 66.7431 133.435 50.5072 126.607Z" fill="#FCCAB1"/>
<path d="M82.934 114.613L78.5982 108.616L68.6351 120.149L73.5706 129.098L82.934 114.613Z" fill="#EAEAEA"/>
<path d="M68.6351 120.148L68.7275 127.253L72.233 126.745L68.6351 120.148Z" fill="#CECECE"/>
<path d="M68.7264 127.253L63.9756 122.225L64.898 130.528L68.7264 127.253Z" fill="#CECECE"/>
<path d="M45.203 121.44C45.203 121.717 63.9758 122.225 63.9758 122.225L65.5901 132.051L45.3875 129.421L45.203 121.44Z" fill="#EAEAEA"/>
<path d="M84.871 113.413C84.871 113.413 118.819 176.568 111.808 217.119C111.808 218.226 110.47 236.402 109.132 257.854C107.61 281.473 105.95 308.599 105.95 308.599L143.588 298.266C143.588 298.266 143.034 217.211 129.981 174.262C122.647 151.381 110.003 130.561 93.0812 113.505C91.7895 112.938 90.3963 112.637 88.9854 112.621C87.5746 112.605 86.1751 112.874 84.871 113.413Z" fill="#808080"/>
<path d="M111.808 217.211C111.808 217.211 120.249 201.341 119.188 191.93L114.252 187.871V168.449L87.7307 112.675L84.871 113.505C84.871 113.505 117.896 189.808 111.808 217.211Z" fill="#666666"/>
<path d="M106.364 304.909C106.364 304.909 106.364 304.586 106.594 303.986C106.825 303.387 107.009 302.602 107.332 301.541C107.932 299.373 108.808 296.236 109.685 292.315C111.942 282.101 113.483 271.742 114.297 261.314C115.169 250.891 115.169 240.413 114.297 229.99C113.972 226.893 113.495 223.814 112.867 220.763C112.867 220.21 112.637 219.748 112.544 219.287C112.452 218.826 112.544 218.549 112.314 218.226C112.083 217.903 112.314 217.35 112.314 217.35C112.314 217.35 112.314 217.626 112.683 218.18L113.006 219.241C113.006 219.656 113.236 220.118 113.375 220.671C114.161 223.705 114.746 226.787 115.127 229.898C116.272 240.332 116.411 250.853 115.543 261.314C114.82 271.783 113.278 282.179 110.93 292.407C109.961 296.328 108.993 299.465 108.255 301.634C107.886 302.695 107.563 303.525 107.332 304.079C107.102 304.632 106.41 304.909 106.364 304.909Z" fill="#666666"/>
<path d="M120.156 230.498C120.156 230.877 120.005 231.241 119.737 231.509C119.469 231.777 119.105 231.928 118.726 231.928C118.385 231.867 118.076 231.688 117.854 231.422C117.632 231.157 117.51 230.821 117.51 230.475C117.51 230.128 117.632 229.793 117.854 229.527C118.076 229.262 118.385 229.082 118.726 229.021C118.918 229.021 119.107 229.06 119.284 229.135C119.461 229.209 119.62 229.319 119.754 229.457C119.887 229.594 119.992 229.757 120.061 229.936C120.13 230.115 120.162 230.306 120.156 230.498Z" fill="#666666"/>
<path d="M120.71 249.827C120.71 250.11 120.626 250.387 120.469 250.622C120.312 250.857 120.088 251.04 119.827 251.148C119.566 251.257 119.278 251.285 119.001 251.23C118.723 251.175 118.469 251.038 118.269 250.838C118.069 250.638 117.932 250.384 117.877 250.106C117.822 249.829 117.85 249.541 117.959 249.28C118.067 249.019 118.25 248.795 118.485 248.638C118.72 248.481 118.997 248.397 119.28 248.397C119.659 248.397 120.023 248.548 120.291 248.816C120.559 249.084 120.71 249.448 120.71 249.827Z" fill="#666666"/>
<path d="M105.857 307.169L50.7838 298.266C58.2145 280.697 63.9897 262.472 68.0344 243.829C73.1081 220.763 14.2069 146.536 14.2069 146.536L39.4371 129.098L111.622 217.211C111.622 217.211 114.113 258.269 109.501 280.689L105.857 307.169Z" fill="#808080"/>
<path d="M35.5171 131.266L74.9077 193.361L92.02 200.28L97.0937 212.782L111.808 217.211L39.6223 129.098L35.5171 131.266Z" fill="#666666"/>
<path d="M14.3925 146.075C14.3925 146.075 -4.05744 232.943 11.4405 253.425C27.6303 275.154 82.4265 303.848 82.4265 303.848L90.406 298.451C90.406 298.451 47.4639 255.64 41.0065 233.081C37.501 220.948 48.7554 184.134 48.7554 184.134C48.7554 184.134 37.7778 139.386 14.3925 146.075Z" fill="#808080"/>
<path d="M46.7251 191.838C46.5493 191.035 46.4566 190.216 46.4484 189.393C46.4484 187.825 46.1256 185.518 45.8949 182.704C45.6196 179.43 45.0484 176.187 44.1883 173.016C43.6588 171.162 43.0117 169.344 42.251 167.573C41.462 165.641 40.5212 163.774 39.4375 161.991C37.4211 158.48 34.7974 155.356 31.6886 152.764C29.1489 150.701 26.3004 149.051 23.2477 147.874C21.1715 147.118 19.0232 146.577 16.8364 146.259C16.0104 146.228 15.1904 146.104 14.3918 145.89C15.2196 145.8 16.0547 145.8 16.8825 145.89C19.1287 146.085 21.3434 146.549 23.4784 147.274C26.6462 148.396 29.6072 150.032 32.2421 152.118C33.7686 153.366 35.188 154.739 36.4855 156.224C37.9209 157.811 39.1884 159.543 40.2677 161.391C41.3431 163.211 42.2835 165.107 43.0814 167.065C43.8359 168.886 44.4827 170.75 45.0186 172.647C45.8467 175.88 46.3566 179.187 46.5407 182.519C46.5407 185.334 46.7713 187.64 46.7713 189.209C46.8816 190.083 46.866 190.968 46.7251 191.838Z" fill="#666666"/>
<path d="M62.361 268.464C62.361 268.464 63.883 270.079 66.3276 272.616C68.7722 275.154 72.1394 278.66 75.9216 282.535C79.7039 286.41 83.117 289.916 85.4694 292.545C86.8183 293.949 88.0094 295.496 89.021 297.159C87.6052 295.885 86.2653 294.53 85.0082 293.099L75.2758 283.273C71.4936 279.398 68.1266 275.846 65.8203 273.17C64.4921 271.738 63.3315 270.159 62.361 268.464Z" fill="#666666"/>
<path d="M81.0888 304.033C79.7202 303.618 78.4045 303.045 77.1682 302.326C74.1328 300.744 71.1913 298.988 68.3584 297.067C65.5184 295.155 62.8065 293.059 60.2404 290.793C59.1128 289.897 58.0915 288.876 57.1963 287.748C58.423 288.489 59.5808 289.338 60.6556 290.285C62.6851 291.854 65.591 294.068 68.8658 296.329C72.1407 298.589 75.231 300.435 77.4911 301.772C78.767 302.396 79.9729 303.154 81.0888 304.033Z" fill="#666666"/>
<path d="M137.453 210.66C137.227 209.97 137.073 209.259 136.991 208.538C136.991 207.846 136.715 207.016 136.53 206.047C136.346 205.078 136.115 203.971 135.838 202.772C135.562 201.572 135.608 201.526 135.469 200.88C135.331 200.234 135.1 199.542 134.962 198.85L134.408 196.636C134.178 195.898 133.993 195.114 133.763 194.329L133.071 191.93C133.071 191.1 132.564 190.27 132.287 189.439C131.779 187.686 131.18 185.979 130.58 184.18C130.303 183.304 129.981 182.427 129.658 181.551L128.689 178.967C128.412 178.183 128.089 177.353 127.767 176.522L127.305 175.369C127.305 174.954 126.982 174.585 126.844 174.216C126.706 173.847 126.244 172.693 125.922 172.001C125.599 171.309 125.322 170.571 125.045 169.925C124.492 168.541 123.938 167.342 123.431 166.189L121.032 160.837C120.679 160.205 120.385 159.541 120.156 158.854C120.156 158.854 120.663 159.453 121.309 160.699C121.955 161.944 122.923 163.697 124.03 165.912C124.584 167.019 125.184 168.264 125.737 169.602C126.045 170.248 126.367 170.94 126.706 171.678L127.628 173.893C127.628 174.262 127.951 174.631 128.135 175.046C128.269 175.438 128.423 175.823 128.597 176.199L129.565 178.644L130.534 181.228C130.811 182.104 131.18 182.981 131.456 183.857C132.056 185.656 132.656 187.409 133.163 189.163C133.44 189.993 133.67 190.869 133.947 191.654C134.224 192.438 134.362 193.314 134.593 194.099C134.824 194.883 135.008 195.667 135.192 196.451C135.377 197.236 135.515 197.928 135.7 198.666L136.161 200.742C136.161 201.388 136.392 202.033 136.484 202.633C136.576 203.233 136.899 204.986 137.084 205.955C137.268 206.924 137.084 207.8 137.36 208.492C137.503 209.206 137.534 209.937 137.453 210.66Z" fill="#666666"/>
<path d="M27.6756 62.1602C26.0613 62.8521 17.2054 65.3895 21.0337 76.8303C24.862 88.2711 32.5648 85.0418 32.5648 85.0418L27.6756 62.1602Z" fill="#EAB69B"/>
<path d="M29.3822 81.1203C29.3822 81.1203 29.1515 81.1203 28.7364 81.1203C28.1662 81.0345 27.6087 80.8796 27.076 80.659C26.3046 80.272 25.6155 79.7394 25.0465 79.0905C24.7072 78.6939 24.4132 78.2606 24.1701 77.7988C23.9306 77.313 23.7451 76.8025 23.6166 76.2764C23.3366 75.2338 23.3366 74.1358 23.6166 73.0932C23.8245 72.2569 24.2012 71.4719 24.7236 70.7866C25.0747 70.3383 25.495 69.949 25.9689 69.6333C26.3379 69.6333 26.5685 69.3565 26.5685 69.6333C26.5685 69.9101 25.9689 70.2792 25.277 71.3863C24.8941 72.0474 24.6142 72.763 24.4468 73.5085C24.2617 74.4218 24.2617 75.363 24.4468 76.2764C24.5598 76.7417 24.7301 77.1911 24.9541 77.6143C25.1468 78.0203 25.3785 78.4065 25.646 78.7676C26.1306 79.3622 26.7068 79.8761 27.3527 80.29C28.552 80.6129 29.3822 80.7051 29.3822 81.1203Z" fill="#D68772"/>
<path d="M29.8435 75.4924C29.8435 75.4924 29.4285 75.2155 28.9211 74.8926C28.27 74.4559 27.487 74.2601 26.707 74.339C26.1802 74.4191 25.6855 74.6425 25.2771 74.9849C24.9632 75.2394 24.684 75.5342 24.4469 75.8615L23.9856 75.6308C24.2624 75.3078 24.4468 75.1233 24.5391 75.1695C24.6313 75.2156 24.5391 75.4924 24.5391 75.8615L24.0778 75.6308C24.2089 75.1574 24.4637 74.7275 24.8158 74.3851C25.3069 73.8671 25.9557 73.5264 26.6608 73.4163C27.2017 73.2492 27.7805 73.2492 28.3214 73.4163C28.7364 73.5852 29.113 73.8363 29.4284 74.1545C29.8435 74.9849 29.9358 75.4462 29.8435 75.4924Z" fill="#D68772"/>
<path d="M87.0846 56.3936C88.7913 56.8087 97.8779 58.1466 95.6639 70.2333C93.4499 82.3201 85.3781 79.9212 85.3781 79.9212L87.0846 56.3936Z" fill="#EAB69B"/>
<path d="M87.9611 75.1233C87.9611 75.1233 88.7453 74.7543 89.76 73.9239C90.3547 73.4344 90.8549 72.8403 91.236 72.1709C91.4665 71.794 91.6524 71.3914 91.7896 70.9714C91.9407 70.5213 92.0487 70.0579 92.1124 69.5875C92.1667 67.918 91.6274 66.2834 90.5903 64.9742C89.76 63.9593 88.9759 63.5441 89.022 63.4057C89.0681 63.2674 89.2987 63.4057 89.6677 63.4057C90.1898 63.6316 90.6607 63.9611 91.0515 64.3745C91.7543 65.047 92.2972 65.8686 92.6405 66.7787C92.9838 67.6889 93.1185 68.6644 93.0349 69.6336C92.9884 70.1864 92.8642 70.73 92.666 71.2482C92.4916 71.7356 92.2592 72.2003 91.974 72.6322C91.496 73.3552 90.8857 73.9813 90.1751 74.4775C89.6828 74.7932 89.1349 75.0123 88.5607 75.1233C88.1917 75.2156 87.9611 75.2156 87.9611 75.1233Z" fill="#D68772"/>
<path d="M86.7607 69.8641C86.7607 69.8641 86.7608 69.3567 87.1298 68.7108C87.3694 68.3262 87.7026 68.0088 88.0984 67.7882C88.6117 67.5216 89.1806 67.3794 89.7589 67.373C90.4482 67.3895 91.1129 67.6327 91.6501 68.065C92.0547 68.3604 92.3731 68.7586 92.5725 69.2183L92.1574 69.4951C92.1574 69.126 91.8806 68.8954 92.1574 68.8492C92.4341 68.8031 92.4341 68.8492 92.757 69.2183L92.2957 69.4951C92.0273 69.1909 91.7166 68.9268 91.3732 68.7108C90.9247 68.4488 90.4167 68.3059 89.8973 68.2957C89.1143 68.3136 88.3627 68.6076 87.7755 69.126C87.1297 69.5412 86.8991 69.9103 86.7607 69.8641Z" fill="#D68772"/>
<path d="M82.5175 106.309C74.1228 116.412 40.6362 111.937 35.7931 108.016C30.95 104.095 24.677 49.9352 24.677 49.9352C20.8948 21.9789 36.8539 19.1648 52.029 14.1364C67.204 9.10794 84.3163 16.9044 87.4067 39.9245C87.4067 39.9245 89.3439 98.0975 82.5175 106.309Z" fill="#FCCAB1"/>
<path d="M29.429 83.7968C52.2145 82.8741 72.3249 79.7371 87.915 72.9556C87.915 72.9556 86.6236 96.9906 86.024 99.6202C84.5941 105.479 84.2713 112.906 59.7791 112.399C35.2869 111.891 35.7019 109.954 33.3034 104.603C31.5399 97.7635 30.2454 90.8121 29.429 83.7968Z" fill="#4C3737"/>
<path d="M63.6992 73.5551C63.6992 73.5551 63.3764 74.0164 62.5461 74.7084C61.4385 75.6973 60.2506 76.5923 58.9946 77.3841C58.1408 77.9688 57.2288 78.4635 56.2732 78.8603C56.0038 78.9731 55.7263 79.0657 55.443 79.1372H55.0279H54.5205C54.3399 79.191 54.1476 79.191 53.967 79.1372C53.8389 79.1099 53.7186 79.0543 53.6148 78.9745C53.511 78.8947 53.4265 78.7926 53.3673 78.6758C53.1767 78.3529 53.066 77.9891 53.0444 77.6148C52.9766 76.9553 52.9766 76.2905 53.0444 75.6311C53.1106 74.9637 53.2185 74.3013 53.3673 73.6474C53.6441 72.3557 53.9669 70.9717 54.3359 69.5877C55.12 66.8198 55.9504 64.2363 56.7345 61.9297C56.9651 61.33 57.1496 60.7764 57.3341 60.2228V59.8077V59.1156C57.3341 59.1156 57.3341 58.8388 57.3341 58.7466C57.3341 57.6855 56.919 56.6706 56.7345 55.748C56.1662 53.8251 55.7194 51.8682 55.3968 49.8892C55.678 50.3497 55.8953 50.8463 56.0426 51.3654C56.3655 52.3803 56.8728 53.8104 57.3802 55.6096C57.3802 56.5323 57.8877 57.501 58.0721 58.6082C58.0721 58.6082 58.0721 58.885 58.0721 59.0234V59.8077V60.2228L57.5185 61.9297C56.7805 64.2825 55.9503 66.8659 55.2123 69.6338C54.8433 70.9717 54.4743 72.3095 54.1975 73.6012C53.9208 74.8929 53.967 74.8929 53.8748 75.5388C53.8308 76.1377 53.8308 76.739 53.8748 77.3379C53.8358 77.5515 53.8358 77.7703 53.8748 77.9839H54.5666H54.9356C55.2038 77.9122 55.466 77.8196 55.7197 77.707C56.6455 77.3507 57.5402 76.9187 58.3949 76.4153C59.9632 75.4926 61.2086 74.6162 62.085 74.0165C62.599 73.7883 63.1423 73.633 63.6992 73.5551Z" fill="#E2A893"/>
<path d="M62.9145 43.1538L81.5027 43.6613L81.964 39.3247L62.5454 35.957L62.9145 43.1538Z" fill="#4C3737"/>
<path d="M31.7347 47.0285C31.7347 47.0285 51.0611 45.46 51.1534 45.0448C51.2456 44.6296 50.6459 37.6636 50.6459 37.6636L31.458 43.015L31.7347 47.0285Z" fill="#4C3737"/>
<path d="M28.3667 67.2805C28.3667 67.2805 21.863 34.6187 29.1046 25.4845C29.1046 25.4845 67.4343 34.3881 73.5228 29.2212C79.6113 24.0544 79.9804 21.471 79.9804 21.471C79.9804 21.471 83.7625 35.9104 85.6536 41.4463C86.8366 46.8976 87.225 52.4915 86.8068 58.054L89.2514 56.8084C89.2514 56.8084 89.2514 18.8875 86.0227 17.3652C82.794 15.8428 67.9879 2.55666 55.0269 7.5851C42.0658 12.6135 20.0181 25.1616 20.4333 33.2809C20.8484 41.4002 26.9829 67.788 26.9829 67.788L28.3667 67.2805Z" fill="#4C3737"/>
<path d="M47.8789 10.8147C47.8789 10.8147 69.4192 -2.33306 74.6774 1.58819C76.2691 3.00592 77.4976 4.78473 78.26 6.7754C79.0225 8.76607 79.2966 10.9106 79.0593 13.0291C79.817 12.3754 80.7667 11.9859 81.7651 11.9193C82.7636 11.8527 83.7565 12.1127 84.5943 12.66C87.3618 14.5514 87.6384 23.0398 87.6384 23.0398L71.1258 18.6572L47.8789 10.8147Z" fill="#4C3737"/>
<path d="M29.1051 25.7617C29.1051 25.7617 19.88 33.3735 20.7563 38.3097L22.1402 45.2295L25.6918 40.6163C26.1564 35.5338 27.3045 30.5372 29.1051 25.7617Z" fill="#331E1E"/>
<path d="M44.4182 28.668C79.473 16.9504 68.5415 1.21924 68.5415 1.21924L61.4844 3.75653C70.7093 17.0888 33.8096 26.8227 33.8096 26.8227L44.4182 28.668Z" fill="#331E1E"/>
<path d="M62.6382 30.9284C62.6382 30.9284 79.2431 20.7793 79.0586 12.8906C79.0586 12.8906 81.0419 11.0914 82.7947 11.7834C82.7947 11.7834 84.5474 21.4251 68.4038 30.8823L62.6382 30.9284Z" fill="#331E1E"/>
<path d="M80.9954 25.4849C80.9954 25.4849 87.5914 25.4848 87.9143 27.0534L88.6063 34.2039L82.2409 30.0058L80.9954 25.4849Z" fill="#331E1E"/>
<path d="M66.3741 43.2458L64.4368 36.2798L68.8187 37.064L70.7099 43.3381L66.3741 43.2458Z" fill="#331E1E"/>
<path d="M73.8007 43.4301L72.7859 37.7559L73.8469 37.9404L75.692 43.4762L73.8007 43.4301Z" fill="#331E1E"/>
<path d="M48.9855 38.125L47.8785 45.414L44.4192 45.9214L46.0336 38.9554L48.9855 38.125Z" fill="#331E1E"/>
<path d="M40.8672 46.2441L41.7896 40.1084L40.1292 40.9849L39.4834 44.7678L38.7456 41.1233L36.5778 41.5846L37.408 46.4748L40.8672 46.2441Z" fill="#331E1E"/>
<path d="M73.5702 81.1201C73.5702 81.1201 73.0166 82.0889 71.679 83.0116C70.886 83.5639 70.0535 84.0573 69.1882 84.4877C67.0343 85.5034 64.7281 86.158 62.3618 86.4253C61.3942 86.488 60.4235 86.488 59.4559 86.4253C57.8416 86.4253 56.8268 86.0562 56.8268 85.7794C59.6197 84.9724 62.4525 84.3103 65.3138 83.7958C68.011 82.7427 70.7679 81.8492 73.5702 81.1201Z" fill="#D68772"/>
<path d="M63.8132 60.0163C63.8132 60.0163 64.7127 49.988 71.7864 49.7429C78.8601 49.4977 80.9123 57.5817 80.9123 57.5817L63.8132 60.0163Z" fill="#EFA98E"/>
<path d="M63.8132 60.0164C63.9234 58.08 64.7035 56.2422 66.0198 54.8181C67.3362 53.3939 69.1068 52.472 71.0283 52.2103C73.0777 51.8097 75.2029 52.1534 77.0216 53.1798C78.8404 54.2061 80.2335 55.8478 80.9503 57.8095C80.9503 57.8095 67.8129 59.5824 63.8132 60.0164Z" fill="#ECE9DE"/>
<path d="M68.3975 59.4376C68.3975 59.4376 67.5531 54.3821 72.0764 53.4394C76.5997 52.4966 77.581 58.3719 77.581 58.3719C74.5896 59.1805 71.4946 59.5396 68.3975 59.4376Z" fill="#70924F"/>
<path d="M80.9955 57.8019C80.9955 57.8019 80.3273 56.6027 78.8998 55.0621C78.0718 54.1485 77.0568 53.4238 75.9238 52.9375C74.5523 52.3658 73.0466 52.1952 71.582 52.4455C70.0957 52.6971 68.7013 53.3335 67.5373 54.2914C66.5835 55.0734 65.7901 56.0325 65.2008 57.1161C64.7154 58.1633 64.285 59.2353 63.9117 60.3276C63.9117 60.3276 63.8508 59.9632 63.7519 59.3711C63.8746 58.4869 64.1248 57.6251 64.4948 56.8127C65.0588 55.6065 65.8673 54.5309 66.8692 53.654C68.1045 52.5897 69.5995 51.8716 71.2022 51.5726C72.8208 51.2891 74.4873 51.5002 75.9841 52.1784C77.1944 52.7653 78.2621 53.6095 79.1121 54.6521C80.023 55.5045 80.6756 56.5961 80.9955 57.8019Z" fill="#443949"/>
<path d="M78.5659 55.5859C78.6116 55.8592 77.8377 56.2693 76.7904 56.4442C75.7431 56.6192 74.8777 56.4828 74.8776 56.2019C74.8775 55.9211 75.6365 55.7007 76.6383 55.5334C77.64 55.366 78.4823 55.3658 78.5659 55.5859Z" fill="white"/>
<path d="M34.4631 61.4401C34.4631 61.4401 35.3626 51.4119 42.4363 51.1667C49.51 50.9215 51.5622 59.0055 51.5622 59.0055L34.4631 61.4401Z" fill="#EFA98E"/>
<path d="M34.4631 61.4402C34.5733 59.5038 35.3534 57.666 36.6697 56.2419C37.9861 54.8177 39.7567 53.8958 41.6782 53.6342C43.7276 53.2335 45.8528 53.5772 47.6715 54.6036C49.4903 55.6299 50.8834 57.2716 51.6002 59.2333C51.6002 59.2333 38.4628 61.0062 34.4631 61.4402Z" fill="#ECE9DE"/>
<path d="M39.0474 60.8614C39.0474 60.8614 38.203 55.806 42.7263 54.8632C47.2496 53.9204 48.2309 59.7957 48.2309 59.7957C45.2395 60.6043 42.1445 60.9635 39.0474 60.8614Z" fill="#70924F"/>
<path d="M51.6454 59.2257C51.6454 59.2257 50.9772 58.0265 49.5497 56.4859C48.7217 55.5723 47.7067 54.8477 46.5737 54.3614C45.2022 53.7896 43.6965 53.619 42.2319 53.8693C40.7456 54.1209 39.3512 54.7573 38.1872 55.7153C37.2334 56.4972 36.44 57.4564 35.8507 58.5399C35.3653 59.5872 34.9349 60.6591 34.5616 61.7514C34.5616 61.7514 34.5007 61.387 34.4018 60.795C34.5245 59.9107 34.7747 59.0489 35.1447 58.2365C35.7087 57.0304 36.5172 55.9547 37.5191 55.0778C38.7544 54.0136 40.2494 53.2954 41.8521 52.9965C43.4707 52.7129 45.1372 52.924 46.634 53.6022C47.8443 54.1891 48.912 55.0334 49.762 56.076C50.6729 56.9284 51.3255 58.0199 51.6454 59.2257Z" fill="#443949"/>
<path d="M49.2158 57.0097C49.2615 57.283 48.4876 57.6932 47.4403 57.8681C46.393 58.043 45.5276 57.9067 45.5275 57.6258C45.5274 57.3449 46.2864 57.1245 47.2882 56.9572C48.2899 56.7899 49.1323 56.7896 49.2158 57.0097Z" fill="white"/>
</svg>
