<svg width="22" height="16" viewBox="0 0 22 16" fill="none" xmlns="http://www.w3.org/2000/svg">
<path d="M1.06008 6.06002C1.57008 6.57002 2.38008 6.62002 2.93008 6.16002C7.60008 2.32002 14.3801 2.32002 19.0601 6.15002C19.6201 6.61002 20.4401 6.57002 20.9501 6.06002C21.5401 5.47002 21.5001 4.49002 20.8501 3.96002C15.1401 -0.70998 6.88008 -0.70998 1.16008 3.96002C0.510085 4.48002 0.460084 5.46002 1.06008 6.06002ZM8.82008 13.82L10.2901 15.29C10.6801 15.68 11.3101 15.68 11.7001 15.29L13.1701 13.82C13.6401 13.35 13.5401 12.54 12.9401 12.23C12.3352 11.9194 11.665 11.7574 10.9851 11.7574C10.3051 11.7574 9.63496 11.9194 9.03008 12.23C8.46008 12.54 8.35008 13.35 8.82008 13.82ZM5.09008 10.09C5.58008 10.58 6.35008 10.63 6.92008 10.22C8.11313 9.37591 9.53862 8.92262 11.0001 8.92262C12.4615 8.92262 13.887 9.37591 15.0801 10.22C15.6501 10.62 16.4201 10.58 16.9101 10.09L16.9201 10.08C17.5201 9.48002 17.4801 8.46002 16.7901 7.97002C13.3501 5.48002 8.66008 5.48002 5.21008 7.97002C4.52008 8.47002 4.48008 9.48002 5.09008 10.09Z" fill="#E4322B"/>
</svg>
