<svg width="462" height="498" viewBox="0 0 462 498" fill="none" xmlns="http://www.w3.org/2000/svg">
<g clip-path="url(#clip0)">
<path d="M290.648 32.7725L145.324 17.7241L0 34.7429V396.756L145.324 387.795L290.648 397.73L435.789 382.567V24.3585L290.648 32.7725Z" fill="#F9F9F9"/>
<path d="M148.444 379.542L10.3672 388.044V44.6225L148.444 28.4778V379.542Z" fill="#E0E0E0"/>
<path d="M286.52 388.967L148.443 379.542V28.4778L286.52 42.7548V388.967Z" fill="#E0E0E0"/>
<path d="M424.424 374.582L286.52 388.966V42.7544L424.424 34.7722V374.582Z" fill="#E0E0E0"/>
<path opacity="0.47" d="M148.442 28.4778H145.316V379.639H148.442V28.4778Z" fill="white"/>
<g opacity="0.69">
<path opacity="0.69" d="M326.497 46.2214L362.295 73.5911L337.893 96.4541L309.137 69.7195L326.497 46.2214Z" fill="#BDBDBD"/>
<path opacity="0.69" d="M91.7793 99.9506L93.0995 69.9648L145.184 82.7917V122.05L91.7793 99.9506Z" fill="#BDBDBD"/>
<path opacity="0.69" d="M390.18 288.034L419.081 273.61L422.993 302.866L397.731 310.976L390.18 288.034Z" fill="#BDBDBD"/>
<path opacity="0.69" d="M117.861 311.314L146.882 326.23L175.811 321.451L173.197 301.684L146.882 295.601L117.861 311.314Z" fill="#BDBDBD"/>
<path opacity="0.69" d="M88.2689 100.818L10.3086 129.046V135.265L22.5795 130.991L95.4449 154.017L96.6636 148.798L30.97 128.039L87.3438 108.205L139.938 148.559L132.701 206.797L75.1839 211.546L24.6037 290.901L29.2709 294.928L78.259 218.068L137.781 213.152L146.216 145.28L88.2689 100.818Z" fill="#BDBDBD"/>
<path opacity="0.69" d="M63.6926 334.665L10.3086 280.248V273.64L67.4495 329.508L63.6926 334.665Z" fill="#BDBDBD"/>
<path opacity="0.69" d="M294.401 275.576L258.521 172.793L253.136 175.335L272.015 229.41L180.338 262.205L182.045 268.665L274.209 235.697L289.018 278.119L294.401 275.576Z" fill="#BDBDBD"/>
<path opacity="0.69" d="M371.049 255.579L353.58 277.683L319.076 198.909L314.936 201.363L350.203 281.884L350.31 281.819L336.856 298.844L341.133 303.418L375.326 260.153L371.049 255.579Z" fill="#BDBDBD"/>
<path opacity="0.69" d="M350.036 118.99L346.665 113.488C346.579 113.559 346.498 113.636 346.422 113.718C348.268 111.622 373.301 76.3749 389.679 53.1996L391.722 50.3069L424.069 90.1768V98.8311L392.123 60.3811C388.528 65.4685 380.703 76.5216 372.867 87.5391C351.165 118.057 350.565 118.554 350.036 118.99Z" fill="#BDBDBD"/>
<path opacity="0.69" d="M274.977 154.814L263.306 108.331L249.038 65.959L185.18 70.3756L184.836 63.6301L252.908 58.9221L268.846 106.291L280.555 152.919L274.977 154.814Z" fill="#BDBDBD"/>
<path d="M92.3228 100.969H86.7832L89.2039 64.167L144.797 76.9614V83.1805L93.4348 70.7049L92.3228 100.969Z" fill="#BDBDBD"/>
<path opacity="0.69" d="M337.166 100.399L334.267 96.1755L358.451 73.7046L324.941 45.6452L327.658 41.2559L366.139 73.4803L337.166 100.399Z" fill="#BDBDBD"/>
<path opacity="0.69" d="M423.95 284.524L392.397 150.49L386.805 152.326L415.897 272.306L388.684 285.885L390.517 290.855L416.667 277.807L419.798 301.24L399.439 307.776L400.674 312.987L423.95 305.516V302.793V284.524Z" fill="#BDBDBD"/>
<path opacity="0.69" d="M147.876 372.709L62.3848 333.141L64.5328 326.853L145.795 364.462L168.928 326.828L148.136 332.605L112.717 313.437L115.167 307.308L148.753 325.486L175.485 318.059C176.054 317.9 176.658 317.916 177.217 318.105C177.777 318.295 178.267 318.648 178.622 319.12C178.978 319.591 179.182 320.159 179.21 320.749C179.237 321.339 179.086 321.923 178.776 322.426L147.876 372.709Z" fill="#BDBDBD"/>
<path opacity="0.69" d="M333.581 300.145L275.405 373.396L216.298 309.473L183.013 260.597L179.369 263.955L212.766 312.993L212.875 313.154L272.25 377.368L263.735 387.139L271.12 387.916L339.53 303.57L333.581 300.145Z" fill="#BDBDBD"/>
</g>
<path d="M165.688 151.921L145.385 125.8C99.8857 107.145 50.5013 88.516 10.3086 86.2899V80.4595C51.3697 82.7254 101.742 101.433 147.749 120.317L148.379 120.575L169.565 147.84L165.688 151.921Z" fill="#BDBDBD"/>
<path d="M423.782 361.096C379.459 329.444 326.59 293.54 291.759 280.068L178.537 328.684L176.727 322.979L291.656 273.626L292.52 273.956C327.924 287.388 378.838 322.754 423.782 354.851V361.096Z" fill="#BDBDBD"/>
<path d="M200.772 131.378L165.207 30.0056L170.842 30.783L205.825 129.046L200.772 131.378Z" fill="#BDBDBD"/>
<path d="M357.486 157.819C348.495 117.236 331.177 89.2978 304.537 72.388L307.042 67.0491C321.742 76.3791 333.931 89.105 343.27 104.874C351.755 119.198 358.062 136.019 362.558 156.302L357.486 157.819Z" fill="#BDBDBD"/>
<path d="M86.0564 324.605L81.6934 321.203L133.058 229.213L137.423 232.617L86.0564 324.605Z" fill="#BDBDBD"/>
<path d="M371.909 161.276L221.008 154.277L221.215 148.2L370.98 155.145L424.658 129.435V135.654L371.909 161.276Z" fill="#BDBDBD"/>
<path d="M10.3086 359.93V353.323L146.52 292.503L173.454 295.616L172.936 301.669L147.24 298.699L10.3086 359.93Z" fill="#BDBDBD"/>
<path d="M187.983 236.208C129.121 235.483 73.9577 232.016 45.8242 197.848L49.6 193.639C76.3301 226.086 130.338 229.41 188.044 230.112L187.983 236.208Z" fill="#BDBDBD"/>
<path d="M182.818 380.142L170.514 294.88L170.7 294.184L206.14 162.75L222.025 131.467L284.885 91.9454L326.817 38.2646L330.687 42.3543L288.155 96.8044L225.788 136.015L210.95 165.24L175.877 295.31L187.974 379.135L182.818 380.142Z" fill="#BDBDBD"/>
<path d="M424.267 364.983L353.657 218.994L217.873 161.127L193.704 154.422L105.99 146.708L10.3086 228.941V221.167L104.458 140.474L105.421 140.558L194.514 148.393L219.383 155.294L219.528 155.354L357.288 214.064L357.76 215.058L425.045 356.432L424.267 364.983Z" fill="#BDBDBD"/>
<path opacity="0.69" d="M208.544 163.995C218.23 163.995 226.083 156.155 226.083 146.483C226.083 136.812 218.23 128.972 208.544 128.972C198.858 128.972 191.006 136.812 191.006 146.483C191.006 156.155 198.858 163.995 208.544 163.995Z" fill="white"/>
<path d="M208.543 159.031C215.484 159.031 221.11 153.413 221.11 146.483C221.11 139.554 215.484 133.936 208.543 133.936C201.603 133.936 195.977 139.554 195.977 146.483C195.977 153.413 201.603 159.031 208.543 159.031Z" fill="#E4322B"/>
<path fill-rule="evenodd" clip-rule="evenodd" d="M250.91 38.4192C250.91 54.6909 226.384 96.2051 213.607 116.683C212.628 118.253 210.534 119.213 206.672 119.236C206.643 119.237 206.614 119.238 206.585 119.238C206.565 119.238 206.546 119.238 206.526 119.238C205.605 119.238 204.698 119.004 203.892 118.557C203.087 118.109 202.408 117.464 201.921 116.683C189.143 96.2036 164.621 54.6932 164.621 38.4227C164.621 17.2039 183.384 0.00353804 206.527 0.00353804C206.919 0.00353804 207.31 0.00847222 207.699 0.0182764C208.132 0.00612162 208.567 0 209.004 0C232.147 0 250.91 17.2003 250.91 38.4192ZM225.636 22.1124C235.624 32.0939 235.624 48.2771 225.636 58.2586C215.647 68.2401 199.453 68.2401 189.464 58.2586C179.476 48.2771 179.476 32.0939 189.464 22.1125C199.453 12.131 215.647 12.131 225.636 22.1124Z" fill="#E4322B"/>
<path d="M345.999 325.242C345.999 325.242 334.597 378.447 331.267 401.974C327.427 428.831 321.756 491.999 321.756 491.999H326.226C326.226 491.999 348.999 442.185 352.029 410.256C354.43 385.229 370.481 360.562 370.481 360.562C370.481 360.562 400.755 457.52 399.045 491.789H404.535C404.535 491.789 413.327 474.414 411.886 437.774C410.986 414.367 406.396 406.385 405.196 390.511C403.636 367.255 400.862 344.097 396.885 321.131L391.544 313.299L345.999 325.242Z" fill="#1C1414"/>
<path d="M321.728 491.849C321.728 491.849 309.187 495.96 312.007 497.221C314.827 498.481 326.199 491.849 326.199 491.849H321.728Z" fill="#272E33"/>
<path d="M400.998 491.519C400.998 491.519 388.456 495.601 391.276 496.861C394.097 498.121 405.468 491.519 405.468 491.519H400.998Z" fill="#272E33"/>
<path d="M324.309 491.849C324.309 491.849 324.309 491.849 324.309 491.429C324.309 491.009 324.309 490.739 324.459 490.199C324.609 489.119 324.819 487.528 325.119 485.487L326.2 478.075C326.65 475.075 327.16 471.864 327.73 468.233C330.01 453.678 333.28 433.573 337.601 411.457C341.921 389.34 346.422 369.445 349.752 355.131C351.403 347.959 352.753 342.167 353.683 338.146C354.163 336.135 354.553 334.575 354.793 333.525C354.793 332.984 355.033 332.594 355.093 332.324C355.073 332.195 355.073 332.063 355.093 331.934C355.093 331.934 355.093 331.934 355.093 332.324C355.093 332.714 355.093 333.014 354.853 333.555C354.613 334.605 354.283 336.165 353.863 338.176C352.993 342.227 351.703 348.049 350.082 355.251C346.902 369.625 342.431 389.49 338.081 411.577C333.73 433.663 330.43 453.738 328.06 468.293L326.44 478.105C325.99 481.106 325.6 483.507 325.269 485.547L324.489 490.229C324.489 490.739 324.309 491.159 324.279 491.429L324.309 491.849Z" fill="#030000"/>
<path d="M401.536 491.849C401.536 491.849 401.536 491.699 401.536 491.429C401.536 491.159 401.536 490.709 401.536 490.169C401.536 489.629 401.536 488.908 401.746 488.098C401.957 487.288 401.746 487.258 401.746 486.808C401.746 486.358 401.746 485.848 401.746 485.307C401.746 484.267 401.836 483.097 402.016 481.796C402.016 480.506 402.016 479.126 402.197 477.625C402.197 477.265 402.197 476.875 402.197 476.485C402.197 476.095 402.197 475.705 402.197 475.285C402.197 474.865 402.197 473.664 402.197 472.824C402.197 471.113 402.197 469.313 402.197 467.422C402.197 466.972 402.197 466.492 402.197 466.012C402.197 465.532 402.197 465.022 402.197 464.542V461.541C402.197 460.49 402.197 459.47 402.047 458.54C401.897 457.61 402.047 456.379 401.867 455.269C401.686 453.048 401.566 450.768 401.326 448.397C401.326 447.227 401.116 446.026 400.996 444.826C400.876 443.626 400.726 442.395 400.606 441.135C400.036 436.184 399.346 430.992 398.536 425.621C397.726 420.249 396.796 414.668 395.776 408.996C393.766 397.653 391.695 386.85 389.955 377.007C389.085 372.085 388.305 367.374 387.585 362.993C386.865 358.612 386.295 354.5 385.815 350.749C385.575 348.859 385.335 347.088 385.155 345.378C384.975 343.667 384.764 342.107 384.644 340.607C384.524 339.106 384.344 337.606 384.254 336.435C384.164 335.265 384.044 333.975 383.984 332.924C383.984 332.384 383.984 331.904 383.984 331.424C383.984 330.944 383.984 330.524 383.984 330.104C383.984 329.683 383.984 328.603 383.984 328.063C383.984 327.523 383.984 327.073 383.984 326.803V326.353C383.984 326.353 383.984 326.353 383.984 326.803C383.984 327.253 383.984 327.493 383.984 328.063C383.984 328.633 383.984 329.293 384.164 330.104C384.345 330.914 384.164 330.944 384.164 331.424C384.164 331.904 384.164 332.384 384.314 332.894C384.314 333.945 384.495 335.115 384.615 336.405C384.735 337.696 384.915 339.076 385.065 340.577C385.215 342.077 385.425 343.577 385.635 345.348C385.845 347.118 386.085 348.829 386.325 350.689C386.835 354.44 387.465 358.522 388.185 362.903C388.905 367.284 389.685 371.905 390.585 376.887C392.355 386.73 394.456 397.533 396.586 408.906C397.576 414.577 398.506 420.129 399.316 425.531C400.126 430.932 400.816 436.124 401.356 441.075C401.356 442.335 401.626 443.566 401.746 444.766C401.866 445.966 401.956 447.167 402.076 448.367C402.286 450.708 402.407 453.018 402.587 455.239C402.587 456.349 402.587 457.43 402.737 458.51C402.887 459.59 402.737 460.64 402.737 461.661C402.737 462.681 402.737 463.701 402.737 464.662C402.737 465.172 402.737 465.652 402.737 466.132V467.572C402.737 469.463 402.737 471.263 402.737 472.974C402.737 473.844 402.737 474.654 402.737 475.465C402.737 476.275 402.737 476.245 402.737 476.635C402.737 477.025 402.737 477.415 402.737 477.775C402.737 479.306 402.587 480.776 402.497 481.976C402.407 483.177 402.287 484.437 402.197 485.488C402.197 485.998 402.197 486.508 402.197 486.958C402.197 487.408 402.197 487.888 402.197 488.278C402.197 488.668 401.986 489.779 401.926 490.319C401.866 490.859 401.927 491.309 401.777 491.579L401.536 491.849Z" fill="#030000"/>
<path d="M408.318 222.253C393.136 214.421 391.066 215.531 376.424 211.57L359.502 237.317L361.362 279.569L398.416 267.956L418.069 230.475L408.318 222.253Z" fill="#E0E0E0"/>
<path d="M401.208 220.633L402.919 208.629L386.327 208.839L383.326 214.541C383.326 214.541 390.677 225.074 401.208 220.633Z" fill="#FCCAB1"/>
<path d="M380.174 212.83L382.994 208.929L389.445 216.431L386.265 222.253L380.174 212.83Z" fill="#EAEAEA"/>
<path d="M389.448 216.432L389.388 221.083L387.107 220.723L389.448 216.432Z" fill="#CECECE"/>
<path d="M389.385 221.083L392.475 217.782L391.875 223.183L389.385 221.083Z" fill="#CECECE"/>
<path d="M404.717 217.302C404.717 217.452 392.476 217.782 392.476 217.782L391.426 224.174L404.567 222.463L404.717 217.302Z" fill="#EAEAEA"/>
<path d="M378.884 212.11C378.884 212.11 356.831 253.222 361.362 279.569C361.362 280.289 362.232 292.113 363.132 306.067C364.092 321.431 365.172 339.076 365.172 339.076L340.689 332.324C340.689 332.324 341.049 279.599 349.691 251.691C354.457 236.797 362.682 223.243 373.693 212.14C374.513 211.791 375.395 211.609 376.286 211.604C377.177 211.599 378.06 211.771 378.884 212.11Z" fill="#808080"/>
<path d="M361.363 279.569C361.363 279.569 355.872 269.246 356.562 263.125L359.802 260.484V247.88L376.994 211.57L378.854 212.11C378.854 212.11 357.402 261.744 361.363 279.569Z" fill="#666666"/>
<path d="M364.994 336.615L364.754 336.075C364.604 335.715 364.394 335.175 364.154 334.485C363.48 332.515 362.909 330.512 362.444 328.483C360.892 321.835 359.889 315.07 359.444 308.257C358.87 301.443 358.951 294.59 359.684 287.791C359.932 285.768 360.312 283.763 360.824 281.79C360.824 281.46 361.004 281.13 361.064 280.86C361.124 280.589 361.244 280.379 361.304 280.169C361.345 279.979 361.416 279.797 361.514 279.629C361.534 279.829 361.534 280.03 361.514 280.229C361.514 280.409 361.514 280.649 361.334 280.92C361.154 281.19 361.334 281.49 361.154 281.85C360.73 283.831 360.419 285.835 360.224 287.851C359.626 294.62 359.626 301.428 360.224 308.197C360.736 314.983 361.739 321.722 363.224 328.363C363.764 330.914 364.334 332.954 364.754 334.365C364.934 335.055 365.114 335.595 365.234 335.985C365.19 336.207 365.109 336.42 364.994 336.615Z" fill="#666666"/>
<path d="M355.99 288.212C355.99 288.396 356.045 288.576 356.147 288.729C356.249 288.882 356.394 289.001 356.564 289.071C356.734 289.142 356.921 289.16 357.102 289.124C357.282 289.088 357.448 289 357.578 288.87C357.708 288.74 357.797 288.574 357.833 288.393C357.868 288.213 357.85 288.026 357.78 287.856C357.709 287.686 357.59 287.541 357.437 287.438C357.284 287.336 357.104 287.282 356.92 287.282C356.674 287.282 356.437 287.38 356.263 287.554C356.088 287.729 355.99 287.965 355.99 288.212Z" fill="#666666"/>
<path d="M355.572 300.785C355.572 300.91 355.597 301.033 355.646 301.148C355.694 301.263 355.766 301.367 355.855 301.454C355.945 301.541 356.051 301.609 356.167 301.653C356.284 301.698 356.408 301.72 356.532 301.715C356.779 301.715 357.016 301.617 357.19 301.443C357.365 301.269 357.463 301.032 357.463 300.785C357.463 300.539 357.365 300.302 357.19 300.127C357.016 299.953 356.779 299.855 356.532 299.855C356.408 299.851 356.284 299.872 356.167 299.917C356.051 299.962 355.945 300.03 355.855 300.117C355.766 300.203 355.694 300.307 355.646 300.422C355.597 300.537 355.572 300.66 355.572 300.785Z" fill="#666666"/>
<path d="M364.992 338.086L400.997 332.294C396.147 320.872 392.389 309.016 389.775 296.884C386.445 282.03 424.759 233.596 424.759 233.596L408.347 222.253L361.392 279.569C361.392 279.569 359.802 306.277 362.772 320.891L364.992 338.086Z" fill="#808080"/>
<path d="M410.987 223.664L385.394 264.055L374.233 268.556L370.932 276.689L361.361 279.569L408.317 222.253L410.987 223.664Z" fill="#666666"/>
<path d="M258.419 174.9C258.419 174.9 233.457 152.693 231.026 152.844C228.596 152.994 240.507 163.166 240.507 163.166L239.217 165.567C239.217 165.567 236.217 169.738 238.857 171.989C241.497 174.24 245.938 177.3 247.858 176.91C249.528 176.752 251.213 176.987 252.776 177.597C254.339 178.206 255.737 179.174 256.859 180.421L258.419 174.9Z" fill="#FCCAB1"/>
<path d="M361.272 239.328C367.842 228.015 371.801 224.399 376.211 212.065L256.98 170.519L252.869 179.521C252.869 179.521 300.875 206.949 315.486 214.571C331.988 223.213 361.272 239.328 361.272 239.328Z" fill="#808080"/>
<path d="M385.725 174.18C384.615 174.18 378.615 173.91 378.525 181.772C378.435 189.634 383.865 189.274 383.865 189.274L385.725 174.18Z" fill="#EAB69B"/>
<path d="M382.784 186.033C382.784 186.033 382.634 186.033 382.394 186.033C382.041 185.895 381.724 185.679 381.464 185.403C381.061 185.013 380.744 184.543 380.534 184.022C380.413 183.712 380.322 183.39 380.264 183.062C380.219 182.704 380.219 182.341 380.264 181.982C380.334 181.281 380.582 180.61 380.984 180.031C381.304 179.576 381.699 179.18 382.154 178.861C382.474 178.668 382.817 178.517 383.174 178.411C383.444 178.411 383.595 178.411 383.595 178.411C383.595 178.411 383.084 178.651 382.424 179.221C382.036 179.546 381.701 179.931 381.434 180.361C381.125 180.874 380.931 181.447 380.864 182.042C380.834 182.351 380.834 182.663 380.864 182.972C380.907 183.256 380.967 183.536 381.044 183.812C381.208 184.281 381.451 184.718 381.764 185.103C382.304 185.763 382.994 185.943 382.784 186.033Z" fill="#D68772"/>
<path d="M384.194 182.762C384.194 182.762 384.014 182.522 383.774 182.192C383.479 181.778 383.041 181.489 382.544 181.381C382.208 181.304 381.86 181.304 381.524 181.381C381.279 181.471 381.047 181.592 380.834 181.742L380.594 181.501C380.834 181.501 380.984 181.291 381.044 181.501C381.104 181.712 381.044 181.712 380.834 181.922L380.594 181.682C380.769 181.407 381.019 181.189 381.314 181.051C381.72 180.841 382.183 180.768 382.634 180.841C382.997 180.92 383.337 181.085 383.624 181.321C383.842 181.523 384.016 181.769 384.134 182.042C384.344 182.492 384.284 182.762 384.194 182.762Z" fill="#D68772"/>
<path d="M423.47 183.302C424.43 183.902 429.741 186.663 425.84 193.505C421.94 200.347 417.439 197.256 417.439 197.256L423.47 183.302Z" fill="#EAB69B"/>
<path d="M419.986 195.006C419.986 195.006 420.556 195.006 421.367 194.645C421.839 194.476 422.276 194.222 422.657 193.895C422.879 193.708 423.08 193.496 423.257 193.265C423.451 193.017 423.613 192.745 423.737 192.455C423.973 191.906 424.085 191.312 424.067 190.714C424.075 190.214 423.994 189.716 423.827 189.244C423.527 188.434 423.137 188.014 423.197 187.954C423.257 187.894 423.377 187.954 423.557 188.164C423.831 188.42 424.055 188.725 424.217 189.064C424.466 189.57 424.609 190.121 424.637 190.684C424.676 191.373 424.552 192.062 424.277 192.695C424.14 193.028 423.958 193.341 423.737 193.625C423.52 193.878 423.279 194.109 423.017 194.315C422.57 194.66 422.06 194.914 421.516 195.066C421.14 195.138 420.753 195.138 420.376 195.066C420.136 195.096 419.986 195.036 419.986 195.006Z" fill="#D68772"/>
<path d="M420.408 191.524C420.408 191.524 420.408 191.164 420.858 190.864C421.101 190.696 421.377 190.583 421.668 190.534C422.019 190.417 422.398 190.417 422.748 190.534C423.182 190.673 423.554 190.96 423.799 191.344C423.98 191.622 424.083 191.943 424.099 192.275H423.769C423.769 192.005 423.769 191.824 423.769 191.794C423.769 191.764 423.949 191.794 424.069 192.155H423.739C423.628 191.917 423.487 191.695 423.319 191.494C423.1 191.232 422.823 191.027 422.508 190.894C422.033 190.722 421.513 190.722 421.038 190.894C420.678 191.404 420.468 191.584 420.408 191.524Z" fill="#D68772"/>
<path d="M409.995 213.011C402.674 217.422 382.992 207.519 380.922 204.008C378.852 200.497 386.502 165.957 386.502 165.957C390.133 147.952 400.514 149.633 410.925 149.783C421.336 149.933 430.188 158.395 427.157 173.189C427.157 173.249 415.996 209.41 409.995 213.011Z" fill="#FCCAB1"/>
<path d="M382.183 187.833C396.405 192.125 409.426 194.495 420.437 193.655C420.437 193.655 414.437 208.149 413.597 209.62C411.466 212.92 409.666 217.422 394.754 211.9C379.843 206.379 380.473 205.238 380.143 201.457C380.514 196.875 381.196 192.323 382.183 187.833Z" fill="#4C3737"/>
<path d="M391.695 195.096C392.642 196.368 393.854 197.419 395.248 198.176C396.642 198.933 398.184 199.376 399.766 199.477C401.373 199.546 402.977 199.274 404.471 198.679C405.965 198.085 407.317 197.18 408.437 196.026" fill="#ECE9DE"/>
<path d="M405.439 188.764C405.16 188.977 404.845 189.14 404.509 189.244C403.604 189.58 402.683 189.871 401.749 190.114C401.089 190.28 400.417 190.39 399.738 190.444H398.868H398.568C398.449 190.462 398.328 190.462 398.208 190.444C398.073 190.352 397.977 190.213 397.938 190.054C397.877 189.808 397.877 189.55 397.938 189.304C398.055 188.888 398.216 188.485 398.418 188.104C398.605 187.711 398.816 187.33 399.048 186.963C399.499 186.213 399.979 185.433 400.519 184.683C401.569 183.152 402.649 181.682 403.519 180.481L404.239 179.551L404.389 179.311V179.131C404.389 179.131 404.389 178.951 404.389 178.861C404.389 178.201 404.569 177.541 404.659 176.94C404.73 175.624 404.87 174.311 405.079 173.009C405.113 173.369 405.113 173.73 405.079 174.09C405.079 174.75 405.079 175.74 405.079 177.09C405.048 177.754 404.977 178.415 404.869 179.071C404.869 179.071 404.869 179.251 404.869 179.371V179.521V179.671V179.821L404.719 180.031L403.999 180.992C403.069 182.282 401.989 183.692 400.999 185.193C400.459 185.973 399.979 186.723 399.529 187.443C399.078 188.164 399.078 188.194 398.898 188.554C398.711 188.897 398.56 189.259 398.448 189.634C398.424 189.783 398.424 189.935 398.448 190.084H398.628H398.898H399.678C400.325 190.069 400.968 189.989 401.599 189.844C402.769 189.604 403.699 189.334 404.359 189.154C405.019 188.974 405.439 188.764 405.439 188.764Z" fill="#E2A893"/>
<path d="M411.438 170.009L422.749 174.27L423.949 171.719L412.758 165.507L411.438 170.009Z" fill="#4C3737"/>
<path d="M409.275 179.761C409.275 179.761 412.546 174.089 416.806 175.89C421.067 177.69 419.987 183.152 419.987 183.152L409.275 179.761Z" fill="#EFA98E"/>
<path d="M409.275 179.761C409.872 178.651 410.835 177.782 412 177.3C413.164 176.819 414.46 176.755 415.666 177.12C416.976 177.455 418.126 178.239 418.916 179.336C419.706 180.434 420.085 181.774 419.987 183.122C419.987 183.122 411.736 180.691 409.275 179.761Z" fill="#ECE9DE"/>
<path d="M409.695 179.761C409.695 179.761 410.715 176.58 413.656 177.24C416.596 177.901 415.456 181.652 415.456 181.652C413.451 181.316 411.509 180.678 409.695 179.761Z" fill="#70924F"/>
<path d="M419.987 183.242C419.987 183.242 419.987 182.342 419.507 181.021C419.255 180.27 418.857 179.577 418.336 178.981C417.678 178.26 416.823 177.749 415.876 177.51C414.941 177.27 413.961 177.27 413.026 177.51C412.242 177.711 411.508 178.068 410.866 178.561C409.786 179.371 409.305 180.151 409.215 180.091C409.125 180.031 409.215 179.851 409.485 179.521C409.788 179.019 410.173 178.573 410.626 178.2C411.278 177.633 412.046 177.213 412.876 176.97C413.917 176.684 415.015 176.684 416.056 176.97C417.095 177.267 418.031 177.849 418.757 178.651C419.31 179.326 419.709 180.115 419.927 180.961C420.158 181.701 420.179 182.491 419.987 183.242Z" fill="#443949"/>
<path d="M416.84 180.451C416.84 180.601 416.239 180.631 415.579 180.451C414.919 180.271 414.439 179.971 414.499 179.791C414.559 179.611 415.099 179.791 415.729 179.791C416.359 179.791 416.87 180.271 416.84 180.451Z" fill="white"/>
<path d="M390.379 174.33C390.379 174.33 393.619 168.628 397.91 170.428C402.2 172.229 401.09 177.691 401.09 177.691L390.379 174.33Z" fill="#EFA98E"/>
<path d="M390.379 174.33C390.967 173.21 391.927 172.33 393.093 171.843C394.26 171.355 395.56 171.29 396.77 171.659C398.079 171.993 399.23 172.778 400.02 173.875C400.809 174.972 401.188 176.312 401.09 177.66C401.09 177.66 392.809 175.17 390.379 174.33Z" fill="#ECE9DE"/>
<path d="M390.674 174.539C390.674 174.539 391.694 171.359 394.634 172.019C397.575 172.679 396.435 176.43 396.435 176.43C394.43 176.094 392.488 175.457 390.674 174.539Z" fill="#70924F"/>
<path d="M400.996 177.691C400.996 177.691 400.996 176.79 400.516 175.47C400.266 174.712 399.856 174.016 399.316 173.429C398.669 172.71 397.823 172.198 396.886 171.959C395.906 171.675 394.865 171.675 393.885 171.959C393.104 172.151 392.369 172.498 391.725 172.979C390.615 173.789 390.165 174.57 390.075 174.51C389.985 174.45 390.075 174.3 390.345 173.939C390.654 173.461 391.028 173.027 391.455 172.649C392.116 172.078 392.895 171.658 393.735 171.419C394.717 171.146 395.754 171.146 396.735 171.419C397.677 171.679 398.533 172.187 399.213 172.888C399.893 173.59 400.374 174.46 400.606 175.41C400.957 176.116 401.092 176.909 400.996 177.691Z" fill="#443949"/>
<path d="M397.816 174.9C397.816 175.05 397.216 175.11 396.556 174.9C395.896 174.69 395.416 174.39 395.476 174.24C395.536 174.09 396.076 174.24 396.706 174.24C397.336 174.24 397.996 174.72 397.816 174.9Z" fill="white"/>
<path d="M391.426 165.747C391.426 165.747 403.667 168.748 403.817 168.748C403.967 168.748 405.077 164.067 405.077 164.067L392.116 163.257L391.426 165.747Z" fill="#4C3737"/>
<path d="M385.036 177.54C385.036 177.54 388.037 156.084 394.427 152.033C394.427 152.033 416.06 165.687 420.891 163.796C425.721 161.906 426.531 160.405 426.531 160.405C426.531 160.405 425.751 170.098 425.751 173.909C425.325 177.503 424.364 181.013 422.901 184.322L424.671 184.082C424.671 184.082 432.652 160.766 431.092 159.175C429.531 157.585 423.201 146.241 414.17 146.541C405.139 146.842 388.877 149.902 387.407 154.944C385.936 159.985 384.076 177.57 384.076 177.57L385.036 177.54Z" fill="#4C3737"/>
<path d="M409.1 146.932C409.1 146.932 425.151 143.421 427.582 146.932C428.256 148.147 428.627 149.508 428.664 150.897C428.7 152.287 428.401 153.665 427.792 154.914C428.402 154.692 429.065 154.662 429.693 154.829C430.32 154.995 430.882 155.349 431.302 155.844C432.592 157.615 430.942 162.896 430.942 162.896L421.731 156.685L409.1 146.932Z" fill="#4C3737"/>
<path d="M394.425 152.033C394.425 152.033 387.014 154.674 386.594 158.035L385.994 162.596L389.175 160.436C390.539 157.411 392.305 154.585 394.425 152.033Z" fill="#331E1E"/>
<path d="M403.157 157.165C427.159 157.465 423.829 145.461 423.829 145.461H418.998C421.699 155.604 397.006 153.594 397.006 153.594L403.157 157.165Z" fill="#331E1E"/>
<path d="M413.867 162.416C413.867 162.416 426.228 159.745 427.789 154.854C427.789 154.854 429.409 154.164 430.369 154.854C430.369 154.854 429.379 161.126 417.408 163.496L413.867 162.416Z" fill="#331E1E"/>
<path d="M426.321 163.016C426.321 163.016 430.401 164.367 430.251 165.447L429.141 169.978L426.141 166.047L426.321 163.016Z" fill="#331E1E"/>
<path d="M413.537 170.789L413.837 166.107L416.357 167.518L416.177 171.809L413.537 170.789Z" fill="#331E1E"/>
<path d="M418.07 172.499L418.67 168.778L419.27 169.138L419.21 172.949L418.07 172.499Z" fill="#331E1E"/>
<path d="M403.937 163.946L401.716 168.178L399.496 167.758L401.957 163.826L403.937 163.946Z" fill="#331E1E"/>
<path d="M397.247 167.218L399.107 163.647L397.877 163.827L396.707 165.987L397.007 163.617L395.597 163.406L395.057 166.617L397.247 167.218Z" fill="#331E1E"/>
<path d="M424.66 233.574C424.66 233.574 451.556 279.975 443.341 297.65C436.725 311.843 387.416 316.271 387.416 316.271L386.875 307.147C386.875 307.147 425.492 298.912 426.633 287.416C427.675 276.685 408.084 254.821 408.084 254.821C410.791 244.43 417.564 238.726 424.66 233.574Z" fill="#808080"/>
<path d="M374.002 314.481L386.08 315.714L386.62 320.175L373.665 318.309L374.002 314.481Z" fill="#666666"/>
<path d="M387.069 308.793C384.529 309.812 382.08 311.042 379.747 312.472C379.087 313.339 377.845 314.856 377.845 314.856L384.574 315.527L387.376 313.631L387.069 308.793Z" fill="#FCCAB1"/>
<path d="M420.909 237.721C420.298 238.705 419.63 239.652 418.907 240.556C417.65 242.247 415.956 244.641 414.134 247.32C412.312 250 410.721 252.523 409.592 254.266C409.023 255.27 408.389 256.235 407.693 257.154C407.781 256.85 407.911 256.561 408.078 256.295C408.335 255.775 408.746 255.02 409.284 254.084C410.337 252.237 411.85 249.713 413.698 247.008C415.546 244.302 417.291 241.987 418.625 240.322C419.292 239.49 419.857 238.839 420.242 238.397C420.627 237.955 420.883 237.695 420.909 237.721Z" fill="#666666"/>
</g>
<defs>
<clipPath id="clip0">
<rect width="461.999" height="497.38" fill="white"/>
</clipPath>
</defs>
</svg>
